<svg id="details" xmlns="http://www.w3.org/2000/svg" viewBox="0 0 1466 1080"><defs><style>.cls-1{fill:none;stroke-width:6px;stroke-dasharray:8 6;}.cls-1,.cls-3{stroke:#fc7a00;stroke-linejoin:round;}.cls-2{fill:#fc7a00;opacity:0.2;isolation:isolate;}.cls-3,.cls-5{fill:#fff;}.cls-3{stroke-width:4px;}.cls-4{fill:#a36a2a;}.cls-5{font-size:25.56px;font-family:OpenSans-ExtraBold, Open Sans;font-weight:800;}</style></defs><title>malaysia map</title><polyline id="highway-line" class="cls-1" points="634.83 182.24 634.83 210.41 636.35 221.83 629.5 241.62 640.16 259.9 648.53 287.31 637.88 310.14 637.11 316.24 634.07 324.61 631.78 334.51 636.35 339.08 647.01 364.96 653.1 369.53 656.91 378.67 663.76 378.67 665.28 386.28 669.09 390.09 666.81 399.22 670.61 411.4 679.75 415.21 699.54 415.21 709.44 425.87 715.53 423.58 729.24 438.81 730.76 450.23 741.42 470.03 745.22 485.25 752.08 497.44 754.36 519.51 763.5 535.5 771.87 544.64 781.01 562.91 781.01 578.9 785.58 600.22 787.86 610.11 804.61 635.24 822.5 676.73 856.76 721.65 867.42 726.98 882.65 743.73 924.52 752.1 932.13 762.76 956.5 769.62 961.83 773.42 971.72 773.42 983.14 784.84 988.47 784.84 1010.55 799.31 1021.21 811.49 1046.34 829"/><g id="marker-padang"><circle class="cls-2" cx="838" cy="255" r="40"/><circle class="cls-3" cx="838" cy="255" r="8.66"/></g><g id="marker-bukit"><circle class="cls-2" cx="636" cy="182" r="40"/><circle class="cls-3" cx="636" cy="182" r="8.66"/></g><g id="marker-padang-2" data-name="marker-padang"><circle class="cls-2" cx="608" cy="157" r="40"/><circle class="cls-3" cx="608" cy="157" r="8.66"/></g><g id="rantau-text"><rect class="cls-4" x="889" y="233.55" width="263" height="43.88"/><text class="cls-5" transform="translate(900.2 264.67)">RANTAU PANJANG</text></g><g id="bukit-text"><rect class="cls-4" x="685" y="160.55" width="279" height="43.88"/><text class="cls-5" transform="translate(699.17 191.67)">BUKIT KAYU HITAM</text></g><g id="padang-text"><rect class="cls-4" x="327" y="135.55" width="229" height="43.88"/><text class="cls-5" transform="translate(341.14 166.67)">PADANG BESAR</text></g></svg>