<svg id="details" xmlns="http://www.w3.org/2000/svg" viewBox="0 0 1466 1080"><defs><style>.cls-1{fill:#fc7a00;}.cls-2{fill:#a36a2a;}.cls-3{font-size:25.56px;fill:#fff;font-family:OpenSans-ExtraBold, Open Sans;font-weight:800;}</style></defs><title>malaysia map</title><g id="arrows"><rect class="cls-1" x="475.94" y="489.51" width="4" height="6" transform="matrix(0.82, -0.58, 0.58, 0.82, -196.78, 367.06)"/><path class="cls-1" d="M486.49,490.12,483,485.23l6.91-4.9,3.47,4.9Zm12.1-8.57-3.47-4.89,6.91-4.9,3.47,4.89ZM510.68,473l-3.47-4.9,6.92-4.89,3.47,4.89Zm12.1-8.57-3.47-4.9,6.91-4.9,3.47,4.9Zm12.1-8.58-3.47-4.89,6.91-4.9,3.47,4.89Z"/><rect class="cls-1" x="544.87" y="440.66" width="4" height="6" transform="matrix(0.82, -0.58, 0.58, 0.82, -155.84, 397.92)"/><polygon class="cls-1" points="548.88 451.98 539.41 439.08 557.85 435.47 548.88 451.98"/><rect class="cls-1" x="542.94" y="572.51" width="4" height="6" transform="matrix(0.82, -0.58, 0.58, 0.82, -232.44, 421.08)"/><path class="cls-1" d="M553.49,573.12,550,568.23l6.91-4.9,3.47,4.9Zm12.1-8.57-3.47-4.89,6.91-4.9,3.47,4.89ZM577.68,556l-3.47-4.9,6.92-4.89,3.47,4.89Zm12.1-8.57-3.47-4.9,6.91-4.9,3.47,4.9Zm12.1-8.58-3.47-4.89,6.91-4.9,3.47,4.89Z"/><rect class="cls-1" x="611.87" y="523.66" width="4" height="6" transform="matrix(0.82, -0.58, 0.58, 0.82, -191.5, 451.95)"/><polygon class="cls-1" points="615.88 534.98 606.41 522.08 624.85 518.47 615.88 534.98"/><rect class="cls-1" x="711.94" y="781.51" width="4" height="6" transform="matrix(0.82, -0.58, 0.58, 0.82, -322.18, 557.29)"/><path class="cls-1" d="M722.49,782.12,719,777.23l6.91-4.9,3.47,4.9Zm12.1-8.57-3.47-4.89,6.91-4.9,3.47,4.89ZM746.68,765l-3.47-4.9,6.92-4.89,3.47,4.89Zm12.1-8.57-3.47-4.9,6.91-4.9,3.47,4.9Zm12.1-8.58-3.47-4.89,6.91-4.9,3.47,4.89Z"/><rect class="cls-1" x="780.87" y="732.66" width="4" height="6" transform="matrix(0.82, -0.58, 0.58, 0.82, -281.24, 588.15)"/><polygon class="cls-1" points="784.88 743.98 775.41 731.08 793.85 727.47 784.88 743.98"/><rect class="cls-1" x="796.94" y="875.51" width="4" height="6" transform="matrix(0.82, -0.58, 0.58, 0.82, -360.88, 623.75)"/><path class="cls-1" d="M807.49,876.12,804,871.23l6.91-4.9,3.47,4.9Zm12.1-8.57-3.47-4.89,6.91-4.9,3.47,4.89ZM831.68,859l-3.47-4.9,6.92-4.89,3.47,4.89Zm12.1-8.57-3.47-4.9,6.91-4.9,3.47,4.9Zm12.1-8.58-3.47-4.89,6.91-4.9,3.47,4.89Z"/><rect class="cls-1" x="865.87" y="826.66" width="4" height="6" transform="matrix(0.82, -0.58, 0.58, 0.82, -319.94, 654.61)"/><polygon class="cls-1" points="869.88 837.98 860.41 825.08 878.85 821.47 869.88 837.98"/></g><g id="malacca-text"><rect class="cls-2" x="525" y="641.55" width="269" height="43.88"/><text class="cls-3" transform="translate(539.75 672.67)">MALACCA STRAITS</text></g></svg>