<svg xmlns="http://www.w3.org/2000/svg" viewBox="0 0 1466 1080"><defs><style>.cls-1{isolation:isolate;}.cls-2{opacity:0.8;mix-blend-mode:multiply;}.cls-3{fill:#609e00;}.cls-4{fill:#a36a2a;}.cls-5{font-size:25.56px;fill:#fff;font-family:OpenSans-ExtraBold, Open Sans;font-weight:800;}</style></defs><title>malaysia map</title><g class="cls-1"><g id="details"><g id="forest-fill" class="cls-2"><path class="cls-3" d="M868,398.69l8.78-5.86,1.47-4.39,4.88,2.93s2,4.88,2,5.85,3.9,5.86,3.9,5.86h2.93L888,406s-3.9,2-3.9,2.93v2.93c0,1-3.9,3.9-3.9,3.9h-3.9s-3.91-2.93-3.91-3.9a3.39,3.39,0,0,0-1-1.95V402.1Z"/><path class="cls-3" d="M881.66,420.15l6.83-3.9,2-6.83s3.91,1.95,3.91,2.93v5.85s2.92,0,0,2.93a16.85,16.85,0,0,1-5.86,3.9s-2,1-2.92,0S881.66,420.15,881.66,420.15Z"/><path class="cls-3" d="M895.32,384.05v4.88a4.71,4.71,0,0,1,3.91,0,18,18,0,0,1,3.9,2.93s-1,3.9,0,5.85-2,3.9,0,4.88,5.85,4.88,5.85,4.88l-2.92,3.9s3.9,3.9,2.92,4.88-1,5.85,0,8.78a4.9,4.9,0,0,1-1,4.88L904.1,427a3.47,3.47,0,0,1-2,2.93c-1.95,1-3.9,3.9-4.88,2.93s0-1-1.95-1-6.83,1.95-7.8,2.93l-1.95,1.95,6.83,8.78a10.13,10.13,0,0,1,1,3.9c0,2-1,2.93-1,4.88s4.87,3.91,4.87,3.91l4.88,2s2.93,3.9,3.91,2.92,2-1,2.92-2.92,0-11.71,0-11.71,3.91,5.85,4.88,5.85,5.86,5.86,5.86,5.86,1.95,5.85,1.95,7.8,1,5.86,0,5.86a61.94,61.94,0,0,0-6.83,1.95H902.15s1-4.88,2-5.86-5.85-4.87-5.85-4.87l-1,2.92h-3.9l-1,3.91s-2.93,4.87-3.91,3.9-5.85-1-6.83-2.93,0-1.95-1.95-1.95a34.32,34.32,0,0,0-5.85,1s-5.86,1.95-2.93,1,1,6.83,2,7.81,2,1,1,3.9,1,2.93-1,2.93a19.81,19.81,0,0,1-4.88-1l-4.88,1.95-2.92,1.95-3.91-6.83s6.83,0,7.81-1.95,1.95-3.9,1-4.88-4.88-1.95-4.88-1.95-7.81-2-3.91-1,5.86,0,5.86-5.86-1.95-6.83,0-7.8-1-2.93,2-1,1,3.9,3.9,1.95,2,1,2.93-1.95-1.95-1.95,2.93-4.88,6.83-2.92,5.85-2.92,1-1-1-2l-3.91-1.95H868a14.13,14.13,0,0,1,2-2.92c1-1,3.91,0,2.93-4.88l-1-4.88-3.91-2-2-2.93,2-2.93v-3.9l-3.9-6.83-2.93,1s-6.83,5.86-5.85,4.88,4.88-5.85,3.9-7.8-2.93-2.93-2-4.88-1.95-1,1-4.88,2.92-2,2.92-3.9,1-1.95-1-2.93,0,1-2-1-2.93,1-2.93-2,1-6.83,0-6.83-1-2.92-2-1.95,0,0-2.93,1.95-5.85-1.95-5.85-1.95c-3.91,3.9-2.93,3.9-3.91,5.86s-1,1.95-4.88,2.92-4.87,3.91-6.83,2.93,1-1.95-3.9-1-2.93,1-6.83,2.93-2,1.95-3.9,1.95,0,1-3.91,0,1-1-4.87,0-2.93-1.95-5.86,0-1,1-2.93,1.95a3.91,3.91,0,0,0-1.95,3.91c0,1,0,4.88-1,6.83s-1,3.9-2.93,2.92-2.93-2-2.93-2.92-4.88-2.93-3.9-1-2,6.83-2,6.83l-2.93-1s-2,0-2-3.91v-5.85c0-3.9,2-2.93,0-3.9s-2-4.88-2.93-3.91-8.78,1.95-8.78,1.95a1.35,1.35,0,0,1,0-1.95,14.37,14.37,0,0,1,2.93-1.95l1-4.88,1-6.83v-3.9l-4.88-4.88,2.93-1.95-2.93-4.88a14.37,14.37,0,0,1,2-2.93c1-1,0-7.8,0-7.8l5.86-1s1.95,1.95,2.92,0a58.18,58.18,0,0,1,3.91-5.85c-1-3.9-2-8.78-2-8.78l2.92-4.88s1-2.93,0-2.93-3.9,1.95-4.88,0a7.28,7.28,0,0,0-2.92-2.93s5.85-2.92,6.83-2.92h1l-2.92-10.74s-2-2-3.91,1a11.61,11.61,0,0,1-3.9,3.9l-2.93-2.92s-2.92-6.83-4.88-2.93a24.13,24.13,0,0,1-3.9,5.85,18.07,18.07,0,0,0-3.9-2.92c-2-1,0-1-2-1s-2.93-2.93-2.93-2.93l-1-4.88-1-4.87c-1-3.91-1-5.86-2-6.83s-3.91-4.88-3.91-4.88-1-2.93-2.92,0-8.78,8.78-8.78,8.78l-4.88-4.88c-1-1,0-2.93-3.91-2.93s-10.73,1-9.75,1.95,1,3.91,2,3.91-2,2.92-2,2.92l-1.95,2.93c-2,2.93-3.91,2.93-2,5.86s1,4.87,2.93,4.87,4.88,1,5.86,1,7.8,1.95,3.9,1-1.95-6.83-1.95-6.83,1.95-2,2.92-1,2.93-1,2.93,1.95-1,5.86,0,6.83,4.88,7.81,4.88,5.86-2-8.79-2-9.76,0-3.9,2-4.88,0-2.93,1.95-1l2,2,3.91-2.93s2,2.93,2,4.88v12.68c0,1.95-1,2.93-1,3.9s1.95-1.95-1,2-7.81,5.85-6.83,6.83a4.81,4.81,0,0,1,1,2.92s-2.93,3.91-3.9,4.88-1,2.93-2.93,3.9-4.88,0-3.9,2,7.8,2,7.8,2c3.91-2,2-1,4.88-4.88s2.93-4.88,3.91-5.86,6.83-1.95,6.83-1.95v3.91l-4.88,2.92s-2.93,1-1,2.93,1,3.9,2.93,5.85a7.6,7.6,0,0,0,4.88,2l1,5.85-4.88,1-1,4.87-4.88,3.91c2.93,2,4.88,2.92,6.83,2.92h12.68s-2.92-5.85-2.92-6.83-2.93-9.75-2-9.75,6.83-2.93,6.83-1,1,10.73,1,10.73-1,6.83,0,7.81,1.95,3.9,0,5.85-5.85,3.91-4.88,3.91,3.91,6.83,2.93,7.8-6.83-5.85-6.83-5.85l-6.83,3.9-2.93,9.76s-2.92,2.93-1.95,3.9,5.86,2.93,4.88,3.9-3.9,0-3.9,0l3.9,6.83s4.88-1,4.88,1,2,4.88,0,5.85a18.31,18.31,0,0,0-3.9,2.93l1,4.88a6,6,0,0,0,2,3.9,17.12,17.12,0,0,1,2.93,3.91v4.88s-2.93,3.9-2.93,4.87,1,9.76,1,9.76,1,3.9-1,2.93a27,27,0,0,1-4.88-3.9s-3.9,1.95-2.92,2.92,1.95,0,1.95,4.88-1.95,7.81-1,8.78,4.88,1.95,5.86,1,6.83-3.9,6.83-3.9,4.88-1,2.92-2a7.22,7.22,0,0,1-2.92-2.92s3.9-6.83,4.88-9.76,3.9-5.85,3.9-6.83,1-11.71,1-11.71l3.91-3.9a38.82,38.82,0,0,1,2.92-3.9,7.4,7.4,0,0,0,2-3.91c0-1-2-13.66-2-13.66s2-4.88,2.93-2.93,4.88,2.93,3.9,4.88-1,19.52-1,19.52l-2.93,4.88-3.9,3.9-3.9,5.85,1.95,3.91-3.91,2.92,3.91,3.91s4.88-1,4.88,0,1,2.92,2,2.92,4.88-2.92,4.88-2.92a58.23,58.23,0,0,0,3.9,5.85c1,1,4.88,2.93,5.85,2.93s2,2,1,2.93L786,481.62l-1,3.91s-2,4.87-1,4.87,1,2,1.95,2-1.95,4.87-1.95,4.87-2.93,7.81-2,8.79,3.9,2.92,2.93,4.87-2,2.93-1,3.91a37.79,37.79,0,0,1,2.93,3.9h4.88L787,523.58l6.83,5.85,1,2.93L789,529.43,786,536.26s2,2,2.93,2h2.93l4.87,7.81h3.91l-1,7.81a38.93,38.93,0,0,0,2.93,3.9c1,1,2,4.88,2,4.88l3.9-2s-1,2.92,0,4.87,0,1,1.95,3.91l2,2.92a26.18,26.18,0,0,0,3.9,4.88c1,1-1.95,3.91,1,0s3.91-4.88,4.88-4.88,0,2.93,0,2.93l-1,3.9,1,4.88v8.78a38.93,38.93,0,0,0,2,5.86,32,32,0,0,0,2.93,4.88c2,2.92,2,1.95,2.93,4.88s-2.93,5.85,1.95,4.87,4.88,0,6.83,0,3.9-2,2.93,0l-1.95,3.91a24,24,0,0,0,1,6.83c1,6.83,2,3.9,1,6.83s-4.88,7.8-4.88,7.8a6.31,6.31,0,0,0-4.88-2.92L829,644.57l-2,4.88h5.86s2.92-3.91,3.9-3.91a42.32,42.32,0,0,0,4.88-1,4.85,4.85,0,0,1,2.93,1c1,1,0,2,0,3.91s-2,5.85,0,5.85,4.87-2.93,4.87,0a75.22,75.22,0,0,0,1,8.78V668l3.9-10.74s3.91-3.9,4.88-2,2.93,1,0,5.86-3.9,2-2.93,4.87,0,7.81,0,7.81l5.86-4.88v7.81c0,2.92,2.93,8.78,2.93,8.78,1.95,2.93,1.95,3.9,1,5.85s-2.93,2.93-3.9,3.91-1.95,3.9-2.93,2a18.15,18.15,0,0,0-2.93-3.91l-2.92,4.88,5.85,4.88a31.23,31.23,0,0,0,4.88-2.93c1-1,7.81-5.85,7.81-5.85a16.71,16.71,0,0,0,2.92,3.9c1.95,1.95-1,7.81-1,7.81s1,3.9,1.95,4.88a14,14,0,0,0,3.9,2s4.88,2,3.9,2.93-2,2,0,3.9,2.93,0,5.86,4.88l2.93,4.88s7.8-2.93,6.83-3.91-1-7.8-1-7.8l2.93-6.83S897.27,709,896.3,709s-3.9,2.92-4.88,2.92h-5.85s0-2.92,1.95-3.9a7.28,7.28,0,0,0,2.92-2.93s-2.92-2.92-3.9-1.95,2,2.93-1,1l-2.93-2s2-4.88,3.9-3.91,3.9,0,4.88,0-1,0,3.9-1a44.06,44.06,0,0,1,7.81-1l-3.9-3.9,3.9-3.9-5.86-6.83s-2.92,2-3.9,2-5.85-2.93-3.9-3.91,1,2,1.95-1,2-4.88,0-4.88-1.95-3.9-2.93-1-2,3.91-2.92,5.86,0,1.95-2.93,3.9-2.93,2.93-5.86,3.9-4.87,3.91-4.87,2.93,2-7.8,2-7.8l1-2.93s2.93-5.86,2.93-6.83a9.78,9.78,0,0,1,1-2.93l-3.91-3.9-2.92-2.93-1-3.9c1,3.9,5.85,2.93,6.83,2.93s5.85,4.87,5.85,4.87l1,2.93,5.85-3.9,1-5.86-6.83-6.83s3.9-2.92,1.95-3.9l-1.95-1-7.81-10.74s0-1-1.95-2.92L870,629l-4.87-4.88s-2.93,2.93-2.93,3.9-6.83,6.83-7.81,6.83-4.88-1.95-3.9-1.95,3.9-2.93,3.9-2.93l3.91-3.9-2-9.76v-5.85l-3.9-4.88-1-10.73c-5.86,2-4.88,2-6.83,2s-3.91-3.91-3.91-3.91,4.88-3.9,5.86-2.92,4.88,0,4.88,0l1-5.86s-1.95-2-1.95-2.92-2-10.74-2-10.74l2-3.9-2.93-15.61s-2-1.95-1-3.9,2-9.76,2.92-9.76,0-1,2,0,1,0,3.9,2.93A42.7,42.7,0,0,1,860.2,546l2.92-3.9c3.91-1,6.83-5.86,6.83-5.86s-6.83-8.78-4.87-7.8,7.8,2.92,7.8,2.92l8.78-3.9s-1,6.83,1,6.83,5.85-2.93,5.85-2.93v3.91a8.54,8.54,0,0,0-2,5.85c0,3.9-1.95,5.86-1.95,6.83s-2.93,4.88-2.93,4.88l-4.88-2s-4.87,2-2.92,3.9a48.88,48.88,0,0,1,4.88,6.83s4.87,3.9,3.9,4.88,1,3.9-1,2.93-1-2.93-2.92-2.93-3.91,0-4.88,1-2,2.92-2.93,3.9-5.85,0-5.85,0v2.93l-4.88,3.9,6.83,1.95v11.71c0,2,6.83,0,6.83,0a2.86,2.86,0,0,1,2.92,2.93,11.87,11.87,0,0,1-1,4.87l-3.9,7.81s-2,3.9-1,5.85l3.9,7.81,4.88-5.85s6.83,1,6.83,0,3.9-1,4.88-2,3.9-2,3.9,0-2,3.91-2,3.91l2.93,3.9s4.88-1.95,4.88-3.9v-5.86l2.92-3.9s1-4.88,0-5.85-2.92-4.88-2-4.88,4.88,2,4.88,2l2-3.9s-2.92-11.71-2.92-10.74,1-10.73,1-10.73c1-2.93-2.93-9.76-2.93-9.76l-6.83-1-1.95,4.88,4.88,5.85s0,2.93-2,3.9-3.9,2.93-4.88,2-1,2-2.93-2-2-2.92-2.92-5.85-1.95-2.93,0-5.86l3.9-5.85s4.88-2.93,5.85-2.93h2.93c1,0,4.88-1,5.86-1s2.92-1,2.92-1.95,1.95-2.93,1.95-2.93l3.91,1a62.59,62.59,0,0,0-2,6.83c0,1-3.91-2-1,3.91s2.93,9.75,4.88,9.75,2,1,2.93,2-1,4.87,0,5.85,3.9-1.95,3.9-1.95l1-3.9,5.86-1s8.78,6.83,8.78,7.81V587c0,1,1-1,1,2.93a75.66,75.66,0,0,0,1,9.75s1-1.95,2.93,2,5.85,9.75,5.85,9.75l3.91,1s2-2.93,2-3.9,1.95-3.91,2.92-4.88,0-4.88,0-5.86a7.39,7.39,0,0,0-2-3.9c-1-1-3.9-1-5.85-3.9s-2-4.88-3.9-5.86-1,1-2.93-2.92-3.9-6.83-2.93-7.81,4.88-4.88,5.86-3.9l4.87,4.88c2,1.95,1,4.87,2.93,3.9s6.83,0,6.83,0-4.88,4.88-3.9,5.85a27,27,0,0,1,3.9,4.88c2,2.93,1,6.83,3.9,8.78s5.86-2.92,2.93,1.95-3.9,7.81-3.9,10.74-4.88,2.92-4.88,2.92-4.88,3.91-3.9,5.86,0,2.93,0,4.88a19.81,19.81,0,0,1-1,4.88L950,625.05s-2-1-2.92,0-2,1-2,2.93v3.9c-2.92,2-8.78,5.86-7.8,5.86s1,2.93,2.93,2.93,4.87-1,3.9,1-3.9,3.9-3.9,3.9a21.23,21.23,0,0,0-1,5.86c0,2.93,0,5.85-1,5.85s-1,1-2.92,0-3.91,0-3.91-2.92V651.4h-1.95v9.76a42.14,42.14,0,0,1,1,4.87c0,1,1.95-3.9,2.93-2.92s5.85,0,3.9,3.9a12.43,12.43,0,0,0-1,7.81,34.44,34.44,0,0,0,6.83-1l-6.83,4.88,1,6.83s2.93,2,3.9,1,3.9-2.92,5.86-4.87,1,2,2-2,2-3.9,1-5.85a38.94,38.94,0,0,1-2-5.85c4.88-6.83,3.9-6.83,5.86-7.81s3.9-1.95,5.85-1,3.9,0,4.88,1,4.88,3.9,4.88,3.9l5.85,1.95,7.81-2.92a14.1,14.1,0,0,0,3.9-2c1-1,6.83-7.81,6.83-7.81s-2-6.83-2.93-6.83,1-3.9-2.92-6.83-7.81-2.93-6.83-2,0,3.9-1,5.85-5.85,6.83-5.85,6.83l-2-5.85s-3.9,2.93-5.85,1.95a18.31,18.31,0,0,1-3.9-2.93s5.85-2.92,6.83-3.9,2.92-2.93,2.92-3.9-1.95-5.86-1.95-5.86V626s5.86-3.9,6.83-4.88,2-3.9,1-4.88-3.9-1-4.88-1.95,0-6.83,1-6.83,3.9,1,2.92-1a9.76,9.76,0,0,1-1-3.9s2-3.9,3.9-2.93a14.44,14.44,0,0,0,5.85,1c1,0,2.93,1,4.88,0s1-2.93,1-4.88,1-2.93,0-3.9S987,588,987,588l-4.88-5.86-3.9-4.88,5.85-5.85s-1,1,1-2.93-1-2,2.93-5.85,2.92-2,3.9-3.91,2-9.75,2-9.75,9.76-2,7.81-2.93a26.62,26.62,0,0,1-4.88-3.9c0-2.93,2-3.91,2-5.86v-8.78l-3.9-3.9s-1-1,1-3.9,2.93-2.93,1.95-4.88-3.9-3.91-2.92-5.86-2-3.9,0-4.88,1,2,1.95-1,2,0,1-2.93-1.95-5.85-1.95-7.8-2.93-2-2-3.91-1-2.92,1-2.92-1-4.88-1-4.88l-1-2.93s3.91-1,3.91-2.93a34.32,34.32,0,0,0-1-5.85h-2.93l-1-5.86a13,13,0,0,0-1-4.87c-1-2-4.88-8.79-4.88-3.91s0,12.69-1,15.61a41.94,41.94,0,0,1-2,4.88c-2.93,0-5.86,0-5.86-2.92s2-3.91-1-3.91-1.95,2-2.93,0-1-1-2-3.9a20.81,20.81,0,0,1-1-5.85s-2-4.88-2.92-4.88-3.91-1.95-4.88-3.91a18.31,18.31,0,0,0-2.93-3.9l2.93-3.9s2-5.86-1.95-2.93-5.86,2.93-5.86,2.93-1-2.93,0-2.93,3.9-2.93,3.9-2.93l1-3.9-4.88-1,1-2.92,1-2.93-2.92-1.95-2.93-2.93L948,417.22a57.17,57.17,0,0,1,6.83-2.92v-2.93l-2-4.88v-4.88l-7.81,7.81-2.92,4.88s-1-5.86-1-6.83,1-5.86,1-5.86-1-4.88-1-5.85-1-8.78-1-7.81-4.88,3.91-4.88,3.91S932.4,388,931.42,388s-2.92-1.95-2.92,0-2.93,0-1,3.91,1,5.85,1,5.85a54.83,54.83,0,0,0-1,6.83c0,1.95,0,1.95-1.95,4.88s-3.9,3.9-3.9,5.85,0,6.83-2.93,3.91-3.9-2-2.93-3.91,0-1,2-5.85,3.91-5.86,2.93-7.81a5.89,5.89,0,0,1-1-3.9v-3.9c0-1.95,1-1.95,0-3.91s1,1-1-3.9-1-3.9-2.93-6.83-2.92-5.85-3.9-4.88-1,2.93-1.95,2.93-4.88,0-6.83,1-2,0-2.93,1.95S895.32,384.05,895.32,384.05Z"/><path class="cls-3" d="M956.79,399.66s1-1,2.93,1.95,11.71,5.86,11.71,5.86,4.88,0,3.9,1.95,0,3.9,0,5.85v7.81c0,1-2.93,0-2.93,0s-3.9-1.95-2.92-3.9,1.95,0,1-2,1,0-1-2l-2-1.95s-2-6.83-2.93-5.85-3.9,0-3.9,0l-3.91-2.93Z"/><path class="cls-3" d="M882.64,629s2,7.8,2.93,8.78,4.87,6.83,5.85,7.8,2.93,6.83,2.93,6.83,1.95-2.92,1.95-3.9v-3.9s1-3.9,2-3.9-1-2,2,0a5.52,5.52,0,0,0,5.86,0s3.9,1,3.9,0-2-3.91,0-5.86,3.9-3.9,1.95-4.88-3.9-3.9-5.85-3.9h-2c-3.9,0-4.87,1-6.83,2s-1.95,1.95-3.9,1-2-3.91-2.93-2.93-1,0-3.9,2.93S882.64,629,882.64,629Z"/><polygon class="cls-3" points="901.18 657.25 908.01 662.13 908.98 666.03 908.98 670.91 908.98 676.77 910.93 682.62 906.06 678.72 901.18 675.79 906.06 672.86 906.06 669.94 901.18 668.96 901.18 657.25"/><path class="cls-3" d="M770.43,600.66l11.71-1.95,4.88,2.93s6.83,3.9,7.8,4.87,1.95,0,3.91,0,5.85-6.83,7.8-3.9,2.93,3.9,3.9,1.95l2-3.9s5.85,1,5.85,3.9,7.81,10.74,7.81,10.74l2,5.85L825.07,626l1,4.88-7.81,4.88s2.93,7.8,2,6.83-2-3.91-3.9-3.91-4.88,2-3.9,0-2,0,2-3.9,6.83-13.66,6.83-13.66,1,0-1-2.93-7.8-4.88-6.83-2,0,6.83,0,7.81-1,4.88-2,4.88,0-2-2.93-2-2.92,2.92-5.85,2-4.88-1-5.86-2.93,0-1.95-1.95-2.93-2,1-3.9-2-1.95-3.9-3.9-4.88-2.93,1-3.91-1.95a14.81,14.81,0,0,0-3.9-5.85c-1-1-1-2-2.93-2.93S770.43,600.66,770.43,600.66Z"/><path class="cls-3" d="M1000.7,692.38l7.81-4.88h6.83s-3.91,1-2.93,2-4.88,9.76-4.88,9.76,6.83,1.95,5.85,3.9-1,3.9,0,4.88-2,2.93,2,3.9a45.35,45.35,0,0,1,8.78,2.93c2,1,2.93,2.93,3.9,1.95s-3.9-1,0-1,2.93-2,5.86,1,1.95,6.83,5.85,4.88,2.93-3.9,2.93-3.9l8.78,4.88a39.37,39.37,0,0,0,3.9-2.93c1-1,0-1,0-1l7.81,1.95v3.91s-2-1-2,2.92,1,1-1,5.86,1,7.8-2,7.8-2.93,2.93-3.9,0-2-11.7-2-11.7c-2.92-2.93-3.9-3.91-4.87-2s-2.93,2-1,3.91l2,2-2,2.93v5.85c2.93,2,8.78,2.93,9.76,2.93s3.9-2,6.83-2a4.23,4.23,0,0,1,3.9,2l-2,4.88-3.9,4.87,5.85,2.93-2,8.78,2,7.81c1,3.9,1,7.8,2,8.78s2,3.9,2.93,4.88a13.57,13.57,0,0,1,2.93,3.9c1,2-2,2.93,0,4.88s3.9,2.93,4.87,4.88-1,6.83-2,4.88-3.9-4.88-5.85-4.88-4.88,2-6.83,2,0,1-1.95,0-3.91-9.76-3.91-9.76-3.9,4.88-4.87,1-2-3.9-2-6.83v-2.93a12.33,12.33,0,0,0-2-5.85s-3.9,1.95-3.9,3.9,1,5.85,0,4.88-2.93-1-5.85-1-4.88,1-5.86-1,1-1-1.95-2.93l-2.93-2a11.74,11.74,0,0,1-3.9-3.9l2.93-3.91,4.88,1s0-3.9,1-4.88,4.88-8.78,5.86-9.76,1-3.9,2-4.88-2-4.87-2-4.87l2.92-2.93-6.83-8.78s-1-2.93-2-2.93-7.8,5.85-7.8,5.85a39.6,39.6,0,0,0-6.83,2c-2,1-2,3.9-4.88,3.9s-1-3.9-2.93,0-1,8.78-2.93,6.83-1-2.93-3.9-2-2,1-4.88,1a34.44,34.44,0,0,0-6.83,1l2-3.9V747s-2.93-3.9-3.9-3.9-1,1-1.95,2,0,2.92-2.93,1-1,2-2.93-1.95-3.9-3.9-2-5.85,6.83-2.93,6.83-2.93v-5.85s-2-2.93-2.93-2.93-1.95,1-4.87-1-2-1.95-3.91-2.92l-3.9-2,3.9-1.95,6.83,1,4.88-3.9c0-2.93,0-4.88-2-4.88s-2.93,2-3.9,0,2,0-1-1.95a30.08,30.08,0,0,1-5.85-5.86l4.88-1,3.9,1-2.93-4.88-3.9-4.88s1-3.9,2-3.9,0-3.9,2.93-2,3.9,3.9,5.85,4.88,2.93,0,3.9,1S1000.7,692.38,1000.7,692.38Z"/><path class="cls-3" d="M993.87,621.15h18.54l2.93,2,1.95,2.93s3.9,0,2,2.93-3.9,5.85-3.9,7.8,4.88,5.86,4.88,5.86c-1,3.9-1,6.83,0,7.8s1.95-4.88,0,1-3.91,3.9-4.88,2.93-2-3.91-2.93-2-1,6.83,1,7.81,2,0,3.91,2.93,2,2.92,2,4.88-4.88,1-3.9,4.87,0,3.91,0,5.86,1,6.83-2,3.9l-2.92-2.93c-2.93-2.92,1,1-2.93-2.92a51,51,0,0,1-5.85-6.83l2-4.88s0-4.88-2-3.9-3.91,2-2,1-2-13.66-2-13.66,2.93-2.93,2.93-3.9,0-4.88-2-5.86-4.88-1-4.88-3.9V621.15Z"/><path class="cls-3" d="M767.5,477.72a7.34,7.34,0,0,0,2.93,2.93c2,1,4.88,1,5.85,2.92s0,8.79,0,8.79-2.92,0-3.9,1.95,0,2.92,0,3.9a7.32,7.32,0,0,1-2,3.9c-1,1-1,6.83-2.93,9.76s0,2-2,4.88-1,6.83-1.95,2.93,1-9.76,0-10.74,0-2.92,0-2.92,1.95-7.81,1-6.83-3.91,2.92-2.93,0,0-3.91,2.93-4.88,1.95,1.95,2.92-1-1-3.9-1-3.9c-1-3.9,0-4.88,0-4.88a9.78,9.78,0,0,1-1-2.93C765.55,480.65,767.5,477.72,767.5,477.72Z"/><path class="cls-3" d="M748,487.48l-8.78,2.92,1,3.91,3.91,4.88c-4.88,5.85-2.93,4.87-2.93,6.83s0,3.9,1,4.87a5.09,5.09,0,0,0,3.91,2,19.81,19.81,0,0,0,4.88-1c2-3.9,2-5.85,2-6.83v-4.88l2-4.88v-3.9Z"/><path class="cls-3" d="M711.89,462.11l6.83,1,5.85,5.86,6.83,5.85,3.9,3.91h-2.92s-2.93,3.9-2,5.85a25.61,25.61,0,0,1,2,4.88,19.16,19.16,0,0,1,1,6.83c0,1.95-2,1-1,3.9s2,3.9,1,5.86-1,1-2.92,3.9a25.17,25.17,0,0,0-2.93,6.83s0-6.83-1-7.81L723.6,506s-1-1,0-3.91-1-3.9,1-8.78-2-4.88-1-7.8,1.95-4.88,0-6.83-2-2.93-2.93-3.91,0,0-2.93-2a27.88,27.88,0,0,0-5.85-2.93Z"/></g><g id="forest-text"><rect class="cls-4" x="713" y="538.55" width="331" height="43.88"/><text class="cls-5" transform="translate(727.77 569.67)">CENTRAL FOREST SPINE</text></g></g></g></svg>