<svg id="Layer_1" data-name="Layer 1" xmlns="http://www.w3.org/2000/svg" viewBox="0 0 100 100"><defs><style>.cls-1{fill:#a8a8a8;}</style></defs><title>Icons</title><path class="cls-1" d="M42.48,25l-2.19,2c1.47,1,2.88,2,4.3,3a3,3,0,0,1,.75,4.4c-1.28,1.81-2.54,3.63-3.82,5.44a.71.71,0,0,0-.07.85A20.21,20.21,0,0,1,32,68.14c-6.45,3-12.89,2.63-19.12-.84-.11-.06-.21-.14-.37-.25l2.28-3.27a16.45,16.45,0,0,0,14.5,1.15,15.8,15.8,0,0,0,8.56-7.78,16.45,16.45,0,1,0-25.35,5L10.16,65.5c-1-1-2-1.94-2.82-3A20.29,20.29,0,0,1,19.15,29.7a19.5,19.5,0,0,1,6.33-.25.75.75,0,0,0,.81-.4Q28.15,26.37,30,23.7a3,3,0,0,1,4.51-.79l3.81,2.65c.93-.83,1.81-1.61,2.66-2.41.08-.08.07-.31,0-.46a3.7,3.7,0,0,1,2.25-4.64l2.43-1.12a3.74,3.74,0,0,1,4.93,1.39.7.7,0,0,0,.82.35c.94-.18,1.9-.32,2.83-.47a3.89,3.89,0,0,1,3.34-3.45,4.06,4.06,0,0,1,1.43.11c1,.22,1.94.51,2.91.77A3.67,3.67,0,0,1,64.82,20a.66.66,0,0,0,.39.79c.92.55,1.84,1.12,2.75,1.71a.57.57,0,0,0,.74,0,3.8,3.8,0,0,1,5.92,2.64c.1,1,.33,2,.48,3a3.48,3.48,0,0,1-2.24,3.93.74.74,0,0,0-.55.85c0,1.21,0,2.42,0,3.63a3.67,3.67,0,0,0,0,.39h5.32a3,3,0,0,1,3.12,3.13c0,2.18,0,4.36,0,6.54a.92.92,0,0,0,.55,1A20,20,0,0,1,91.72,62.19,20.35,20.35,0,0,1,76.15,85.25c-.93.21-1.87.31-2.81.45a4.68,4.68,0,0,1-.66,0c0-1.26,0-2.49,0-3.71,0-.11.28-.29.45-.31a16,16,0,0,0,9.12-4c5.09-4.61,6.88-10.36,5-16.94S80.8,50.34,74.13,49.21a16.38,16.38,0,0,0-5.68,32.26l1.39.22v4c-.88-.13-1.72-.22-2.55-.39A20.34,20.34,0,0,1,51,64c.59-7.34,4.26-12.79,10.61-16.45a.9.9,0,0,0,.53-.91c0-2.18,0-4.35,0-6.53a3,3,0,0,1,3.15-3.16h4.91V33.76a4.17,4.17,0,0,1,0-.5c.11-.63-.1-1-.75-1.21a3.21,3.21,0,0,1-2.07-2.64c-.17-1.07-.36-2.13-.51-3.2a2.6,2.6,0,0,1,0-1.11c.18-.56-.07-.79-.5-1-.82-.47-1.62-1-2.42-1.5a.53.53,0,0,0-.73,0,3.41,3.41,0,0,1-3.21.6c-.92-.26-1.83-.52-2.75-.74a3.62,3.62,0,0,1-2.66-2.05c-1,.16-2.06.31-3.08.49a.56.56,0,0,0-.33.36,3.72,3.72,0,0,1-2.39,2.86c-.81.32-1.6.71-2.39,1.09a3.53,3.53,0,0,1-3.84-.28l-.19-.11Zm26.28.64c.25,1.39.44,2.65.72,3.89,0,.27.38.48.59.72.19-.86,0-1.83,1.2-1.91.66-.05.86.29,1.11,1.65a1.12,1.12,0,0,0,.8-1.36c-.17-1.14-.34-2.28-.55-3.41a1.7,1.7,0,0,0-2.24-1.26c.4.5.62,1.05.16,1.61S69.49,26,68.76,25.59ZM49.15,21.45l-.1-.14c-1.18,0-1.6-.22-1.68-.9a.93.93,0,0,1,.13-.69,7,7,0,0,1,1-.74,1.34,1.34,0,0,0-1.72-.38c-1,.45-2,.93-3,1.4a1.37,1.37,0,0,0-.8,1,1.3,1.3,0,0,0,.21,0,1,1,0,0,1,1.38.3,1.07,1.07,0,0,1-.23,1.45l-.53.57a1.6,1.6,0,0,0,1.66.18c1-.45,1.93-.87,2.88-1.35A4.36,4.36,0,0,0,49.15,21.45Zm13.57-2.34A1.09,1.09,0,0,0,62,17.73a38.55,38.55,0,0,0-3.93-1,1.38,1.38,0,0,0-1.5,1.14c.79-.1,1.72-.4,2,.73S57.84,19.86,57,20c.53.63,4,1.45,4.6,1.12-.8-.75-1-1.18-.64-1.72S61.75,18.8,62.72,19.11Zm8.07,20a.6.6,0,0,0-.07.18c0,.68,0,1.37,0,2.06a.94.94,0,0,1-.4.89,1.59,1.59,0,0,0-.12,2.45,1.8,1.8,0,0,0,2.59,0,1.61,1.61,0,0,0-.15-2.45.94.94,0,0,1-.39-.85c0-.75,0-1.5,0-2.27ZM38.91,28.59l-1.26-.89c-.48.69-.93,1.3-1.34,1.94a.83.83,0,0,1-.76.43A1.58,1.58,0,0,0,34,32a1.78,1.78,0,0,0,2.12,1.47,1.6,1.6,0,0,0,1.28-2.13.77.77,0,0,1,.13-.81C38,29.91,38.43,29.27,38.91,28.59Z"/></svg>