<svg id="details" xmlns="http://www.w3.org/2000/svg" viewBox="0 0 1920 1080"><defs><style>.cls-1{fill:#fc7a00;opacity:0.2;}.cls-2,.cls-4{fill:#fff;}.cls-2{stroke:#fc7a00;stroke-linejoin:round;stroke-width:6px;}.cls-3{fill:#a36a2a;}.cls-5{fill:#3b3b3b;}</style></defs><title>Malaysia map OL</title><g id="marker-tamparuli"><circle class="cls-1" cx="1345" cy="461" r="55.68"/><circle class="cls-2" cx="1345" cy="461" r="12.06"/></g><g id="tamparuli-text"><rect class="cls-3" x="1251" y="502.55" width="187" height="43.88"/><path class="cls-4" d="M1277.79,533.67h-4.93V519.46h-4.46v-4h13.83v4h-4.44Z"/><path class="cls-4" d="M1296,533.67l-.9-3.42h-5.93l-.92,3.42h-5.42l6-18.32h6.57l6,18.32Zm-1.92-7.46-.79-3c-.18-.67-.41-1.53-.67-2.59s-.43-1.81-.52-2.27c-.07.43-.22,1.13-.44,2.1s-.71,2.89-1.46,5.75Z"/><path class="cls-4" d="M1311.34,533.67l-3.73-13.14h-.11c.17,2.24.26,4,.26,5.22v7.92h-4.37V515.43H1310l3.81,13h.1l3.73-13h6.58v18.24h-4.53v-8c0-.41,0-.87,0-1.38s.06-1.75.16-3.73h-.11L1316,533.67Z"/><path class="cls-4" d="M1341.34,521.23a6.11,6.11,0,0,1-1.81,4.73,7.27,7.27,0,0,1-5.12,1.66H1333v6h-4.93V515.43h6.31a7.69,7.69,0,0,1,5.19,1.51A5.38,5.38,0,0,1,1341.34,521.23ZM1333,523.6h.89a2.45,2.45,0,0,0,1.77-.62,2.26,2.26,0,0,0,.66-1.72c0-1.23-.69-1.85-2-1.85H1333Z"/><path class="cls-4" d="M1355.44,533.67l-.9-3.42h-5.93l-.92,3.42h-5.42l6-18.32h6.58l6,18.32Zm-1.92-7.46-.79-3c-.18-.67-.41-1.53-.67-2.59s-.43-1.81-.52-2.27c-.07.43-.22,1.13-.44,2.1s-.71,2.89-1.47,5.75Z"/><path class="cls-4" d="M1367.73,527v6.64h-4.93V515.43h6q7.42,0,7.43,5.39a5.38,5.38,0,0,1-3.09,4.9l5.31,7.95h-5.59L1369,527Zm0-3.7h.92q2.58,0,2.58-2.28c0-1.26-.84-1.89-2.53-1.89h-1Z"/><path class="cls-4" d="M1395.6,515.43v11a7.37,7.37,0,0,1-2,5.55,8.08,8.08,0,0,1-5.85,2A7.93,7.93,0,0,1,1382,532a7.2,7.2,0,0,1-2-5.49V515.43h5v10.71a4.37,4.37,0,0,0,.72,2.8,3.12,3.12,0,0,0,4.33,0,4.66,4.66,0,0,0,.68-2.84V515.43Z"/><path class="cls-4" d="M1399.44,533.67V515.43h4.92v14.26h7v4Z"/><path class="cls-4" d="M1414.31,533.67V515.43h5v18.24Z"/></g><g id="marker-tuaran"><circle class="cls-1" cx="1105" cy="580" r="55.68"/><circle class="cls-2" cx="1105" cy="580" r="12.06"/></g><g id="tuaran-text"><rect class="cls-3" x="1029" y="613.55" width="151" height="43.88"/><path class="cls-4" d="M1059.44,644.67h-4.93V630.46h-4.45v-4h13.82v4h-4.44Z"/><path class="cls-4" d="M1082,626.43v11a7.34,7.34,0,0,1-2,5.55,9.63,9.63,0,0,1-11.58,0,7.24,7.24,0,0,1-2-5.49V626.43h5v10.71a4.37,4.37,0,0,0,.72,2.8,3.1,3.1,0,0,0,4.32,0,4.6,4.6,0,0,0,.68-2.84V626.43Z"/><path class="cls-4" d="M1097,644.67l-.9-3.42h-5.93l-.92,3.42h-5.42l6-18.31h6.58l6,18.31Zm-1.93-7.46-.78-3c-.19-.67-.41-1.53-.67-2.59s-.44-1.81-.52-2.27c-.07.43-.22,1.13-.44,2.1s-.71,2.89-1.47,5.75Z"/><path class="cls-4" d="M1109.32,638v6.63h-4.93V626.43h6q7.43,0,7.43,5.39a5.38,5.38,0,0,1-3.09,4.9l5.31,7.95h-5.59l-3.87-6.63Zm0-3.71h.92c1.72,0,2.58-.76,2.58-2.29,0-1.25-.84-1.88-2.53-1.88h-1Z"/><path class="cls-4" d="M1132.88,644.67l-.9-3.42h-5.93l-.92,3.42h-5.42l6-18.31h6.58l6,18.31Zm-1.93-7.46-.78-3c-.19-.67-.41-1.53-.67-2.59s-.43-1.81-.52-2.27c-.07.43-.22,1.13-.44,2.1s-.71,2.89-1.47,5.75Z"/><path class="cls-4" d="M1157.61,644.67h-6.47l-6.66-12.85h-.11c.16,2,.24,3.56.24,4.63v8.22h-4.37V626.43h6.44l6.63,12.68h.08c-.12-1.84-.18-3.32-.18-4.43v-8.25h4.4Z"/></g><g id="caption05"><rect class="cls-5" x="712" y="821.24" width="548" height="110.76"/><path class="cls-4" d="M758,862.07a3.53,3.53,0,0,1-1.37,2.94,6,6,0,0,1-3.71,1,9.37,9.37,0,0,1-3.9-.65V863.8a9.7,9.7,0,0,0,1.91.59,10.28,10.28,0,0,0,2,.22,4.13,4.13,0,0,0,2.5-.64,2.06,2.06,0,0,0,.84-1.75A2.21,2.21,0,0,0,756,861a2.8,2.8,0,0,0-1-.88,15.21,15.21,0,0,0-2.13-.91,6.63,6.63,0,0,1-2.84-1.68,3.76,3.76,0,0,1-.86-2.55,3.17,3.17,0,0,1,1.24-2.63,5.17,5.17,0,0,1,3.28-1,9.7,9.7,0,0,1,3.92.78l-.52,1.45a8.75,8.75,0,0,0-3.44-.74,3.38,3.38,0,0,0-2.06.56,1.88,1.88,0,0,0-.74,1.58,2.41,2.41,0,0,0,.27,1.21,2.54,2.54,0,0,0,.93.87,11,11,0,0,0,2,.87,7.92,7.92,0,0,1,3.09,1.72A3.36,3.36,0,0,1,758,862.07Z"/><path class="cls-4" d="M769.93,860.5a5.94,5.94,0,0,1-1.31,4.09,4.66,4.66,0,0,1-3.65,1.47,4.86,4.86,0,0,1-2.55-.67,4.44,4.44,0,0,1-1.71-1.94,6.64,6.64,0,0,1-.61-3,5.89,5.89,0,0,1,1.31-4.07A4.6,4.6,0,0,1,765,855a4.51,4.51,0,0,1,3.57,1.49A5.89,5.89,0,0,1,769.93,860.5Zm-8.15,0a5.08,5.08,0,0,0,.82,3.13,3.26,3.26,0,0,0,4.83,0,5,5,0,0,0,.82-3.13,5,5,0,0,0-.82-3.1,2.92,2.92,0,0,0-2.44-1.06,2.84,2.84,0,0,0-2.4,1A5,5,0,0,0,761.78,860.5Z"/><path class="cls-4" d="M774.3,855.16v7a2.82,2.82,0,0,0,.59,1.95,2.43,2.43,0,0,0,1.87.64,3.06,3.06,0,0,0,2.46-.91,4.71,4.71,0,0,0,.77-3v-5.63h1.62v10.71h-1.33l-.24-1.44H780a3.19,3.19,0,0,1-1.38,1.21,4.65,4.65,0,0,1-2,.42,4.08,4.08,0,0,1-2.92-.93,4,4,0,0,1-1-3v-7Z"/><path class="cls-4" d="M789.93,855a7,7,0,0,1,1.28.11l-.22,1.51a5.35,5.35,0,0,0-1.17-.15,2.85,2.85,0,0,0-2.23,1.06,3.84,3.84,0,0,0-.92,2.62v5.75h-1.62V855.16h1.34l.18,2h.08a4.82,4.82,0,0,1,1.44-1.61A3.27,3.27,0,0,1,789.93,855Z"/><path class="cls-4" d="M797.49,866.06a4.58,4.58,0,0,1-3.6-1.43,5.87,5.87,0,0,1-1.27-4,6.08,6.08,0,0,1,1.29-4.15A4.69,4.69,0,0,1,797.6,855a7.32,7.32,0,0,1,1.54.16,4.91,4.91,0,0,1,1.21.39l-.49,1.38a8.65,8.65,0,0,0-1.18-.36,5.43,5.43,0,0,0-1.12-.14q-3.25,0-3.26,4.16a5,5,0,0,0,.79,3,2.78,2.78,0,0,0,2.36,1,7.32,7.32,0,0,0,2.75-.57v1.43A5.76,5.76,0,0,1,797.49,866.06Z"/><path class="cls-4" d="M807.26,866.06a5,5,0,0,1-3.75-1.44,5.65,5.65,0,0,1-1.37-4,6.22,6.22,0,0,1,1.28-4.11,4.2,4.2,0,0,1,3.42-1.52,4,4,0,0,1,3.18,1.32,5.08,5.08,0,0,1,1.17,3.49v1h-7.37a4.25,4.25,0,0,0,.95,2.86,3.31,3.31,0,0,0,2.55,1,8.6,8.6,0,0,0,3.41-.72v1.45a9.23,9.23,0,0,1-1.62.53A9,9,0,0,1,807.26,866.06Zm-.44-9.74a2.65,2.65,0,0,0-2.06.84,3.89,3.89,0,0,0-.9,2.33h5.6a3.54,3.54,0,0,0-.69-2.35A2.4,2.4,0,0,0,806.82,856.32Z"/><path class="cls-4" d="M820.86,863a2.68,2.68,0,0,1-1.11,2.3,5.25,5.25,0,0,1-3.13.81,6.8,6.8,0,0,1-3.32-.67v-1.51a8.23,8.23,0,0,0,1.66.62,6.9,6.9,0,0,0,1.7.22,3.9,3.9,0,0,0,2-.4,1.4,1.4,0,0,0,.14-2.31,9,9,0,0,0-2.12-1,11.32,11.32,0,0,1-2.12-1,3,3,0,0,1-.94-.94,2.5,2.5,0,0,1-.31-1.26,2.42,2.42,0,0,1,1.07-2.07,5,5,0,0,1,2.92-.75,8.53,8.53,0,0,1,3.38.7l-.58,1.32a7.63,7.63,0,0,0-2.92-.67,3.26,3.26,0,0,0-1.74.37,1.11,1.11,0,0,0-.58,1,1.17,1.17,0,0,0,.22.73,2,2,0,0,0,.7.58,15.5,15.5,0,0,0,1.88.79,6.87,6.87,0,0,1,2.57,1.4A2.45,2.45,0,0,1,820.86,863Z"/><path class="cls-4" d="M828.56,852.26a1.07,1.07,0,0,1,.27-.81.92.92,0,0,1,.68-.26,1,1,0,0,1,.68.26,1.33,1.33,0,0,1,0,1.63,1,1,0,0,1-.68.27.93.93,0,0,1-.68-.27A1.11,1.11,0,0,1,828.56,852.26Zm1.75,13.61h-1.62V855.16h1.62Z"/><path class="cls-4" d="M841.08,865.87v-6.93a2.78,2.78,0,0,0-.6-2,2.43,2.43,0,0,0-1.86-.65,3.11,3.11,0,0,0-2.47.91,4.61,4.61,0,0,0-.78,3v5.62h-1.62V855.16h1.32l.26,1.47h.08a3.3,3.3,0,0,1,1.4-1.23,4.54,4.54,0,0,1,2-.43,4.07,4.07,0,0,1,2.91.93,4,4,0,0,1,1,3v7Z"/><path class="cls-4" d="M853.31,864.43h-.09a3.78,3.78,0,0,1-3.35,1.63,4,4,0,0,1-3.27-1.44,6.28,6.28,0,0,1-1.17-4.08,6.44,6.44,0,0,1,1.17-4.11,4,4,0,0,1,3.27-1.46,3.89,3.89,0,0,1,3.34,1.58h.12l-.07-.77,0-.75v-4.36h1.63v15.2h-1.32Zm-3.24.27a3,3,0,0,0,2.41-.9,4.55,4.55,0,0,0,.74-2.92v-.34a5.44,5.44,0,0,0-.75-3.25,2.9,2.9,0,0,0-2.42-1,2.47,2.47,0,0,0-2.18,1.11,5.46,5.46,0,0,0-.76,3.13,5.31,5.31,0,0,0,.75,3.1A2.56,2.56,0,0,0,850.07,864.7Z"/><path class="cls-4" d="M858.15,852.26a1.07,1.07,0,0,1,.27-.81.92.92,0,0,1,.68-.26,1,1,0,0,1,.68.26,1.33,1.33,0,0,1,0,1.63,1,1,0,0,1-.68.27.93.93,0,0,1-.68-.27A1.11,1.11,0,0,1,858.15,852.26Zm1.75,13.61h-1.62V855.16h1.62Z"/><path class="cls-4" d="M867.62,866.06a4.58,4.58,0,0,1-3.6-1.43,5.87,5.87,0,0,1-1.27-4,6.08,6.08,0,0,1,1.29-4.15,4.67,4.67,0,0,1,3.69-1.46,7.39,7.39,0,0,1,1.54.16,5.05,5.05,0,0,1,1.21.39l-.5,1.38a8.94,8.94,0,0,0-1.17-.36,5.51,5.51,0,0,0-1.12-.14c-2.18,0-3.26,1.39-3.26,4.16a5,5,0,0,0,.79,3,2.78,2.78,0,0,0,2.36,1,7.24,7.24,0,0,0,2.74-.57v1.43A5.69,5.69,0,0,1,867.62,866.06Z"/><path class="cls-4" d="M879.45,865.87l-.33-1.53H879a4.38,4.38,0,0,1-1.59,1.36,4.85,4.85,0,0,1-2,.36,3.54,3.54,0,0,1-2.49-.82,3,3,0,0,1-.91-2.33q0-3.25,5.19-3.4l1.81-.06v-.66a2.75,2.75,0,0,0-.54-1.87,2.23,2.23,0,0,0-1.73-.6,7.19,7.19,0,0,0-3,.82l-.5-1.24a7.86,7.86,0,0,1,1.74-.67,7.53,7.53,0,0,1,1.89-.24,4,4,0,0,1,2.83.85,3.51,3.51,0,0,1,.93,2.72v7.31Zm-3.67-1.15a3.27,3.27,0,0,0,2.38-.83,3.05,3.05,0,0,0,.87-2.32v-1l-1.63.07a5.88,5.88,0,0,0-2.78.6,1.82,1.82,0,0,0-.86,1.66,1.67,1.67,0,0,0,.53,1.33A2.21,2.21,0,0,0,875.78,864.72Z"/><path class="cls-4" d="M887.44,864.72a5.49,5.49,0,0,0,.83-.06,6.4,6.4,0,0,0,.64-.13v1.24a3.51,3.51,0,0,1-.78.21,6.48,6.48,0,0,1-.92.08q-3.11,0-3.11-3.27v-6.37h-1.53v-.78l1.53-.67.69-2.29h.93v2.48h3.11v1.26h-3.11v6.3a2.21,2.21,0,0,0,.46,1.49A1.62,1.62,0,0,0,887.44,864.72Z"/><path class="cls-4" d="M895.57,866.06a5,5,0,0,1-3.75-1.44,5.65,5.65,0,0,1-1.37-4,6.22,6.22,0,0,1,1.28-4.11,4.22,4.22,0,0,1,3.42-1.52,4,4,0,0,1,3.18,1.32,5.08,5.08,0,0,1,1.17,3.49v1h-7.37a4.25,4.25,0,0,0,1,2.86,3.31,3.31,0,0,0,2.55,1,8.6,8.6,0,0,0,3.41-.72v1.45a9.23,9.23,0,0,1-1.62.53A9,9,0,0,1,895.57,866.06Zm-.44-9.74a2.65,2.65,0,0,0-2.06.84,3.89,3.89,0,0,0-.9,2.33h5.6a3.54,3.54,0,0,0-.69-2.35A2.4,2.4,0,0,0,895.13,856.32Z"/><path class="cls-4" d="M910.92,864.72a5.62,5.62,0,0,0,1.46-.19v1.24a3.26,3.26,0,0,1-.77.21,6.48,6.48,0,0,1-.92.08q-3.11,0-3.11-3.27v-6.37h-1.53v-.78l1.53-.67.68-2.29h.94v2.48h3.11v1.26H909.2v6.3a2.16,2.16,0,0,0,.46,1.49A1.62,1.62,0,0,0,910.92,864.72Z"/><path class="cls-4" d="M921.85,865.87v-6.93a2.78,2.78,0,0,0-.6-2,2.43,2.43,0,0,0-1.86-.65,3.07,3.07,0,0,0-2.47.92,4.64,4.64,0,0,0-.78,3v5.6h-1.62v-15.2h1.62v4.6a10.69,10.69,0,0,1-.07,1.38h.09a3.33,3.33,0,0,1,1.37-1.22,4.37,4.37,0,0,1,2-.44,4.16,4.16,0,0,1,3,.93,3.94,3.94,0,0,1,1,3v7Z"/><path class="cls-4" d="M933.38,865.87l-.32-1.53H933a4.4,4.4,0,0,1-1.6,1.36,4.8,4.8,0,0,1-2,.36,3.55,3.55,0,0,1-2.5-.82,3,3,0,0,1-.9-2.33q0-3.25,5.18-3.4l1.82-.06v-.66a2.75,2.75,0,0,0-.54-1.87,2.24,2.24,0,0,0-1.74-.6,7.12,7.12,0,0,0-3,.82l-.5-1.24a7.78,7.78,0,0,1,1.73-.67,7.65,7.65,0,0,1,1.89-.24,4.07,4.07,0,0,1,2.84.85,3.54,3.54,0,0,1,.92,2.72v7.31Zm-3.66-1.15a3.27,3.27,0,0,0,2.38-.83,3.09,3.09,0,0,0,.86-2.32v-1l-1.62.07a5.9,5.9,0,0,0-2.79.6,1.81,1.81,0,0,0-.85,1.66,1.67,1.67,0,0,0,.53,1.33A2.18,2.18,0,0,0,929.72,864.72Z"/><path class="cls-4" d="M941.38,864.72a5.62,5.62,0,0,0,1.46-.19v1.24a3.26,3.26,0,0,1-.77.21,6.49,6.49,0,0,1-.93.08q-3.1,0-3.1-3.27v-6.37h-1.53v-.78L938,855l.68-2.29h.94v2.48h3.11v1.26h-3.11v6.3a2.16,2.16,0,0,0,.46,1.49A1.59,1.59,0,0,0,941.38,864.72Z"/><path class="cls-4" d="M953.63,864.72a5.49,5.49,0,0,0,.83-.06,6.4,6.4,0,0,0,.64-.13v1.24a3.36,3.36,0,0,1-.78.21,6.48,6.48,0,0,1-.92.08q-3.1,0-3.11-3.27v-6.37h-1.53v-.78l1.53-.67.69-2.29h.94v2.48H955v1.26h-3.1v6.3a2.16,2.16,0,0,0,.46,1.49A1.58,1.58,0,0,0,953.63,864.72Z"/><path class="cls-4" d="M964.56,865.87v-6.93a2.82,2.82,0,0,0-.59-2,2.44,2.44,0,0,0-1.87-.65,3,3,0,0,0-2.46.92,4.64,4.64,0,0,0-.78,3v5.6h-1.62v-15.2h1.62v4.6a10.47,10.47,0,0,1-.08,1.38h.1a3.3,3.3,0,0,1,1.36-1.22,4.38,4.38,0,0,1,2-.44,4.12,4.12,0,0,1,2.94.93,3.9,3.9,0,0,1,1,3v7Z"/><path class="cls-4" d="M974,866.06a4.93,4.93,0,0,1-3.75-1.44,5.65,5.65,0,0,1-1.37-4,6.22,6.22,0,0,1,1.27-4.11,4.22,4.22,0,0,1,3.43-1.52,4,4,0,0,1,3.18,1.32,5.08,5.08,0,0,1,1.17,3.49v1H970.6a4.25,4.25,0,0,0,.95,2.86,3.29,3.29,0,0,0,2.54,1,8.61,8.61,0,0,0,3.42-.72v1.45a9.23,9.23,0,0,1-1.62.53A9,9,0,0,1,974,866.06Zm-.44-9.74a2.65,2.65,0,0,0-2.06.84,3.89,3.89,0,0,0-.9,2.33h5.59a3.6,3.6,0,0,0-.68-2.35A2.43,2.43,0,0,0,973.6,856.32Z"/><path class="cls-4" d="M990.91,866.06a4.59,4.59,0,0,1-1.91-.39,3.52,3.52,0,0,1-1.45-1.18h-.12a14,14,0,0,1,.12,1.78v4.4h-1.62V855.16h1.32l.22,1.47h.08a3.72,3.72,0,0,1,1.46-1.27,4.39,4.39,0,0,1,1.9-.39,4,4,0,0,1,3.29,1.45,7.79,7.79,0,0,1,0,8.18A4,4,0,0,1,990.91,866.06Zm-.23-9.72a2.9,2.9,0,0,0-2.38.91,4.65,4.65,0,0,0-.75,2.89v.36a5.37,5.37,0,0,0,.75,3.23,2.86,2.86,0,0,0,2.41,1,2.52,2.52,0,0,0,2.18-1.12,5.36,5.36,0,0,0,.78-3.1,5.16,5.16,0,0,0-.78-3.07A2.6,2.6,0,0,0,990.68,856.34Z"/><path class="cls-4" d="M1004.77,865.87l-.32-1.53h-.08a4.48,4.48,0,0,1-1.6,1.36,4.82,4.82,0,0,1-2,.36,3.54,3.54,0,0,1-2.49-.82,3,3,0,0,1-.91-2.33q0-3.25,5.19-3.4l1.82-.06v-.66a2.7,2.7,0,0,0-.55-1.87,2.21,2.21,0,0,0-1.73-.6,7.19,7.19,0,0,0-3,.82l-.49-1.24a7.75,7.75,0,0,1,3.62-.91,4.07,4.07,0,0,1,2.84.85,3.54,3.54,0,0,1,.92,2.72v7.31Zm-3.66-1.15a3.25,3.25,0,0,0,2.37-.83,3.05,3.05,0,0,0,.87-2.32v-1l-1.62.07a5.9,5.9,0,0,0-2.79.6,1.82,1.82,0,0,0-.86,1.66,1.64,1.64,0,0,0,.54,1.33A2.18,2.18,0,0,0,1001.11,864.72Z"/><path class="cls-4" d="M1016.63,865.87v-6.93a2.82,2.82,0,0,0-.59-2,2.44,2.44,0,0,0-1.87-.65,3.09,3.09,0,0,0-2.46.91,4.61,4.61,0,0,0-.78,3v5.62h-1.62V855.16h1.32l.26,1.47h.08a3.3,3.3,0,0,1,1.4-1.23,4.48,4.48,0,0,1,2-.43,4.07,4.07,0,0,1,2.91.93,4,4,0,0,1,1,3v7Z"/><path class="cls-4" d="M1030.34,855.16v1l-2,.23a3.41,3.41,0,0,1,.7,2.14,3.14,3.14,0,0,1-1.07,2.51,4.32,4.32,0,0,1-3,.94,5.11,5.11,0,0,1-.9-.08,1.58,1.58,0,0,0-1,1.38.7.7,0,0,0,.36.65,2.62,2.62,0,0,0,1.24.21h1.89a4.22,4.22,0,0,1,2.67.73,2.53,2.53,0,0,1,.94,2.13,3,3,0,0,1-1.43,2.71,7.65,7.65,0,0,1-4.16.93,5.7,5.7,0,0,1-3.24-.78,2.52,2.52,0,0,1-1.13-2.21,2.47,2.47,0,0,1,.62-1.69,3.15,3.15,0,0,1,1.76-1,1.82,1.82,0,0,1-.69-.58,1.49,1.49,0,0,1-.28-.91,1.76,1.76,0,0,1,.31-1,3.18,3.18,0,0,1,1-.85,2.92,2.92,0,0,1-1.35-1.17,3.37,3.37,0,0,1-.52-1.87,3.47,3.47,0,0,1,1-2.71,4.28,4.28,0,0,1,3-.95,5.43,5.43,0,0,1,1.51.19Zm-8.53,12.5a1.45,1.45,0,0,0,.73,1.32,4,4,0,0,0,2.1.45,5.81,5.81,0,0,0,3-.61,1.86,1.86,0,0,0,1-1.66,1.29,1.29,0,0,0-.53-1.2,4.1,4.1,0,0,0-2-.34h-1.95a2.58,2.58,0,0,0-1.72.53A1.87,1.87,0,0,0,1021.81,867.66Zm.88-9.07a2.2,2.2,0,0,0,.63,1.7,2.57,2.57,0,0,0,1.77.58,2.07,2.07,0,0,0,2.37-2.31,2.12,2.12,0,0,0-2.4-2.41,2.38,2.38,0,0,0-1.76.61A2.48,2.48,0,0,0,1022.69,858.59Z"/><path class="cls-4" d="M1041.78,860.5a5.9,5.9,0,0,1-1.32,4.09,4.64,4.64,0,0,1-3.64,1.47,4.81,4.81,0,0,1-2.55-.67,4.46,4.46,0,0,1-1.72-1.94,6.78,6.78,0,0,1-.6-3,5.89,5.89,0,0,1,1.3-4.07,4.63,4.63,0,0,1,3.64-1.46,4.54,4.54,0,0,1,3.57,1.49A5.89,5.89,0,0,1,1041.78,860.5Zm-8.16,0a5.08,5.08,0,0,0,.83,3.13,3.25,3.25,0,0,0,4.82,0,5,5,0,0,0,.83-3.13,5,5,0,0,0-.83-3.1,2.91,2.91,0,0,0-2.43-1.06,2.84,2.84,0,0,0-2.4,1A5,5,0,0,0,1033.62,860.5Z"/><path class="cls-4" d="M1046.24,865.87h-1.62v-15.2h1.62Z"/><path class="cls-4" d="M1049.54,852.26a1,1,0,0,1,.28-.81.92.92,0,0,1,.68-.26,1,1,0,0,1,.67.26,1.29,1.29,0,0,1,0,1.63,1,1,0,0,1-1.35,0A1.07,1.07,0,0,1,1049.54,852.26Zm1.76,13.61h-1.62V855.16h1.62Z"/><path class="cls-4" d="M1062.06,865.87v-6.93a2.82,2.82,0,0,0-.59-2,2.44,2.44,0,0,0-1.87-.65,3.09,3.09,0,0,0-2.46.91,4.61,4.61,0,0,0-.78,3v5.62h-1.62V855.16h1.32l.26,1.47h.08a3.33,3.33,0,0,1,1.39-1.23,4.56,4.56,0,0,1,2-.43,4.07,4.07,0,0,1,2.91.93,4,4,0,0,1,1,3v7Z"/><path class="cls-4" d="M1073.92,863a2.67,2.67,0,0,1-1.12,2.3,5.22,5.22,0,0,1-3.12.81,6.78,6.78,0,0,1-3.32-.67v-1.51a8.14,8.14,0,0,0,1.65.62,6.92,6.92,0,0,0,1.71.22,3.83,3.83,0,0,0,2-.4,1.35,1.35,0,0,0,.69-1.24,1.37,1.37,0,0,0-.55-1.07,8.88,8.88,0,0,0-2.11-1,11,11,0,0,1-2.12-1,2.9,2.9,0,0,1-.94-.94,2.6,2.6,0,0,1,.75-3.33,5,5,0,0,1,2.92-.75,8.5,8.5,0,0,1,3.38.7l-.57,1.32a7.67,7.67,0,0,0-2.92-.67,3.26,3.26,0,0,0-1.74.37,1.12,1.12,0,0,0-.59,1,1.24,1.24,0,0,0,.22.73,2.15,2.15,0,0,0,.71.58,15.5,15.5,0,0,0,1.88.79,7,7,0,0,1,2.57,1.4A2.45,2.45,0,0,1,1073.92,863Z"/><path class="cls-4" d="M1088.33,865.87l-.32-1.53h-.08a4.32,4.32,0,0,1-1.6,1.36,4.8,4.8,0,0,1-2,.36,3.59,3.59,0,0,1-2.5-.82,3,3,0,0,1-.9-2.33q0-3.25,5.18-3.4l1.82-.06v-.66a2.75,2.75,0,0,0-.54-1.87,2.23,2.23,0,0,0-1.73-.6,7.12,7.12,0,0,0-3,.82l-.5-1.24a8,8,0,0,1,1.73-.67,7.65,7.65,0,0,1,1.89-.24,4.05,4.05,0,0,1,2.84.85,3.51,3.51,0,0,1,.92,2.72v7.31Zm-3.66-1.15a3.27,3.27,0,0,0,2.38-.83,3.09,3.09,0,0,0,.86-2.32v-1l-1.62.07a5.9,5.9,0,0,0-2.79.6,1.81,1.81,0,0,0-.85,1.66,1.67,1.67,0,0,0,.53,1.33A2.2,2.2,0,0,0,1084.67,864.72Z"/><path class="cls-4" d="M1097.76,855a7.1,7.1,0,0,1,1.28.11l-.23,1.51a5.35,5.35,0,0,0-1.17-.15,2.82,2.82,0,0,0-2.22,1.06,3.8,3.8,0,0,0-.93,2.62v5.75h-1.62V855.16h1.34l.19,2h.07a4.82,4.82,0,0,1,1.44-1.61A3.28,3.28,0,0,1,1097.76,855Z"/><path class="cls-4" d="M1105.56,866.06a5,5,0,0,1-3.75-1.44,5.65,5.65,0,0,1-1.37-4,6.22,6.22,0,0,1,1.28-4.11,4.22,4.22,0,0,1,3.42-1.52,4,4,0,0,1,3.18,1.32,5.08,5.08,0,0,1,1.17,3.49v1h-7.37a4.25,4.25,0,0,0,1,2.86,3.31,3.31,0,0,0,2.55,1,8.68,8.68,0,0,0,3.42-.72v1.45a9.6,9.6,0,0,1-1.63.53A9,9,0,0,1,1105.56,866.06Zm-.44-9.74a2.65,2.65,0,0,0-2.06.84,3.89,3.89,0,0,0-.9,2.33h5.6a3.54,3.54,0,0,0-.69-2.35A2.4,2.4,0,0,0,1105.12,856.32Z"/><path class="cls-4" d="M1119.07,865.87h-1.62v-15.2h1.62Z"/><path class="cls-4" d="M1122.38,852.26a1.07,1.07,0,0,1,.27-.81.92.92,0,0,1,.68-.26,1,1,0,0,1,.68.26,1.33,1.33,0,0,1,0,1.63,1,1,0,0,1-.68.27.93.93,0,0,1-.68-.27A1.11,1.11,0,0,1,1122.38,852.26Zm1.75,13.61h-1.62V855.16h1.62Z"/><path class="cls-4" d="M1129.17,860.39a20.09,20.09,0,0,1,1.28-1.57l3.46-3.66h1.92l-4.33,4.56,4.63,6.15h-2l-3.78-5.06-1.22,1.05v4h-1.6v-15.2h1.6v8.06c0,.35,0,.91-.08,1.66Z"/><path class="cls-4" d="M1142.59,866.06a5,5,0,0,1-3.75-1.44,5.65,5.65,0,0,1-1.37-4,6.22,6.22,0,0,1,1.28-4.11,4.22,4.22,0,0,1,3.42-1.52,4,4,0,0,1,3.18,1.32,5.08,5.08,0,0,1,1.18,3.49v1h-7.38a4.25,4.25,0,0,0,.95,2.86,3.31,3.31,0,0,0,2.55,1,8.68,8.68,0,0,0,3.42-.72v1.45a9.6,9.6,0,0,1-1.63.53A9,9,0,0,1,1142.59,866.06Zm-.44-9.74a2.67,2.67,0,0,0-2.06.84,3.89,3.89,0,0,0-.9,2.33h5.6a3.54,3.54,0,0,0-.69-2.35A2.4,2.4,0,0,0,1142.15,856.32Z"/><path class="cls-4" d="M1150.91,865.87h-1.62v-15.2h1.62Z"/><path class="cls-4" d="M1152.65,855.16h1.74l2.34,6.11a23.22,23.22,0,0,1,1,3h.08c.08-.33.26-.9.53-1.7s1.15-3.28,2.65-7.42h1.74l-4.6,12.19a6.09,6.09,0,0,1-1.6,2.56,3.36,3.36,0,0,1-2.24.76,6.48,6.48,0,0,1-1.46-.17v-1.29a6.13,6.13,0,0,0,1.2.11,2.47,2.47,0,0,0,2.38-1.87l.59-1.53Z"/><path class="cls-4" d="M1183.26,865.87v-7a2.93,2.93,0,0,0-.54-1.92,2.14,2.14,0,0,0-1.7-.64,2.75,2.75,0,0,0-2.24.87,4.15,4.15,0,0,0-.72,2.68v6h-1.62v-7a2.93,2.93,0,0,0-.55-1.92,2.14,2.14,0,0,0-1.71-.64,2.65,2.65,0,0,0-2.23.92,4.94,4.94,0,0,0-.71,3v5.62h-1.62V855.16h1.32l.26,1.47h.08a3.19,3.19,0,0,1,1.3-1.22,3.83,3.83,0,0,1,1.87-.44c1.67,0,2.76.6,3.28,1.81h.07a3.41,3.41,0,0,1,1.39-1.32,4.28,4.28,0,0,1,2.07-.49,3.63,3.63,0,0,1,2.72.93,4.18,4.18,0,0,1,.9,3v7Z"/><path class="cls-4" d="M1192.75,866.06a4.93,4.93,0,0,1-3.75-1.44,5.65,5.65,0,0,1-1.37-4,6.22,6.22,0,0,1,1.27-4.11,4.22,4.22,0,0,1,3.43-1.52,4,4,0,0,1,3.18,1.32,5.08,5.08,0,0,1,1.17,3.49v1h-7.37a4.25,4.25,0,0,0,1,2.86,3.29,3.29,0,0,0,2.54,1,8.61,8.61,0,0,0,3.42-.72v1.45a9.23,9.23,0,0,1-1.62.53A9,9,0,0,1,1192.75,866.06Zm-.44-9.74a2.65,2.65,0,0,0-2.06.84,3.89,3.89,0,0,0-.9,2.33h5.59a3.54,3.54,0,0,0-.68-2.35A2.43,2.43,0,0,0,1192.31,856.32Z"/><path class="cls-4" d="M1206,865.87l-.32-1.53h-.08a4.48,4.48,0,0,1-1.6,1.36,4.82,4.82,0,0,1-2,.36,3.54,3.54,0,0,1-2.49-.82,3,3,0,0,1-.91-2.33q0-3.25,5.19-3.4l1.82-.06v-.66a2.7,2.7,0,0,0-.55-1.87,2.21,2.21,0,0,0-1.73-.6,7.19,7.19,0,0,0-3,.82l-.49-1.24a7.75,7.75,0,0,1,3.62-.91,4.07,4.07,0,0,1,2.84.85,3.54,3.54,0,0,1,.92,2.72v7.31Zm-3.66-1.15a3.25,3.25,0,0,0,2.37-.83,3.05,3.05,0,0,0,.87-2.32v-1l-1.62.07a5.9,5.9,0,0,0-2.79.6,1.82,1.82,0,0,0-.86,1.66,1.64,1.64,0,0,0,.54,1.33A2.18,2.18,0,0,0,1202.37,864.72Z"/><path class="cls-4" d="M1217.89,865.87v-6.93a2.82,2.82,0,0,0-.59-2,2.44,2.44,0,0,0-1.87-.65,3.09,3.09,0,0,0-2.46.91,4.61,4.61,0,0,0-.78,3v5.62h-1.62V855.16h1.32l.26,1.47h.08a3.33,3.33,0,0,1,1.39-1.23,4.56,4.56,0,0,1,2-.43,4.07,4.07,0,0,1,2.91.93,4,4,0,0,1,1,3v7Z"/><path class="cls-4" d="M1226.3,864.72a5.59,5.59,0,0,0,.83-.06,6.4,6.4,0,0,0,.64-.13v1.24a3.51,3.51,0,0,1-.78.21,6.48,6.48,0,0,1-.92.08q-3.1,0-3.11-3.27v-6.37h-1.53v-.78L1223,855l.68-2.29h.94v2.48h3.11v1.26h-3.11v6.3a2.21,2.21,0,0,0,.46,1.49A1.62,1.62,0,0,0,1226.3,864.72Z"/><path class="cls-4" d="M754.54,886.42h-2.72v9.45H750.2v-9.45h-1.92v-.73l1.92-.59v-.59q0-3.94,3.44-4a7.4,7.4,0,0,1,2,.34l-.42,1.3a5.44,5.44,0,0,0-1.6-.3,1.54,1.54,0,0,0-1.36.61,3.36,3.36,0,0,0-.44,2v.69h2.72Z"/><path class="cls-4" d="M765.73,890.5a5.94,5.94,0,0,1-1.31,4.09,4.66,4.66,0,0,1-3.65,1.47,4.86,4.86,0,0,1-2.55-.67,4.44,4.44,0,0,1-1.71-1.94,6.64,6.64,0,0,1-.61-3,5.89,5.89,0,0,1,1.31-4.07,4.6,4.6,0,0,1,3.63-1.46,4.51,4.51,0,0,1,3.57,1.49A5.89,5.89,0,0,1,765.73,890.5Zm-8.15,0a5.08,5.08,0,0,0,.82,3.13,3.26,3.26,0,0,0,4.83,0,5,5,0,0,0,.82-3.13,5,5,0,0,0-.82-3.1,2.92,2.92,0,0,0-2.44-1.06,2.84,2.84,0,0,0-2.4,1A5,5,0,0,0,757.58,890.5Z"/><path class="cls-4" d="M773.46,885a7.1,7.1,0,0,1,1.28.11l-.23,1.51a5.35,5.35,0,0,0-1.17-.15,2.85,2.85,0,0,0-2.22,1.06,3.79,3.79,0,0,0-.92,2.62v5.75h-1.62V885.16h1.33l.19,2h.08a4.8,4.8,0,0,1,1.43-1.61A3.3,3.3,0,0,1,773.46,885Z"/><path class="cls-4" d="M786.46,896.06a5,5,0,0,1-3.75-1.44,5.65,5.65,0,0,1-1.37-4,6.22,6.22,0,0,1,1.27-4.11A4.22,4.22,0,0,1,786,885a4,4,0,0,1,3.18,1.32,5.08,5.08,0,0,1,1.17,3.49v1H783a4.25,4.25,0,0,0,1,2.86,3.29,3.29,0,0,0,2.55,1,8.6,8.6,0,0,0,3.41-.72v1.45a9.23,9.23,0,0,1-1.62.53A9,9,0,0,1,786.46,896.06Zm-.44-9.74a2.65,2.65,0,0,0-2.06.84,3.89,3.89,0,0,0-.9,2.33h5.59a3.54,3.54,0,0,0-.68-2.35A2.43,2.43,0,0,0,786,886.32Z"/><path class="cls-4" d="M795.73,890.39,792,885.16h1.85l2.82,4.1,2.81-4.1h1.83l-3.72,5.23,3.92,5.48h-1.84l-3-4.34-3,4.34h-1.83Z"/><path class="cls-4" d="M808.62,896.06a4.56,4.56,0,0,1-1.91-.39,3.52,3.52,0,0,1-1.45-1.18h-.12a14,14,0,0,1,.12,1.78v4.4h-1.63V885.16H805l.23,1.47h.08a3.69,3.69,0,0,1,1.45-1.27,4.43,4.43,0,0,1,1.91-.39,4,4,0,0,1,3.28,1.45,6.41,6.41,0,0,1,1.16,4.08,6.34,6.34,0,0,1-1.18,4.1A4,4,0,0,1,808.62,896.06Zm-.24-9.72a2.89,2.89,0,0,0-2.37.91,4.65,4.65,0,0,0-.75,2.89v.36a5.37,5.37,0,0,0,.75,3.23,2.84,2.84,0,0,0,2.41,1,2.5,2.5,0,0,0,2.17-1.12,5.29,5.29,0,0,0,.79-3.1,5.08,5.08,0,0,0-.79-3.07A2.59,2.59,0,0,0,808.38,886.34Z"/><path class="cls-4" d="M825.13,890.5a5.9,5.9,0,0,1-1.32,4.09,4.64,4.64,0,0,1-3.64,1.47,4.81,4.81,0,0,1-2.55-.67,4.46,4.46,0,0,1-1.72-1.94,6.78,6.78,0,0,1-.61-3,5.89,5.89,0,0,1,1.31-4.07,4.63,4.63,0,0,1,3.64-1.46,4.54,4.54,0,0,1,3.57,1.49A5.89,5.89,0,0,1,825.13,890.5Zm-8.16,0a5.15,5.15,0,0,0,.82,3.13,2.88,2.88,0,0,0,2.42,1.07,2.84,2.84,0,0,0,2.41-1.07,5,5,0,0,0,.83-3.13,5,5,0,0,0-.83-3.1,2.91,2.91,0,0,0-2.43-1.06,2.84,2.84,0,0,0-2.4,1A5,5,0,0,0,817,890.5Z"/><path class="cls-4" d="M832.85,885a7,7,0,0,1,1.28.11l-.22,1.51a5.35,5.35,0,0,0-1.17-.15,2.85,2.85,0,0,0-2.23,1.06,3.84,3.84,0,0,0-.92,2.62v5.75H828V885.16h1.34l.18,2h.08a4.82,4.82,0,0,1,1.44-1.61A3.27,3.27,0,0,1,832.85,885Z"/><path class="cls-4" d="M839.59,894.72a5.49,5.49,0,0,0,.83-.06,6.4,6.4,0,0,0,.64-.13v1.24a3.51,3.51,0,0,1-.78.21,6.48,6.48,0,0,1-.92.08q-3.11,0-3.11-3.27v-6.37h-1.53v-.78l1.53-.67.69-2.29h.93v2.48H841v1.26h-3.11v6.3a2.21,2.21,0,0,0,.46,1.49A1.62,1.62,0,0,0,839.59,894.72Z"/><path class="cls-4" d="M850.73,895.87l-4.06-10.71h1.74l2.3,6.35a27.28,27.28,0,0,1,.92,2.89h.08a21,21,0,0,1,.68-2.14c.38-1.09,1.23-3.45,2.56-7.1h1.74l-4.06,10.71Z"/><path class="cls-4" d="M858.27,882.26a1,1,0,0,1,.28-.81.92.92,0,0,1,.68-.26,1,1,0,0,1,.67.26,1.29,1.29,0,0,1,0,1.63,1,1,0,0,1-1.35,0A1.07,1.07,0,0,1,858.27,882.26ZM860,895.87h-1.62V885.16H860Z"/><path class="cls-4" d="M870.05,895.87l-.32-1.53h-.08a4.4,4.4,0,0,1-1.6,1.36,4.8,4.8,0,0,1-2,.36,3.55,3.55,0,0,1-2.5-.82,3,3,0,0,1-.9-2.33q0-3.25,5.18-3.4l1.82-.06v-.66a2.75,2.75,0,0,0-.54-1.87,2.24,2.24,0,0,0-1.74-.6,7.12,7.12,0,0,0-3,.82l-.5-1.24a7.78,7.78,0,0,1,1.73-.67,7.65,7.65,0,0,1,1.89-.24,4.07,4.07,0,0,1,2.84.85,3.54,3.54,0,0,1,.92,2.72v7.31Zm-3.66-1.15a3.27,3.27,0,0,0,2.38-.83,3.09,3.09,0,0,0,.86-2.32v-1l-1.62.07a5.9,5.9,0,0,0-2.79.6,1.81,1.81,0,0,0-.85,1.66,1.64,1.64,0,0,0,.53,1.33A2.18,2.18,0,0,0,866.39,894.72Z"/><path class="cls-4" d="M886.69,893a2.68,2.68,0,0,1-1.11,2.3,5.25,5.25,0,0,1-3.13.81,6.8,6.8,0,0,1-3.32-.67v-1.51a8.23,8.23,0,0,0,1.66.62,6.9,6.9,0,0,0,1.7.22,3.9,3.9,0,0,0,2-.4,1.4,1.4,0,0,0,.14-2.31,9,9,0,0,0-2.12-1,11.32,11.32,0,0,1-2.12-1,3,3,0,0,1-.94-.94,2.5,2.5,0,0,1-.31-1.26,2.42,2.42,0,0,1,1.07-2.07,5,5,0,0,1,2.92-.75,8.53,8.53,0,0,1,3.38.7l-.58,1.32a7.63,7.63,0,0,0-2.92-.67,3.26,3.26,0,0,0-1.74.37,1.11,1.11,0,0,0-.58,1,1.17,1.17,0,0,0,.22.73,2,2,0,0,0,.7.58,15.5,15.5,0,0,0,1.88.79,6.87,6.87,0,0,1,2.57,1.4A2.45,2.45,0,0,1,886.69,893Z"/><path class="cls-4" d="M896.65,895.87v-6.93a2.82,2.82,0,0,0-.59-2,2.44,2.44,0,0,0-1.87-.65,3,3,0,0,0-2.46.92,4.64,4.64,0,0,0-.78,3v5.6h-1.62v-15.2H891v4.6a10.47,10.47,0,0,1-.08,1.38h.1a3.3,3.3,0,0,1,1.36-1.22,4.38,4.38,0,0,1,2-.44,4.12,4.12,0,0,1,2.94.93,3.9,3.9,0,0,1,1,3v7Z"/><path class="cls-4" d="M901.47,882.26a1.07,1.07,0,0,1,.27-.81.92.92,0,0,1,.68-.26,1,1,0,0,1,.68.26,1.33,1.33,0,0,1,0,1.63,1,1,0,0,1-.68.27.93.93,0,0,1-.68-.27A1.11,1.11,0,0,1,901.47,882.26Zm1.75,13.61H901.6V885.16h1.62Z"/><path class="cls-4" d="M911.64,896.06a4.63,4.63,0,0,1-1.91-.39,3.58,3.58,0,0,1-1.45-1.18h-.11a16,16,0,0,1,.11,1.78v4.4h-1.62V885.16H908l.23,1.47h.07a3.72,3.72,0,0,1,1.46-1.27,4.42,4.42,0,0,1,1.9-.39,4,4,0,0,1,3.29,1.45,7.73,7.73,0,0,1,0,8.18A4,4,0,0,1,911.64,896.06Zm-.23-9.72a2.86,2.86,0,0,0-2.37.91,4.72,4.72,0,0,0-.76,2.89v.36a5.29,5.29,0,0,0,.76,3.23,2.84,2.84,0,0,0,2.41,1,2.5,2.5,0,0,0,2.17-1.12,5.36,5.36,0,0,0,.79-3.1,5.15,5.15,0,0,0-.79-3.07A2.59,2.59,0,0,0,911.41,886.34Z"/><path class="cls-4" d="M928.94,886.42h-2.73v9.45h-1.62v-9.45h-1.91v-.73l1.91-.59v-.59q0-3.94,3.45-4a7.33,7.33,0,0,1,2,.34l-.42,1.3a5.38,5.38,0,0,0-1.6-.3,1.57,1.57,0,0,0-1.36.61,3.44,3.44,0,0,0-.44,2v.69h2.73Z"/><path class="cls-4" d="M935.77,885a7,7,0,0,1,1.28.11l-.22,1.51a5.35,5.35,0,0,0-1.17-.15,2.85,2.85,0,0,0-2.23,1.06,3.84,3.84,0,0,0-.92,2.62v5.75h-1.62V885.16h1.34l.18,2h.08a4.82,4.82,0,0,1,1.44-1.61A3.27,3.27,0,0,1,935.77,885Z"/><path class="cls-4" d="M948.29,890.5a5.9,5.9,0,0,1-1.32,4.09,4.62,4.62,0,0,1-3.64,1.47,4.86,4.86,0,0,1-2.55-.67,4.52,4.52,0,0,1-1.72-1.94,6.78,6.78,0,0,1-.6-3,5.89,5.89,0,0,1,1.31-4.07A4.6,4.6,0,0,1,943.4,885a4.51,4.51,0,0,1,3.57,1.49A5.89,5.89,0,0,1,948.29,890.5Zm-8.15,0a5.08,5.08,0,0,0,.82,3.13,3.26,3.26,0,0,0,4.83,0,5,5,0,0,0,.82-3.13,5,5,0,0,0-.82-3.1,2.92,2.92,0,0,0-2.44-1.06,2.84,2.84,0,0,0-2.4,1A5,5,0,0,0,940.14,890.5Z"/><path class="cls-4" d="M964.78,895.87v-7a2.93,2.93,0,0,0-.55-1.92,2.13,2.13,0,0,0-1.7-.64,2.76,2.76,0,0,0-2.24.87,4.15,4.15,0,0,0-.72,2.68v6H958v-7a2.88,2.88,0,0,0-.55-1.92,2.13,2.13,0,0,0-1.7-.64,2.67,2.67,0,0,0-2.24.92,5,5,0,0,0-.7,3v5.62h-1.63V885.16h1.32l.27,1.47h.07a3.19,3.19,0,0,1,1.3-1.22A3.88,3.88,0,0,1,956,885c1.67,0,2.77.6,3.28,1.81h.08a3.35,3.35,0,0,1,1.39-1.32,4.22,4.22,0,0,1,2.07-.49,3.64,3.64,0,0,1,2.72.93,4.18,4.18,0,0,1,.9,3v7Z"/><path class="cls-4" d="M983.23,892.07a3.52,3.52,0,0,1-1.36,2.94,6,6,0,0,1-3.71,1,9.39,9.39,0,0,1-3.91-.65V893.8a9.92,9.92,0,0,0,1.91.59,10.36,10.36,0,0,0,2.05.22,4.11,4.11,0,0,0,2.5-.64,2.06,2.06,0,0,0,.84-1.75,2.21,2.21,0,0,0-.29-1.21,2.76,2.76,0,0,0-1-.88,15,15,0,0,0-2.12-.91,6.74,6.74,0,0,1-2.85-1.68,3.76,3.76,0,0,1-.85-2.55,3.17,3.17,0,0,1,1.24-2.63,5.15,5.15,0,0,1,3.28-1,9.65,9.65,0,0,1,3.91.78l-.51,1.45a8.78,8.78,0,0,0-3.44-.74,3.36,3.36,0,0,0-2.06.56,1.86,1.86,0,0,0-.74,1.58,2.41,2.41,0,0,0,.27,1.21,2.51,2.51,0,0,0,.92.87,11.12,11.12,0,0,0,2,.87,7.92,7.92,0,0,1,3.09,1.72A3.4,3.4,0,0,1,983.23,892.07Z"/><path class="cls-4" d="M990.43,896.06a4.91,4.91,0,0,1-3.74-1.44,5.61,5.61,0,0,1-1.38-4,6.22,6.22,0,0,1,1.28-4.11A4.22,4.22,0,0,1,990,885a4.07,4.07,0,0,1,3.19,1.32,5.08,5.08,0,0,1,1.17,3.49v1H987a4.25,4.25,0,0,0,1,2.86,3.29,3.29,0,0,0,2.54,1,8.68,8.68,0,0,0,3.42-.72v1.45a9.6,9.6,0,0,1-1.63.53A9,9,0,0,1,990.43,896.06Zm-.44-9.74a2.63,2.63,0,0,0-2,.84,3.89,3.89,0,0,0-.91,2.33h5.6a3.6,3.6,0,0,0-.68-2.35A2.44,2.44,0,0,0,990,886.32Z"/><path class="cls-4" d="M1002.11,896.06a4.63,4.63,0,0,1-1.91-.39,3.58,3.58,0,0,1-1.45-1.18h-.12a14,14,0,0,1,.12,1.78v4.4h-1.62V885.16h1.32l.22,1.47h.08a3.72,3.72,0,0,1,1.46-1.27,4.42,4.42,0,0,1,1.9-.39,4,4,0,0,1,3.29,1.45,7.79,7.79,0,0,1,0,8.18A4,4,0,0,1,1002.11,896.06Zm-.23-9.72a2.9,2.9,0,0,0-2.38.91,4.72,4.72,0,0,0-.75,2.89v.36a5.37,5.37,0,0,0,.75,3.23,2.86,2.86,0,0,0,2.42,1,2.51,2.51,0,0,0,2.17-1.12,5.36,5.36,0,0,0,.79-3.1,5.15,5.15,0,0,0-.79-3.07A2.6,2.6,0,0,0,1001.88,886.34Z"/><path class="cls-4" d="M1016,895.87l-.32-1.53h-.08a4.48,4.48,0,0,1-1.6,1.36,4.82,4.82,0,0,1-2,.36,3.54,3.54,0,0,1-2.49-.82,3,3,0,0,1-.9-2.33c0-2.17,1.72-3.3,5.18-3.4l1.82-.06v-.66a2.75,2.75,0,0,0-.54-1.87,2.25,2.25,0,0,0-1.74-.6,7.12,7.12,0,0,0-3,.82l-.5-1.24a7.75,7.75,0,0,1,3.62-.91,4.07,4.07,0,0,1,2.84.85,3.54,3.54,0,0,1,.92,2.72v7.31Zm-3.66-1.15a3.23,3.23,0,0,0,2.37-.83,3.05,3.05,0,0,0,.87-2.32v-1l-1.62.07a5.9,5.9,0,0,0-2.79.6,1.81,1.81,0,0,0-.85,1.66,1.64,1.64,0,0,0,.53,1.33A2.18,2.18,0,0,0,1012.31,894.72Z"/><path class="cls-4" d="M1027.83,895.87v-6.93a2.78,2.78,0,0,0-.59-2,2.44,2.44,0,0,0-1.87-.65,3.09,3.09,0,0,0-2.46.91,4.61,4.61,0,0,0-.78,3v5.62h-1.62V885.16h1.32l.26,1.47h.08a3.3,3.3,0,0,1,1.4-1.23,4.51,4.51,0,0,1,2-.43,4.07,4.07,0,0,1,2.91.93,4,4,0,0,1,1,3v7Z"/><path class="cls-4" d="M1041.54,885.16v1l-2,.23a3.24,3.24,0,0,1,.49.89,3.52,3.52,0,0,1,.22,1.25,3.15,3.15,0,0,1-1.08,2.51,4.3,4.3,0,0,1-3,.94,5.11,5.11,0,0,1-.9-.08,1.58,1.58,0,0,0-1,1.38.7.7,0,0,0,.36.65,2.62,2.62,0,0,0,1.24.21h1.89a4.27,4.27,0,0,1,2.68.73,2.55,2.55,0,0,1,.93,2.13,3,3,0,0,1-1.43,2.71,7.63,7.63,0,0,1-4.16.93,5.7,5.7,0,0,1-3.24-.78,2.68,2.68,0,0,1-.51-3.9,3.19,3.19,0,0,1,1.76-1,1.82,1.82,0,0,1-.69-.58,1.56,1.56,0,0,1-.28-.91,1.7,1.7,0,0,1,.32-1,3,3,0,0,1,1-.85,2.92,2.92,0,0,1-1.35-1.17,3.37,3.37,0,0,1-.52-1.87,3.47,3.47,0,0,1,1-2.71,4.28,4.28,0,0,1,3-.95,5.43,5.43,0,0,1,1.51.19Zm-8.53,12.5a1.45,1.45,0,0,0,.73,1.32,4,4,0,0,0,2.1.45,5.81,5.81,0,0,0,3-.61,1.87,1.87,0,0,0,1-1.66,1.29,1.29,0,0,0-.54-1.2,4.1,4.1,0,0,0-2-.34h-2a2.6,2.6,0,0,0-1.72.53A1.87,1.87,0,0,0,1033,897.66Zm.88-9.07a2.2,2.2,0,0,0,.63,1.7,2.58,2.58,0,0,0,1.77.58,2.07,2.07,0,0,0,2.37-2.31,2.12,2.12,0,0,0-2.4-2.41,2.38,2.38,0,0,0-1.76.61A2.48,2.48,0,0,0,1033.89,888.59Z"/><path class="cls-4" d="M1052.5,885.16v1l-2,.23a3.86,3.86,0,0,1,.49.89,3.52,3.52,0,0,1,.21,1.25,3.17,3.17,0,0,1-1.07,2.51,4.32,4.32,0,0,1-3,.94,5.11,5.11,0,0,1-.9-.08,1.58,1.58,0,0,0-1,1.38.7.7,0,0,0,.36.65,2.62,2.62,0,0,0,1.24.21h1.89a4.22,4.22,0,0,1,2.67.73,2.56,2.56,0,0,1,.94,2.13,3,3,0,0,1-1.43,2.71,7.65,7.65,0,0,1-4.16.93,5.7,5.7,0,0,1-3.24-.78,2.53,2.53,0,0,1-1.14-2.21A2.48,2.48,0,0,1,1043,896a3.15,3.15,0,0,1,1.76-1,1.68,1.68,0,0,1-.69-.58,1.49,1.49,0,0,1-.28-.91,1.69,1.69,0,0,1,.31-1,3.18,3.18,0,0,1,1-.85,2.92,2.92,0,0,1-1.35-1.17,3.38,3.38,0,0,1-.53-1.87,3.47,3.47,0,0,1,1.06-2.71,4.28,4.28,0,0,1,3-.95,5.43,5.43,0,0,1,1.51.19Zm-8.53,12.5a1.45,1.45,0,0,0,.73,1.32,4,4,0,0,0,2.1.45,5.81,5.81,0,0,0,3-.61,1.86,1.86,0,0,0,1-1.66,1.31,1.31,0,0,0-.53-1.2,4.14,4.14,0,0,0-2-.34h-1.94a2.58,2.58,0,0,0-1.72.53A1.87,1.87,0,0,0,1044,897.66Zm.88-9.07a2.2,2.2,0,0,0,.63,1.7,2.55,2.55,0,0,0,1.77.58,2.07,2.07,0,0,0,2.37-2.31,2.12,2.12,0,0,0-2.4-2.41,2.38,2.38,0,0,0-1.76.61A2.48,2.48,0,0,0,1044.85,888.59Z"/><path class="cls-4" d="M1061.28,895.87l-.32-1.53h-.08a4.4,4.4,0,0,1-1.6,1.36,4.8,4.8,0,0,1-2,.36,3.57,3.57,0,0,1-2.5-.82,3,3,0,0,1-.9-2.33q0-3.25,5.18-3.4l1.82-.06v-.66a2.75,2.75,0,0,0-.54-1.87,2.24,2.24,0,0,0-1.74-.6,7.12,7.12,0,0,0-3,.82l-.5-1.24a8,8,0,0,1,1.73-.67,7.65,7.65,0,0,1,1.89-.24,4.07,4.07,0,0,1,2.84.85,3.54,3.54,0,0,1,.92,2.72v7.31Zm-3.66-1.15a3.27,3.27,0,0,0,2.38-.83,3.09,3.09,0,0,0,.86-2.32v-1l-1.62.07a5.9,5.9,0,0,0-2.79.6,1.81,1.81,0,0,0-.85,1.66,1.67,1.67,0,0,0,.53,1.33A2.18,2.18,0,0,0,1057.62,894.72Z"/><path class="cls-4" d="M1070.71,885a6.91,6.91,0,0,1,1.27.11l-.22,1.51a5.35,5.35,0,0,0-1.17-.15,2.82,2.82,0,0,0-2.22,1.06,3.8,3.8,0,0,0-.93,2.62v5.75h-1.62V885.16h1.34l.19,2h.07a4.82,4.82,0,0,1,1.44-1.61A3.28,3.28,0,0,1,1070.71,885Z"/><path class="cls-4" d="M1088.48,885.75a4,4,0,0,1-1.48,3.33,6.7,6.7,0,0,1-4.23,1.17h-1.68v5.62h-1.66V881.59h3.7C1086.69,881.59,1088.48,883,1088.48,885.75Zm-7.39,3.07h1.49a5.49,5.49,0,0,0,3.19-.71,2.62,2.62,0,0,0,1-2.28,2.45,2.45,0,0,0-.93-2.11,4.79,4.79,0,0,0-2.89-.7h-1.85Z"/><path class="cls-4" d="M1100.46,890.5a5.9,5.9,0,0,1-1.32,4.09,4.64,4.64,0,0,1-3.64,1.47,4.81,4.81,0,0,1-2.55-.67,4.52,4.52,0,0,1-1.72-1.94,6.78,6.78,0,0,1-.6-3,5.84,5.84,0,0,1,1.31-4.07,4.6,4.6,0,0,1,3.63-1.46,4.51,4.51,0,0,1,3.57,1.49A5.89,5.89,0,0,1,1100.46,890.5Zm-8.15,0a5.08,5.08,0,0,0,.82,3.13,3.26,3.26,0,0,0,4.83,0,5,5,0,0,0,.82-3.13,5,5,0,0,0-.82-3.1,2.93,2.93,0,0,0-2.44-1.06,2.84,2.84,0,0,0-2.4,1A5,5,0,0,0,1092.31,890.5Z"/><path class="cls-4" d="M1108.19,885a6.91,6.91,0,0,1,1.27.11l-.22,1.51a5.35,5.35,0,0,0-1.17-.15,2.82,2.82,0,0,0-2.22,1.06,3.8,3.8,0,0,0-.93,2.62v5.75h-1.62V885.16h1.34l.19,2h.07a4.82,4.82,0,0,1,1.44-1.61A3.28,3.28,0,0,1,1108.19,885Z"/><path class="cls-4" d="M1114.92,894.72a5.49,5.49,0,0,0,.83-.06,6.4,6.4,0,0,0,.64-.13v1.24a3.51,3.51,0,0,1-.78.21,6.48,6.48,0,0,1-.92.08q-3.11,0-3.11-3.27v-6.37h-1.53v-.78l1.53-.67.69-2.29h.94v2.48h3.1v1.26h-3.1v6.3a2.21,2.21,0,0,0,.45,1.49A1.62,1.62,0,0,0,1114.92,894.72Z"/><path class="cls-4" d="M1120.23,893.54l.14.23c-.17.65-.41,1.4-.73,2.27s-.65,1.66-1,2.4h-1.22c.18-.67.37-1.51.58-2.51s.36-1.79.45-2.39Z"/><path class="cls-4" d="M1132.08,894.72a5.49,5.49,0,0,0,.83-.06,6.4,6.4,0,0,0,.64-.13v1.24a3.51,3.51,0,0,1-.78.21,6.48,6.48,0,0,1-.92.08q-3.11,0-3.11-3.27v-6.37h-1.53v-.78l1.53-.67.69-2.29h.93v2.48h3.11v1.26h-3.11v6.3a2.21,2.21,0,0,0,.46,1.49A1.62,1.62,0,0,0,1132.08,894.72Z"/><path class="cls-4" d="M1144.92,890.5a5.94,5.94,0,0,1-1.31,4.09,4.66,4.66,0,0,1-3.65,1.47,4.86,4.86,0,0,1-2.55-.67,4.44,4.44,0,0,1-1.71-1.94,6.64,6.64,0,0,1-.61-3,5.89,5.89,0,0,1,1.31-4.07A4.6,4.6,0,0,1,1140,885a4.51,4.51,0,0,1,3.57,1.49A5.89,5.89,0,0,1,1144.92,890.5Zm-8.15,0a5.08,5.08,0,0,0,.82,3.13,3.26,3.26,0,0,0,4.83,0,5,5,0,0,0,.82-3.13,5,5,0,0,0-.82-3.1,2.92,2.92,0,0,0-2.44-1.06,2.84,2.84,0,0,0-2.4,1A5,5,0,0,0,1136.77,890.5Z"/><path class="cls-4" d="M1159.32,882.87a4.69,4.69,0,0,0-3.72,1.56,6.34,6.34,0,0,0-1.36,4.3,6.49,6.49,0,0,0,1.31,4.33,4.68,4.68,0,0,0,3.75,1.53,12.8,12.8,0,0,0,3.41-.54v1.45a10.3,10.3,0,0,1-3.67.56,6.2,6.2,0,0,1-4.86-1.91,7.86,7.86,0,0,1-1.72-5.44,8.61,8.61,0,0,1,.83-3.87,5.9,5.9,0,0,1,2.38-2.56,7.21,7.21,0,0,1,3.67-.9,8.94,8.94,0,0,1,3.92.82l-.7,1.43A7.52,7.52,0,0,0,1159.32,882.87Z"/><path class="cls-4" d="M1172.9,895.87v-6.93a2.82,2.82,0,0,0-.59-2,2.44,2.44,0,0,0-1.87-.65,3,3,0,0,0-2.46.92,4.64,4.64,0,0,0-.78,3v5.6h-1.62v-15.2h1.62v4.6a10.47,10.47,0,0,1-.08,1.38h.1a3.3,3.3,0,0,1,1.36-1.22,4.38,4.38,0,0,1,2-.44,4.12,4.12,0,0,1,2.94.93,3.9,3.9,0,0,1,1,3v7Z"/><path class="cls-4" d="M1177.72,882.26a1.07,1.07,0,0,1,.27-.81.92.92,0,0,1,.68-.26,1,1,0,0,1,.68.26,1.33,1.33,0,0,1,0,1.63,1,1,0,0,1-.68.27.93.93,0,0,1-.68-.27A1.11,1.11,0,0,1,1177.72,882.26Zm1.75,13.61h-1.62V885.16h1.62Z"/><path class="cls-4" d="M1190.24,895.87v-6.93a2.78,2.78,0,0,0-.6-2,2.43,2.43,0,0,0-1.86-.65,3.11,3.11,0,0,0-2.47.91,4.61,4.61,0,0,0-.78,3v5.62h-1.62V885.16h1.32l.26,1.47h.08a3.3,3.3,0,0,1,1.4-1.23,4.54,4.54,0,0,1,2-.43,4.07,4.07,0,0,1,2.91.93,4,4,0,0,1,1,3v7Z"/><path class="cls-4" d="M1201.77,895.87l-.32-1.53h-.08a4.48,4.48,0,0,1-1.6,1.36,4.8,4.8,0,0,1-2,.36,3.55,3.55,0,0,1-2.5-.82,3,3,0,0,1-.9-2.33q0-3.25,5.18-3.4l1.82-.06v-.66a2.75,2.75,0,0,0-.54-1.87,2.24,2.24,0,0,0-1.74-.6,7.12,7.12,0,0,0-3,.82l-.5-1.24a7.78,7.78,0,0,1,1.73-.67,7.65,7.65,0,0,1,1.89-.24,4.07,4.07,0,0,1,2.84.85,3.54,3.54,0,0,1,.92,2.72v7.31Zm-3.66-1.15a3.27,3.27,0,0,0,2.38-.83,3.09,3.09,0,0,0,.86-2.32v-1l-1.62.07a5.9,5.9,0,0,0-2.79.6,1.81,1.81,0,0,0-.85,1.66,1.64,1.64,0,0,0,.53,1.33A2.18,2.18,0,0,0,1198.11,894.72Z"/><path class="cls-4" d="M1206.08,894.83a1.48,1.48,0,0,1,.29-1,1.08,1.08,0,0,1,.86-.34,1.12,1.12,0,0,1,.88.34,1.39,1.39,0,0,1,.32,1,1.41,1.41,0,0,1-.32,1,1.29,1.29,0,0,1-1.71,0A1.37,1.37,0,0,1,1206.08,894.83Z"/><polygon class="cls-5" points="1003 825 970 825 986.5 802 1003 825"/></g><g id="marker-sepanggar"><circle class="cls-1" cx="985" cy="700" r="55.68"/><circle class="cls-2" cx="985" cy="700" r="12.06"/></g><g id="sepanggar-text"><rect class="cls-3" x="855" y="733.55" width="267" height="43.88"/><path class="cls-4" d="M885.39,759.13a5.36,5.36,0,0,1-.86,3,5.61,5.61,0,0,1-2.48,2,9.15,9.15,0,0,1-3.81.73,15.59,15.59,0,0,1-3.06-.25,11.58,11.58,0,0,1-2.57-.89v-4.4a14.17,14.17,0,0,0,2.94,1.13,10.89,10.89,0,0,0,2.79.41,2.75,2.75,0,0,0,1.61-.38,1.18,1.18,0,0,0,.51-1,1.14,1.14,0,0,0-.2-.66,2.6,2.6,0,0,0-.66-.57q-.47-.29-2.43-1.17a11.67,11.67,0,0,1-2.68-1.57,4.92,4.92,0,0,1-1.32-1.75,5.7,5.7,0,0,1-.43-2.33,4.68,4.68,0,0,1,1.83-3.93,8.12,8.12,0,0,1,5-1.41,14.19,14.19,0,0,1,5.77,1.31l-1.51,3.8a11,11,0,0,0-4.42-1.17,2.24,2.24,0,0,0-1.39.34,1,1,0,0,0-.44.83,1.24,1.24,0,0,0,.56,1,21.73,21.73,0,0,0,3,1.54,8.36,8.36,0,0,1,3.27,2.28A4.88,4.88,0,0,1,885.39,759.13Z"/><path class="cls-4" d="M899,764.67H888.21V746.43H899v4h-5.9v2.87h5.47v4h-5.47v3.45H899Z"/><path class="cls-4" d="M915.48,752.23a6.11,6.11,0,0,1-1.81,4.73,7.27,7.27,0,0,1-5.12,1.66h-1.38v6h-4.93V746.43h6.31a7.68,7.68,0,0,1,5.19,1.51A5.38,5.38,0,0,1,915.48,752.23Zm-8.31,2.37h.89a2.45,2.45,0,0,0,1.77-.62,2.26,2.26,0,0,0,.66-1.72c0-1.23-.69-1.85-2-1.85h-1.27Z"/><path class="cls-4" d="M929.58,764.67l-.9-3.42h-5.93l-.92,3.42h-5.42l6-18.31h6.57l6,18.31Zm-1.92-7.46-.79-3c-.18-.67-.41-1.53-.67-2.59s-.43-1.81-.52-2.27c-.07.43-.22,1.13-.44,2.1s-.71,2.89-1.46,5.75Z"/><path class="cls-4" d="M954.31,764.67h-6.46l-6.67-12.85h-.11c.16,2,.24,3.56.24,4.63v8.22h-4.37V746.43h6.44L950,759.11h.07c-.11-1.84-.17-3.32-.17-4.43v-8.25h4.39Z"/><path class="cls-4" d="M965.58,754h7.87v9.83a21.45,21.45,0,0,1-7.05,1.1,8.53,8.53,0,0,1-6.52-2.44q-2.29-2.44-2.3-7a9.16,9.16,0,0,1,2.52-6.87,9.68,9.68,0,0,1,7.06-2.46,16.06,16.06,0,0,1,3.25.32,13.58,13.58,0,0,1,2.67.83l-1.56,3.86a9.79,9.79,0,0,0-4.33-1,4.1,4.1,0,0,0-3.34,1.41,6,6,0,0,0-1.18,4,6.18,6.18,0,0,0,1.07,3.9,3.7,3.7,0,0,0,3.07,1.34,9.08,9.08,0,0,0,2-.21V757.8h-3.25Z"/><path class="cls-4" d="M984.49,754h7.88v9.83a21.45,21.45,0,0,1-7,1.1,8.51,8.51,0,0,1-6.52-2.44c-1.54-1.63-2.3-4-2.3-7a9.16,9.16,0,0,1,2.52-6.87,9.68,9.68,0,0,1,7.06-2.46,16.06,16.06,0,0,1,3.25.32,13.26,13.26,0,0,1,2.66.83l-1.56,3.86a9.73,9.73,0,0,0-4.33-1,4.1,4.1,0,0,0-3.33,1.41,6,6,0,0,0-1.18,4,6.18,6.18,0,0,0,1.06,3.9,3.73,3.73,0,0,0,3.08,1.34,9.08,9.08,0,0,0,2-.21V757.8h-3.26Z"/><path class="cls-4" d="M1007.28,764.67l-.9-3.42h-5.93l-.92,3.42h-5.41l6-18.31h6.57l6,18.31Zm-1.92-7.46-.79-3c-.18-.67-.4-1.53-.67-2.59s-.43-1.81-.51-2.27q-.12.64-.45,2.1t-1.46,5.75Z"/><path class="cls-4" d="M1019.57,758v6.63h-4.93V746.43h6q7.44,0,7.44,5.39a5.39,5.39,0,0,1-3.1,4.9l5.32,7.95h-5.59l-3.87-6.63Zm0-3.71h.92c1.73,0,2.59-.76,2.59-2.29,0-1.25-.85-1.88-2.54-1.88h-1Z"/><path class="cls-4" d="M1051.81,752.23A6.14,6.14,0,0,1,1050,757a7.27,7.27,0,0,1-5.12,1.66h-1.39v6h-4.92V746.43h6.31a7.71,7.71,0,0,1,5.19,1.51A5.38,5.38,0,0,1,1051.81,752.23Zm-8.31,2.37h.9a2.45,2.45,0,0,0,1.77-.62,2.25,2.25,0,0,0,.65-1.72c0-1.23-.68-1.85-2-1.85h-1.28Z"/><path class="cls-4" d="M1071.79,755.53q0,4.61-2.26,7c-1.5,1.59-3.71,2.39-6.61,2.39a8.64,8.64,0,0,1-6.58-2.41q-2.29-2.4-2.29-7c0-3,.76-5.35,2.28-7s3.72-2.4,6.62-2.4,5.1.8,6.6,2.39S1071.79,752.45,1071.79,755.53Zm-12.55,0c0,3.52,1.23,5.29,3.68,5.29a3.17,3.17,0,0,0,2.78-1.29,9.33,9.33,0,0,0,0-8,3.11,3.11,0,0,0-2.73-1.3C1060.47,750.19,1059.24,752,1059.24,755.53Z"/><path class="cls-4" d="M1080,758v6.63h-4.93V746.43h6q7.44,0,7.44,5.39a5.38,5.38,0,0,1-3.09,4.9l5.31,7.95h-5.59l-3.87-6.63Zm0-3.71h.92c1.72,0,2.58-.76,2.58-2.29,0-1.25-.84-1.88-2.53-1.88h-1Z"/><path class="cls-4" d="M1100.43,764.67h-4.93V750.46h-4.45v-4h13.82v4h-4.44Z"/></g></svg>