<svg id="details" xmlns="http://www.w3.org/2000/svg" viewBox="0 0 1920 1080"><defs><style>.cls-1{fill:#fc7a00;opacity:0.2;}.cls-2,.cls-4{fill:#fff;}.cls-2{stroke:#fc7a00;stroke-linejoin:round;stroke-width:6px;}.cls-3{fill:#3b3b3b;}.cls-5{fill:#a36a2a;}</style></defs><title>Malaysia map OL</title><g id="marker-chinasea"><circle class="cls-1" cx="666" cy="122" r="55.68"/><circle class="cls-2" cx="666" cy="122" r="12.06"/></g><g id="caption06"><rect class="cls-3" x="378" y="181.24" width="584" height="198.52"/><path class="cls-4" d="M416,225.87V211.59h1.66v12.77h6.3v1.51Z"/><path class="cls-4" d="M435.34,220.5a5.9,5.9,0,0,1-1.32,4.09,4.64,4.64,0,0,1-3.64,1.47,4.81,4.81,0,0,1-2.55-.67,4.46,4.46,0,0,1-1.72-1.94,6.78,6.78,0,0,1-.61-2.95,5.89,5.89,0,0,1,1.31-4.07,4.62,4.62,0,0,1,3.64-1.46,4.5,4.5,0,0,1,3.56,1.49A5.84,5.84,0,0,1,435.34,220.5Zm-8.16,0a5.15,5.15,0,0,0,.82,3.13,2.87,2.87,0,0,0,2.42,1.07,2.84,2.84,0,0,0,2.41-1.07,5,5,0,0,0,.83-3.13,5,5,0,0,0-.83-3.1,2.91,2.91,0,0,0-2.43-1.06,2.85,2.85,0,0,0-2.41,1A5,5,0,0,0,427.18,220.5Z"/><path class="cls-4" d="M442.46,226.06a4.58,4.58,0,0,1-3.6-1.43,5.87,5.87,0,0,1-1.28-4,6.09,6.09,0,0,1,1.3-4.15,4.67,4.67,0,0,1,3.68-1.46,7.42,7.42,0,0,1,1.55.16,5.05,5.05,0,0,1,1.21.39l-.5,1.38a8.94,8.94,0,0,0-1.17-.36,5.51,5.51,0,0,0-1.12-.14q-3.27,0-3.27,4.16a5,5,0,0,0,.8,3,2.78,2.78,0,0,0,2.36,1,7.27,7.27,0,0,0,2.74-.57v1.43A5.72,5.72,0,0,1,442.46,226.06Z"/><path class="cls-4" d="M454.28,225.87l-.32-1.53h-.08a4.38,4.38,0,0,1-1.59,1.36,4.85,4.85,0,0,1-2,.36,3.59,3.59,0,0,1-2.5-.82,3,3,0,0,1-.9-2.33q0-3.25,5.19-3.4l1.81-.06v-.66a2.75,2.75,0,0,0-.54-1.87,2.23,2.23,0,0,0-1.73-.6,7.19,7.19,0,0,0-3,.82l-.5-1.24a8,8,0,0,1,1.73-.67,7.65,7.65,0,0,1,1.89-.24,4.05,4.05,0,0,1,2.84.85,3.51,3.51,0,0,1,.92,2.72v7.31Zm-3.66-1.15a3.27,3.27,0,0,0,2.38-.83,3,3,0,0,0,.86-2.32v-1l-1.62.07a5.9,5.9,0,0,0-2.79.6,1.81,1.81,0,0,0-.85,1.66,1.67,1.67,0,0,0,.53,1.33A2.2,2.2,0,0,0,450.62,224.72Z"/><path class="cls-4" d="M462.28,224.72a5.59,5.59,0,0,0,.83-.06,6.4,6.4,0,0,0,.64-.13v1.24a3.51,3.51,0,0,1-.78.21,6.48,6.48,0,0,1-.92.08q-3.1,0-3.11-3.27v-6.37h-1.53v-.78l1.53-.67.68-2.29h.94v2.48h3.11v1.26h-3.11v6.3a2.21,2.21,0,0,0,.46,1.49A1.62,1.62,0,0,0,462.28,224.72Z"/><path class="cls-4" d="M465.75,212.26a1.07,1.07,0,0,1,.27-.81.93.93,0,0,1,.69-.26,1,1,0,0,1,.67.26,1.33,1.33,0,0,1,0,1.63,1,1,0,0,1-1.36,0A1.11,1.11,0,0,1,465.75,212.26Zm1.76,13.61h-1.63V215.16h1.63Z"/><path class="cls-4" d="M480.18,220.5a5.9,5.9,0,0,1-1.32,4.09,4.64,4.64,0,0,1-3.64,1.47,4.81,4.81,0,0,1-2.55-.67,4.52,4.52,0,0,1-1.72-1.94,6.78,6.78,0,0,1-.6-2.95,5.84,5.84,0,0,1,1.31-4.07,4.6,4.6,0,0,1,3.63-1.46,4.51,4.51,0,0,1,3.57,1.49A5.89,5.89,0,0,1,480.18,220.5Zm-8.15,0a5.08,5.08,0,0,0,.82,3.13,3.26,3.26,0,0,0,4.83,0,5,5,0,0,0,.82-3.13,5,5,0,0,0-.82-3.1,2.93,2.93,0,0,0-2.44-1.06,2.84,2.84,0,0,0-2.4,1A5,5,0,0,0,472,220.5Z"/><path class="cls-4" d="M490.35,225.87v-6.93a2.78,2.78,0,0,0-.6-1.95,2.43,2.43,0,0,0-1.86-.65,3.09,3.09,0,0,0-2.46.91,4.61,4.61,0,0,0-.79,3v5.62H483V215.16h1.32l.27,1.47h.07a3.35,3.35,0,0,1,1.4-1.23,4.54,4.54,0,0,1,2-.43,4.07,4.07,0,0,1,2.91.93,4,4,0,0,1,1,3v7Z"/><path class="cls-4" d="M509.23,225.87l-2-6.28c-.12-.39-.35-1.26-.69-2.62h-.08c-.26,1.14-.49,2-.68,2.64l-2,6.26h-1.87L499,215.16h1.7l1.58,6.14a27.3,27.3,0,0,1,.62,2.85H503c.08-.37.19-.86.35-1.44s.3-1.06.42-1.41l2-6.14h1.76l1.91,6.14a20,20,0,0,1,.74,2.83h.08c0-.24.1-.6.21-1.09s.79-3.11,2-7.88h1.68l-3,10.71Z"/><path class="cls-4" d="M523.38,225.87v-6.93a2.78,2.78,0,0,0-.6-1.95,2.44,2.44,0,0,0-1.87-.65,3.06,3.06,0,0,0-2.46.92,4.64,4.64,0,0,0-.78,3v5.6h-1.62v-15.2h1.62v4.6a9,9,0,0,1-.08,1.38h.1a3.3,3.3,0,0,1,1.36-1.22,4.41,4.41,0,0,1,2-.44,4.12,4.12,0,0,1,2.94.93,3.9,3.9,0,0,1,1,3v7Z"/><path class="cls-4" d="M532.85,226.06a5,5,0,0,1-3.75-1.44,5.65,5.65,0,0,1-1.37-4,6.27,6.27,0,0,1,1.27-4.11,4.24,4.24,0,0,1,3.43-1.52,4,4,0,0,1,3.18,1.32,5.08,5.08,0,0,1,1.17,3.49v1h-7.37a4.25,4.25,0,0,0,1,2.86,3.29,3.29,0,0,0,2.55,1,8.6,8.6,0,0,0,3.41-.72v1.45a9.23,9.23,0,0,1-1.62.53A9,9,0,0,1,532.85,226.06Zm-.44-9.74a2.65,2.65,0,0,0-2.06.84,3.89,3.89,0,0,0-.9,2.33H535a3.54,3.54,0,0,0-.68-2.35A2.41,2.41,0,0,0,532.41,216.32Z"/><path class="cls-4" d="M544.43,215a7,7,0,0,1,1.28.11l-.23,1.51a5.35,5.35,0,0,0-1.17-.15,2.85,2.85,0,0,0-2.22,1.06,3.84,3.84,0,0,0-.92,2.62v5.75h-1.62V215.16h1.33l.19,2h.08a4.8,4.8,0,0,1,1.43-1.61A3.3,3.3,0,0,1,544.43,215Z"/><path class="cls-4" d="M552.23,226.06a4.91,4.91,0,0,1-3.74-1.44,5.6,5.6,0,0,1-1.37-4,6.22,6.22,0,0,1,1.27-4.11,4.22,4.22,0,0,1,3.42-1.52,4.07,4.07,0,0,1,3.19,1.32,5.08,5.08,0,0,1,1.17,3.49v1h-7.38a4.25,4.25,0,0,0,1,2.86,3.29,3.29,0,0,0,2.54,1,8.68,8.68,0,0,0,3.42-.72v1.45a9.32,9.32,0,0,1-1.63.53A8.9,8.9,0,0,1,552.23,226.06Zm-.44-9.74a2.63,2.63,0,0,0-2,.84,3.89,3.89,0,0,0-.91,2.33h5.6a3.6,3.6,0,0,0-.68-2.35A2.44,2.44,0,0,0,551.79,216.32Z"/><path class="cls-4" d="M570.48,212.87a4.68,4.68,0,0,0-3.71,1.56,6.34,6.34,0,0,0-1.36,4.3,6.44,6.44,0,0,0,1.31,4.33,4.66,4.66,0,0,0,3.74,1.53,12.68,12.68,0,0,0,3.41-.54v1.45a10.28,10.28,0,0,1-3.66.56,6.23,6.23,0,0,1-4.87-1.91,7.9,7.9,0,0,1-1.71-5.44,8.61,8.61,0,0,1,.82-3.87,5.92,5.92,0,0,1,2.39-2.56,7.2,7.2,0,0,1,3.66-.9,9,9,0,0,1,3.93.82l-.7,1.43A7.53,7.53,0,0,0,570.48,212.87Z"/><path class="cls-4" d="M584.07,225.87v-6.93a2.78,2.78,0,0,0-.6-1.95,2.41,2.41,0,0,0-1.86-.65,3.07,3.07,0,0,0-2.47.92,4.65,4.65,0,0,0-.77,3v5.6h-1.63v-15.2h1.63v4.6a10.47,10.47,0,0,1-.08,1.38h.09a3.33,3.33,0,0,1,1.37-1.22,4.37,4.37,0,0,1,2-.44,4.16,4.16,0,0,1,3,.93,3.94,3.94,0,0,1,1,3v7Z"/><path class="cls-4" d="M588.88,212.26a1,1,0,0,1,.28-.81.92.92,0,0,1,.68-.26,1,1,0,0,1,.67.26,1.29,1.29,0,0,1,0,1.63,1,1,0,0,1-1.35,0A1.07,1.07,0,0,1,588.88,212.26Zm1.76,13.61H589V215.16h1.62Z"/><path class="cls-4" d="M601.4,225.87v-6.93a2.82,2.82,0,0,0-.59-1.95,2.44,2.44,0,0,0-1.87-.65,3.09,3.09,0,0,0-2.46.91,4.61,4.61,0,0,0-.78,3v5.62h-1.62V215.16h1.32l.26,1.47h.08a3.33,3.33,0,0,1,1.39-1.23,4.56,4.56,0,0,1,2-.43,4.07,4.07,0,0,1,2.91.93,4,4,0,0,1,1,3v7Z"/><path class="cls-4" d="M610.88,226.06a4.92,4.92,0,0,1-3.75-1.44,5.6,5.6,0,0,1-1.37-4,6.22,6.22,0,0,1,1.27-4.11,4.22,4.22,0,0,1,3.43-1.52,4,4,0,0,1,3.18,1.32,5.08,5.08,0,0,1,1.17,3.49v1h-7.37a4.25,4.25,0,0,0,.95,2.86,3.29,3.29,0,0,0,2.54,1,8.61,8.61,0,0,0,3.42-.72v1.45a9.23,9.23,0,0,1-1.62.53A9,9,0,0,1,610.88,226.06Zm-.44-9.74a2.65,2.65,0,0,0-2.06.84,3.89,3.89,0,0,0-.9,2.33h5.59a3.6,3.6,0,0,0-.68-2.35A2.43,2.43,0,0,0,610.44,216.32Z"/><path class="cls-4" d="M624.48,223a2.68,2.68,0,0,1-1.11,2.3,5.27,5.27,0,0,1-3.13.81,6.78,6.78,0,0,1-3.32-.67v-1.51a8,8,0,0,0,1.66.62,6.78,6.78,0,0,0,1.7.22,3.83,3.83,0,0,0,2-.4,1.39,1.39,0,0,0,.14-2.31,8.88,8.88,0,0,0-2.11-1,11,11,0,0,1-2.12-1,2.9,2.9,0,0,1-.94-.94,2.59,2.59,0,0,1,.76-3.33,5,5,0,0,1,2.92-.75,8.48,8.48,0,0,1,3.37.7l-.57,1.32a7.67,7.67,0,0,0-2.92-.67,3.26,3.26,0,0,0-1.74.37,1.12,1.12,0,0,0-.59,1,1.24,1.24,0,0,0,.22.73,2.15,2.15,0,0,0,.71.58,15.5,15.5,0,0,0,1.88.79,7,7,0,0,1,2.57,1.4A2.45,2.45,0,0,1,624.48,223Z"/><path class="cls-4" d="M631.64,226.06a4.93,4.93,0,0,1-3.75-1.44,5.65,5.65,0,0,1-1.37-4,6.22,6.22,0,0,1,1.27-4.11,4.22,4.22,0,0,1,3.43-1.52,4,4,0,0,1,3.18,1.32,5.08,5.08,0,0,1,1.17,3.49v1H628.2a4.25,4.25,0,0,0,.95,2.86,3.29,3.29,0,0,0,2.55,1,8.6,8.6,0,0,0,3.41-.72v1.45a9.23,9.23,0,0,1-1.62.53A9,9,0,0,1,631.64,226.06Zm-.44-9.74a2.65,2.65,0,0,0-2.06.84,3.89,3.89,0,0,0-.9,2.33h5.59a3.54,3.54,0,0,0-.68-2.35A2.43,2.43,0,0,0,631.2,216.32Z"/><path class="cls-4" d="M650.11,225.87l-.32-1.53h-.08a4.38,4.38,0,0,1-1.59,1.36,4.85,4.85,0,0,1-2,.36,3.59,3.59,0,0,1-2.5-.82,3,3,0,0,1-.9-2.33q0-3.25,5.19-3.4l1.81-.06v-.66a2.75,2.75,0,0,0-.54-1.87,2.23,2.23,0,0,0-1.73-.6,7.19,7.19,0,0,0-3,.82l-.5-1.24a7.86,7.86,0,0,1,1.74-.67,7.51,7.51,0,0,1,1.88-.24,4.05,4.05,0,0,1,2.84.85,3.51,3.51,0,0,1,.92,2.72v7.31Zm-3.66-1.15a3.27,3.27,0,0,0,2.38-.83,3,3,0,0,0,.86-2.32v-1l-1.62.07a5.9,5.9,0,0,0-2.79.6,1.81,1.81,0,0,0-.85,1.66,1.67,1.67,0,0,0,.53,1.33A2.2,2.2,0,0,0,646.45,224.72Z"/><path class="cls-4" d="M656.18,215.16v7a2.82,2.82,0,0,0,.59,1.95,2.43,2.43,0,0,0,1.87.64,3,3,0,0,0,2.45-.91,4.65,4.65,0,0,0,.78-3v-5.63h1.62v10.71h-1.34l-.23-1.44h-.09a3.19,3.19,0,0,1-1.38,1.21,4.65,4.65,0,0,1-2,.42,4.08,4.08,0,0,1-2.92-.93,4,4,0,0,1-1-3v-7Z"/><path class="cls-4" d="M670.39,224.72a5.69,5.69,0,0,0,.83-.06,6.11,6.11,0,0,0,.63-.13v1.24a3.26,3.26,0,0,1-.77.21,6.61,6.61,0,0,1-.93.08q-3.1,0-3.1-3.27v-6.37h-1.54v-.78l1.54-.67.68-2.29h.94v2.48h3.1v1.26h-3.1v6.3a2.16,2.16,0,0,0,.46,1.49A1.59,1.59,0,0,0,670.39,224.72Z"/><path class="cls-4" d="M681.31,225.87v-6.93a2.78,2.78,0,0,0-.59-1.95,2.44,2.44,0,0,0-1.87-.65,3.06,3.06,0,0,0-2.46.92,4.64,4.64,0,0,0-.78,3v5.6H674v-15.2h1.62v4.6a10.47,10.47,0,0,1-.08,1.38h.1a3.3,3.3,0,0,1,1.36-1.22,4.38,4.38,0,0,1,2-.44,4.12,4.12,0,0,1,2.94.93,3.9,3.9,0,0,1,1,3v7Z"/><path class="cls-4" d="M695.5,220.5a5.94,5.94,0,0,1-1.31,4.09,4.66,4.66,0,0,1-3.65,1.47,4.86,4.86,0,0,1-2.55-.67,4.44,4.44,0,0,1-1.71-1.94,6.64,6.64,0,0,1-.61-2.95,5.89,5.89,0,0,1,1.31-4.07,4.6,4.6,0,0,1,3.63-1.46,4.51,4.51,0,0,1,3.57,1.49A5.89,5.89,0,0,1,695.5,220.5Zm-8.15,0a5.08,5.08,0,0,0,.82,3.13,3.26,3.26,0,0,0,4.83,0,5,5,0,0,0,.82-3.13,5,5,0,0,0-.82-3.1,2.92,2.92,0,0,0-2.44-1.06,2.84,2.84,0,0,0-2.4,1A5,5,0,0,0,687.35,220.5Z"/><path class="cls-4" d="M703.23,215a7.1,7.1,0,0,1,1.28.11l-.23,1.51a5.35,5.35,0,0,0-1.17-.15,2.83,2.83,0,0,0-2.22,1.06,3.79,3.79,0,0,0-.92,2.62v5.75h-1.62V215.16h1.33l.19,2H700a4.7,4.7,0,0,1,1.43-1.61A3.3,3.3,0,0,1,703.23,215Z"/><path class="cls-4" d="M706.37,212.26a1,1,0,0,1,.28-.81.92.92,0,0,1,.68-.26,1,1,0,0,1,.67.26,1.29,1.29,0,0,1,0,1.63,1,1,0,0,1-1.35,0A1.07,1.07,0,0,1,706.37,212.26Zm1.76,13.61h-1.62V215.16h1.62Z"/><path class="cls-4" d="M715,224.72a5.69,5.69,0,0,0,.83-.06c.26,0,.47-.09.63-.13v1.24a3.36,3.36,0,0,1-.78.21,6.48,6.48,0,0,1-.92.08q-3.1,0-3.1-3.27v-6.37h-1.54v-.78l1.54-.67.68-2.29h.94v2.48h3.1v1.26h-3.1v6.3a2.16,2.16,0,0,0,.46,1.49A1.59,1.59,0,0,0,715,224.72Z"/><path class="cls-4" d="M718.49,212.26a1,1,0,0,1,.28-.81.92.92,0,0,1,.68-.26,1,1,0,0,1,.67.26,1.29,1.29,0,0,1,0,1.63.94.94,0,0,1-.67.27.93.93,0,0,1-.68-.27A1.07,1.07,0,0,1,718.49,212.26Zm1.76,13.61h-1.62V215.16h1.62Z"/><path class="cls-4" d="M728.21,226.06a5,5,0,0,1-3.75-1.44,5.65,5.65,0,0,1-1.37-4,6.22,6.22,0,0,1,1.28-4.11,4.22,4.22,0,0,1,3.42-1.52,4,4,0,0,1,3.18,1.32,5.08,5.08,0,0,1,1.17,3.49v1h-7.37a4.25,4.25,0,0,0,1,2.86,3.31,3.31,0,0,0,2.55,1,8.68,8.68,0,0,0,3.42-.72v1.45a9.6,9.6,0,0,1-1.63.53A9,9,0,0,1,728.21,226.06Zm-.44-9.74a2.65,2.65,0,0,0-2.06.84,3.89,3.89,0,0,0-.9,2.33h5.6a3.54,3.54,0,0,0-.69-2.35A2.4,2.4,0,0,0,727.77,216.32Z"/><path class="cls-4" d="M741.81,223a2.68,2.68,0,0,1-1.11,2.3,5.23,5.23,0,0,1-3.13.81,6.83,6.83,0,0,1-3.32-.67v-1.51a8.23,8.23,0,0,0,1.66.62,6.9,6.9,0,0,0,1.7.22,3.9,3.9,0,0,0,2-.4,1.4,1.4,0,0,0,.14-2.31,9,9,0,0,0-2.12-1,11.32,11.32,0,0,1-2.12-1,3,3,0,0,1-.94-.94,2.5,2.5,0,0,1-.31-1.26,2.42,2.42,0,0,1,1.07-2.07,5,5,0,0,1,2.92-.75,8.53,8.53,0,0,1,3.38.7L741,217a7.63,7.63,0,0,0-2.92-.67,3.26,3.26,0,0,0-1.74.37,1.11,1.11,0,0,0-.58,1,1.17,1.17,0,0,0,.22.73,2,2,0,0,0,.71.58,15.15,15.15,0,0,0,1.87.79,6.87,6.87,0,0,1,2.57,1.4A2.45,2.45,0,0,1,741.81,223Z"/><path class="cls-4" d="M756.55,223a2.68,2.68,0,0,1-1.11,2.3,5.27,5.27,0,0,1-3.13.81,6.78,6.78,0,0,1-3.32-.67v-1.51a8,8,0,0,0,1.66.62,6.78,6.78,0,0,0,1.7.22,3.83,3.83,0,0,0,1.95-.4,1.39,1.39,0,0,0,.14-2.31,8.88,8.88,0,0,0-2.11-1,11,11,0,0,1-2.12-1,2.9,2.9,0,0,1-.94-.94,2.59,2.59,0,0,1,.76-3.33A5,5,0,0,1,753,215a8.48,8.48,0,0,1,3.37.7l-.57,1.32a7.67,7.67,0,0,0-2.92-.67,3.26,3.26,0,0,0-1.74.37,1.12,1.12,0,0,0-.59,1,1.24,1.24,0,0,0,.22.73,2.15,2.15,0,0,0,.71.58,15.5,15.5,0,0,0,1.88.79,7,7,0,0,1,2.57,1.4A2.45,2.45,0,0,1,756.55,223Z"/><path class="cls-4" d="M760.71,215.16v7a2.82,2.82,0,0,0,.59,1.95,2.43,2.43,0,0,0,1.87.64,3.06,3.06,0,0,0,2.46-.91,4.71,4.71,0,0,0,.77-3v-5.63H768v10.71h-1.33l-.24-1.44h-.09a3.19,3.19,0,0,1-1.38,1.21,4.65,4.65,0,0,1-2,.42,4.08,4.08,0,0,1-2.92-.93,4,4,0,0,1-1-3v-7Z"/><path class="cls-4" d="M778.37,223a2.69,2.69,0,0,1-1.12,2.3,5.22,5.22,0,0,1-3.12.81,6.78,6.78,0,0,1-3.32-.67v-1.51a7.92,7.92,0,0,0,1.65.62,6.92,6.92,0,0,0,1.71.22,3.89,3.89,0,0,0,2-.4,1.34,1.34,0,0,0,.68-1.24,1.36,1.36,0,0,0-.54-1.07,9.09,9.09,0,0,0-2.11-1,11.18,11.18,0,0,1-2.13-1,3,3,0,0,1-.94-.94,2.5,2.5,0,0,1-.3-1.26,2.41,2.41,0,0,1,1.06-2.07,5,5,0,0,1,2.92-.75,8.53,8.53,0,0,1,3.38.7l-.58,1.32a7.59,7.59,0,0,0-2.92-.67,3.25,3.25,0,0,0-1.73.37,1.12,1.12,0,0,0-.59,1,1.17,1.17,0,0,0,.22.73,2,2,0,0,0,.71.58,15.15,15.15,0,0,0,1.87.79,7,7,0,0,1,2.58,1.4A2.5,2.5,0,0,1,778.37,223Z"/><path class="cls-4" d="M786,226.06a4.63,4.63,0,0,1-1.91-.39,3.58,3.58,0,0,1-1.45-1.18h-.11a16,16,0,0,1,.11,1.78v4.4H781V215.16h1.32l.22,1.47h.08a3.72,3.72,0,0,1,1.46-1.27A4.42,4.42,0,0,1,786,215a4,4,0,0,1,3.29,1.45,7.73,7.73,0,0,1,0,8.18A4,4,0,0,1,786,226.06Zm-.23-9.72a2.86,2.86,0,0,0-2.37.91,4.72,4.72,0,0,0-.76,2.89v.36a5.29,5.29,0,0,0,.76,3.23,2.84,2.84,0,0,0,2.41,1,2.5,2.5,0,0,0,2.17-1.12,5.36,5.36,0,0,0,.79-3.1,5.15,5.15,0,0,0-.79-3.07A2.59,2.59,0,0,0,785.75,216.34Z"/><path class="cls-4" d="M797.78,226.06a5,5,0,0,1-3.75-1.44,5.65,5.65,0,0,1-1.37-4,6.22,6.22,0,0,1,1.28-4.11,4.22,4.22,0,0,1,3.42-1.52,4,4,0,0,1,3.18,1.32,5.08,5.08,0,0,1,1.17,3.49v1h-7.37a4.25,4.25,0,0,0,.95,2.86,3.31,3.31,0,0,0,2.55,1,8.68,8.68,0,0,0,3.42-.72v1.45a9.6,9.6,0,0,1-1.63.53A9,9,0,0,1,797.78,226.06Zm-.44-9.74a2.65,2.65,0,0,0-2.06.84,3.89,3.89,0,0,0-.9,2.33H800a3.54,3.54,0,0,0-.69-2.35A2.4,2.4,0,0,0,797.34,216.32Z"/><path class="cls-4" d="M808.76,226.06a4.58,4.58,0,0,1-3.6-1.43,5.87,5.87,0,0,1-1.28-4,6,6,0,0,1,1.3-4.15,4.67,4.67,0,0,1,3.68-1.46,7.42,7.42,0,0,1,1.55.16,5.21,5.21,0,0,1,1.21.39l-.5,1.38a8.94,8.94,0,0,0-1.17-.36,5.6,5.6,0,0,0-1.13-.14q-3.26,0-3.26,4.16a5,5,0,0,0,.8,3,2.77,2.77,0,0,0,2.36,1,7.27,7.27,0,0,0,2.74-.57v1.43A5.72,5.72,0,0,1,808.76,226.06Z"/><path class="cls-4" d="M817.46,224.72a5.69,5.69,0,0,0,.83-.06,6.11,6.11,0,0,0,.63-.13v1.24a3.26,3.26,0,0,1-.77.21,6.61,6.61,0,0,1-.93.08q-3.11,0-3.1-3.27v-6.37h-1.54v-.78l1.54-.67.68-2.29h.94v2.48h3.1v1.26h-3.1v6.3a2.16,2.16,0,0,0,.46,1.49A1.59,1.59,0,0,0,817.46,224.72Z"/><path class="cls-4" d="M831.24,226.06a4.56,4.56,0,0,1-1.91-.39,3.52,3.52,0,0,1-1.45-1.18h-.12a14,14,0,0,1,.12,1.78v4.4h-1.62V215.16h1.31l.23,1.47h.08a3.69,3.69,0,0,1,1.45-1.27,4.46,4.46,0,0,1,1.91-.39,3.94,3.94,0,0,1,3.28,1.45,6.41,6.41,0,0,1,1.16,4.08,6.34,6.34,0,0,1-1.18,4.1A4,4,0,0,1,831.24,226.06Zm-.24-9.72a2.89,2.89,0,0,0-2.37.91,4.65,4.65,0,0,0-.75,2.89v.36a5.37,5.37,0,0,0,.75,3.23,2.84,2.84,0,0,0,2.41,1,2.49,2.49,0,0,0,2.17-1.12,5.29,5.29,0,0,0,.79-3.1,5.08,5.08,0,0,0-.79-3.07A2.59,2.59,0,0,0,831,216.34Z"/><path class="cls-4" d="M845.09,225.87l-.32-1.53h-.08a4.38,4.38,0,0,1-1.59,1.36,4.85,4.85,0,0,1-2,.36,3.59,3.59,0,0,1-2.5-.82,3,3,0,0,1-.9-2.33q0-3.25,5.19-3.4l1.81-.06v-.66a2.75,2.75,0,0,0-.54-1.87,2.23,2.23,0,0,0-1.73-.6,7.19,7.19,0,0,0-3,.82l-.5-1.24a7.86,7.86,0,0,1,1.74-.67,7.53,7.53,0,0,1,1.89-.24,4,4,0,0,1,2.83.85,3.51,3.51,0,0,1,.92,2.72v7.31Zm-3.66-1.15a3.27,3.27,0,0,0,2.38-.83,3,3,0,0,0,.86-2.32v-1l-1.62.07a5.9,5.9,0,0,0-2.79.6,1.83,1.83,0,0,0-.85,1.66,1.67,1.67,0,0,0,.53,1.33A2.2,2.2,0,0,0,841.43,224.72Z"/><path class="cls-4" d="M857,225.87v-6.93a2.78,2.78,0,0,0-.6-1.95,2.41,2.41,0,0,0-1.86-.65,3.09,3.09,0,0,0-2.46.91,4.61,4.61,0,0,0-.78,3v5.62h-1.63V215.16H851l.27,1.47h.07a3.35,3.35,0,0,1,1.4-1.23,4.54,4.54,0,0,1,2-.43,4.07,4.07,0,0,1,2.91.93,4,4,0,0,1,1,3v7Z"/><path class="cls-4" d="M870.67,215.16v1l-2,.23a3.86,3.86,0,0,1,.49.89,3.52,3.52,0,0,1,.21,1.25,3.17,3.17,0,0,1-1.07,2.51,4.32,4.32,0,0,1-3,.94,5.11,5.11,0,0,1-.9-.08,1.59,1.59,0,0,0-1,1.38.7.7,0,0,0,.36.65,2.7,2.7,0,0,0,1.25.21h1.89a4.22,4.22,0,0,1,2.67.73,2.55,2.55,0,0,1,.93,2.13,3,3,0,0,1-1.42,2.71,7.65,7.65,0,0,1-4.16.93,5.7,5.7,0,0,1-3.24-.78,2.53,2.53,0,0,1-1.14-2.21,2.48,2.48,0,0,1,.63-1.69,3.12,3.12,0,0,1,1.76-1,1.68,1.68,0,0,1-.69-.58,1.49,1.49,0,0,1-.28-.91,1.69,1.69,0,0,1,.31-1,3.18,3.18,0,0,1,1-.85,2.9,2.9,0,0,1-1.36-1.17,3.84,3.84,0,0,1,.54-4.58,4.28,4.28,0,0,1,3-.95,5.48,5.48,0,0,1,1.51.19Zm-8.54,12.5a1.46,1.46,0,0,0,.74,1.32,4,4,0,0,0,2.1.45,5.83,5.83,0,0,0,3-.61,1.88,1.88,0,0,0,1-1.66,1.29,1.29,0,0,0-.54-1.2,4.07,4.07,0,0,0-2-.34h-1.94a2.56,2.56,0,0,0-1.72.53A1.87,1.87,0,0,0,862.13,227.66Zm.88-9.07a2.2,2.2,0,0,0,.64,1.7,2.55,2.55,0,0,0,1.77.58,2.07,2.07,0,0,0,2.37-2.31,2.12,2.12,0,0,0-2.4-2.41,2.37,2.37,0,0,0-1.76.61A2.48,2.48,0,0,0,863,218.59Z"/><path class="cls-4" d="M882.11,220.5a5.9,5.9,0,0,1-1.32,4.09,4.66,4.66,0,0,1-3.65,1.47,4.8,4.8,0,0,1-2.54-.67,4.4,4.4,0,0,1-1.72-1.94,6.64,6.64,0,0,1-.61-2.95,5.89,5.89,0,0,1,1.31-4.07,4.6,4.6,0,0,1,3.63-1.46,4.51,4.51,0,0,1,3.57,1.49A5.89,5.89,0,0,1,882.11,220.5Zm-8.16,0a5.08,5.08,0,0,0,.82,3.13,3.26,3.26,0,0,0,4.83,0,5,5,0,0,0,.83-3.13,5,5,0,0,0-.83-3.1,2.92,2.92,0,0,0-2.44-1.06,2.84,2.84,0,0,0-2.4,1A5,5,0,0,0,874,220.5Z"/><path class="cls-4" d="M886.57,225.87H885v-15.2h1.62Z"/><path class="cls-4" d="M889.87,212.26a1.07,1.07,0,0,1,.27-.81.94.94,0,0,1,.69-.26,1,1,0,0,1,.67.26,1.33,1.33,0,0,1,0,1.63.94.94,0,0,1-.67.27,1,1,0,0,1-.69-.27A1.11,1.11,0,0,1,889.87,212.26Zm1.76,13.61H890V215.16h1.62Z"/><path class="cls-4" d="M902.39,225.87v-6.93a2.78,2.78,0,0,0-.6-1.95,2.41,2.41,0,0,0-1.86-.65,3.09,3.09,0,0,0-2.46.91,4.61,4.61,0,0,0-.78,3v5.62h-1.63V215.16h1.32l.27,1.47h.07a3.35,3.35,0,0,1,1.4-1.23,4.54,4.54,0,0,1,2-.43,4.07,4.07,0,0,1,2.91.93,4,4,0,0,1,1,3v7Z"/><path class="cls-4" d="M914.24,223a2.68,2.68,0,0,1-1.11,2.3,5.22,5.22,0,0,1-3.12.81,6.78,6.78,0,0,1-3.32-.67v-1.51a7.92,7.92,0,0,0,1.65.62,6.9,6.9,0,0,0,1.7.22,3.9,3.9,0,0,0,2-.4,1.4,1.4,0,0,0,.14-2.31,9.09,9.09,0,0,0-2.11-1,11.18,11.18,0,0,1-2.13-1,3,3,0,0,1-.94-.94,2.5,2.5,0,0,1-.3-1.26,2.41,2.41,0,0,1,1.06-2.07,5,5,0,0,1,2.92-.75,8.53,8.53,0,0,1,3.38.7l-.58,1.32a7.59,7.59,0,0,0-2.92-.67,3.22,3.22,0,0,0-1.73.37,1.1,1.1,0,0,0-.59,1,1.17,1.17,0,0,0,.22.73,2,2,0,0,0,.71.58,15.15,15.15,0,0,0,1.87.79,7,7,0,0,1,2.58,1.4A2.49,2.49,0,0,1,914.24,223Z"/><path class="cls-4" d="M424.46,255.87l-2-6.28c-.13-.39-.36-1.26-.7-2.62h-.08c-.26,1.14-.48,2-.68,2.64l-2,6.26h-1.88l-2.92-10.71h1.7l1.58,6.14a24.81,24.81,0,0,1,.62,2.85h.08c.07-.37.19-.86.35-1.44s.29-1.06.41-1.41l2-6.14h1.76l1.92,6.14a21.49,21.49,0,0,1,.74,2.83h.08a7.82,7.82,0,0,1,.21-1.09c.11-.49.79-3.11,2-7.88h1.68l-3,10.71Z"/><path class="cls-4" d="M435.8,256.06a4.93,4.93,0,0,1-3.75-1.44,5.65,5.65,0,0,1-1.37-4,6.22,6.22,0,0,1,1.27-4.11,4.22,4.22,0,0,1,3.43-1.52,4,4,0,0,1,3.18,1.32,5.08,5.08,0,0,1,1.17,3.49v1h-7.37a4.25,4.25,0,0,0,.95,2.86,3.29,3.29,0,0,0,2.55,1,8.6,8.6,0,0,0,3.41-.72v1.45a9.23,9.23,0,0,1-1.62.53A9,9,0,0,1,435.8,256.06Zm-.44-9.74a2.65,2.65,0,0,0-2.06.84,3.89,3.89,0,0,0-.9,2.33H438a3.54,3.54,0,0,0-.68-2.35A2.43,2.43,0,0,0,435.36,246.32Z"/><path class="cls-4" d="M447.38,245a7.1,7.1,0,0,1,1.28.11l-.23,1.51a5.35,5.35,0,0,0-1.17-.15A2.85,2.85,0,0,0,445,247.5a3.79,3.79,0,0,0-.92,2.62v5.75H442.5V245.16h1.33l.19,2h.08a4.8,4.8,0,0,1,1.43-1.61A3.3,3.3,0,0,1,447.38,245Z"/><path class="cls-4" d="M455.18,256.06a4.91,4.91,0,0,1-3.74-1.44,5.61,5.61,0,0,1-1.38-4,6.22,6.22,0,0,1,1.28-4.11,4.22,4.22,0,0,1,3.42-1.52,4.07,4.07,0,0,1,3.19,1.32,5.08,5.08,0,0,1,1.17,3.49v1h-7.38a4.25,4.25,0,0,0,1,2.86,3.29,3.29,0,0,0,2.54,1,8.68,8.68,0,0,0,3.42-.72v1.45a9.6,9.6,0,0,1-1.63.53A9,9,0,0,1,455.18,256.06Zm-.44-9.74a2.63,2.63,0,0,0-2.05.84,3.89,3.89,0,0,0-.91,2.33h5.6a3.6,3.6,0,0,0-.68-2.35A2.44,2.44,0,0,0,454.74,246.32Z"/><path class="cls-4" d="M470.53,254.72a5.49,5.49,0,0,0,.83-.06,6.4,6.4,0,0,0,.64-.13v1.24a3.51,3.51,0,0,1-.78.21,6.48,6.48,0,0,1-.92.08q-3.1,0-3.11-3.27v-6.37h-1.53v-.78l1.53-.67.69-2.29h.93v2.48h3.11v1.26h-3.11v6.3a2.21,2.21,0,0,0,.46,1.49A1.62,1.62,0,0,0,470.53,254.72Z"/><path class="cls-4" d="M479,245a7,7,0,0,1,1.28.11l-.23,1.51a5.35,5.35,0,0,0-1.17-.15,2.85,2.85,0,0,0-2.22,1.06,3.84,3.84,0,0,0-.92,2.62v5.75h-1.62V245.16h1.33l.19,2h.08a4.8,4.8,0,0,1,1.43-1.61A3.3,3.3,0,0,1,479,245Z"/><path class="cls-4" d="M488.88,255.87l-.32-1.53h-.08a4.38,4.38,0,0,1-1.59,1.36,4.85,4.85,0,0,1-2,.36,3.59,3.59,0,0,1-2.5-.82,3,3,0,0,1-.9-2.33q0-3.25,5.19-3.4l1.81-.06v-.66a2.75,2.75,0,0,0-.54-1.87,2.23,2.23,0,0,0-1.73-.6,7.16,7.16,0,0,0-3,.82l-.5-1.24a8,8,0,0,1,1.73-.67,7.65,7.65,0,0,1,1.89-.24,4.05,4.05,0,0,1,2.84.85,3.51,3.51,0,0,1,.92,2.72v7.31Zm-3.66-1.15a3.27,3.27,0,0,0,2.38-.83,3.09,3.09,0,0,0,.86-2.32v-1l-1.62.07a5.9,5.9,0,0,0-2.79.6,1.81,1.81,0,0,0-.85,1.66,1.67,1.67,0,0,0,.53,1.33A2.2,2.2,0,0,0,485.22,254.72Z"/><path class="cls-4" d="M500.75,255.87v-6.93a2.78,2.78,0,0,0-.6-1.95,2.43,2.43,0,0,0-1.86-.65,3.09,3.09,0,0,0-2.46.91,4.61,4.61,0,0,0-.79,3v5.62h-1.62V245.16h1.32l.27,1.47h.07a3.35,3.35,0,0,1,1.4-1.23,4.54,4.54,0,0,1,2-.43,4.07,4.07,0,0,1,2.91.93,4,4,0,0,1,1,3v7Z"/><path class="cls-4" d="M512.6,253a2.68,2.68,0,0,1-1.11,2.3,5.22,5.22,0,0,1-3.12.81,6.84,6.84,0,0,1-3.33-.67v-1.51a8.23,8.23,0,0,0,1.66.62,6.9,6.9,0,0,0,1.7.22,3.9,3.9,0,0,0,2-.4,1.4,1.4,0,0,0,.14-2.31,9,9,0,0,0-2.12-1,11.32,11.32,0,0,1-2.12-1,3,3,0,0,1-.94-.94,2.5,2.5,0,0,1-.3-1.26,2.41,2.41,0,0,1,1.06-2.07A5,5,0,0,1,509,245a8.53,8.53,0,0,1,3.38.7L511.8,247a7.63,7.63,0,0,0-2.92-.67,3.29,3.29,0,0,0-1.74.37,1.11,1.11,0,0,0-.58,1,1.17,1.17,0,0,0,.22.73,2,2,0,0,0,.71.58,15.15,15.15,0,0,0,1.87.79,6.87,6.87,0,0,1,2.57,1.4A2.45,2.45,0,0,1,512.6,253Z"/><path class="cls-4" d="M520.06,246.42h-2.72v9.45h-1.62v-9.45H513.8v-.73l1.92-.59v-.59q0-3.94,3.45-3.95a7.4,7.4,0,0,1,2,.34l-.42,1.3a5.44,5.44,0,0,0-1.6-.3,1.54,1.54,0,0,0-1.36.61,3.44,3.44,0,0,0-.44,2v.69h2.72Z"/><path class="cls-4" d="M526.54,256.06a5,5,0,0,1-3.75-1.44,5.65,5.65,0,0,1-1.37-4,6.22,6.22,0,0,1,1.28-4.11,4.22,4.22,0,0,1,3.42-1.52,4,4,0,0,1,3.18,1.32,5.08,5.08,0,0,1,1.17,3.49v1H523.1a4.25,4.25,0,0,0,.95,2.86,3.31,3.31,0,0,0,2.55,1,8.68,8.68,0,0,0,3.42-.72v1.45a9.6,9.6,0,0,1-1.63.53A9,9,0,0,1,526.54,256.06Zm-.44-9.74a2.65,2.65,0,0,0-2.06.84,3.89,3.89,0,0,0-.9,2.33h5.6a3.54,3.54,0,0,0-.69-2.35A2.4,2.4,0,0,0,526.1,246.32Z"/><path class="cls-4" d="M538.12,245a7,7,0,0,1,1.28.11l-.22,1.51a5.51,5.51,0,0,0-1.18-.15,2.85,2.85,0,0,0-2.22,1.06,3.84,3.84,0,0,0-.92,2.62v5.75h-1.62V245.16h1.34l.18,2h.08a4.82,4.82,0,0,1,1.44-1.61A3.24,3.24,0,0,1,538.12,245Z"/><path class="cls-4" d="M546.29,245a6.91,6.91,0,0,1,1.27.11l-.22,1.51a5.35,5.35,0,0,0-1.17-.15A2.82,2.82,0,0,0,544,247.5a3.8,3.8,0,0,0-.93,2.62v5.75H541.4V245.16h1.34l.19,2H543a4.82,4.82,0,0,1,1.44-1.61A3.28,3.28,0,0,1,546.29,245Z"/><path class="cls-4" d="M554.09,256.06a5,5,0,0,1-3.75-1.44,5.65,5.65,0,0,1-1.37-4,6.22,6.22,0,0,1,1.28-4.11,4.2,4.2,0,0,1,3.42-1.52,4,4,0,0,1,3.18,1.32,5.08,5.08,0,0,1,1.17,3.49v1h-7.37a4.25,4.25,0,0,0,1,2.86,3.31,3.31,0,0,0,2.55,1,8.6,8.6,0,0,0,3.41-.72v1.45a9.23,9.23,0,0,1-1.62.53A9,9,0,0,1,554.09,256.06Zm-.44-9.74a2.65,2.65,0,0,0-2.06.84,3.89,3.89,0,0,0-.9,2.33h5.6a3.54,3.54,0,0,0-.69-2.35A2.4,2.4,0,0,0,553.65,246.32Z"/><path class="cls-4" d="M568.07,254.43H568a3.78,3.78,0,0,1-3.36,1.63,4,4,0,0,1-3.26-1.44,6.28,6.28,0,0,1-1.17-4.08,6.44,6.44,0,0,1,1.17-4.11,4,4,0,0,1,3.26-1.46,3.86,3.86,0,0,1,3.34,1.58h.13l-.07-.77,0-.75v-4.36h1.63v15.2h-1.32Zm-3.24.27a3,3,0,0,0,2.41-.9,4.55,4.55,0,0,0,.74-2.92v-.34a5.44,5.44,0,0,0-.75-3.25,2.9,2.9,0,0,0-2.42-1,2.47,2.47,0,0,0-2.18,1.11,5.46,5.46,0,0,0-.76,3.13,5.31,5.31,0,0,0,.75,3.1A2.56,2.56,0,0,0,564.83,254.7Z"/><path class="cls-4" d="M581.7,254.72a5.69,5.69,0,0,0,.83-.06c.26,0,.47-.09.63-.13v1.24a3.36,3.36,0,0,1-.78.21,6.48,6.48,0,0,1-.92.08q-3.11,0-3.1-3.27v-6.37h-1.54v-.78l1.54-.67.68-2.29H580v2.48h3.1v1.26H580v6.3a2.16,2.16,0,0,0,.46,1.49A1.59,1.59,0,0,0,581.7,254.72Z"/><path class="cls-4" d="M594.54,250.5a5.9,5.9,0,0,1-1.32,4.09,4.64,4.64,0,0,1-3.64,1.47,4.81,4.81,0,0,1-2.55-.67,4.46,4.46,0,0,1-1.72-1.94,6.78,6.78,0,0,1-.61-2.95,5.89,5.89,0,0,1,1.31-4.07,4.6,4.6,0,0,1,3.63-1.46,4.51,4.51,0,0,1,3.57,1.49A5.84,5.84,0,0,1,594.54,250.5Zm-8.16,0a5.15,5.15,0,0,0,.82,3.13,2.87,2.87,0,0,0,2.42,1.07,2.84,2.84,0,0,0,2.41-1.07,5,5,0,0,0,.83-3.13,5,5,0,0,0-.83-3.1,2.91,2.91,0,0,0-2.43-1.06,2.85,2.85,0,0,0-2.41,1A5,5,0,0,0,586.38,250.5Z"/><path class="cls-4" d="M609.16,255.87l-.33-1.53h-.07a4.48,4.48,0,0,1-1.6,1.36,4.82,4.82,0,0,1-2,.36,3.54,3.54,0,0,1-2.49-.82,3,3,0,0,1-.91-2.33q0-3.25,5.19-3.4l1.82-.06v-.66a2.75,2.75,0,0,0-.55-1.87,2.23,2.23,0,0,0-1.73-.6,7.19,7.19,0,0,0-3,.82l-.5-1.24a7.86,7.86,0,0,1,1.74-.67,7.65,7.65,0,0,1,1.89-.24,4,4,0,0,1,2.83.85,3.51,3.51,0,0,1,.93,2.72v7.31Zm-3.67-1.15a3.26,3.26,0,0,0,2.38-.83,3.05,3.05,0,0,0,.87-2.32v-1l-1.62.07a5.9,5.9,0,0,0-2.79.6,1.82,1.82,0,0,0-.86,1.66,1.67,1.67,0,0,0,.53,1.33A2.21,2.21,0,0,0,605.49,254.72Z"/><path class="cls-4" d="M625.8,253a2.67,2.67,0,0,1-1.12,2.3,5.22,5.22,0,0,1-3.12.81,6.78,6.78,0,0,1-3.32-.67v-1.51a7.92,7.92,0,0,0,1.65.62,6.92,6.92,0,0,0,1.71.22,3.89,3.89,0,0,0,1.95-.4,1.34,1.34,0,0,0,.68-1.24,1.36,1.36,0,0,0-.54-1.07,8.88,8.88,0,0,0-2.11-1,11.18,11.18,0,0,1-2.13-1,2.86,2.86,0,0,1-.93-.94,2.6,2.6,0,0,1,.75-3.33,5,5,0,0,1,2.92-.75,8.5,8.5,0,0,1,3.38.7L625,247a7.67,7.67,0,0,0-2.92-.67,3.26,3.26,0,0,0-1.74.37,1.12,1.12,0,0,0-.59,1,1.24,1.24,0,0,0,.22.73,2,2,0,0,0,.71.58,15.15,15.15,0,0,0,1.87.79,7,7,0,0,1,2.58,1.4A2.5,2.5,0,0,1,625.8,253Z"/><path class="cls-4" d="M635.76,255.87v-6.93a2.78,2.78,0,0,0-.6-1.95,2.43,2.43,0,0,0-1.86-.65,3.07,3.07,0,0,0-2.47.92,4.64,4.64,0,0,0-.78,3v5.6h-1.62v-15.2h1.62v4.6a10.69,10.69,0,0,1-.07,1.38h.09a3.33,3.33,0,0,1,1.37-1.22,4.37,4.37,0,0,1,2-.44,4.16,4.16,0,0,1,2.95.93,3.94,3.94,0,0,1,1,3v7Z"/><path class="cls-4" d="M640.57,242.26a1,1,0,0,1,.28-.81.92.92,0,0,1,.68-.26,1,1,0,0,1,.67.26,1.29,1.29,0,0,1,0,1.63.94.94,0,0,1-.67.27.93.93,0,0,1-.68-.27A1.07,1.07,0,0,1,640.57,242.26Zm1.76,13.61h-1.62V245.16h1.62Z"/><path class="cls-4" d="M650.75,256.06a4.59,4.59,0,0,1-1.91-.39,3.52,3.52,0,0,1-1.45-1.18h-.12a14,14,0,0,1,.12,1.78v4.4h-1.62V245.16h1.32l.22,1.47h.08a3.76,3.76,0,0,1,1.45-1.27,4.46,4.46,0,0,1,1.91-.39,3.94,3.94,0,0,1,3.28,1.45,7.73,7.73,0,0,1,0,8.18A4,4,0,0,1,650.75,256.06Zm-.24-9.72a2.89,2.89,0,0,0-2.37.91,4.65,4.65,0,0,0-.75,2.89v.36a5.37,5.37,0,0,0,.75,3.23,2.86,2.86,0,0,0,2.41,1,2.52,2.52,0,0,0,2.18-1.12,5.36,5.36,0,0,0,.78-3.1,5.16,5.16,0,0,0-.78-3.07A2.62,2.62,0,0,0,650.51,246.34Z"/><path class="cls-4" d="M663,256.06a4.63,4.63,0,0,1-1.91-.39,3.65,3.65,0,0,1-1.45-1.18h-.11a13.93,13.93,0,0,1,.11,1.78v4.4H658V245.16h1.32l.23,1.47h.07a3.79,3.79,0,0,1,1.46-1.27A4.42,4.42,0,0,1,663,245a4,4,0,0,1,3.29,1.45,7.73,7.73,0,0,1,0,8.18A4,4,0,0,1,663,256.06Zm-.23-9.72a2.88,2.88,0,0,0-2.37.91,4.72,4.72,0,0,0-.76,2.89v.36a5.36,5.36,0,0,0,.76,3.23,2.84,2.84,0,0,0,2.41,1,2.5,2.5,0,0,0,2.17-1.12,5.29,5.29,0,0,0,.79-3.1,5.08,5.08,0,0,0-.79-3.07A2.59,2.59,0,0,0,662.77,246.34Z"/><path class="cls-4" d="M670.14,242.26a1,1,0,0,1,.28-.81.92.92,0,0,1,.68-.26,1,1,0,0,1,.67.26,1.29,1.29,0,0,1,0,1.63.94.94,0,0,1-.67.27.93.93,0,0,1-.68-.27A1.07,1.07,0,0,1,670.14,242.26Zm1.76,13.61h-1.62V245.16h1.62Z"/><path class="cls-4" d="M682.66,255.87v-6.93a2.82,2.82,0,0,0-.59-1.95,2.44,2.44,0,0,0-1.87-.65,3.09,3.09,0,0,0-2.46.91,4.61,4.61,0,0,0-.78,3v5.62h-1.62V245.16h1.32l.26,1.47H677a3.33,3.33,0,0,1,1.39-1.23,4.56,4.56,0,0,1,2-.43,4.07,4.07,0,0,1,2.91.93,4,4,0,0,1,1,3v7Z"/><path class="cls-4" d="M696.37,245.16v1l-2,.23a3.41,3.41,0,0,1,.7,2.14,3.14,3.14,0,0,1-1.07,2.51,4.32,4.32,0,0,1-2.95.94,5.11,5.11,0,0,1-.9-.08,1.58,1.58,0,0,0-1,1.38.7.7,0,0,0,.36.65,2.62,2.62,0,0,0,1.24.21h1.89a4.22,4.22,0,0,1,2.67.73,2.53,2.53,0,0,1,.94,2.13,3,3,0,0,1-1.43,2.71,7.65,7.65,0,0,1-4.16.93,5.7,5.7,0,0,1-3.24-.78,2.52,2.52,0,0,1-1.13-2.21,2.47,2.47,0,0,1,.62-1.69,3.15,3.15,0,0,1,1.76-1,1.75,1.75,0,0,1-.69-.58,1.49,1.49,0,0,1-.28-.91,1.76,1.76,0,0,1,.31-1,3.18,3.18,0,0,1,1-.85,2.92,2.92,0,0,1-1.35-1.17,3.37,3.37,0,0,1-.52-1.87,3.47,3.47,0,0,1,1-2.71,4.28,4.28,0,0,1,3-.95,5.43,5.43,0,0,1,1.51.19Zm-8.53,12.5a1.45,1.45,0,0,0,.73,1.32,4,4,0,0,0,2.1.45,5.81,5.81,0,0,0,3-.61,1.86,1.86,0,0,0,1-1.66,1.29,1.29,0,0,0-.53-1.2,4.12,4.12,0,0,0-2-.34h-2a2.58,2.58,0,0,0-1.72.53A1.87,1.87,0,0,0,687.84,257.66Zm.88-9.07a2.2,2.2,0,0,0,.63,1.7,2.55,2.55,0,0,0,1.77.58,2.07,2.07,0,0,0,2.37-2.31,2.12,2.12,0,0,0-2.4-2.41,2.38,2.38,0,0,0-1.76.61A2.48,2.48,0,0,0,688.72,248.59Z"/><path class="cls-4" d="M706.11,255.87l-4.06-10.71h1.74l2.3,6.35a30,30,0,0,1,.92,2.89h.08a20.08,20.08,0,0,1,.67-2.14c.39-1.09,1.24-3.45,2.57-7.1h1.74L708,255.87Z"/><path class="cls-4" d="M718.31,256.06a4.93,4.93,0,0,1-3.75-1.44,5.65,5.65,0,0,1-1.37-4,6.22,6.22,0,0,1,1.27-4.11,4.22,4.22,0,0,1,3.43-1.52,4,4,0,0,1,3.18,1.32,5.08,5.08,0,0,1,1.17,3.49v1h-7.37a4.25,4.25,0,0,0,1,2.86,3.29,3.29,0,0,0,2.55,1,8.6,8.6,0,0,0,3.41-.72v1.45a9.23,9.23,0,0,1-1.62.53A9,9,0,0,1,718.31,256.06Zm-.44-9.74a2.65,2.65,0,0,0-2.06.84,3.89,3.89,0,0,0-.9,2.33h5.59a3.54,3.54,0,0,0-.68-2.35A2.43,2.43,0,0,0,717.87,246.32Z"/><path class="cls-4" d="M731.91,253a2.68,2.68,0,0,1-1.11,2.3,5.27,5.27,0,0,1-3.13.81,6.8,6.8,0,0,1-3.32-.67v-1.51a8.23,8.23,0,0,0,1.66.62,6.84,6.84,0,0,0,1.7.22,3.83,3.83,0,0,0,1.95-.4,1.4,1.4,0,0,0,.15-2.31,9.22,9.22,0,0,0-2.12-1,11.32,11.32,0,0,1-2.12-1,2.9,2.9,0,0,1-.94-.94,2.59,2.59,0,0,1,.76-3.33,5,5,0,0,1,2.92-.75,8.57,8.57,0,0,1,3.38.7l-.58,1.32a7.63,7.63,0,0,0-2.92-.67,3.26,3.26,0,0,0-1.74.37,1.11,1.11,0,0,0-.58,1,1.23,1.23,0,0,0,.21.73,2.15,2.15,0,0,0,.71.58,15.5,15.5,0,0,0,1.88.79,7,7,0,0,1,2.57,1.4A2.45,2.45,0,0,1,731.91,253Z"/><path class="cls-4" d="M741.45,253a2.68,2.68,0,0,1-1.11,2.3,5.25,5.25,0,0,1-3.13.81,6.8,6.8,0,0,1-3.32-.67v-1.51a8.23,8.23,0,0,0,1.66.62,6.9,6.9,0,0,0,1.7.22,3.9,3.9,0,0,0,2-.4,1.4,1.4,0,0,0,.14-2.31,9,9,0,0,0-2.12-1,11.32,11.32,0,0,1-2.12-1,3,3,0,0,1-.94-.94,2.5,2.5,0,0,1-.31-1.26,2.42,2.42,0,0,1,1.07-2.07,5,5,0,0,1,2.92-.75,8.53,8.53,0,0,1,3.38.7l-.58,1.32a7.63,7.63,0,0,0-2.92-.67,3.26,3.26,0,0,0-1.74.37,1.11,1.11,0,0,0-.58,1,1.17,1.17,0,0,0,.22.73,2,2,0,0,0,.7.58,15.5,15.5,0,0,0,1.88.79,6.87,6.87,0,0,1,2.57,1.4A2.45,2.45,0,0,1,741.45,253Z"/><path class="cls-4" d="M748.61,256.06a5,5,0,0,1-3.75-1.44,5.65,5.65,0,0,1-1.37-4,6.22,6.22,0,0,1,1.28-4.11,4.22,4.22,0,0,1,3.42-1.52,4,4,0,0,1,3.18,1.32,5.08,5.08,0,0,1,1.17,3.49v1h-7.37a4.25,4.25,0,0,0,1,2.86,3.31,3.31,0,0,0,2.55,1,8.68,8.68,0,0,0,3.42-.72v1.45a9.6,9.6,0,0,1-1.63.53A9,9,0,0,1,748.61,256.06Zm-.44-9.74a2.65,2.65,0,0,0-2.06.84,3.89,3.89,0,0,0-.9,2.33h5.6a3.54,3.54,0,0,0-.69-2.35A2.4,2.4,0,0,0,748.17,246.32Z"/><path class="cls-4" d="M756.93,255.87h-1.62v-15.2h1.62Z"/><path class="cls-4" d="M769,254.72a5.62,5.62,0,0,0,1.46-.19v1.24a3.26,3.26,0,0,1-.77.21,6.48,6.48,0,0,1-.92.08c-2.08,0-3.11-1.09-3.11-3.27v-6.37h-1.53v-.78l1.53-.67.68-2.29h.94v2.48h3.11v1.26H767.3v6.3a2.16,2.16,0,0,0,.46,1.49A1.62,1.62,0,0,0,769,254.72Z"/><path class="cls-4" d="M780,255.87v-6.93a2.78,2.78,0,0,0-.6-1.95,2.43,2.43,0,0,0-1.86-.65,3.07,3.07,0,0,0-2.47.92,4.64,4.64,0,0,0-.78,3v5.6h-1.62v-15.2h1.62v4.6a10.69,10.69,0,0,1-.07,1.38h.09a3.33,3.33,0,0,1,1.37-1.22,4.34,4.34,0,0,1,2-.44,4.16,4.16,0,0,1,3,.93,3.94,3.94,0,0,1,1,3v7Z"/><path class="cls-4" d="M791.48,255.87l-.32-1.53h-.08a4.4,4.4,0,0,1-1.6,1.36,4.8,4.8,0,0,1-2,.36,3.55,3.55,0,0,1-2.5-.82,3,3,0,0,1-.9-2.33q0-3.25,5.18-3.4l1.82-.06v-.66a2.75,2.75,0,0,0-.54-1.87,2.24,2.24,0,0,0-1.74-.6,7.12,7.12,0,0,0-3,.82l-.5-1.24a7.78,7.78,0,0,1,1.73-.67,7.65,7.65,0,0,1,1.89-.24,4.07,4.07,0,0,1,2.84.85,3.54,3.54,0,0,1,.92,2.72v7.31Zm-3.66-1.15a3.27,3.27,0,0,0,2.38-.83,3.09,3.09,0,0,0,.86-2.32v-1l-1.62.07a5.9,5.9,0,0,0-2.79.6,1.81,1.81,0,0,0-.85,1.66,1.64,1.64,0,0,0,.53,1.33A2.18,2.18,0,0,0,787.82,254.72Z"/><path class="cls-4" d="M799.48,254.72a5.69,5.69,0,0,0,.83-.06,5.59,5.59,0,0,0,.63-.13v1.24a3.26,3.26,0,0,1-.77.21,6.49,6.49,0,0,1-.93.08q-3.11,0-3.1-3.27v-6.37h-1.53v-.78l1.53-.67.68-2.29h.94v2.48h3.11v1.26h-3.11v6.3a2.16,2.16,0,0,0,.46,1.49A1.59,1.59,0,0,0,799.48,254.72Z"/><path class="cls-4" d="M817,255.87l-2-6.28c-.12-.39-.35-1.26-.69-2.62h-.08c-.26,1.14-.49,2-.68,2.64l-2,6.26H809.7l-2.92-10.71h1.7l1.58,6.14a24.81,24.81,0,0,1,.62,2.85h.08c.07-.37.19-.86.34-1.44s.3-1.06.42-1.41l2-6.14h1.76l1.91,6.14a20.24,20.24,0,0,1,.75,2.83H818c0-.24.1-.6.21-1.09s.8-3.11,2-7.88h1.68l-3,10.71Z"/><path class="cls-4" d="M830.42,255.87l-.33-1.53H830a4.48,4.48,0,0,1-1.6,1.36,4.82,4.82,0,0,1-2,.36,3.54,3.54,0,0,1-2.49-.82,3,3,0,0,1-.91-2.33q0-3.25,5.19-3.4l1.82-.06v-.66a2.75,2.75,0,0,0-.55-1.87,2.23,2.23,0,0,0-1.73-.6,7.19,7.19,0,0,0-3,.82l-.5-1.24a7.86,7.86,0,0,1,1.74-.67,7.65,7.65,0,0,1,1.89-.24,4,4,0,0,1,2.83.85,3.51,3.51,0,0,1,.93,2.72v7.31Zm-3.67-1.15a3.26,3.26,0,0,0,2.38-.83,3.05,3.05,0,0,0,.87-2.32v-1l-1.62.07a5.9,5.9,0,0,0-2.79.6,1.82,1.82,0,0,0-.86,1.66,1.67,1.67,0,0,0,.53,1.33A2.21,2.21,0,0,0,826.75,254.72Z"/><path class="cls-4" d="M841.86,253a2.68,2.68,0,0,1-1.11,2.3,5.25,5.25,0,0,1-3.13.81,6.8,6.8,0,0,1-3.32-.67v-1.51a8.23,8.23,0,0,0,1.66.62,6.9,6.9,0,0,0,1.7.22,3.9,3.9,0,0,0,2-.4,1.4,1.4,0,0,0,.14-2.31,9,9,0,0,0-2.12-1,11.32,11.32,0,0,1-2.12-1,3,3,0,0,1-.94-.94,2.5,2.5,0,0,1-.31-1.26,2.42,2.42,0,0,1,1.07-2.07,5,5,0,0,1,2.92-.75,8.53,8.53,0,0,1,3.38.7l-.58,1.32a7.63,7.63,0,0,0-2.92-.67,3.26,3.26,0,0,0-1.74.37,1.11,1.11,0,0,0-.58,1,1.17,1.17,0,0,0,.22.73,2,2,0,0,0,.7.58,15.5,15.5,0,0,0,1.88.79,6.87,6.87,0,0,1,2.57,1.4A2.45,2.45,0,0,1,841.86,253Z"/><path class="cls-4" d="M422.62,283a2.68,2.68,0,0,1-1.11,2.3,5.23,5.23,0,0,1-3.13.81,6.83,6.83,0,0,1-3.32-.67v-1.51a8.23,8.23,0,0,0,1.66.62,6.9,6.9,0,0,0,1.7.22,3.9,3.9,0,0,0,2-.4,1.4,1.4,0,0,0,.14-2.31A9,9,0,0,0,418.4,281a11.32,11.32,0,0,1-2.12-1,3,3,0,0,1-.94-.94,2.5,2.5,0,0,1-.3-1.26,2.41,2.41,0,0,1,1.06-2.07A5,5,0,0,1,419,275a8.53,8.53,0,0,1,3.38.7l-.58,1.32a7.63,7.63,0,0,0-2.92-.67,3.26,3.26,0,0,0-1.74.37,1.11,1.11,0,0,0-.58,1,1.17,1.17,0,0,0,.22.73,2,2,0,0,0,.71.58,15.15,15.15,0,0,0,1.87.79,6.87,6.87,0,0,1,2.57,1.4A2.45,2.45,0,0,1,422.62,283Z"/><path class="cls-4" d="M426.78,275.16v6.95a2.78,2.78,0,0,0,.6,1.95,2.43,2.43,0,0,0,1.86.64,3.06,3.06,0,0,0,2.46-.91,4.65,4.65,0,0,0,.78-3v-5.63h1.62v10.71h-1.34l-.23-1.44h-.09a3.25,3.25,0,0,1-1.38,1.21,4.68,4.68,0,0,1-2,.42,4.11,4.11,0,0,1-2.93-.93,4,4,0,0,1-1-3v-7Z"/><path class="cls-4" d="M442.52,275a4,4,0,0,1,3.27,1.44,7.69,7.69,0,0,1,0,8.17,4,4,0,0,1-3.26,1.46,4.56,4.56,0,0,1-1.91-.39,3.52,3.52,0,0,1-1.45-1.18H439l-.34,1.38h-1.16v-15.2h1.62v3.69c0,.83,0,1.57-.08,2.23h.08A3.83,3.83,0,0,1,442.52,275Zm-.24,1.35a2.84,2.84,0,0,0-2.39,1,7.38,7.38,0,0,0,0,6.44,2.84,2.84,0,0,0,2.41,1,2.5,2.5,0,0,0,2.23-1.09,5.57,5.57,0,0,0,.73-3.13,5.35,5.35,0,0,0-.73-3.11A2.62,2.62,0,0,0,442.28,276.34Z"/><path class="cls-4" d="M456.7,283a2.69,2.69,0,0,1-1.12,2.3,5.22,5.22,0,0,1-3.12.81,6.78,6.78,0,0,1-3.32-.67v-1.51a7.92,7.92,0,0,0,1.65.62,6.92,6.92,0,0,0,1.71.22,3.89,3.89,0,0,0,1.95-.4,1.34,1.34,0,0,0,.68-1.24,1.36,1.36,0,0,0-.54-1.07,9.09,9.09,0,0,0-2.11-1.05,11.18,11.18,0,0,1-2.13-1,2.86,2.86,0,0,1-.93-.94,2.6,2.6,0,0,1,.75-3.33,5,5,0,0,1,2.92-.75,8.53,8.53,0,0,1,3.38.7l-.58,1.32a7.59,7.59,0,0,0-2.92-.67,3.25,3.25,0,0,0-1.73.37,1.12,1.12,0,0,0-.59,1,1.17,1.17,0,0,0,.22.73,2,2,0,0,0,.71.58,15.15,15.15,0,0,0,1.87.79,7,7,0,0,1,2.58,1.4A2.5,2.5,0,0,1,456.7,283Z"/><path class="cls-4" d="M463.85,286.06a4.91,4.91,0,0,1-3.74-1.44,5.6,5.6,0,0,1-1.37-4,6.22,6.22,0,0,1,1.27-4.11,4.22,4.22,0,0,1,3.42-1.52,4.05,4.05,0,0,1,3.19,1.32,5.08,5.08,0,0,1,1.17,3.49v1h-7.37a4.25,4.25,0,0,0,.95,2.86,3.29,3.29,0,0,0,2.54,1,8.68,8.68,0,0,0,3.42-.72v1.45a9.32,9.32,0,0,1-1.63.53A8.9,8.9,0,0,1,463.85,286.06Zm-.44-9.74a2.63,2.63,0,0,0-2.05.84,3.89,3.89,0,0,0-.9,2.33h5.59a3.6,3.6,0,0,0-.68-2.35A2.44,2.44,0,0,0,463.41,276.32Z"/><path class="cls-4" d="M474.35,286.06a3.89,3.89,0,0,1-3.23-1.45,6.36,6.36,0,0,1-1.16-4.07,6.43,6.43,0,0,1,1.17-4.1,3.94,3.94,0,0,1,3.26-1.47,3.89,3.89,0,0,1,3.38,1.66h.09l.23-1.47h1.28v15.51h-1.62v-4.58a11,11,0,0,1,.11-1.66h-.13A3.82,3.82,0,0,1,474.35,286.06Zm.25-1.36a2.94,2.94,0,0,0,2.36-.87,4.71,4.71,0,0,0,.79-2.93v-.36a5.33,5.33,0,0,0-.76-3.23,2.85,2.85,0,0,0-2.41-1,2.5,2.5,0,0,0-2.19,1.11,5.55,5.55,0,0,0-.75,3.13,5.36,5.36,0,0,0,.74,3.08A2.54,2.54,0,0,0,474.6,284.7Z"/><path class="cls-4" d="M484.33,275.16v6.95a2.78,2.78,0,0,0,.6,1.95,2.43,2.43,0,0,0,1.86.64,3.06,3.06,0,0,0,2.46-.91,4.65,4.65,0,0,0,.78-3v-5.63h1.62v10.71h-1.34l-.24-1.44H490a3.28,3.28,0,0,1-1.39,1.21,4.6,4.6,0,0,1-2,.42,4.11,4.11,0,0,1-2.93-.93,4,4,0,0,1-1-3v-7Z"/><path class="cls-4" d="M499.61,286.06a4.93,4.93,0,0,1-3.75-1.44,5.65,5.65,0,0,1-1.37-4,6.22,6.22,0,0,1,1.27-4.11,4.22,4.22,0,0,1,3.43-1.52,4,4,0,0,1,3.18,1.32,5.08,5.08,0,0,1,1.17,3.49v1h-7.37a4.25,4.25,0,0,0,.95,2.86,3.29,3.29,0,0,0,2.54,1,8.61,8.61,0,0,0,3.42-.72v1.45a9.23,9.23,0,0,1-1.62.53A9,9,0,0,1,499.61,286.06Zm-.44-9.74a2.65,2.65,0,0,0-2.06.84,3.89,3.89,0,0,0-.9,2.33h5.59a3.54,3.54,0,0,0-.68-2.35A2.43,2.43,0,0,0,499.17,276.32Z"/><path class="cls-4" d="M513.63,285.87v-6.93A2.78,2.78,0,0,0,513,277a2.41,2.41,0,0,0-1.86-.65,3.09,3.09,0,0,0-2.46.91,4.61,4.61,0,0,0-.78,3v5.62H506.3V275.16h1.32l.27,1.47H508a3.35,3.35,0,0,1,1.4-1.23,4.54,4.54,0,0,1,2-.43,4.07,4.07,0,0,1,2.91.93,4,4,0,0,1,1,3v7Z"/><path class="cls-4" d="M522,284.72a5.69,5.69,0,0,0,.83-.06,6.11,6.11,0,0,0,.63-.13v1.24a3.26,3.26,0,0,1-.77.21,6.61,6.61,0,0,1-.93.08q-3.1,0-3.1-3.27v-6.37h-1.54v-.78l1.54-.67.68-2.29h.94v2.48h3.1v1.26h-3.1v6.3a2.16,2.16,0,0,0,.46,1.49A1.59,1.59,0,0,0,522,284.72Z"/><path class="cls-4" d="M527.26,285.87h-1.62v-15.2h1.62Z"/><path class="cls-4" d="M529,275.16h1.74l2.34,6.11a21.71,21.71,0,0,1,1,3h.08c.08-.33.26-.9.53-1.7s1.15-3.28,2.65-7.42H539l-4.6,12.19a6.09,6.09,0,0,1-1.6,2.56,3.36,3.36,0,0,1-2.24.76,6.54,6.54,0,0,1-1.46-.17v-1.29a6.29,6.29,0,0,0,1.2.11,2.47,2.47,0,0,0,2.38-1.87l.6-1.53Z"/><path class="cls-4" d="M552.88,283a2.67,2.67,0,0,1-1.12,2.3,5.22,5.22,0,0,1-3.12.81,6.78,6.78,0,0,1-3.32-.67v-1.51a7.92,7.92,0,0,0,1.65.62,6.92,6.92,0,0,0,1.71.22,3.89,3.89,0,0,0,2-.4,1.34,1.34,0,0,0,.68-1.24,1.36,1.36,0,0,0-.54-1.07,8.88,8.88,0,0,0-2.11-1.05,11.18,11.18,0,0,1-2.13-1,2.86,2.86,0,0,1-.93-.94,2.6,2.6,0,0,1,.75-3.33,5,5,0,0,1,2.92-.75,8.5,8.5,0,0,1,3.38.7l-.57,1.32a7.67,7.67,0,0,0-2.92-.67,3.26,3.26,0,0,0-1.74.37,1.12,1.12,0,0,0-.59,1,1.24,1.24,0,0,0,.22.73,2,2,0,0,0,.71.58,15.15,15.15,0,0,0,1.87.79,7,7,0,0,1,2.58,1.4A2.5,2.5,0,0,1,552.88,283Z"/><path class="cls-4" d="M560,286.06a4.93,4.93,0,0,1-3.75-1.44,5.65,5.65,0,0,1-1.37-4,6.22,6.22,0,0,1,1.27-4.11,4.22,4.22,0,0,1,3.43-1.52,4,4,0,0,1,3.18,1.32,5.08,5.08,0,0,1,1.17,3.49v1H556.6a4.25,4.25,0,0,0,.95,2.86,3.29,3.29,0,0,0,2.54,1,8.61,8.61,0,0,0,3.42-.72v1.45a9.23,9.23,0,0,1-1.62.53A9,9,0,0,1,560,286.06Zm-.44-9.74a2.65,2.65,0,0,0-2.06.84,3.89,3.89,0,0,0-.9,2.33h5.59a3.6,3.6,0,0,0-.68-2.35A2.43,2.43,0,0,0,559.6,276.32Z"/><path class="cls-4" d="M566.6,272.26a1.07,1.07,0,0,1,.27-.81.92.92,0,0,1,.68-.26,1,1,0,0,1,.68.26,1.33,1.33,0,0,1,0,1.63.94.94,0,0,1-.68.27.93.93,0,0,1-.68-.27A1.11,1.11,0,0,1,566.6,272.26Zm1.76,13.61h-1.63V275.16h1.63Z"/><path class="cls-4" d="M578.64,285.87h-7.76v-1.11l5.83-8.34h-5.47v-1.26h7.25v1.26l-5.76,8.19h5.91Z"/><path class="cls-4" d="M585.67,286.06a5,5,0,0,1-3.75-1.44,5.65,5.65,0,0,1-1.37-4,6.22,6.22,0,0,1,1.28-4.11,4.22,4.22,0,0,1,3.42-1.52,4,4,0,0,1,3.18,1.32,5.08,5.08,0,0,1,1.18,3.49v1h-7.38a4.25,4.25,0,0,0,.95,2.86,3.31,3.31,0,0,0,2.55,1,8.68,8.68,0,0,0,3.42-.72v1.45a9.6,9.6,0,0,1-1.63.53A9,9,0,0,1,585.67,286.06Zm-.44-9.74a2.67,2.67,0,0,0-2.06.84,3.89,3.89,0,0,0-.9,2.33h5.6a3.54,3.54,0,0,0-.69-2.35A2.4,2.4,0,0,0,585.23,276.32Z"/><path class="cls-4" d="M599.65,284.43h-.08a3.81,3.81,0,0,1-3.36,1.63,4,4,0,0,1-3.27-1.44,6.28,6.28,0,0,1-1.17-4.08,6.39,6.39,0,0,1,1.18-4.11,3.94,3.94,0,0,1,3.26-1.46,3.89,3.89,0,0,1,3.34,1.58h.12l-.06-.77,0-.75v-4.36h1.62v15.2h-1.32Zm-3.24.27a3,3,0,0,0,2.41-.9,4.55,4.55,0,0,0,.75-2.92v-.34a5.43,5.43,0,0,0-.76-3.25,2.9,2.9,0,0,0-2.42-1,2.47,2.47,0,0,0-2.18,1.11,5.54,5.54,0,0,0-.76,3.13,5.23,5.23,0,0,0,.76,3.1A2.54,2.54,0,0,0,596.41,284.7Z"/><path class="cls-4" d="M609.68,272.26a1,1,0,0,1,.28-.81.92.92,0,0,1,.68-.26,1,1,0,0,1,.67.26,1.29,1.29,0,0,1,0,1.63,1,1,0,0,1-1.35,0A1.07,1.07,0,0,1,609.68,272.26Zm1.76,13.61h-1.62V275.16h1.62Z"/><path class="cls-4" d="M622.2,285.87v-6.93a2.82,2.82,0,0,0-.59-1.95,2.44,2.44,0,0,0-1.87-.65,3.09,3.09,0,0,0-2.46.91,4.61,4.61,0,0,0-.78,3v5.62h-1.62V275.16h1.32l.26,1.47h.08a3.3,3.3,0,0,1,1.4-1.23,4.48,4.48,0,0,1,2-.43,4.07,4.07,0,0,1,2.91.93,4,4,0,0,1,1,3v7Z"/><path class="cls-4" d="M638.87,278.38h4.86v6.95a16.86,16.86,0,0,1-2.31.55,18,18,0,0,1-2.71.18,6.56,6.56,0,0,1-5.05-1.93,7.57,7.57,0,0,1-1.81-5.4,8.15,8.15,0,0,1,.9-3.91,6,6,0,0,1,2.57-2.55,8.32,8.32,0,0,1,3.93-.89,10.72,10.72,0,0,1,4.26.84l-.64,1.47a9.46,9.46,0,0,0-3.72-.82,5.33,5.33,0,0,0-4.08,1.55,6.06,6.06,0,0,0-1.46,4.31,6.15,6.15,0,0,0,1.41,4.38,5.42,5.42,0,0,0,4.15,1.5,12.24,12.24,0,0,0,2.9-.35v-4.39h-3.2Z"/><path class="cls-4" d="M648.43,275.16v6.95a2.78,2.78,0,0,0,.6,1.95,2.43,2.43,0,0,0,1.86.64,3.06,3.06,0,0,0,2.46-.91,4.65,4.65,0,0,0,.78-3v-5.63h1.62v10.71h-1.34l-.23-1.44h-.09a3.25,3.25,0,0,1-1.38,1.21,4.68,4.68,0,0,1-2,.42,4.11,4.11,0,0,1-2.93-.93,4,4,0,0,1-1-3v-7Z"/><path class="cls-4" d="M665.77,285.87l-.32-1.53h-.08a4.48,4.48,0,0,1-1.6,1.36,4.82,4.82,0,0,1-2,.36,3.54,3.54,0,0,1-2.49-.82,3,3,0,0,1-.91-2.33q0-3.26,5.19-3.4l1.82-.06v-.66a2.7,2.7,0,0,0-.55-1.87,2.21,2.21,0,0,0-1.73-.6,7.19,7.19,0,0,0-3,.82l-.49-1.24a7.75,7.75,0,0,1,3.62-.91,4.07,4.07,0,0,1,2.84.85,3.54,3.54,0,0,1,.92,2.72v7.31Zm-3.66-1.15a3.25,3.25,0,0,0,2.37-.83,3.05,3.05,0,0,0,.87-2.32v-1l-1.62.07a5.9,5.9,0,0,0-2.79.6,1.82,1.82,0,0,0-.86,1.66,1.64,1.64,0,0,0,.54,1.33A2.18,2.18,0,0,0,662.11,284.72Z"/><path class="cls-4" d="M677.63,285.87v-6.93A2.82,2.82,0,0,0,677,277a2.44,2.44,0,0,0-1.87-.65,3.09,3.09,0,0,0-2.46.91,4.61,4.61,0,0,0-.78,3v5.62h-1.62V275.16h1.32l.26,1.47H672a3.3,3.3,0,0,1,1.4-1.23,4.48,4.48,0,0,1,2-.43,4.07,4.07,0,0,1,2.91.93,4,4,0,0,1,1,3v7Z"/><path class="cls-4" d="M691.34,275.16v1l-2,.23a3.41,3.41,0,0,1,.7,2.14,3.14,3.14,0,0,1-1.07,2.51,4.32,4.32,0,0,1-3,.94,5.11,5.11,0,0,1-.9-.08,1.58,1.58,0,0,0-1,1.38.7.7,0,0,0,.36.65,2.62,2.62,0,0,0,1.24.21h1.89a4.22,4.22,0,0,1,2.67.73,2.53,2.53,0,0,1,.94,2.13,3,3,0,0,1-1.43,2.71,7.65,7.65,0,0,1-4.16.93,5.7,5.7,0,0,1-3.24-.78,2.52,2.52,0,0,1-1.13-2.21,2.47,2.47,0,0,1,.62-1.69,3.15,3.15,0,0,1,1.76-1,1.82,1.82,0,0,1-.69-.58,1.49,1.49,0,0,1-.28-.91,1.76,1.76,0,0,1,.31-1,3.18,3.18,0,0,1,1-.85,2.92,2.92,0,0,1-1.35-1.17,3.37,3.37,0,0,1-.52-1.87,3.47,3.47,0,0,1,1-2.71,4.28,4.28,0,0,1,3-.95,5.43,5.43,0,0,1,1.51.19Zm-8.53,12.5a1.45,1.45,0,0,0,.73,1.32,4,4,0,0,0,2.1.45,5.81,5.81,0,0,0,3-.61,1.86,1.86,0,0,0,1-1.66,1.29,1.29,0,0,0-.53-1.2,4.1,4.1,0,0,0-2-.34h-2a2.58,2.58,0,0,0-1.72.53A1.87,1.87,0,0,0,682.81,287.66Zm.88-9.07a2.2,2.2,0,0,0,.63,1.7,2.57,2.57,0,0,0,1.77.58,2.07,2.07,0,0,0,2.37-2.31,2.12,2.12,0,0,0-2.4-2.41,2.38,2.38,0,0,0-1.76.61A2.48,2.48,0,0,0,683.69,278.59Z"/><path class="cls-4" d="M700.39,285.87h-7.77v-1.11l5.84-8.34H693v-1.26h7.26v1.26l-5.76,8.19h5.91Z"/><path class="cls-4" d="M710.22,285.87v-6.93a2.78,2.78,0,0,0-.6-1.95,2.4,2.4,0,0,0-1.86-.65,3.07,3.07,0,0,0-2.47.92,4.71,4.71,0,0,0-.77,3v5.6H702.9v-15.2h1.62v4.6a10.47,10.47,0,0,1-.08,1.38h.1a3.3,3.3,0,0,1,1.36-1.22,4.38,4.38,0,0,1,2-.44,4.13,4.13,0,0,1,2.94.93,3.94,3.94,0,0,1,1,3v7Z"/><path class="cls-4" d="M724.41,280.5a5.9,5.9,0,0,1-1.32,4.09,4.64,4.64,0,0,1-3.64,1.47,4.81,4.81,0,0,1-2.55-.67,4.46,4.46,0,0,1-1.72-1.94,6.78,6.78,0,0,1-.6-2.95,5.89,5.89,0,0,1,1.3-4.07,4.63,4.63,0,0,1,3.64-1.46,4.52,4.52,0,0,1,3.57,1.49A5.89,5.89,0,0,1,724.41,280.5Zm-8.15,0a5.08,5.08,0,0,0,.82,3.13,3.26,3.26,0,0,0,4.83,0,5,5,0,0,0,.82-3.13,5,5,0,0,0-.82-3.1,2.93,2.93,0,0,0-2.44-1.06,2.84,2.84,0,0,0-2.4,1.05A5,5,0,0,0,716.26,280.5Z"/><path class="cls-4" d="M728.78,275.16v6.95a2.78,2.78,0,0,0,.59,1.95,2.43,2.43,0,0,0,1.87.64,3,3,0,0,0,2.45-.91,4.65,4.65,0,0,0,.78-3v-5.63h1.62v10.71h-1.34l-.23-1.44h-.09a3.19,3.19,0,0,1-1.38,1.21,4.65,4.65,0,0,1-2,.42,4.06,4.06,0,0,1-2.92-.93,4,4,0,0,1-1-3v-7Z"/><path class="cls-4" d="M741.23,283.54l.14.23c-.17.65-.41,1.4-.73,2.27s-.65,1.66-1,2.4h-1.22c.18-.67.37-1.51.58-2.51s.36-1.79.45-2.39Z"/><path class="cls-4" d="M749.49,272.26a1.07,1.07,0,0,1,.27-.81.93.93,0,0,1,.69-.26,1,1,0,0,1,.67.26,1.33,1.33,0,0,1,0,1.63,1,1,0,0,1-1.36,0A1.11,1.11,0,0,1,749.49,272.26Zm1.76,13.61h-1.63V275.16h1.63Z"/><path class="cls-4" d="M762,285.87v-6.93a2.78,2.78,0,0,0-.6-1.95,2.43,2.43,0,0,0-1.86-.65,3.09,3.09,0,0,0-2.46.91,4.61,4.61,0,0,0-.79,3v5.62h-1.62V275.16H756l.27,1.47h.07a3.35,3.35,0,0,1,1.4-1.23,4.54,4.54,0,0,1,2-.43,4.07,4.07,0,0,1,2.91.93,4,4,0,0,1,1,3v7Z"/><path class="cls-4" d="M778.74,285.87l-.33-1.53h-.07a4.48,4.48,0,0,1-1.6,1.36,4.82,4.82,0,0,1-2,.36,3.54,3.54,0,0,1-2.49-.82,3,3,0,0,1-.91-2.33q0-3.26,5.19-3.4l1.82-.06v-.66a2.75,2.75,0,0,0-.55-1.87,2.23,2.23,0,0,0-1.73-.6,7.19,7.19,0,0,0-3,.82l-.5-1.24a7.86,7.86,0,0,1,1.74-.67,7.65,7.65,0,0,1,1.89-.24,4,4,0,0,1,2.83.85,3.51,3.51,0,0,1,.93,2.72v7.31Zm-3.67-1.15a3.26,3.26,0,0,0,2.38-.83,3.05,3.05,0,0,0,.87-2.32v-1l-1.62.07a5.9,5.9,0,0,0-2.79.6,1.82,1.82,0,0,0-.86,1.66,1.67,1.67,0,0,0,.53,1.33A2.21,2.21,0,0,0,775.07,284.72Z"/><path class="cls-4" d="M797.12,285.87h-9.39v-1.4l3.76-3.78a29.07,29.07,0,0,0,2.27-2.48,7,7,0,0,0,.82-1.45,4.17,4.17,0,0,0,.27-1.51,2.4,2.4,0,0,0-.69-1.81,2.67,2.67,0,0,0-1.93-.67,4.94,4.94,0,0,0-1.68.29,6.71,6.71,0,0,0-1.77,1.07l-.86-1.11a6.57,6.57,0,0,1,4.29-1.64,4.59,4.59,0,0,1,3.16,1,3.55,3.55,0,0,1,1.14,2.77,5.34,5.34,0,0,1-.76,2.69,17.56,17.56,0,0,1-2.85,3.36l-3.13,3v.08h7.35Z"/><path class="cls-4" d="M808.63,278.71a10.38,10.38,0,0,1-1.17,5.52,4,4,0,0,1-3.57,1.83,3.9,3.9,0,0,1-3.5-1.87,10.22,10.22,0,0,1-1.2-5.48,10.37,10.37,0,0,1,1.16-5.54,4.3,4.3,0,0,1,7.07.08A10.09,10.09,0,0,1,808.63,278.71Zm-7.8,0a10.43,10.43,0,0,0,.73,4.53,2.63,2.63,0,0,0,4.68,0,14.3,14.3,0,0,0,0-9,2.64,2.64,0,0,0-4.68,0A10.37,10.37,0,0,0,800.83,278.71Z"/><path class="cls-4" d="M816.61,285.87H815V275.69c0-.85,0-1.65.07-2.4l-.46.43c-.16.15-.94.78-2.32,1.9l-.86-1.11,3.78-2.92h1.37Z"/><path class="cls-4" d="M831.5,278.71a10.38,10.38,0,0,1-1.17,5.52,4.3,4.3,0,0,1-7.07,0,10.22,10.22,0,0,1-1.2-5.48,10.37,10.37,0,0,1,1.16-5.54,4.3,4.3,0,0,1,7.07.08A10.09,10.09,0,0,1,831.5,278.71Zm-7.8,0a10.43,10.43,0,0,0,.73,4.53,2.63,2.63,0,0,0,4.68,0,14.3,14.3,0,0,0,0-9,2.64,2.64,0,0,0-4.68,0A10.37,10.37,0,0,0,823.7,278.71Z"/><path class="cls-4" d="M843.69,286.06a4.58,4.58,0,0,1-3.6-1.43,5.87,5.87,0,0,1-1.28-4.05,6.09,6.09,0,0,1,1.3-4.15,4.67,4.67,0,0,1,3.68-1.46,7.42,7.42,0,0,1,1.55.16,5.05,5.05,0,0,1,1.21.39l-.5,1.38a8.94,8.94,0,0,0-1.17-.36,5.51,5.51,0,0,0-1.12-.14q-3.27,0-3.27,4.16a5,5,0,0,0,.8,3,2.78,2.78,0,0,0,2.36,1.05,7.24,7.24,0,0,0,2.74-.57v1.43A5.72,5.72,0,0,1,843.69,286.06Z"/><path class="cls-4" d="M855.51,285.87l-.32-1.53h-.08a4.38,4.38,0,0,1-1.59,1.36,4.85,4.85,0,0,1-2,.36,3.59,3.59,0,0,1-2.5-.82,3,3,0,0,1-.9-2.33q0-3.26,5.19-3.4l1.81-.06v-.66a2.75,2.75,0,0,0-.54-1.87,2.23,2.23,0,0,0-1.73-.6,7.19,7.19,0,0,0-3,.82l-.5-1.24a7.86,7.86,0,0,1,1.74-.67A7.53,7.53,0,0,1,853,275a4,4,0,0,1,2.83.85,3.51,3.51,0,0,1,.92,2.72v7.31Zm-3.66-1.15a3.27,3.27,0,0,0,2.38-.83,3,3,0,0,0,.86-2.32v-1l-1.62.07a5.9,5.9,0,0,0-2.79.6,1.83,1.83,0,0,0-.85,1.66,1.67,1.67,0,0,0,.53,1.33A2.2,2.2,0,0,0,851.85,284.72Z"/><path class="cls-4" d="M867,283a2.68,2.68,0,0,1-1.11,2.3,5.27,5.27,0,0,1-3.13.81,6.78,6.78,0,0,1-3.32-.67v-1.51a8.23,8.23,0,0,0,1.66.62,6.78,6.78,0,0,0,1.7.22,3.83,3.83,0,0,0,2-.4,1.39,1.39,0,0,0,.14-2.31,8.88,8.88,0,0,0-2.11-1.05,11,11,0,0,1-2.12-1,2.9,2.9,0,0,1-.94-.94,2.59,2.59,0,0,1,.76-3.33,5,5,0,0,1,2.92-.75,8.48,8.48,0,0,1,3.37.7l-.57,1.32a7.67,7.67,0,0,0-2.92-.67,3.26,3.26,0,0,0-1.74.37,1.12,1.12,0,0,0-.59,1,1.24,1.24,0,0,0,.22.73,2.15,2.15,0,0,0,.71.58,15.5,15.5,0,0,0,1.88.79,7,7,0,0,1,2.57,1.4A2.45,2.45,0,0,1,867,283Z"/><path class="cls-4" d="M874.12,286.06a5,5,0,0,1-3.75-1.44,5.65,5.65,0,0,1-1.37-4,6.22,6.22,0,0,1,1.27-4.11A4.22,4.22,0,0,1,873.7,275a4,4,0,0,1,3.18,1.32,5.08,5.08,0,0,1,1.17,3.49v1h-7.37a4.25,4.25,0,0,0,1,2.86,3.29,3.29,0,0,0,2.55,1,8.6,8.6,0,0,0,3.41-.72v1.45a9.23,9.23,0,0,1-1.62.53A9,9,0,0,1,874.12,286.06Zm-.44-9.74a2.65,2.65,0,0,0-2.06.84,3.89,3.89,0,0,0-.9,2.33h5.59a3.54,3.54,0,0,0-.68-2.35A2.43,2.43,0,0,0,873.68,276.32Z"/><path class="cls-4" d="M880.58,284.83a1.43,1.43,0,0,1,.3-1,1.06,1.06,0,0,1,.85-.34,1.15,1.15,0,0,1,.89.34,1.39,1.39,0,0,1,.32,1,1.37,1.37,0,0,1-.33,1,1.16,1.16,0,0,1-.88.34,1.18,1.18,0,0,1-.82-.31A1.33,1.33,0,0,1,880.58,284.83Z"/><path class="cls-4" d="M420.36,315.87H418.7V303.06h-4.52v-1.47h10.7v1.47h-4.52Z"/><path class="cls-4" d="M434.11,315.87v-6.93a2.78,2.78,0,0,0-.6-1.95,2.43,2.43,0,0,0-1.86-.65,3.07,3.07,0,0,0-2.47.92,4.64,4.64,0,0,0-.78,3v5.6h-1.62v-15.2h1.62v4.6a10.69,10.69,0,0,1-.07,1.38h.09a3.33,3.33,0,0,1,1.37-1.22,4.37,4.37,0,0,1,2-.44,4.16,4.16,0,0,1,2.95.93,3.94,3.94,0,0,1,1,3v7Z"/><path class="cls-4" d="M443.58,316.06a5,5,0,0,1-3.75-1.44,5.65,5.65,0,0,1-1.37-4,6.22,6.22,0,0,1,1.28-4.11,4.22,4.22,0,0,1,3.42-1.52,4,4,0,0,1,3.18,1.32,5.08,5.08,0,0,1,1.18,3.49v1h-7.38a4.25,4.25,0,0,0,.95,2.86,3.31,3.31,0,0,0,2.55,1,8.68,8.68,0,0,0,3.42-.72v1.45a9.6,9.6,0,0,1-1.63.53A9,9,0,0,1,443.58,316.06Zm-.44-9.74a2.67,2.67,0,0,0-2.06.84,3.89,3.89,0,0,0-.9,2.33h5.6a3.54,3.54,0,0,0-.69-2.35A2.4,2.4,0,0,0,443.14,306.32Z"/><path class="cls-4" d="M457.18,313a2.68,2.68,0,0,1-1.11,2.3,5.22,5.22,0,0,1-3.12.81,6.84,6.84,0,0,1-3.33-.67v-1.51a8.23,8.23,0,0,0,1.66.62,6.9,6.9,0,0,0,1.7.22,3.9,3.9,0,0,0,2-.4,1.4,1.4,0,0,0,.14-2.31A9,9,0,0,0,453,311a11.32,11.32,0,0,1-2.12-1,3,3,0,0,1-.94-.94,2.5,2.5,0,0,1-.3-1.26,2.41,2.41,0,0,1,1.06-2.07,5,5,0,0,1,2.92-.75,8.53,8.53,0,0,1,3.38.7l-.58,1.32a7.63,7.63,0,0,0-2.92-.67,3.29,3.29,0,0,0-1.74.37,1.11,1.11,0,0,0-.58,1,1.17,1.17,0,0,0,.22.73,2,2,0,0,0,.71.58,15.15,15.15,0,0,0,1.87.79,6.87,6.87,0,0,1,2.57,1.4A2.45,2.45,0,0,1,457.18,313Z"/><path class="cls-4" d="M464.34,316.06a4.91,4.91,0,0,1-3.74-1.44,5.61,5.61,0,0,1-1.38-4,6.22,6.22,0,0,1,1.28-4.11,4.22,4.22,0,0,1,3.42-1.52,4.07,4.07,0,0,1,3.19,1.32,5.08,5.08,0,0,1,1.17,3.49v1H460.9a4.25,4.25,0,0,0,1,2.86,3.29,3.29,0,0,0,2.54,1,8.68,8.68,0,0,0,3.42-.72v1.45a9.32,9.32,0,0,1-1.63.53A9,9,0,0,1,464.34,316.06Zm-.44-9.74a2.63,2.63,0,0,0-2,.84,3.89,3.89,0,0,0-.91,2.33h5.6a3.6,3.6,0,0,0-.68-2.35A2.44,2.44,0,0,0,463.9,306.32Z"/><path class="cls-4" d="M480.51,316.06a4.55,4.55,0,0,1-3.59-1.43,5.87,5.87,0,0,1-1.28-4.05,6.08,6.08,0,0,1,1.29-4.15,4.7,4.7,0,0,1,3.69-1.46,7.26,7.26,0,0,1,1.54.16,5.15,5.15,0,0,1,1.22.39l-.5,1.38a8.94,8.94,0,0,0-1.17-.36,5.6,5.6,0,0,0-1.13-.14q-3.25,0-3.26,4.16a5,5,0,0,0,.8,3,2.76,2.76,0,0,0,2.35,1.05,7.28,7.28,0,0,0,2.75-.57v1.43A5.76,5.76,0,0,1,480.51,316.06Z"/><path class="cls-4" d="M495,310.5a5.9,5.9,0,0,1-1.32,4.09,4.65,4.65,0,0,1-3.64,1.47,4.81,4.81,0,0,1-2.55-.67,4.4,4.4,0,0,1-1.72-1.94,6.64,6.64,0,0,1-.61-2.95,5.89,5.89,0,0,1,1.31-4.07A4.6,4.6,0,0,1,490.1,305a4.51,4.51,0,0,1,3.57,1.49A5.89,5.89,0,0,1,495,310.5Zm-8.16,0a5.15,5.15,0,0,0,.82,3.13,3.26,3.26,0,0,0,4.83,0,5,5,0,0,0,.83-3.13,5,5,0,0,0-.83-3.1,2.92,2.92,0,0,0-2.44-1.06,2.84,2.84,0,0,0-2.4,1.05A5,5,0,0,0,486.84,310.5Z"/><path class="cls-4" d="M507.08,310.5a5.9,5.9,0,0,1-1.32,4.09,4.64,4.64,0,0,1-3.64,1.47,4.81,4.81,0,0,1-2.55-.67,4.4,4.4,0,0,1-1.72-1.94,6.64,6.64,0,0,1-.61-2.95,5.89,5.89,0,0,1,1.31-4.07,4.6,4.6,0,0,1,3.63-1.46,4.51,4.51,0,0,1,3.57,1.49A5.89,5.89,0,0,1,507.08,310.5Zm-8.16,0a5.15,5.15,0,0,0,.82,3.13,3.26,3.26,0,0,0,4.83,0,5,5,0,0,0,.83-3.13,5,5,0,0,0-.83-3.1,2.92,2.92,0,0,0-2.44-1.06,2.84,2.84,0,0,0-2.4,1.05A5,5,0,0,0,498.92,310.5Z"/><path class="cls-4" d="M514.8,305a7,7,0,0,1,1.28.11l-.22,1.51a5.51,5.51,0,0,0-1.18-.15,2.85,2.85,0,0,0-2.22,1.06,3.84,3.84,0,0,0-.92,2.62v5.75h-1.62V305.16h1.34l.18,2h.08a4.82,4.82,0,0,1,1.44-1.61A3.24,3.24,0,0,1,514.8,305Z"/><path class="cls-4" d="M525.37,314.43h-.09a3.81,3.81,0,0,1-3.36,1.63,4,4,0,0,1-3.27-1.44,6.34,6.34,0,0,1-1.16-4.08,6.44,6.44,0,0,1,1.17-4.11,4,4,0,0,1,3.26-1.46,3.87,3.87,0,0,1,3.34,1.58h.13l-.07-.77,0-.75v-4.36h1.62v15.2h-1.32Zm-3.25.27a3,3,0,0,0,2.41-.9,4.55,4.55,0,0,0,.75-2.92v-.34a5.36,5.36,0,0,0-.76-3.25,2.88,2.88,0,0,0-2.41-1,2.5,2.5,0,0,0-2.19,1.11,5.55,5.55,0,0,0-.75,3.13,5.31,5.31,0,0,0,.75,3.1A2.56,2.56,0,0,0,522.12,314.7Z"/><path class="cls-4" d="M530.2,302.26a1.07,1.07,0,0,1,.27-.81.94.94,0,0,1,.69-.26,1,1,0,0,1,.67.26,1.29,1.29,0,0,1,0,1.63.94.94,0,0,1-.67.27,1,1,0,0,1-.69-.27A1.11,1.11,0,0,1,530.2,302.26ZM532,315.87h-1.62V305.16H532Z"/><path class="cls-4" d="M542.72,315.87v-6.93a2.78,2.78,0,0,0-.6-1.95,2.4,2.4,0,0,0-1.86-.65,3.09,3.09,0,0,0-2.46.91,4.61,4.61,0,0,0-.78,3v5.62H535.4V305.16h1.31l.27,1.47h.08a3.27,3.27,0,0,1,1.39-1.23,4.56,4.56,0,0,1,2-.43,4.1,4.1,0,0,1,2.91.93,4,4,0,0,1,1,3v7Z"/><path class="cls-4" d="M554.25,315.87l-.32-1.53h-.08a4.38,4.38,0,0,1-1.59,1.36,4.85,4.85,0,0,1-2,.36,3.59,3.59,0,0,1-2.5-.82,3,3,0,0,1-.9-2.33q0-3.26,5.19-3.4l1.81-.06v-.66a2.75,2.75,0,0,0-.54-1.87,2.23,2.23,0,0,0-1.73-.6,7.19,7.19,0,0,0-3,.82l-.5-1.24a7.86,7.86,0,0,1,1.74-.67,7.53,7.53,0,0,1,1.89-.24,4,4,0,0,1,2.83.85,3.51,3.51,0,0,1,.93,2.72v7.31Zm-3.66-1.15a3.27,3.27,0,0,0,2.38-.83,3,3,0,0,0,.86-2.32v-1l-1.62.07a5.9,5.9,0,0,0-2.79.6,1.83,1.83,0,0,0-.85,1.66,1.67,1.67,0,0,0,.53,1.33A2.2,2.2,0,0,0,550.59,314.72Z"/><path class="cls-4" d="M562.25,314.72a5.49,5.49,0,0,0,.83-.06,6.4,6.4,0,0,0,.64-.13v1.24a3.51,3.51,0,0,1-.78.21,6.48,6.48,0,0,1-.92.08q-3.1,0-3.11-3.27v-6.37h-1.53v-.78l1.53-.67.69-2.29h.93v2.48h3.11v1.26h-3.11v6.3a2.21,2.21,0,0,0,.46,1.49A1.62,1.62,0,0,0,562.25,314.72Z"/><path class="cls-4" d="M570.38,316.06a4.93,4.93,0,0,1-3.75-1.44,5.65,5.65,0,0,1-1.37-4,6.22,6.22,0,0,1,1.27-4.11A4.22,4.22,0,0,1,570,305a4,4,0,0,1,3.18,1.32,5.08,5.08,0,0,1,1.17,3.49v1h-7.37a4.25,4.25,0,0,0,.95,2.86,3.29,3.29,0,0,0,2.55,1,8.6,8.6,0,0,0,3.41-.72v1.45a9.23,9.23,0,0,1-1.62.53A9,9,0,0,1,570.38,316.06Zm-.44-9.74a2.65,2.65,0,0,0-2.06.84,3.89,3.89,0,0,0-.9,2.33h5.59a3.54,3.54,0,0,0-.68-2.35A2.43,2.43,0,0,0,569.94,306.32Z"/><path class="cls-4" d="M584,313a2.68,2.68,0,0,1-1.11,2.3,5.27,5.27,0,0,1-3.13.81,6.8,6.8,0,0,1-3.32-.67v-1.51a8.23,8.23,0,0,0,1.66.62,6.84,6.84,0,0,0,1.7.22,3.83,3.83,0,0,0,2-.4,1.4,1.4,0,0,0,.15-2.31,9.22,9.22,0,0,0-2.12-1.05,11.32,11.32,0,0,1-2.12-1,3,3,0,0,1-.94-.94,2.5,2.5,0,0,1-.31-1.26,2.42,2.42,0,0,1,1.07-2.07,5,5,0,0,1,2.92-.75,8.53,8.53,0,0,1,3.38.7l-.58,1.32a7.63,7.63,0,0,0-2.92-.67,3.26,3.26,0,0,0-1.74.37,1.11,1.11,0,0,0-.58,1,1.17,1.17,0,0,0,.22.73,2,2,0,0,0,.7.58,15.5,15.5,0,0,0,1.88.79,6.87,6.87,0,0,1,2.57,1.4A2.45,2.45,0,0,1,584,313Z"/><path class="cls-4" d="M596.64,306.42h-2.73v9.45h-1.62v-9.45h-1.91v-.73l1.91-.59v-.59q0-3.94,3.45-3.95a7.4,7.4,0,0,1,2,.34l-.42,1.3a5.38,5.38,0,0,0-1.6-.3,1.56,1.56,0,0,0-1.36.61,3.44,3.44,0,0,0-.44,2v.69h2.73Z"/><path class="cls-4" d="M607.83,310.5a5.9,5.9,0,0,1-1.32,4.09,4.64,4.64,0,0,1-3.64,1.47,4.81,4.81,0,0,1-2.55-.67,4.46,4.46,0,0,1-1.72-1.94,6.78,6.78,0,0,1-.61-2.95,5.89,5.89,0,0,1,1.31-4.07,4.62,4.62,0,0,1,3.64-1.46,4.5,4.5,0,0,1,3.56,1.49A5.84,5.84,0,0,1,607.83,310.5Zm-8.16,0a5.15,5.15,0,0,0,.82,3.13,2.87,2.87,0,0,0,2.42,1.07,2.84,2.84,0,0,0,2.41-1.07,5,5,0,0,0,.83-3.13,5,5,0,0,0-.83-3.1,2.91,2.91,0,0,0-2.43-1.06,2.86,2.86,0,0,0-2.41,1.05A5,5,0,0,0,599.67,310.5Z"/><path class="cls-4" d="M612.19,305.16v6.95a2.78,2.78,0,0,0,.6,1.95,2.43,2.43,0,0,0,1.86.64,3.06,3.06,0,0,0,2.46-.91,4.65,4.65,0,0,0,.78-3v-5.63h1.62v10.71h-1.34l-.23-1.44h-.09a3.25,3.25,0,0,1-1.38,1.21,4.68,4.68,0,0,1-2,.42,4.11,4.11,0,0,1-2.93-.93,4,4,0,0,1-1-3v-7Z"/><path class="cls-4" d="M630.27,315.87v-6.93a2.78,2.78,0,0,0-.6-1.95,2.4,2.4,0,0,0-1.86-.65,3.09,3.09,0,0,0-2.46.91,4.61,4.61,0,0,0-.78,3v5.62H623V305.16h1.31l.27,1.47h.08A3.27,3.27,0,0,1,626,305.4a4.54,4.54,0,0,1,2-.43,4.07,4.07,0,0,1,2.91.93,3.93,3.93,0,0,1,1,3v7Z"/><path class="cls-4" d="M642.51,314.43h-.09a3.81,3.81,0,0,1-3.36,1.63,4,4,0,0,1-3.27-1.44,6.28,6.28,0,0,1-1.17-4.08,6.44,6.44,0,0,1,1.18-4.11,4,4,0,0,1,3.26-1.46,3.89,3.89,0,0,1,3.34,1.58h.13l-.07-.77,0-.75v-4.36H644v15.2h-1.32Zm-3.25.27a3,3,0,0,0,2.41-.9,4.55,4.55,0,0,0,.75-2.92v-.34a5.36,5.36,0,0,0-.76-3.25,2.89,2.89,0,0,0-2.42-1,2.48,2.48,0,0,0-2.18,1.11,5.54,5.54,0,0,0-.76,3.13,5.31,5.31,0,0,0,.76,3.1A2.54,2.54,0,0,0,639.26,314.7Z"/><path class="cls-4" d="M661.91,310.5a5.9,5.9,0,0,1-1.32,4.09,4.64,4.64,0,0,1-3.64,1.47,4.81,4.81,0,0,1-2.55-.67,4.46,4.46,0,0,1-1.72-1.94,6.78,6.78,0,0,1-.6-2.95,5.89,5.89,0,0,1,1.3-4.07A4.63,4.63,0,0,1,657,305a4.52,4.52,0,0,1,3.57,1.49A5.89,5.89,0,0,1,661.91,310.5Zm-8.15,0a5.08,5.08,0,0,0,.82,3.13,3.26,3.26,0,0,0,4.83,0,5,5,0,0,0,.82-3.13,5,5,0,0,0-.82-3.1,2.93,2.93,0,0,0-2.44-1.06,2.84,2.84,0,0,0-2.4,1.05A5,5,0,0,0,653.76,310.5Z"/><path class="cls-4" d="M672.08,315.87v-6.93a2.78,2.78,0,0,0-.6-1.95,2.43,2.43,0,0,0-1.86-.65,3.11,3.11,0,0,0-2.47.91,4.61,4.61,0,0,0-.78,3v5.62h-1.62V305.16h1.32l.26,1.47h.08a3.3,3.3,0,0,1,1.4-1.23,4.54,4.54,0,0,1,2-.43,4.07,4.07,0,0,1,2.91.93,4,4,0,0,1,1,3v7Z"/><path class="cls-4" d="M688.8,315.87l-.32-1.53h-.08a4.38,4.38,0,0,1-1.59,1.36,4.85,4.85,0,0,1-2,.36,3.54,3.54,0,0,1-2.49-.82,3,3,0,0,1-.91-2.33q0-3.26,5.19-3.4l1.81-.06v-.66a2.75,2.75,0,0,0-.54-1.87,2.23,2.23,0,0,0-1.73-.6,7.19,7.19,0,0,0-3,.82l-.5-1.24a7.86,7.86,0,0,1,1.74-.67,7.53,7.53,0,0,1,1.89-.24,4,4,0,0,1,2.83.85,3.51,3.51,0,0,1,.93,2.72v7.31Zm-3.66-1.15a3.27,3.27,0,0,0,2.38-.83,3,3,0,0,0,.86-2.32v-1l-1.62.07a5.82,5.82,0,0,0-2.78.6,1.82,1.82,0,0,0-.86,1.66,1.67,1.67,0,0,0,.53,1.33A2.2,2.2,0,0,0,685.14,314.72Z"/><path class="cls-4" d="M700.67,315.87v-6.93a2.78,2.78,0,0,0-.6-1.95,2.4,2.4,0,0,0-1.86-.65,3.09,3.09,0,0,0-2.46.91,4.61,4.61,0,0,0-.78,3v5.62h-1.62V305.16h1.31l.27,1.47H695a3.27,3.27,0,0,1,1.39-1.23,4.54,4.54,0,0,1,2-.43,4.07,4.07,0,0,1,2.91.93,3.93,3.93,0,0,1,1,3v7Z"/><path class="cls-4" d="M717.4,315.87l-.32-1.53H717a4.48,4.48,0,0,1-1.6,1.36,4.82,4.82,0,0,1-2,.36,3.54,3.54,0,0,1-2.49-.82,3,3,0,0,1-.9-2.33c0-2.17,1.72-3.3,5.18-3.4l1.82-.06v-.66a2.75,2.75,0,0,0-.54-1.87,2.25,2.25,0,0,0-1.74-.6,7.19,7.19,0,0,0-3,.82l-.49-1.24a7.75,7.75,0,0,1,3.62-.91,4.07,4.07,0,0,1,2.84.85,3.54,3.54,0,0,1,.92,2.72v7.31Zm-3.66-1.15a3.23,3.23,0,0,0,2.37-.83,3.05,3.05,0,0,0,.87-2.32v-1l-1.62.07a5.9,5.9,0,0,0-2.79.6,1.82,1.82,0,0,0-.86,1.66,1.64,1.64,0,0,0,.54,1.33A2.18,2.18,0,0,0,713.74,314.72Z"/><path class="cls-4" d="M726.82,305a7,7,0,0,1,1.28.11l-.22,1.51a5.5,5.5,0,0,0-1.17-.15,2.85,2.85,0,0,0-2.23,1.06,3.84,3.84,0,0,0-.92,2.62v5.75h-1.62V305.16h1.34l.18,2h.08a4.82,4.82,0,0,1,1.44-1.61A3.27,3.27,0,0,1,726.82,305Z"/><path class="cls-4" d="M735,305a7.1,7.1,0,0,1,1.28.11l-.23,1.51a5.35,5.35,0,0,0-1.17-.15,2.82,2.82,0,0,0-2.22,1.06,3.8,3.8,0,0,0-.93,2.62v5.75H730.1V305.16h1.34l.19,2h.08a4.7,4.7,0,0,1,1.43-1.61A3.3,3.3,0,0,1,735,305Z"/><path class="cls-4" d="M742.79,316.06a5,5,0,0,1-3.75-1.44,5.65,5.65,0,0,1-1.37-4,6.22,6.22,0,0,1,1.28-4.11,4.22,4.22,0,0,1,3.42-1.52,4,4,0,0,1,3.18,1.32,5.08,5.08,0,0,1,1.17,3.49v1h-7.37a4.25,4.25,0,0,0,.95,2.86,3.31,3.31,0,0,0,2.55,1,8.68,8.68,0,0,0,3.42-.72v1.45a9.6,9.6,0,0,1-1.63.53A9,9,0,0,1,742.79,316.06Zm-.44-9.74a2.65,2.65,0,0,0-2.06.84,3.89,3.89,0,0,0-.9,2.33H745a3.54,3.54,0,0,0-.69-2.35A2.4,2.4,0,0,0,742.35,306.32Z"/><path class="cls-4" d="M756.39,313a2.68,2.68,0,0,1-1.11,2.3,5.23,5.23,0,0,1-3.13.81,6.83,6.83,0,0,1-3.32-.67v-1.51a8.23,8.23,0,0,0,1.66.62,6.9,6.9,0,0,0,1.7.22,3.9,3.9,0,0,0,2-.4,1.4,1.4,0,0,0,.14-2.31,9,9,0,0,0-2.12-1.05,11.32,11.32,0,0,1-2.12-1,3,3,0,0,1-.94-.94,2.5,2.5,0,0,1-.31-1.26,2.42,2.42,0,0,1,1.07-2.07,5,5,0,0,1,2.92-.75,8.53,8.53,0,0,1,3.38.7l-.58,1.32a7.63,7.63,0,0,0-2.92-.67,3.26,3.26,0,0,0-1.74.37,1.11,1.11,0,0,0-.58,1,1.17,1.17,0,0,0,.22.73,2,2,0,0,0,.71.58,15.15,15.15,0,0,0,1.87.79,6.87,6.87,0,0,1,2.57,1.4A2.45,2.45,0,0,1,756.39,313Z"/><path class="cls-4" d="M762.49,314.72a5.69,5.69,0,0,0,.83-.06c.26,0,.47-.09.63-.13v1.24a3.22,3.22,0,0,1-.78.21,6.36,6.36,0,0,1-.92.08q-3.11,0-3.1-3.27v-6.37h-1.54v-.78l1.54-.67.68-2.29h.94v2.48h3.1v1.26h-3.1v6.3a2.16,2.16,0,0,0,.46,1.49A1.59,1.59,0,0,0,762.49,314.72Z"/><path class="cls-4" d="M770.61,316.06a4.91,4.91,0,0,1-3.74-1.44,5.61,5.61,0,0,1-1.38-4,6.22,6.22,0,0,1,1.28-4.11,4.22,4.22,0,0,1,3.42-1.52,4.07,4.07,0,0,1,3.19,1.32,5.08,5.08,0,0,1,1.17,3.49v1h-7.38a4.25,4.25,0,0,0,1,2.86,3.29,3.29,0,0,0,2.54,1,8.68,8.68,0,0,0,3.42-.72v1.45a9.6,9.6,0,0,1-1.63.53A9,9,0,0,1,770.61,316.06Zm-.44-9.74a2.63,2.63,0,0,0-2,.84,3.89,3.89,0,0,0-.91,2.33h5.6a3.54,3.54,0,0,0-.69-2.35A2.4,2.4,0,0,0,770.17,306.32Z"/><path class="cls-4" d="M784.6,314.43h-.09a3.81,3.81,0,0,1-3.36,1.63,4,4,0,0,1-3.27-1.44,6.28,6.28,0,0,1-1.17-4.08,6.44,6.44,0,0,1,1.18-4.11,3.94,3.94,0,0,1,3.26-1.46,3.89,3.89,0,0,1,3.34,1.58h.13l-.07-.77,0-.75v-4.36h1.62v15.2h-1.32Zm-3.25.27a3,3,0,0,0,2.41-.9,4.55,4.55,0,0,0,.75-2.92v-.34a5.36,5.36,0,0,0-.76-3.25,2.89,2.89,0,0,0-2.42-1,2.48,2.48,0,0,0-2.18,1.11,5.54,5.54,0,0,0-.76,3.13,5.31,5.31,0,0,0,.76,3.1A2.54,2.54,0,0,0,781.35,314.7Z"/><path class="cls-4" d="M799.74,316.06a4.63,4.63,0,0,1-1.91-.39,3.58,3.58,0,0,1-1.45-1.18h-.11a16,16,0,0,1,.11,1.78v4.4h-1.62V305.16h1.32l.22,1.47h.08a3.72,3.72,0,0,1,1.46-1.27,4.42,4.42,0,0,1,1.9-.39,4,4,0,0,1,3.29,1.45,7.73,7.73,0,0,1,0,8.18A4,4,0,0,1,799.74,316.06Zm-.23-9.72a2.9,2.9,0,0,0-2.38.91,4.79,4.79,0,0,0-.75,2.89v.36a5.37,5.37,0,0,0,.75,3.23,2.88,2.88,0,0,0,2.42,1,2.5,2.5,0,0,0,2.17-1.12,5.36,5.36,0,0,0,.79-3.1,5.15,5.15,0,0,0-.79-3.07A2.59,2.59,0,0,0,799.51,306.34Z"/><path class="cls-4" d="M813.6,315.87l-.32-1.53h-.08a4.4,4.4,0,0,1-1.6,1.36,4.8,4.8,0,0,1-2,.36,3.55,3.55,0,0,1-2.5-.82,3,3,0,0,1-.9-2.33q0-3.26,5.18-3.4l1.82-.06v-.66a2.75,2.75,0,0,0-.54-1.87,2.24,2.24,0,0,0-1.74-.6,7.12,7.12,0,0,0-3,.82l-.5-1.24a7.78,7.78,0,0,1,1.73-.67A7.65,7.65,0,0,1,811,305a4.07,4.07,0,0,1,2.84.85,3.54,3.54,0,0,1,.92,2.72v7.31Zm-3.66-1.15a3.27,3.27,0,0,0,2.38-.83,3.09,3.09,0,0,0,.86-2.32v-1l-1.62.07a5.9,5.9,0,0,0-2.79.6,1.81,1.81,0,0,0-.85,1.66,1.64,1.64,0,0,0,.53,1.33A2.18,2.18,0,0,0,809.94,314.72Z"/><path class="cls-4" d="M825.46,315.87v-6.93a2.78,2.78,0,0,0-.59-1.95,2.44,2.44,0,0,0-1.87-.65,3.09,3.09,0,0,0-2.46.91,4.61,4.61,0,0,0-.78,3v5.62h-1.62V305.16h1.32l.26,1.47h.08a3.3,3.3,0,0,1,1.4-1.23,4.51,4.51,0,0,1,2-.43,4.07,4.07,0,0,1,2.91.93,4,4,0,0,1,1,3v7Z"/><path class="cls-4" d="M839.18,305.16v1l-2,.23a3.24,3.24,0,0,1,.49.89,3.31,3.31,0,0,1,.22,1.25,3.15,3.15,0,0,1-1.08,2.51,4.3,4.3,0,0,1-3,.94,5.11,5.11,0,0,1-.9-.08,1.58,1.58,0,0,0-1,1.38.7.7,0,0,0,.36.65,2.65,2.65,0,0,0,1.24.21h1.9a4.26,4.26,0,0,1,2.67.73A2.55,2.55,0,0,1,839,317a3,3,0,0,1-1.43,2.71,7.63,7.63,0,0,1-4.16.93,5.65,5.65,0,0,1-3.23-.78,2.67,2.67,0,0,1-.52-3.9,3.19,3.19,0,0,1,1.76-1,1.82,1.82,0,0,1-.69-.58,1.56,1.56,0,0,1-.28-.91,1.7,1.7,0,0,1,.32-1,3,3,0,0,1,1-.85,2.92,2.92,0,0,1-1.35-1.17,3.37,3.37,0,0,1-.52-1.87,3.47,3.47,0,0,1,1.05-2.71,4.3,4.3,0,0,1,3-.95,5.38,5.38,0,0,1,1.51.19Zm-8.54,12.5a1.45,1.45,0,0,0,.73,1.32,4,4,0,0,0,2.1.45,5.87,5.87,0,0,0,3-.61,1.88,1.88,0,0,0,1-1.66,1.29,1.29,0,0,0-.54-1.2,4.1,4.1,0,0,0-2-.34H833a2.55,2.55,0,0,0-1.71.53A1.87,1.87,0,0,0,830.64,317.66Zm.88-9.07a2.2,2.2,0,0,0,.63,1.7,2.58,2.58,0,0,0,1.77.58,2.07,2.07,0,0,0,2.37-2.31,2.12,2.12,0,0,0-2.4-2.41,2.38,2.38,0,0,0-1.76.61A2.48,2.48,0,0,0,831.52,308.59Z"/><path class="cls-4" d="M850.61,310.5a5.9,5.9,0,0,1-1.32,4.09,4.64,4.64,0,0,1-3.64,1.47,4.81,4.81,0,0,1-2.55-.67,4.52,4.52,0,0,1-1.72-1.94,6.78,6.78,0,0,1-.6-2.95,5.84,5.84,0,0,1,1.31-4.07,4.6,4.6,0,0,1,3.63-1.46,4.51,4.51,0,0,1,3.57,1.49A5.89,5.89,0,0,1,850.61,310.5Zm-8.15,0a5.08,5.08,0,0,0,.82,3.13,3.26,3.26,0,0,0,4.83,0,5,5,0,0,0,.82-3.13,5,5,0,0,0-.82-3.1,2.93,2.93,0,0,0-2.44-1.06,2.84,2.84,0,0,0-2.4,1.05A5,5,0,0,0,842.46,310.5Z"/><path class="cls-4" d="M855.07,315.87h-1.62v-15.2h1.62Z"/><path class="cls-4" d="M858.38,302.26a1.07,1.07,0,0,1,.27-.81.92.92,0,0,1,.68-.26,1,1,0,0,1,.68.26,1.33,1.33,0,0,1,0,1.63,1,1,0,0,1-.68.27.93.93,0,0,1-.68-.27A1.11,1.11,0,0,1,858.38,302.26Zm1.75,13.61h-1.62V305.16h1.62Z"/><path class="cls-4" d="M870.89,315.87v-6.93a2.78,2.78,0,0,0-.59-1.95,2.44,2.44,0,0,0-1.87-.65,3.09,3.09,0,0,0-2.46.91,4.61,4.61,0,0,0-.78,3v5.62h-1.62V305.16h1.32l.26,1.47h.08a3.3,3.3,0,0,1,1.4-1.23,4.51,4.51,0,0,1,2-.43,4.07,4.07,0,0,1,2.91.93,4,4,0,0,1,1,3v7Z"/><path class="cls-4" d="M422.62,343a2.68,2.68,0,0,1-1.11,2.3,5.23,5.23,0,0,1-3.13.81,6.83,6.83,0,0,1-3.32-.67v-1.51a8.23,8.23,0,0,0,1.66.62,6.9,6.9,0,0,0,1.7.22,3.9,3.9,0,0,0,2-.4,1.4,1.4,0,0,0,.14-2.31A9,9,0,0,0,418.4,341a11.32,11.32,0,0,1-2.12-1,3,3,0,0,1-.94-.94,2.5,2.5,0,0,1-.3-1.26,2.41,2.41,0,0,1,1.06-2.07A5,5,0,0,1,419,335a8.53,8.53,0,0,1,3.38.7l-.58,1.32a7.63,7.63,0,0,0-2.92-.67,3.26,3.26,0,0,0-1.74.37,1.11,1.11,0,0,0-.58,1,1.17,1.17,0,0,0,.22.73,2,2,0,0,0,.71.58,15.15,15.15,0,0,0,1.87.79,6.87,6.87,0,0,1,2.57,1.4A2.45,2.45,0,0,1,422.62,343Z"/><path class="cls-4" d="M438.9,345.87v-7a2.93,2.93,0,0,0-.54-1.92,2.16,2.16,0,0,0-1.7-.64,2.75,2.75,0,0,0-2.24.87,4.15,4.15,0,0,0-.72,2.68v6h-1.62v-7a2.93,2.93,0,0,0-.55-1.92,2.15,2.15,0,0,0-1.71-.64,2.64,2.64,0,0,0-2.23.92,4.94,4.94,0,0,0-.71,3v5.62h-1.62V335.16h1.32l.26,1.47h.08a3.23,3.23,0,0,1,1.29-1.22,3.88,3.88,0,0,1,1.87-.44c1.68,0,2.77.6,3.29,1.81h.07a3.35,3.35,0,0,1,1.39-1.32,4.28,4.28,0,0,1,2.07-.49,3.63,3.63,0,0,1,2.72.93,4.18,4.18,0,0,1,.9,3v7Z"/><path class="cls-4" d="M445.39,335.16v6.95a2.78,2.78,0,0,0,.59,1.95,2.43,2.43,0,0,0,1.87.64,3,3,0,0,0,2.45-.91,4.65,4.65,0,0,0,.78-3v-5.63h1.62v10.71h-1.34l-.23-1.44H451a3.19,3.19,0,0,1-1.38,1.21,4.65,4.65,0,0,1-2,.42,4.08,4.08,0,0,1-2.92-.93,4,4,0,0,1-1-3v-7Z"/><path class="cls-4" d="M464.9,335.16v1l-2,.23a3.52,3.52,0,0,1,.48.89,3.31,3.31,0,0,1,.22,1.25,3.15,3.15,0,0,1-1.08,2.51,4.27,4.27,0,0,1-2.94.94,5.11,5.11,0,0,1-.9-.08,1.59,1.59,0,0,0-1,1.38.7.7,0,0,0,.36.65,2.65,2.65,0,0,0,1.24.21h1.9a4.22,4.22,0,0,1,2.67.73,2.55,2.55,0,0,1,.93,2.13,3,3,0,0,1-1.42,2.71,7.65,7.65,0,0,1-4.16.93,5.7,5.7,0,0,1-3.24-.78,2.53,2.53,0,0,1-1.14-2.21,2.48,2.48,0,0,1,.63-1.69,3.12,3.12,0,0,1,1.75-1,1.72,1.72,0,0,1-.68-.58,1.49,1.49,0,0,1-.28-.91,1.69,1.69,0,0,1,.31-1,3.18,3.18,0,0,1,1-.85,2.9,2.9,0,0,1-1.36-1.17,3.37,3.37,0,0,1-.52-1.87,3.44,3.44,0,0,1,1.06-2.71,4.25,4.25,0,0,1,3-.95,5.5,5.5,0,0,1,1.52.19Zm-8.54,12.5a1.46,1.46,0,0,0,.74,1.32,4,4,0,0,0,2.1.45,5.83,5.83,0,0,0,3-.61,1.88,1.88,0,0,0,1-1.66,1.29,1.29,0,0,0-.54-1.2,4.1,4.1,0,0,0-2-.34H458.7a2.56,2.56,0,0,0-1.72.53A1.87,1.87,0,0,0,456.36,347.66Zm.88-9.07a2.17,2.17,0,0,0,.64,1.7,2.54,2.54,0,0,0,1.76.58,2.07,2.07,0,0,0,2.38-2.31,2.12,2.12,0,0,0-2.4-2.41,2.37,2.37,0,0,0-1.76.61A2.48,2.48,0,0,0,457.24,338.59Z"/><path class="cls-4" d="M475.86,335.16v1l-2,.23a3.24,3.24,0,0,1,.49.89,3.52,3.52,0,0,1,.22,1.25,3.15,3.15,0,0,1-1.08,2.51,4.3,4.3,0,0,1-2.95.94,5.11,5.11,0,0,1-.9-.08,1.58,1.58,0,0,0-1,1.38.7.7,0,0,0,.36.65,2.62,2.62,0,0,0,1.24.21h1.9a4.26,4.26,0,0,1,2.67.73,2.55,2.55,0,0,1,.93,2.13,3,3,0,0,1-1.43,2.71,7.63,7.63,0,0,1-4.16.93,5.65,5.65,0,0,1-3.23-.78,2.67,2.67,0,0,1-.52-3.9,3.19,3.19,0,0,1,1.76-1,1.82,1.82,0,0,1-.69-.58,1.56,1.56,0,0,1-.28-.91,1.7,1.7,0,0,1,.32-1,3,3,0,0,1,1-.85,2.92,2.92,0,0,1-1.35-1.17,3.37,3.37,0,0,1-.52-1.87,3.47,3.47,0,0,1,1-2.71,4.3,4.3,0,0,1,3-.95,5.38,5.38,0,0,1,1.51.19Zm-8.54,12.5a1.45,1.45,0,0,0,.73,1.32,4,4,0,0,0,2.1.45,5.81,5.81,0,0,0,3-.61,1.87,1.87,0,0,0,1-1.66,1.29,1.29,0,0,0-.54-1.2,4.1,4.1,0,0,0-2-.34h-2a2.55,2.55,0,0,0-1.71.53A1.87,1.87,0,0,0,467.32,347.66Zm.88-9.07a2.2,2.2,0,0,0,.63,1.7,2.58,2.58,0,0,0,1.77.58,2.07,2.07,0,0,0,2.37-2.31,2.12,2.12,0,0,0-2.4-2.41,2.38,2.38,0,0,0-1.76.61A2.48,2.48,0,0,0,468.2,338.59Z"/><path class="cls-4" d="M479.67,345.87h-1.62v-15.2h1.62Z"/><path class="cls-4" d="M487.63,346.06a4.91,4.91,0,0,1-3.74-1.44,5.6,5.6,0,0,1-1.37-4,6.22,6.22,0,0,1,1.27-4.11,4.22,4.22,0,0,1,3.42-1.52,4.05,4.05,0,0,1,3.19,1.32,5.08,5.08,0,0,1,1.17,3.49v1H484.2a4.2,4.2,0,0,0,.95,2.86,3.29,3.29,0,0,0,2.54,1,8.68,8.68,0,0,0,3.42-.72v1.45a9.32,9.32,0,0,1-1.63.53A8.9,8.9,0,0,1,487.63,346.06Zm-.44-9.74a2.63,2.63,0,0,0-2.05.84,4,4,0,0,0-.91,2.33h5.6a3.6,3.6,0,0,0-.68-2.35A2.44,2.44,0,0,0,487.19,336.32Z"/><path class="cls-4" d="M499.21,335a6.94,6.94,0,0,1,1.28.11l-.22,1.51a5.35,5.35,0,0,0-1.17-.15,2.82,2.82,0,0,0-2.22,1.06,3.8,3.8,0,0,0-.93,2.62v5.75h-1.62V335.16h1.34l.19,2h.07a4.82,4.82,0,0,1,1.44-1.61A3.27,3.27,0,0,1,499.21,335Z"/><path class="cls-4" d="M509.4,343a2.68,2.68,0,0,1-1.11,2.3,5.27,5.27,0,0,1-3.13.81,6.8,6.8,0,0,1-3.32-.67v-1.51a8.23,8.23,0,0,0,1.66.62,6.84,6.84,0,0,0,1.7.22,3.83,3.83,0,0,0,1.95-.4,1.4,1.4,0,0,0,.15-2.31,9.22,9.22,0,0,0-2.12-1.05,11.32,11.32,0,0,1-2.12-1,3,3,0,0,1-.94-.94,2.5,2.5,0,0,1-.31-1.26,2.42,2.42,0,0,1,1.07-2.07,5,5,0,0,1,2.92-.75,8.53,8.53,0,0,1,3.38.7L508.6,337a7.63,7.63,0,0,0-2.92-.67,3.26,3.26,0,0,0-1.74.37,1.11,1.11,0,0,0-.58,1,1.17,1.17,0,0,0,.22.73,2,2,0,0,0,.7.58,15.5,15.5,0,0,0,1.88.79,6.87,6.87,0,0,1,2.57,1.4A2.45,2.45,0,0,1,509.4,343Z"/><path class="cls-4" d="M522.21,346.06a4.63,4.63,0,0,1-1.91-.39,3.58,3.58,0,0,1-1.45-1.18h-.11a16,16,0,0,1,.11,1.78v4.4h-1.62V335.16h1.32l.23,1.47h.07a3.72,3.72,0,0,1,1.46-1.27,4.42,4.42,0,0,1,1.9-.39,4,4,0,0,1,3.29,1.45,7.73,7.73,0,0,1,0,8.18A4,4,0,0,1,522.21,346.06Zm-.23-9.72a2.86,2.86,0,0,0-2.37.91,4.72,4.72,0,0,0-.76,2.89v.36a5.29,5.29,0,0,0,.76,3.23,2.84,2.84,0,0,0,2.41,1,2.5,2.5,0,0,0,2.17-1.12,5.36,5.36,0,0,0,.79-3.1,5.15,5.15,0,0,0-.79-3.07A2.59,2.59,0,0,0,522,336.34Z"/><path class="cls-4" d="M536.81,345.87v-6.93a2.82,2.82,0,0,0-.59-1.95,2.44,2.44,0,0,0-1.87-.65,3,3,0,0,0-2.46.92,4.64,4.64,0,0,0-.78,3v5.6h-1.62v-15.2h1.62v4.6a10.47,10.47,0,0,1-.08,1.38h.1a3.3,3.3,0,0,1,1.36-1.22,4.38,4.38,0,0,1,2-.44,4.12,4.12,0,0,1,2.94.93,3.9,3.9,0,0,1,1,3v7Z"/><path class="cls-4" d="M551,340.5a5.9,5.9,0,0,1-1.32,4.09,4.64,4.64,0,0,1-3.64,1.47,4.81,4.81,0,0,1-2.55-.67,4.52,4.52,0,0,1-1.72-1.94,6.78,6.78,0,0,1-.6-2.95,5.84,5.84,0,0,1,1.31-4.07,4.6,4.6,0,0,1,3.63-1.46,4.51,4.51,0,0,1,3.57,1.49A5.89,5.89,0,0,1,551,340.5Zm-8.15,0a5.08,5.08,0,0,0,.82,3.13,3.26,3.26,0,0,0,4.83,0,5,5,0,0,0,.82-3.13,5,5,0,0,0-.82-3.1,2.93,2.93,0,0,0-2.44-1.06,2.84,2.84,0,0,0-2.4,1.05A5,5,0,0,0,542.85,340.5Z"/><path class="cls-4" d="M561.17,345.87v-6.93a2.78,2.78,0,0,0-.6-1.95,2.43,2.43,0,0,0-1.86-.65,3.09,3.09,0,0,0-2.46.91,4.61,4.61,0,0,0-.79,3v5.62h-1.62V335.16h1.32l.27,1.47h.07a3.35,3.35,0,0,1,1.4-1.23,4.54,4.54,0,0,1,2-.43,4.07,4.07,0,0,1,2.91.93,4,4,0,0,1,1,3v7Z"/><path class="cls-4" d="M570.64,346.06a4.91,4.91,0,0,1-3.74-1.44,5.61,5.61,0,0,1-1.38-4,6.22,6.22,0,0,1,1.28-4.11,4.22,4.22,0,0,1,3.42-1.52,4,4,0,0,1,3.18,1.32,5,5,0,0,1,1.18,3.49v1H567.2a4.25,4.25,0,0,0,1,2.86,3.29,3.29,0,0,0,2.54,1,8.68,8.68,0,0,0,3.42-.72v1.45a9.6,9.6,0,0,1-1.63.53A9,9,0,0,1,570.64,346.06Zm-.44-9.74a2.63,2.63,0,0,0-2.05.84,3.83,3.83,0,0,0-.91,2.33h5.6a3.54,3.54,0,0,0-.69-2.35A2.4,2.4,0,0,0,570.2,336.32Z"/><path class="cls-4" d="M577.11,344.83a1.48,1.48,0,0,1,.29-1,1.08,1.08,0,0,1,.86-.34,1.12,1.12,0,0,1,.88.34,1.39,1.39,0,0,1,.32,1,1.41,1.41,0,0,1-.32,1,1.29,1.29,0,0,1-1.71,0A1.33,1.33,0,0,1,577.11,344.83Z"/><polygon class="cls-3" points="681 186 648 186 664.5 163 681 186"/></g><g id="marker-tamparuli"><circle class="cls-1" cx="1345" cy="684" r="55.68"/><circle class="cls-2" cx="1345" cy="684" r="12.06"/></g><g id="tamparuli-text"><rect class="cls-5" x="1251" y="725.55" width="187" height="43.88"/><path class="cls-4" d="M1277.79,756.67h-4.93V742.46h-4.46v-4h13.83v4h-4.44Z"/><path class="cls-4" d="M1296,756.67l-.9-3.42h-5.93l-.92,3.42h-5.42l6-18.32h6.57l6,18.32Zm-1.92-7.46-.79-3c-.18-.67-.41-1.53-.67-2.59s-.43-1.81-.52-2.27c-.07.43-.22,1.13-.44,2.1s-.71,2.89-1.46,5.75Z"/><path class="cls-4" d="M1311.34,756.67l-3.73-13.14h-.11c.17,2.24.26,4,.26,5.22v7.92h-4.37V738.43H1310l3.81,13h.1l3.73-13h6.58v18.24h-4.53v-8c0-.41,0-.87,0-1.38s.06-1.75.16-3.73h-.11L1316,756.67Z"/><path class="cls-4" d="M1341.34,744.23a6.11,6.11,0,0,1-1.81,4.73,7.27,7.27,0,0,1-5.12,1.66H1333v6h-4.93V738.43h6.31a7.69,7.69,0,0,1,5.19,1.51A5.38,5.38,0,0,1,1341.34,744.23ZM1333,746.6h.89a2.45,2.45,0,0,0,1.77-.62,2.26,2.26,0,0,0,.66-1.72c0-1.23-.69-1.85-2-1.85H1333Z"/><path class="cls-4" d="M1355.44,756.67l-.9-3.42h-5.93l-.92,3.42h-5.42l6-18.32h6.58l6,18.32Zm-1.92-7.46-.79-3c-.18-.67-.41-1.53-.67-2.59s-.43-1.81-.52-2.27c-.07.43-.22,1.13-.44,2.1s-.71,2.89-1.47,5.75Z"/><path class="cls-4" d="M1367.73,750v6.64h-4.93V738.43h6q7.42,0,7.43,5.39a5.38,5.38,0,0,1-3.09,4.9l5.31,7.95h-5.59L1369,750Zm0-3.7h.92q2.58,0,2.58-2.28c0-1.26-.84-1.89-2.53-1.89h-1Z"/><path class="cls-4" d="M1395.6,738.43v11a7.37,7.37,0,0,1-2,5.55,8.08,8.08,0,0,1-5.85,2A7.93,7.93,0,0,1,1382,755a7.2,7.2,0,0,1-2-5.49V738.43h5v10.71a4.37,4.37,0,0,0,.72,2.8,3.12,3.12,0,0,0,4.33,0,4.66,4.66,0,0,0,.68-2.84V738.43Z"/><path class="cls-4" d="M1399.44,756.67V738.43h4.92v14.26h7v4Z"/><path class="cls-4" d="M1414.31,756.67V738.43h5v18.24Z"/></g><g id="marker-tuaran"><circle class="cls-1" cx="1105" cy="803" r="55.68"/><circle class="cls-2" cx="1105" cy="803" r="12.06"/></g><g id="tuaran-text"><rect class="cls-5" x="1029" y="836.55" width="151" height="43.88"/><path class="cls-4" d="M1059.44,867.67h-4.93V853.46h-4.45v-4h13.82v4h-4.44Z"/><path class="cls-4" d="M1082,849.43v11a7.34,7.34,0,0,1-2,5.55,9.63,9.63,0,0,1-11.58,0,7.24,7.24,0,0,1-2-5.49V849.43h5v10.71a4.37,4.37,0,0,0,.72,2.8,3.1,3.1,0,0,0,4.32,0,4.6,4.6,0,0,0,.68-2.84V849.43Z"/><path class="cls-4" d="M1097,867.67l-.9-3.42h-5.93l-.92,3.42h-5.42l6-18.31h6.58l6,18.31Zm-1.93-7.46-.78-3c-.19-.67-.41-1.53-.67-2.59s-.44-1.81-.52-2.27c-.07.43-.22,1.13-.44,2.1s-.71,2.89-1.47,5.75Z"/><path class="cls-4" d="M1109.32,861v6.63h-4.93V849.43h6q7.43,0,7.43,5.39a5.38,5.38,0,0,1-3.09,4.9l5.31,7.95h-5.59l-3.87-6.63Zm0-3.71h.92c1.72,0,2.58-.76,2.58-2.29,0-1.25-.84-1.88-2.53-1.88h-1Z"/><path class="cls-4" d="M1132.88,867.67l-.9-3.42h-5.93l-.92,3.42h-5.42l6-18.31h6.58l6,18.31Zm-1.93-7.46-.78-3c-.19-.67-.41-1.53-.67-2.59s-.43-1.81-.52-2.27c-.07.43-.22,1.13-.44,2.1s-.71,2.89-1.47,5.75Z"/><path class="cls-4" d="M1157.61,867.67h-6.47l-6.66-12.85h-.11c.16,2,.24,3.56.24,4.63v8.22h-4.37V849.43h6.44l6.63,12.68h.08c-.12-1.84-.18-3.32-.18-4.43v-8.25h4.4Z"/></g><g id="marker-sepanggar"><circle class="cls-1" cx="985" cy="923" r="55.68"/><circle class="cls-2" cx="985" cy="923" r="12.06"/></g><g id="sepanggar-text"><rect class="cls-5" x="855" y="956.55" width="267" height="43.88"/><path class="cls-4" d="M885.39,982.13a5.36,5.36,0,0,1-.86,3,5.61,5.61,0,0,1-2.48,2,9.15,9.15,0,0,1-3.81.73,15.59,15.59,0,0,1-3.06-.25,11.58,11.58,0,0,1-2.57-.89v-4.4a14.17,14.17,0,0,0,2.94,1.13,10.89,10.89,0,0,0,2.79.41,2.75,2.75,0,0,0,1.61-.38,1.18,1.18,0,0,0,.51-1,1.14,1.14,0,0,0-.2-.66,2.6,2.6,0,0,0-.66-.57q-.47-.29-2.43-1.17a11.67,11.67,0,0,1-2.68-1.57,4.92,4.92,0,0,1-1.32-1.75,5.7,5.7,0,0,1-.43-2.33,4.68,4.68,0,0,1,1.83-3.93,8.12,8.12,0,0,1,5-1.41,14.19,14.19,0,0,1,5.77,1.31l-1.51,3.8a11,11,0,0,0-4.42-1.17,2.24,2.24,0,0,0-1.39.34,1,1,0,0,0-.44.83,1.24,1.24,0,0,0,.56,1,21.73,21.73,0,0,0,3,1.54,8.36,8.36,0,0,1,3.27,2.28A4.88,4.88,0,0,1,885.39,982.13Z"/><path class="cls-4" d="M899,987.67H888.21V969.43H899v4h-5.9v2.87h5.47v4h-5.47v3.45H899Z"/><path class="cls-4" d="M915.48,975.23a6.11,6.11,0,0,1-1.81,4.73,7.27,7.27,0,0,1-5.12,1.66h-1.38v6h-4.93V969.43h6.31a7.68,7.68,0,0,1,5.19,1.51A5.38,5.38,0,0,1,915.48,975.23Zm-8.31,2.37h.89a2.45,2.45,0,0,0,1.77-.62,2.26,2.26,0,0,0,.66-1.72c0-1.23-.69-1.85-2-1.85h-1.27Z"/><path class="cls-4" d="M929.58,987.67l-.9-3.42h-5.93l-.92,3.42h-5.42l6-18.31h6.57l6,18.31Zm-1.92-7.46-.79-3c-.18-.67-.41-1.53-.67-2.59s-.43-1.81-.52-2.27c-.07.43-.22,1.13-.44,2.1s-.71,2.89-1.46,5.75Z"/><path class="cls-4" d="M954.31,987.67h-6.46l-6.67-12.85h-.11c.16,2,.24,3.56.24,4.63v8.22h-4.37V969.43h6.44L950,982.11h.07c-.11-1.84-.17-3.32-.17-4.43v-8.25h4.39Z"/><path class="cls-4" d="M965.58,977h7.87v9.83a21.45,21.45,0,0,1-7.05,1.1,8.53,8.53,0,0,1-6.52-2.44q-2.29-2.44-2.3-7a9.16,9.16,0,0,1,2.52-6.87,9.68,9.68,0,0,1,7.06-2.46,16.06,16.06,0,0,1,3.25.32,13.58,13.58,0,0,1,2.67.83l-1.56,3.86a9.79,9.79,0,0,0-4.33-1,4.1,4.1,0,0,0-3.34,1.41,6,6,0,0,0-1.18,4,6.18,6.18,0,0,0,1.07,3.9,3.7,3.7,0,0,0,3.07,1.34,9.08,9.08,0,0,0,2-.21V980.8h-3.25Z"/><path class="cls-4" d="M984.49,977h7.88v9.83a21.45,21.45,0,0,1-7,1.1,8.51,8.51,0,0,1-6.52-2.44c-1.54-1.63-2.3-4-2.3-7a9.16,9.16,0,0,1,2.52-6.87,9.68,9.68,0,0,1,7.06-2.46,16.06,16.06,0,0,1,3.25.32,13.26,13.26,0,0,1,2.66.83l-1.56,3.86a9.73,9.73,0,0,0-4.33-1,4.1,4.1,0,0,0-3.33,1.41,6,6,0,0,0-1.18,4,6.18,6.18,0,0,0,1.06,3.9,3.73,3.73,0,0,0,3.08,1.34,9.08,9.08,0,0,0,2-.21V980.8h-3.26Z"/><path class="cls-4" d="M1007.28,987.67l-.9-3.42h-5.93l-.92,3.42h-5.41l6-18.31h6.57l6,18.31Zm-1.92-7.46-.79-3c-.18-.67-.4-1.53-.67-2.59s-.43-1.81-.51-2.27q-.12.64-.45,2.1t-1.46,5.75Z"/><path class="cls-4" d="M1019.57,981v6.63h-4.93V969.43h6q7.44,0,7.44,5.39a5.39,5.39,0,0,1-3.1,4.9l5.32,7.95h-5.59l-3.87-6.63Zm0-3.71h.92c1.73,0,2.59-.76,2.59-2.29,0-1.25-.85-1.88-2.54-1.88h-1Z"/><path class="cls-4" d="M1051.81,975.23A6.14,6.14,0,0,1,1050,980a7.27,7.27,0,0,1-5.12,1.66h-1.39v6h-4.92V969.43h6.31a7.71,7.71,0,0,1,5.19,1.51A5.38,5.38,0,0,1,1051.81,975.23Zm-8.31,2.37h.9a2.45,2.45,0,0,0,1.77-.62,2.25,2.25,0,0,0,.65-1.72c0-1.23-.68-1.85-2-1.85h-1.28Z"/><path class="cls-4" d="M1071.79,978.53q0,4.61-2.26,7c-1.5,1.59-3.71,2.39-6.61,2.39a8.64,8.64,0,0,1-6.58-2.41q-2.29-2.4-2.29-7c0-3,.76-5.35,2.28-7s3.72-2.4,6.62-2.4,5.1.8,6.6,2.39S1071.79,975.45,1071.79,978.53Zm-12.55,0c0,3.52,1.23,5.29,3.68,5.29a3.17,3.17,0,0,0,2.78-1.29,9.33,9.33,0,0,0,0-8,3.11,3.11,0,0,0-2.73-1.3C1060.47,973.19,1059.24,975,1059.24,978.53Z"/><path class="cls-4" d="M1080,981v6.63h-4.93V969.43h6q7.44,0,7.44,5.39a5.38,5.38,0,0,1-3.09,4.9l5.31,7.95h-5.59l-3.87-6.63Zm0-3.71h.92c1.72,0,2.58-.76,2.58-2.29,0-1.25-.84-1.88-2.53-1.88h-1Z"/><path class="cls-4" d="M1100.43,987.67h-4.93V973.46h-4.45v-4h13.82v4h-4.44Z"/></g></svg>