<svg id="details" xmlns="http://www.w3.org/2000/svg" viewBox="0 0 1920 1080"><defs><style>.cls-1,.cls-2{fill:none;}.cls-1,.cls-4{stroke:#fc7a00;stroke-width:6px;}.cls-1,.cls-2,.cls-4{stroke-linejoin:round;}.cls-1{stroke-dasharray:8 6;}.cls-2{stroke:#686868;stroke-width:3px;}.cls-3{fill:#fc7a00;opacity:0.2;}.cls-4,.cls-6{fill:#fff;}.cls-5{fill:#a36a2a;}.cls-7{fill:#3b3b3b;}</style></defs><title>Malaysia map OL</title><polyline id="thai-line" class="cls-1" points="437 259 443 286 445 311 439.5 403.5 444.5 421.5 450.5 445.5 436.5 481.5 429.5 499.5 414.5 562.5 426.5 590.5 436.5 599.5 436.5 607.5 458.5 646.5 478.5 690.5 478.5 711.5 485.5 728.5 488.5 743.5 496.5 769.5 499.5 787.5 510.5 808.5 512.5 828.5 503.5 862.5 502.5 877.5 481.5 908.5 458.5 921.5 451.5 937.5 450.5 954.5 455.5 963.5 445.5 975.5 438.5 985.5 437.5 1011.5 434.5 1024.5 428.5 1034.5 424.5 1065.5 440.5 1074.5 447.5 1087.5"/><polyline class="cls-2" points="1609 453 1600 460 1600 472 1597 479 1600 488 1600 492 1597 498 1601 498 1603 507 1607 507 1609 515 1605 523 1603 523 1593 542 1586 545 1586 556 1582 564 1568 568 1557 583 1548 583 1543.5 589.5 1539.5 589.5 1530.5 597.5 1524.5 604.5 1524.5 615.5 1506.5 626.5 1503.5 631.5 1506.5 634.5 1501.5 637.5 1504.5 651.5 1499.5 656.5 1494.5 651.5 1494.5 668.5 1490.5 676.5 1490.5 683.5 1497.5 685.5 1505.5 711.5 1486.5 729.5 1478.5 731.5 1471.5 726.5 1467.5 733.5 1462.5 733.5 1458.5 745.5 1461.5 752.5 1446.5 760.5 1451.5 766.5 1443.5 763.5 1429.5 766.5 1417.5 789.5 1422.5 795.5 1424.5 802.5 1421.5 808.5 1414.5 805.5 1409.5 799.5 1399.5 794.5 1387.5 780.5 1387.5 768.5 1373.5 760.5 1365.5 764.5 1361.5 774.5 1353.5 770.5 1349.5 772.5 1345.5 766.5 1345.5 784.5 1336.5 793.5 1327.5 790.5 1325.5 772.5 1318.5 772.5 1312.5 766.5 1314.5 763.5 1308.5 757.5 1312.5 754.5 1308.5 748.5 1304.5 750.5 1304.5 731.5 1307.5 726.5 1303.5 719.5 1307.5 713.5 1305.5 706.5 1302.5 703.5 1293.5 710.5 1279.5 705.5 1279.5 691.5 1276.5 691.5 1273.5 688.5 1274.5 680.5 1270.5 678.5 1262.5 680.5 1251.5 664.5 1235.5 675.5 1222.5 675.5 1211.5 682.5 1210.5 690.5 1204.5 687.5 1190.5 701.5 1185.5 700.5 1183.5 710.5 1175.5 709.5 1169.5 705.5 1163.5 711.5 1145.5 709.5 1142.5 706.5 1128.5 708.5 1117.5 705.5 1118.5 717.5 1110.5 723.5 1106.5 736.5 1095.5 736.5 1087.5 741.5 1085.5 752.5 1080.5 754.5 1073.5 749.5 1068.5 749.5 1063.5 757.5 1057.5 755.5 1057.5 749.5 1051.5 751.5 1047.5 746.5 1039.5 750.5 1028.5 758.5 1024.5 768.5 1026.5 775.5 1019.5 787.5 1023.5 792.5 1026.5 806.5 1024.5 815.5 1027.5 818.5 1019.5 824.5 1019.5 831.5 1009.5 838.5 996.5 838.5 1000.5 847.5 994.5 857.5 987.5 857.5 987.5 862.5 981.5 866.5 964.5 866.5 960.5 871.5 962.5 875.5 950.5 885.5 945.5 882.5 945.5 888.5 937.5 888.5 927.5 850.5 911.5 834.5 911.5 827.5 907.5 826.5 904.5 820.5 901.5 823.5 901.5 814.5 887.5 809.5 886.5 799.5 868.5 803.5 857.5 782.5 850.5 780.5 845.5 771.5 841.5 770.5 836.5 769.5 833.5 753.5 844.5 745.5 845.5 739.5 852.5 732.5 849.5 722.5 851.5 718.5 850.5 706.5 864.5 689.5 864.5 677.5 871.5 676.5 881.5 681.5 888.5 675.5 897.5 675.5 904.5 683.5 905.5 670.5 909.5 670.5 909.5 664.5 914.5 658.5 910.5 653.5 922.5 648.5 931.5 633.5 923.5 625.5 919.5 625.5 918.5 618.5 923.5 611.5 919.5 606.5 920.5 597.5 924.5 591.5 914.5 582.5 918.5 574.5 922.5 572.5 921.5 566.5 926.5 558.5 924.5 553.5 932.5 552.5 933.5 544.5 927.5 538.5 918.5 538.5 917.5 530.5 906.5 524.5 885.5 518.5 887.5 512.5 897.5 505.5 897.5 498.5 904.5 493.5 909.5 495.5 920.5 492.5 933.5 483.5 930.5 477.5 924.5 475.5 928.5 468.5 918.5 450.5 923.5 442.5 911.5 435.5 895.5 439.5 889.5 436.5 886.5 440.5 879.5 439.5 867.5 446.5 860.5 443.5 857.5 445.5 852.5 444.5 852.5 438.5 837.5 431.5 833.5 422.5 822.5 419.5 820.5 428.5 806.5 433.5 805.5 448.5 787.5 444.5 776.5 454.5 769.5 450.5 768.5 443.5 758.5 438.5 755.5 431.5 750.5 446.5 754.5 450.5 743.5 457.5 734.5 442.5 736.5 433.5 729.5 416.5 729.5 409.5 735.5 402.5 740.5 402.5 740.5 398.5 733.5 391.5 729.5 378.5 719.5 367.5 722.5 333.5 712.5 306.5 698.5 303.5 688.5 292.5 681.5 299.5 671.5 296.5 664.5 288.5 661.5 271.5 665.5 266.5 662.5 258.5 659.5 259.5 655.5 270.5 650.5 270.5 643.5 280.5 641.5 288.5 633.5 287.5 631.5 291.5 625.5 291.5 624.5 299.5 608.5 301.5 602.5 308.5 595.5 302.5 597.5 295.5 577.5 294.5 570.5 286.5 567.5 289.5 561.5 282.5 545.5 279.5 539.5 269.5 527.5 277.5 524.5 273.5 520.5 276.5 517.5 273.5 508.5 274.5 500.5 266.5 496.5 267.5 490.5 259.5 493.5 251.5 487.5 248.5 474.5 251.5 467.5 248.5 452.5 248.5 439.5 254.5 428.5 246.5 426.5 241.5 416.5 241.5 407.5 236.5 402.5 238.5 397.5 232.5 397.5 226.5 392.5 223.5 391.5 215.5 386.5 216.5 383.5 210.5 373.5 207.5 366.5 194.5 357.5 193.5 359.5 188.5 373.5 181.5 369.5 172.5 364.5 172.5 371.5 165.5 369.5 156.5 373.5 152.5 371.5 149.5 361.5 149.5 357.5 141.5 351.5 141.5 348.5 129.5 351.5 122.5 348.5 118.5 336.5 121.5 331.5 127.5 325.5 118.5 316.5 130.5 304.5 131.5 297.5 124.5 296.5 111.5 289.5 111.5 287.5 106.5 275.5 114.5 270.5 129.5 265.5 130.5 268.5 138.5 272.5 139.5 271.5 159.5 262.5 163.5 261.5 177.5 264.5 192.5 271.5 193.5 272.5 198.5 269.5 202.5 273.5 215.5 268.5 215.5 268.5 220.5 265.5 213.5 261.5 217.5 253.5 211.5 256.5 224.5 253.5 227.5 255.5 243.5 253.5 250.5 258.5 275.5 252.5 279.5 256.5 282.5 247.5 288.5 249.5 300.5 240.5 306.5 240.5 317.5 229.5 321.5"/><g id="marker-bukit"><circle class="cls-3" cx="437" cy="249" r="55.68"/><circle class="cls-4" cx="437" cy="249" r="12.06"/></g><g id="marker-rantau"><circle class="cls-3" cx="1524" cy="608" r="55.68"/><circle class="cls-4" cx="1524" cy="608" r="12.06"/></g><g id="marker-padang"><circle class="cls-3" cx="362" cy="152" r="55.68"/><circle class="cls-4" cx="362" cy="152" r="12.06"/></g><g id="rantau-text"><rect class="cls-5" x="1393" y="641.55" width="263" height="43.88"/><path class="cls-6" d="M1411.1,666v6.63h-4.93V654.43h6q7.44,0,7.44,5.39a5.37,5.37,0,0,1-3.1,4.9l5.32,7.95h-5.59l-3.87-6.63Zm0-3.71h.93c1.72,0,2.58-.76,2.58-2.29,0-1.25-.84-1.88-2.53-1.88h-1Z"/><path class="cls-6" d="M1434.66,672.67l-.9-3.42h-5.92l-.93,3.42h-5.41l6-18.31H1434l6,18.31Zm-1.92-7.46-.78-3c-.19-.67-.41-1.53-.67-2.59s-.44-1.81-.52-2.27c-.08.43-.22,1.13-.44,2.1s-.71,2.89-1.47,5.75Z"/><path class="cls-6" d="M1459.39,672.67h-6.46l-6.66-12.85h-.11c.15,2,.23,3.56.23,4.63v8.22H1442V654.43h6.43l6.64,12.68h.08c-.12-1.84-.18-3.32-.18-4.43v-8.25h4.39Z"/><path class="cls-6" d="M1471.39,672.67h-4.93V658.46H1462v-4h13.83v4h-4.44Z"/><path class="cls-6" d="M1489.63,672.67l-.9-3.42h-5.93l-.92,3.42h-5.42l6-18.31H1489l6,18.31Zm-1.92-7.46-.79-3c-.18-.67-.4-1.53-.67-2.59s-.43-1.81-.51-2.27q-.12.64-.45,2.1t-1.46,5.75Z"/><path class="cls-6" d="M1512.5,654.43v11a7.34,7.34,0,0,1-2,5.55,9.63,9.63,0,0,1-11.58,0,7.24,7.24,0,0,1-2-5.49V654.43h5v10.71a4.37,4.37,0,0,0,.72,2.8,3.1,3.1,0,0,0,4.32,0,4.6,4.6,0,0,0,.68-2.84V654.43Z"/><path class="cls-6" d="M1536.21,660.23a6.14,6.14,0,0,1-1.8,4.73,7.27,7.27,0,0,1-5.12,1.66h-1.39v6H1523V654.43h6.32a7.71,7.71,0,0,1,5.19,1.51A5.41,5.41,0,0,1,1536.21,660.23Zm-8.31,2.37h.9a2.41,2.41,0,0,0,1.76-.62,2.26,2.26,0,0,0,.66-1.72c0-1.23-.68-1.85-2-1.85h-1.27Z"/><path class="cls-6" d="M1550.31,672.67l-.9-3.42h-5.92l-.93,3.42h-5.41l5.95-18.31h6.58l6,18.31Zm-1.92-7.46-.79-3c-.18-.67-.4-1.53-.66-2.59s-.44-1.81-.52-2.27c-.08.43-.22,1.13-.44,2.1s-.71,2.89-1.47,5.75Z"/><path class="cls-6" d="M1575,672.67h-6.46l-6.66-12.85h-.12c.16,2,.24,3.56.24,4.63v8.22h-4.37V654.43h6.44l6.64,12.68h.08c-.12-1.84-.18-3.32-.18-4.43v-8.25H1575Z"/><path class="cls-6" d="M1577.55,678.4a12.41,12.41,0,0,1-2.56-.26v-3.83l.85.17a5,5,0,0,0,1,.09,2,2,0,0,0,1.74-.74,4.5,4.5,0,0,0,.53-2.52V654.43h5v16.46a8.46,8.46,0,0,1-1.62,5.61A6,6,0,0,1,1577.55,678.4Z"/><path class="cls-6" d="M1599.18,672.67l-.9-3.42h-5.93l-.92,3.42H1586l6-18.31h6.58l6,18.31Zm-1.92-7.46-.79-3c-.18-.67-.41-1.53-.67-2.59s-.43-1.81-.52-2.27c-.07.43-.22,1.13-.44,2.1s-.71,2.89-1.46,5.75Z"/><path class="cls-6" d="M1623.91,672.67h-6.46l-6.67-12.85h-.11c.16,2,.24,3.56.24,4.63v8.22h-4.37V654.43H1613l6.64,12.68h.07c-.12-1.84-.17-3.32-.17-4.43v-8.25h4.39Z"/><path class="cls-6" d="M1635.18,662h7.87v9.83a21.45,21.45,0,0,1-7,1.1,8.53,8.53,0,0,1-6.52-2.44q-2.3-2.44-2.3-7a9.16,9.16,0,0,1,2.52-6.87,9.68,9.68,0,0,1,7.06-2.46,16.06,16.06,0,0,1,3.25.32,13.58,13.58,0,0,1,2.67.83l-1.56,3.86a9.79,9.79,0,0,0-4.33-1,4.1,4.1,0,0,0-3.34,1.41,6,6,0,0,0-1.18,4,6.12,6.12,0,0,0,1.07,3.9,3.7,3.7,0,0,0,3.07,1.34,9.08,9.08,0,0,0,2-.21V665.8h-3.25Z"/></g><g id="thai-text"><rect class="cls-6" x="786" y="356.55" width="205" height="43.88"/><path class="cls-7" d="M811.66,387.67h-4.93V373.46h-4.46v-4H816.1v4h-4.44Z"/><path class="cls-7" d="M834.34,387.67h-5v-7.43h-5.73v7.43h-4.95V369.43h4.95v6.76h5.73v-6.76h5Z"/><path class="cls-7" d="M849.48,387.67l-.9-3.42h-5.93l-.92,3.42h-5.41l5.95-18.32h6.57l6,18.32Zm-1.92-7.46-.79-3c-.18-.67-.4-1.53-.67-2.59s-.43-1.81-.51-2.27q-.12.64-.45,2.1c-.22,1-.7,2.89-1.46,5.75Z"/><path class="cls-7" d="M856.84,387.67V369.43h5v18.24Z"/><path class="cls-7" d="M872.38,369.43h6.36a10.88,10.88,0,0,1,5.52,1.1,3.75,3.75,0,0,1,1.81,3.44,4.29,4.29,0,0,1-.79,2.62,3.47,3.47,0,0,1-2.07,1.4v.12a4.26,4.26,0,0,1,2.46,1.5,4.58,4.58,0,0,1,.76,2.72,4.63,4.63,0,0,1-1.87,3.91,8.11,8.11,0,0,1-5.08,1.43h-7.1Zm4.93,7h1.48a2.6,2.6,0,0,0,1.64-.44,1.5,1.5,0,0,0,.58-1.29c0-1-.77-1.54-2.32-1.54h-1.38Zm0,3.61v3.83H879q2.31,0,2.31-1.95a1.69,1.69,0,0,0-.62-1.4,2.87,2.87,0,0,0-1.79-.48Z"/><path class="cls-7" d="M906.67,378.53q0,4.61-2.26,7t-6.61,2.39a8.66,8.66,0,0,1-6.59-2.41c-1.52-1.6-2.29-3.94-2.29-7s.76-5.35,2.28-7,3.73-2.4,6.62-2.4,5.11.8,6.6,2.39S906.67,375.45,906.67,378.53Zm-12.55,0c0,3.52,1.22,5.29,3.68,5.29a3.15,3.15,0,0,0,2.77-1.29,7,7,0,0,0,.91-4,7.11,7.11,0,0,0-.92-4,3.12,3.12,0,0,0-2.74-1.3Q894.12,373.19,894.12,378.53Z"/><path class="cls-7" d="M914.89,381v6.64H910V369.43h6q7.44,0,7.44,5.39a5.37,5.37,0,0,1-3.1,4.9l5.32,7.95H920L916.14,381Zm0-3.7h.93q2.58,0,2.58-2.28c0-1.26-.85-1.89-2.53-1.89h-1Z"/><path class="cls-7" d="M942.74,378.17c0,3-.83,5.39-2.51,7a9.65,9.65,0,0,1-7.07,2.47h-5.9V369.43h6.31q4.39,0,6.78,2.25C942,373.17,942.74,375.34,942.74,378.17Zm-5.11.17a5.82,5.82,0,0,0-1-3.72,3.68,3.68,0,0,0-3-1.21h-1.43v10.22h1.1a4,4,0,0,0,3.29-1.3A6.3,6.3,0,0,0,937.63,378.34Z"/><path class="cls-7" d="M956.84,387.67H946V369.43h10.83v4h-5.9v2.87h5.47v3.95h-5.47v3.45h5.9Z"/><path class="cls-7" d="M965,381v6.64H960V369.43h6q7.43,0,7.43,5.39a5.38,5.38,0,0,1-3.09,4.9l5.31,7.95h-5.59L966.21,381Zm0-3.7h.92q2.58,0,2.58-2.28c0-1.26-.84-1.89-2.53-1.89h-1Z"/></g><g id="padang-text"><rect class="cls-5" x="262" y="66.55" width="231" height="43.88"/><path class="cls-6" d="M292.35,85.23A6.11,6.11,0,0,1,290.54,90a7.25,7.25,0,0,1-5.12,1.66H284v6h-4.93V79.43h6.31a7.68,7.68,0,0,1,5.19,1.51A5.38,5.38,0,0,1,292.35,85.23ZM284,87.6h.9A2.41,2.41,0,0,0,286.7,87a2.26,2.26,0,0,0,.66-1.72c0-1.23-.69-1.85-2.05-1.85H284Z"/><path class="cls-6" d="M306.45,97.67l-.9-3.42h-5.93l-.92,3.42h-5.42l6-18.32h6.57l6,18.32Zm-1.92-7.46-.79-3c-.18-.67-.4-1.53-.67-2.59s-.43-1.81-.51-2.27q-.12.65-.45,2.1t-1.46,5.75Z"/><path class="cls-6" d="M329.3,88.17c0,3-.84,5.39-2.52,7s-4,2.47-7.07,2.47h-5.9V79.43h6.31a9.54,9.54,0,0,1,6.79,2.25A8.48,8.48,0,0,1,329.3,88.17Zm-5.12.17a5.82,5.82,0,0,0-1-3.72,3.67,3.67,0,0,0-3-1.21h-1.43V93.63h1.1a4,4,0,0,0,3.29-1.3A6.3,6.3,0,0,0,324.18,88.34Z"/><path class="cls-6" d="M343.76,97.67l-.9-3.42h-5.93L336,97.67h-5.42l6-18.32h6.57l6,18.32Zm-1.92-7.46-.79-3c-.18-.67-.4-1.53-.67-2.59s-.43-1.81-.51-2.27q-.12.65-.45,2.1T338,90.21Z"/><path class="cls-6" d="M368.49,97.67H362l-6.67-12.85h-.11c.16,2,.24,3.57.24,4.63v8.22h-4.37V79.43h6.44l6.64,12.68h.07c-.11-1.84-.17-3.32-.17-4.43V79.43h4.39Z"/><path class="cls-6" d="M379.76,87h7.87v9.83a21.45,21.45,0,0,1-7.05,1.1,8.53,8.53,0,0,1-6.52-2.44q-2.3-2.45-2.3-7a9.16,9.16,0,0,1,2.52-6.87,9.69,9.69,0,0,1,7.06-2.46,16.06,16.06,0,0,1,3.25.32,13.58,13.58,0,0,1,2.67.83l-1.56,3.86a9.79,9.79,0,0,0-4.33-1,4.14,4.14,0,0,0-3.34,1.4,6.08,6.08,0,0,0-1.18,4,6.18,6.18,0,0,0,1.07,3.9A3.7,3.7,0,0,0,381,93.87a9.17,9.17,0,0,0,2-.21V90.8h-3.26Z"/><path class="cls-6" d="M398,79.43h6.36a11,11,0,0,1,5.53,1.1,3.76,3.76,0,0,1,1.8,3.44,4.29,4.29,0,0,1-.79,2.62,3.47,3.47,0,0,1-2.07,1.4v.12a4.26,4.26,0,0,1,2.46,1.5,4.51,4.51,0,0,1,.76,2.72,4.63,4.63,0,0,1-1.87,3.91,8.09,8.09,0,0,1-5.08,1.43H398Zm4.93,7h1.48A2.6,2.6,0,0,0,406,86a1.5,1.5,0,0,0,.58-1.29c0-1-.77-1.54-2.32-1.54h-1.38Zm0,3.61v3.83h1.73q2.31,0,2.31-2a1.66,1.66,0,0,0-.62-1.4,2.87,2.87,0,0,0-1.79-.48Z"/><path class="cls-6" d="M426,97.67H415.21V79.43H426v4h-5.9v2.87h5.46v3.95h-5.46v3.45H426Z"/><path class="cls-6" d="M441.16,92.13a5.36,5.36,0,0,1-.86,3,5.61,5.61,0,0,1-2.48,2,9.15,9.15,0,0,1-3.81.73,15.42,15.42,0,0,1-3.05-.25,11,11,0,0,1-2.57-.9V92.38a14.09,14.09,0,0,0,2.93,1.13,11,11,0,0,0,2.79.41,2.73,2.73,0,0,0,1.61-.38,1.19,1.19,0,0,0,.52-1,1.08,1.08,0,0,0-.21-.66,2.6,2.6,0,0,0-.66-.57c-.31-.19-1.11-.58-2.43-1.17a11.67,11.67,0,0,1-2.68-1.57,4.92,4.92,0,0,1-1.32-1.75,5.7,5.7,0,0,1-.43-2.33,4.66,4.66,0,0,1,1.84-3.93,8.07,8.07,0,0,1,5-1.41,14,14,0,0,1,5.77,1.31l-1.51,3.8a10.91,10.91,0,0,0-4.41-1.17,2.27,2.27,0,0,0-1.4.34,1,1,0,0,0-.44.83,1.24,1.24,0,0,0,.56,1,21.73,21.73,0,0,0,3,1.54,8.41,8.41,0,0,1,3.28,2.28A4.94,4.94,0,0,1,441.16,92.13Z"/><path class="cls-6" d="M455.18,97.67l-.9-3.42h-5.93l-.92,3.42H442l6-18.32h6.57l6,18.32Zm-1.92-7.46-.79-3c-.18-.67-.41-1.53-.67-2.59s-.43-1.81-.52-2.27c-.07.43-.22,1.13-.44,2.1s-.71,2.89-1.46,5.75Z"/><path class="cls-6" d="M467.47,91v6.64h-4.93V79.43h6q7.44,0,7.43,5.39a5.38,5.38,0,0,1-3.09,4.9l5.32,8h-5.6L468.72,91Zm0-3.7h.92c1.72,0,2.59-.76,2.59-2.28,0-1.26-.85-1.89-2.54-1.89h-1Z"/></g><g id="bukit-text"><rect class="cls-5" x="310" y="290.55" width="279" height="43.88"/><path class="cls-6" d="M326.15,303.43h6.36a10.88,10.88,0,0,1,5.52,1.1,3.76,3.76,0,0,1,1.8,3.44,4.35,4.35,0,0,1-.78,2.62A3.53,3.53,0,0,1,337,312v.12a4.26,4.26,0,0,1,2.46,1.5,4.58,4.58,0,0,1,.76,2.72,4.66,4.66,0,0,1-1.87,3.91,8.11,8.11,0,0,1-5.08,1.43h-7.1Zm4.92,7h1.49a2.62,2.62,0,0,0,1.64-.44,1.5,1.5,0,0,0,.58-1.29c0-1-.77-1.54-2.32-1.54h-1.39Zm0,3.61v3.83h1.74q2.31,0,2.31-1.95a1.69,1.69,0,0,0-.62-1.4,2.87,2.87,0,0,0-1.79-.48Z"/><path class="cls-6" d="M358.88,303.43v11a7.38,7.38,0,0,1-2,5.55,8.06,8.06,0,0,1-5.85,2,8,8,0,0,1-5.73-1.91,7.2,7.2,0,0,1-2-5.49V303.43h5v10.71a4.37,4.37,0,0,0,.72,2.8,3.12,3.12,0,0,0,4.33,0,4.66,4.66,0,0,0,.68-2.84V303.43Z"/><path class="cls-6" d="M378.29,321.67h-5.56l-3.61-7-1.46.87v6.1h-5V303.43h5v7.92a21.88,21.88,0,0,1,1.51-2.33l3.83-5.59h5.39l-5.75,8.17Z"/><path class="cls-6" d="M380.26,321.67V303.43h5v18.24Z"/><path class="cls-6" d="M397.21,321.67h-4.93V307.46h-4.45v-4h13.82v4h-4.44Z"/><path class="cls-6" d="M426.48,321.67h-5.56l-3.61-7-1.46.87v6.1h-5V303.43h5v7.92a23.66,23.66,0,0,1,1.51-2.33l3.83-5.59h5.39l-5.75,8.17Z"/><path class="cls-6" d="M439.65,321.67l-.9-3.42h-5.93l-.92,3.42h-5.42l6-18.32H439l6,18.32Zm-1.92-7.46-.79-3c-.18-.67-.4-1.53-.67-2.59s-.43-1.81-.51-2.27q-.12.64-.45,2.1t-1.46,5.75Z"/><path class="cls-6" d="M453.52,310.19l3.15-6.76H462l-6,11.12v7.12h-5v-7l-6-11.27h5.37Z"/><path class="cls-6" d="M479.49,303.43v11a7.34,7.34,0,0,1-2,5.55,9.63,9.63,0,0,1-11.58.05,7.24,7.24,0,0,1-2-5.49V303.43h5v10.71a4.37,4.37,0,0,0,.72,2.8,3.1,3.1,0,0,0,4.32,0,4.6,4.6,0,0,0,.68-2.84V303.43Z"/><path class="cls-6" d="M505.6,321.67h-5v-7.43h-5.72v7.43h-5V303.43h5v6.76h5.72v-6.76h5Z"/><path class="cls-6" d="M509.54,321.67V303.43h4.95v18.24Z"/><path class="cls-6" d="M526.49,321.67h-4.93V307.46H517.1v-4h13.83v4h-4.44Z"/><path class="cls-6" d="M544.73,321.67l-.9-3.42H537.9l-.92,3.42h-5.42l6-18.32h6.57l6,18.32Zm-1.92-7.46-.79-3c-.18-.67-.4-1.53-.67-2.59s-.43-1.81-.51-2.27q-.12.64-.45,2.1t-1.46,5.75Z"/><path class="cls-6" d="M560,321.67l-3.73-13.14h-.11c.17,2.24.26,4,.26,5.22v7.92h-4.37V303.43h6.56l3.81,12.95h.1l3.73-12.95h6.58v18.24h-4.53v-8c0-.41,0-.87,0-1.38s.07-1.75.16-3.73h-.11l-3.68,13.11Z"/></g><g id="caption03"><rect class="cls-7" x="205" y="384.24" width="479" height="109.76"/><path class="cls-6" d="M252,418.75a4,4,0,0,1-1.48,3.33,6.71,6.71,0,0,1-4.24,1.17h-1.68v5.61H243V414.59h3.7C250.23,414.59,252,416,252,418.75Zm-7.4,3.07h1.5a5.51,5.51,0,0,0,3.19-.71,2.62,2.62,0,0,0,1-2.28,2.45,2.45,0,0,0-.93-2.11,4.79,4.79,0,0,0-2.89-.7h-1.86Z"/><path class="cls-6" d="M261.34,428.86l-.32-1.52h-.08a4.32,4.32,0,0,1-1.6,1.36,4.8,4.8,0,0,1-2,.36,3.57,3.57,0,0,1-2.5-.82,3,3,0,0,1-.9-2.33q0-3.26,5.18-3.4l1.82-.06v-.67a2.72,2.72,0,0,0-.54-1.86,2.23,2.23,0,0,0-1.73-.6,7.12,7.12,0,0,0-3,.82l-.5-1.24a8,8,0,0,1,1.73-.67,7.65,7.65,0,0,1,1.89-.24,4.07,4.07,0,0,1,2.84.85,3.51,3.51,0,0,1,.92,2.72v7.3Zm-3.66-1.14a3.27,3.27,0,0,0,2.38-.83,3.09,3.09,0,0,0,.86-2.32v-1l-1.62.07a5.9,5.9,0,0,0-2.79.6,1.81,1.81,0,0,0-.85,1.66,1.67,1.67,0,0,0,.53,1.33A2.18,2.18,0,0,0,257.68,427.72Z"/><path class="cls-6" d="M273.21,428.86v-6.92a2.78,2.78,0,0,0-.6-1.95,2.43,2.43,0,0,0-1.86-.65,3.09,3.09,0,0,0-2.46.91,4.55,4.55,0,0,0-.79,3v5.61h-1.62v-10.7h1.32l.26,1.47h.08a3.35,3.35,0,0,1,1.4-1.23,4.54,4.54,0,0,1,2-.43,4.07,4.07,0,0,1,2.91.93,4,4,0,0,1,1,3v7Z"/><path class="cls-6" d="M286.92,418.16v1l-2,.23a3.52,3.52,0,0,1,.48.89,3.31,3.31,0,0,1,.22,1.25,3.16,3.16,0,0,1-1.08,2.51,4.32,4.32,0,0,1-2.94.94,5.11,5.11,0,0,1-.9-.08,1.59,1.59,0,0,0-1,1.38.7.7,0,0,0,.36.65,2.65,2.65,0,0,0,1.24.21h1.9a4.22,4.22,0,0,1,2.67.73,2.55,2.55,0,0,1,.93,2.13,3,3,0,0,1-1.42,2.71,7.65,7.65,0,0,1-4.16.93,5.7,5.7,0,0,1-3.24-.78,2.53,2.53,0,0,1-1.14-2.21,2.48,2.48,0,0,1,.63-1.69,3.19,3.19,0,0,1,1.75-1,1.71,1.71,0,0,1-.69-.57,1.55,1.55,0,0,1-.27-.91,1.69,1.69,0,0,1,.31-1,3.18,3.18,0,0,1,1-.85,2.9,2.9,0,0,1-1.36-1.17,3.37,3.37,0,0,1-.52-1.87,3.47,3.47,0,0,1,1-2.71,4.3,4.3,0,0,1,3-.95,5.5,5.5,0,0,1,1.52.19Zm-8.54,12.5a1.46,1.46,0,0,0,.74,1.32,4,4,0,0,0,2.09.45,5.85,5.85,0,0,0,3-.61,1.88,1.88,0,0,0,1-1.66,1.29,1.29,0,0,0-.54-1.2,4.1,4.1,0,0,0-2-.34h-1.94a2.56,2.56,0,0,0-1.72.53A1.87,1.87,0,0,0,278.38,430.66Zm.88-9.07a2.17,2.17,0,0,0,.64,1.7,2.54,2.54,0,0,0,1.76.57c1.59,0,2.38-.76,2.38-2.3a2.13,2.13,0,0,0-2.41-2.41,2.36,2.36,0,0,0-1.75.61A2.48,2.48,0,0,0,279.26,421.59Z"/><path class="cls-6" d="M298.35,423.5a5.94,5.94,0,0,1-1.31,4.09,4.66,4.66,0,0,1-3.65,1.47,4.86,4.86,0,0,1-2.55-.67,4.52,4.52,0,0,1-1.72-1.94,6.78,6.78,0,0,1-.6-2.95,5.89,5.89,0,0,1,1.31-4.07,4.6,4.6,0,0,1,3.63-1.46,4.51,4.51,0,0,1,3.57,1.49A5.89,5.89,0,0,1,298.35,423.5Zm-8.15,0a5.08,5.08,0,0,0,.82,3.13,3.26,3.26,0,0,0,4.83,0,5,5,0,0,0,.82-3.13,5,5,0,0,0-.82-3.1,2.92,2.92,0,0,0-2.44-1.06,2.84,2.84,0,0,0-2.4,1.05A5,5,0,0,0,290.2,423.5Z"/><path class="cls-6" d="M302.82,428.86H301.2V413.67h1.62Z"/><path class="cls-6" d="M306.12,415.26a1.07,1.07,0,0,1,.27-.81.92.92,0,0,1,.68-.26,1,1,0,0,1,.68.26,1.33,1.33,0,0,1,0,1.63,1,1,0,0,1-.68.27.93.93,0,0,1-.68-.27A1.11,1.11,0,0,1,306.12,415.26Zm1.76,13.6h-1.63v-10.7h1.63Z"/><path class="cls-6" d="M318.64,428.86v-6.92A2.78,2.78,0,0,0,318,420a2.43,2.43,0,0,0-1.86-.65,3.13,3.13,0,0,0-2.47.91,4.61,4.61,0,0,0-.78,3v5.61h-1.62v-10.7h1.32l.26,1.47H313a3.3,3.3,0,0,1,1.4-1.23,4.54,4.54,0,0,1,2-.43,4.07,4.07,0,0,1,2.91.93,4,4,0,0,1,1,3v7Z"/><path class="cls-6" d="M330.49,425.94a2.69,2.69,0,0,1-1.11,2.31,5.25,5.25,0,0,1-3.13.81,6.8,6.8,0,0,1-3.32-.67v-1.51a8.23,8.23,0,0,0,1.66.62,6.9,6.9,0,0,0,1.7.22,3.9,3.9,0,0,0,2-.4,1.4,1.4,0,0,0,.14-2.31,9,9,0,0,0-2.12-1.05,11.32,11.32,0,0,1-2.12-1,3,3,0,0,1-.94-.94,2.5,2.5,0,0,1-.31-1.26,2.42,2.42,0,0,1,1.07-2.07,5,5,0,0,1,2.92-.75,8.53,8.53,0,0,1,3.38.7l-.58,1.32a7.63,7.63,0,0,0-2.92-.67,3.26,3.26,0,0,0-1.74.37,1.11,1.11,0,0,0-.58,1,1.17,1.17,0,0,0,.22.73,2,2,0,0,0,.71.58,15.15,15.15,0,0,0,1.87.79,6.87,6.87,0,0,1,2.57,1.4A2.45,2.45,0,0,1,330.49,425.94Z"/><path class="cls-6" d="M344.91,428.86l-.33-1.52h-.07a4.48,4.48,0,0,1-1.6,1.36,4.82,4.82,0,0,1-2,.36,3.54,3.54,0,0,1-2.49-.82,3,3,0,0,1-.91-2.33q0-3.26,5.19-3.4l1.82-.06v-.67a2.72,2.72,0,0,0-.55-1.86,2.23,2.23,0,0,0-1.73-.6,7.19,7.19,0,0,0-3,.82l-.5-1.24a7.86,7.86,0,0,1,1.74-.67,7.65,7.65,0,0,1,1.89-.24,4,4,0,0,1,2.83.85,3.51,3.51,0,0,1,.93,2.72v7.3Zm-3.67-1.14a3.26,3.26,0,0,0,2.38-.83,3.05,3.05,0,0,0,.87-2.32v-1l-1.62.07a5.9,5.9,0,0,0-2.79.6,1.82,1.82,0,0,0-.86,1.66,1.67,1.67,0,0,0,.53,1.33A2.21,2.21,0,0,0,341.24,427.72Z"/><path class="cls-6" d="M354.33,418a7,7,0,0,1,1.28.11l-.23,1.51a5.35,5.35,0,0,0-1.17-.15A2.85,2.85,0,0,0,352,420.5a3.84,3.84,0,0,0-.92,2.62v5.74h-1.62v-10.7h1.34l.18,2h.08a4.8,4.8,0,0,1,1.43-1.61A3.3,3.3,0,0,1,354.33,418Z"/><path class="cls-6" d="M362.13,429.06a4.88,4.88,0,0,1-3.74-1.45,5.56,5.56,0,0,1-1.37-4,6.22,6.22,0,0,1,1.27-4.11,4.22,4.22,0,0,1,3.42-1.52,4.05,4.05,0,0,1,3.19,1.32,5.08,5.08,0,0,1,1.17,3.49v1H358.7a4.2,4.2,0,0,0,.95,2.86,3.29,3.29,0,0,0,2.54,1,8.68,8.68,0,0,0,3.42-.72v1.45a9.32,9.32,0,0,1-1.63.53A8.9,8.9,0,0,1,362.13,429.06Zm-.44-9.74a2.63,2.63,0,0,0-2.05.84,4,4,0,0,0-.91,2.33h5.6a3.6,3.6,0,0,0-.68-2.35A2.44,2.44,0,0,0,361.69,419.32Z"/><path class="cls-6" d="M382.79,418.16v1l-2,.23a3.24,3.24,0,0,1,.49.89,3.31,3.31,0,0,1,.22,1.25,3.16,3.16,0,0,1-1.08,2.51,4.35,4.35,0,0,1-2.95.94,5.08,5.08,0,0,1-.89-.08,1.59,1.59,0,0,0-1,1.38.7.7,0,0,0,.36.65,2.65,2.65,0,0,0,1.24.21h1.9a4.22,4.22,0,0,1,2.67.73,2.55,2.55,0,0,1,.93,2.13,3,3,0,0,1-1.43,2.71,7.63,7.63,0,0,1-4.16.93,5.69,5.69,0,0,1-3.23-.78,2.67,2.67,0,0,1-.52-3.9,3.26,3.26,0,0,1,1.76-1,1.71,1.71,0,0,1-.69-.57,1.55,1.55,0,0,1-.27-.91,1.69,1.69,0,0,1,.31-1,3.24,3.24,0,0,1,1-.85,2.92,2.92,0,0,1-1.35-1.17,3.37,3.37,0,0,1-.52-1.87,3.47,3.47,0,0,1,1.05-2.71,4.3,4.3,0,0,1,3-.95,5.5,5.5,0,0,1,1.52.19Zm-8.54,12.5A1.47,1.47,0,0,0,375,432a4,4,0,0,0,2.1.45,5.87,5.87,0,0,0,3-.61,1.88,1.88,0,0,0,1-1.66,1.29,1.29,0,0,0-.54-1.2,4.1,4.1,0,0,0-2-.34h-1.94a2.56,2.56,0,0,0-1.72.53A1.87,1.87,0,0,0,374.25,430.66Zm.88-9.07a2.17,2.17,0,0,0,.64,1.7,2.54,2.54,0,0,0,1.76.57c1.59,0,2.38-.76,2.38-2.3a2.13,2.13,0,0,0-2.41-2.41,2.36,2.36,0,0,0-1.75.61A2.48,2.48,0,0,0,375.13,421.59Z"/><path class="cls-6" d="M391.57,428.86l-.33-1.52h-.07a4.48,4.48,0,0,1-1.6,1.36,4.82,4.82,0,0,1-2,.36,3.54,3.54,0,0,1-2.49-.82,3,3,0,0,1-.91-2.33q0-3.26,5.19-3.4l1.82-.06v-.67a2.72,2.72,0,0,0-.55-1.86,2.23,2.23,0,0,0-1.73-.6,7.19,7.19,0,0,0-3,.82l-.5-1.24a7.86,7.86,0,0,1,1.74-.67A7.65,7.65,0,0,1,389,418a4,4,0,0,1,2.83.85,3.51,3.51,0,0,1,.93,2.72v7.3Zm-3.67-1.14a3.26,3.26,0,0,0,2.38-.83,3.05,3.05,0,0,0,.87-2.32v-1l-1.62.07a5.9,5.9,0,0,0-2.79.6,1.82,1.82,0,0,0-.86,1.66,1.64,1.64,0,0,0,.54,1.33A2.17,2.17,0,0,0,387.9,427.72Z"/><path class="cls-6" d="M399.56,427.72a5.49,5.49,0,0,0,.83-.06,6.4,6.4,0,0,0,.64-.13v1.24a3.51,3.51,0,0,1-.78.21,6.48,6.48,0,0,1-.92.08q-3.1,0-3.11-3.27v-6.37h-1.53v-.78l1.53-.67.69-2.29h.94v2.48H401v1.26h-3.1v6.3a2.18,2.18,0,0,0,.45,1.48A1.59,1.59,0,0,0,399.56,427.72Z"/><path class="cls-6" d="M410.49,428.86v-6.92a2.82,2.82,0,0,0-.59-1.95,2.44,2.44,0,0,0-1.87-.65,3,3,0,0,0-2.46.92,4.64,4.64,0,0,0-.78,3v5.59h-1.62V413.67h1.62v4.6a10.47,10.47,0,0,1-.08,1.38h.1a3.3,3.3,0,0,1,1.36-1.22,4.38,4.38,0,0,1,2-.44,4.12,4.12,0,0,1,2.94.93,3.9,3.9,0,0,1,1,3v7Z"/><path class="cls-6" d="M420,429.06a4.88,4.88,0,0,1-3.74-1.45,5.56,5.56,0,0,1-1.37-4,6.22,6.22,0,0,1,1.27-4.11,4.22,4.22,0,0,1,3.42-1.52,4,4,0,0,1,3.19,1.32,5.08,5.08,0,0,1,1.17,3.49v1h-7.37a4.25,4.25,0,0,0,1,2.86,3.29,3.29,0,0,0,2.54,1,8.61,8.61,0,0,0,3.42-.72v1.45a9.23,9.23,0,0,1-1.62.53A9.07,9.07,0,0,1,420,429.06Zm-.43-9.74a2.65,2.65,0,0,0-2.06.84,3.89,3.89,0,0,0-.9,2.33h5.59a3.6,3.6,0,0,0-.68-2.35A2.43,2.43,0,0,0,419.53,419.32Z"/><path class="cls-6" d="M431.55,418a7.1,7.1,0,0,1,1.28.11l-.23,1.51a5.35,5.35,0,0,0-1.17-.15,2.82,2.82,0,0,0-2.22,1.06,3.79,3.79,0,0,0-.92,2.62v5.74h-1.63v-10.7H428l.19,2h.08a4.7,4.7,0,0,1,1.43-1.61A3.3,3.3,0,0,1,431.55,418Z"/><path class="cls-6" d="M439.35,429.06a4.92,4.92,0,0,1-3.75-1.45,5.6,5.6,0,0,1-1.37-4,6.22,6.22,0,0,1,1.28-4.11,4.22,4.22,0,0,1,3.42-1.52,4,4,0,0,1,3.18,1.32,5.08,5.08,0,0,1,1.18,3.49v1h-7.38a4.25,4.25,0,0,0,.95,2.86,3.31,3.31,0,0,0,2.55,1,8.68,8.68,0,0,0,3.42-.72v1.45a9.6,9.6,0,0,1-1.63.53A9,9,0,0,1,439.35,429.06Zm-.44-9.74a2.67,2.67,0,0,0-2.06.84,3.89,3.89,0,0,0-.9,2.33h5.6a3.54,3.54,0,0,0-.69-2.35A2.4,2.4,0,0,0,438.91,419.32Z"/><path class="cls-6" d="M453.33,427.43h-.08a3.81,3.81,0,0,1-3.36,1.63,4,4,0,0,1-3.27-1.44,6.28,6.28,0,0,1-1.17-4.08,6.44,6.44,0,0,1,1.17-4.11,4,4,0,0,1,3.27-1.46,3.89,3.89,0,0,1,3.34,1.58h.12l-.06-.77,0-.76v-4.35h1.62v15.19h-1.32Zm-3.24.27a3,3,0,0,0,2.41-.9,4.55,4.55,0,0,0,.75-2.92v-.34a5.37,5.37,0,0,0-.76-3.24,2.88,2.88,0,0,0-2.42-1,2.47,2.47,0,0,0-2.18,1.11,5.46,5.46,0,0,0-.76,3.13,5.31,5.31,0,0,0,.75,3.1A2.58,2.58,0,0,0,450.09,427.7Z"/><path class="cls-6" d="M470.08,428.86l-.32-1.52h-.08a4.32,4.32,0,0,1-1.6,1.36,4.8,4.8,0,0,1-2,.36,3.59,3.59,0,0,1-2.5-.82,3,3,0,0,1-.9-2.33q0-3.26,5.18-3.4l1.82-.06v-.67a2.72,2.72,0,0,0-.54-1.86,2.23,2.23,0,0,0-1.73-.6,7.12,7.12,0,0,0-3,.82l-.5-1.24a8,8,0,0,1,1.73-.67,7.65,7.65,0,0,1,1.89-.24,4.05,4.05,0,0,1,2.84.85,3.51,3.51,0,0,1,.92,2.72v7.3Zm-3.66-1.14a3.27,3.27,0,0,0,2.38-.83,3.09,3.09,0,0,0,.86-2.32v-1l-1.62.07a5.9,5.9,0,0,0-2.79.6,1.81,1.81,0,0,0-.85,1.66,1.67,1.67,0,0,0,.53,1.33A2.2,2.2,0,0,0,466.42,427.72Z"/><path class="cls-6" d="M478.08,427.72a5.62,5.62,0,0,0,1.46-.19v1.24a3.26,3.26,0,0,1-.77.21,6.48,6.48,0,0,1-.92.08q-3.11,0-3.11-3.27v-6.37h-1.53v-.78l1.53-.67.68-2.29h.94v2.48h3.11v1.26h-3.11v6.3a2.13,2.13,0,0,0,.46,1.48A1.59,1.59,0,0,0,478.08,427.72Z"/><path class="cls-6" d="M491.16,429.06a4.58,4.58,0,0,1-3.6-1.43,5.87,5.87,0,0,1-1.28-4.05,6,6,0,0,1,1.3-4.15,4.63,4.63,0,0,1,3.68-1.46,7.42,7.42,0,0,1,1.55.16,5.21,5.21,0,0,1,1.21.39l-.5,1.38a8.94,8.94,0,0,0-1.17-.36,5.6,5.6,0,0,0-1.13-.14q-3.25,0-3.26,4.16a5,5,0,0,0,.8,3,2.78,2.78,0,0,0,2.36,1.05,7.27,7.27,0,0,0,2.74-.57v1.43A5.84,5.84,0,0,1,491.16,429.06Z"/><path class="cls-6" d="M505.64,423.5a5.9,5.9,0,0,1-1.32,4.09,4.64,4.64,0,0,1-3.64,1.47,4.81,4.81,0,0,1-2.55-.67,4.46,4.46,0,0,1-1.72-1.94,6.78,6.78,0,0,1-.61-2.95,5.89,5.89,0,0,1,1.31-4.07,4.63,4.63,0,0,1,3.64-1.46,4.54,4.54,0,0,1,3.57,1.49A5.89,5.89,0,0,1,505.64,423.5Zm-8.16,0a5.15,5.15,0,0,0,.82,3.13,2.88,2.88,0,0,0,2.42,1.07,2.84,2.84,0,0,0,2.41-1.07,5,5,0,0,0,.83-3.13,5,5,0,0,0-.83-3.1,2.91,2.91,0,0,0-2.43-1.06,2.86,2.86,0,0,0-2.41,1.05A5,5,0,0,0,497.48,423.5Z"/><path class="cls-6" d="M510.1,428.86h-1.62V413.67h1.62Z"/><path class="cls-6" d="M515.16,428.86h-1.62V413.67h1.62Z"/><path class="cls-6" d="M523.12,429.06a4.92,4.92,0,0,1-3.75-1.45,5.6,5.6,0,0,1-1.37-4,6.22,6.22,0,0,1,1.28-4.11A4.22,4.22,0,0,1,522.7,418a4,4,0,0,1,3.18,1.32,5.08,5.08,0,0,1,1.17,3.49v1h-7.37a4.25,4.25,0,0,0,1,2.86,3.31,3.31,0,0,0,2.55,1,8.68,8.68,0,0,0,3.42-.72v1.45a9.6,9.6,0,0,1-1.63.53A9,9,0,0,1,523.12,429.06Zm-.44-9.74a2.65,2.65,0,0,0-2.06.84,3.89,3.89,0,0,0-.9,2.33h5.6a3.54,3.54,0,0,0-.69-2.35A2.4,2.4,0,0,0,522.68,419.32Z"/><path class="cls-6" d="M534.1,429.06a4.58,4.58,0,0,1-3.6-1.43,5.87,5.87,0,0,1-1.28-4.05,6,6,0,0,1,1.3-4.15A4.63,4.63,0,0,1,534.2,418a7.42,7.42,0,0,1,1.55.16,5.21,5.21,0,0,1,1.21.39l-.5,1.38a8.94,8.94,0,0,0-1.17-.36,5.6,5.6,0,0,0-1.13-.14q-3.25,0-3.26,4.16a5,5,0,0,0,.8,3,2.77,2.77,0,0,0,2.36,1.05,7.27,7.27,0,0,0,2.74-.57v1.43A5.87,5.87,0,0,1,534.1,429.06Z"/><path class="cls-6" d="M542.8,427.72a5.69,5.69,0,0,0,.83-.06,6.11,6.11,0,0,0,.63-.13v1.24a3.26,3.26,0,0,1-.77.21,6.61,6.61,0,0,1-.93.08q-3.1,0-3.1-3.27v-6.37h-1.54v-.78l1.54-.67.68-2.29h.94v2.48h3.1v1.26h-3.1v6.3a2.13,2.13,0,0,0,.46,1.48A1.57,1.57,0,0,0,542.8,427.72Z"/><path class="cls-6" d="M546.26,415.26a1,1,0,0,1,.28-.81,1,1,0,0,1,1.35,0,1.29,1.29,0,0,1,0,1.63,1,1,0,0,1-1.35,0A1.07,1.07,0,0,1,546.26,415.26Zm1.76,13.6H546.4v-10.7H548Z"/><path class="cls-6" d="M560.7,423.5a5.9,5.9,0,0,1-1.32,4.09,4.64,4.64,0,0,1-3.64,1.47,4.81,4.81,0,0,1-2.55-.67,4.46,4.46,0,0,1-1.72-1.94,6.78,6.78,0,0,1-.61-2.95,5.89,5.89,0,0,1,1.31-4.07A4.6,4.6,0,0,1,555.8,418a4.51,4.51,0,0,1,3.57,1.49A5.84,5.84,0,0,1,560.7,423.5Zm-8.16,0a5.15,5.15,0,0,0,.82,3.13,2.87,2.87,0,0,0,2.42,1.07,2.84,2.84,0,0,0,2.41-1.07,5,5,0,0,0,.83-3.13,5,5,0,0,0-.83-3.1,2.91,2.91,0,0,0-2.43-1.06,2.85,2.85,0,0,0-2.41,1.05A5,5,0,0,0,552.54,423.5Z"/><path class="cls-6" d="M570.86,428.86v-6.92a2.78,2.78,0,0,0-.59-1.95,2.44,2.44,0,0,0-1.87-.65,3.09,3.09,0,0,0-2.46.91,4.61,4.61,0,0,0-.78,3v5.61h-1.62v-10.7h1.32l.26,1.47h.08a3.3,3.3,0,0,1,1.4-1.23,4.48,4.48,0,0,1,2-.43,4.07,4.07,0,0,1,2.91.93,4,4,0,0,1,1,3v7Z"/><path class="cls-6" d="M586,429.06a4.59,4.59,0,0,1-1.91-.39,3.52,3.52,0,0,1-1.45-1.18h-.12a14,14,0,0,1,.12,1.78v4.4H581V418.16h1.32l.22,1.47h.08a3.72,3.72,0,0,1,1.46-1.27A4.39,4.39,0,0,1,586,418a4,4,0,0,1,3.29,1.45,7.79,7.79,0,0,1,0,8.18A4,4,0,0,1,586,429.06Zm-.23-9.72a2.9,2.9,0,0,0-2.38.91,4.65,4.65,0,0,0-.75,2.89v.36a5.37,5.37,0,0,0,.75,3.23,2.86,2.86,0,0,0,2.41,1,2.52,2.52,0,0,0,2.18-1.12,5.36,5.36,0,0,0,.78-3.1,5.18,5.18,0,0,0-.78-3.07A2.6,2.6,0,0,0,585.76,419.34Z"/><path class="cls-6" d="M602.5,423.5a5.94,5.94,0,0,1-1.31,4.09,4.66,4.66,0,0,1-3.65,1.47,4.86,4.86,0,0,1-2.55-.67,4.44,4.44,0,0,1-1.71-1.94,6.64,6.64,0,0,1-.61-2.95,5.89,5.89,0,0,1,1.31-4.07,4.6,4.6,0,0,1,3.63-1.46,4.51,4.51,0,0,1,3.57,1.49A5.89,5.89,0,0,1,602.5,423.5Zm-8.15,0a5.08,5.08,0,0,0,.82,3.13,3.26,3.26,0,0,0,4.83,0,5,5,0,0,0,.82-3.13,5,5,0,0,0-.82-3.1,2.92,2.92,0,0,0-2.44-1.06,2.84,2.84,0,0,0-2.4,1.05A5,5,0,0,0,594.35,423.5Z"/><path class="cls-6" d="M605.21,415.26a1.07,1.07,0,0,1,.27-.81.94.94,0,0,1,.69-.26.93.93,0,0,1,.67.26,1.33,1.33,0,0,1,0,1.63.94.94,0,0,1-.67.27,1,1,0,0,1-.69-.27A1.11,1.11,0,0,1,605.21,415.26Zm1.76,13.6h-1.62v-10.7H607Z"/><path class="cls-6" d="M617.73,428.86v-6.92a2.78,2.78,0,0,0-.6-1.95,2.41,2.41,0,0,0-1.86-.65,3.09,3.09,0,0,0-2.46.91,4.61,4.61,0,0,0-.78,3v5.61H610.4v-10.7h1.32l.27,1.47h.07a3.35,3.35,0,0,1,1.4-1.23,4.54,4.54,0,0,1,2-.43,4.07,4.07,0,0,1,2.91.93,4,4,0,0,1,1,3v7Z"/><path class="cls-6" d="M626.14,427.72a5.69,5.69,0,0,0,.83-.06,6.11,6.11,0,0,0,.63-.13v1.24a3.26,3.26,0,0,1-.77.21,6.61,6.61,0,0,1-.93.08q-3.1,0-3.1-3.27v-6.37h-1.54v-.78l1.54-.67.68-2.29h.94v2.48h3.1v1.26h-3.1v6.3a2.13,2.13,0,0,0,.46,1.48A1.57,1.57,0,0,0,626.14,427.72Z"/><path class="cls-6" d="M636.64,425.94a2.69,2.69,0,0,1-1.11,2.31,5.22,5.22,0,0,1-3.12.81,6.78,6.78,0,0,1-3.32-.67v-1.51a7.92,7.92,0,0,0,1.65.62,6.92,6.92,0,0,0,1.71.22,3.89,3.89,0,0,0,1.95-.4,1.4,1.4,0,0,0,.14-2.31,9.09,9.09,0,0,0-2.11-1.05,11.18,11.18,0,0,1-2.13-1,3,3,0,0,1-.94-.94,2.5,2.5,0,0,1-.3-1.26,2.41,2.41,0,0,1,1.06-2.07A5,5,0,0,1,633,418a8.53,8.53,0,0,1,3.38.7l-.58,1.32a7.59,7.59,0,0,0-2.92-.67,3.25,3.25,0,0,0-1.73.37,1.1,1.1,0,0,0-.59,1,1.17,1.17,0,0,0,.22.73,2,2,0,0,0,.71.58,15.15,15.15,0,0,0,1.87.79,7,7,0,0,1,2.58,1.4A2.48,2.48,0,0,1,636.64,425.94Z"/><path class="cls-6" d="M641,426.54l.15.23c-.17.65-.42,1.4-.74,2.27s-.65,1.66-1,2.4h-1.22c.17-.67.37-1.51.58-2.51s.36-1.79.44-2.39Z"/><path class="cls-6" d="M247.7,448a4,4,0,0,1,3.28,1.44,7.74,7.74,0,0,1,0,8.17,4,4,0,0,1-3.27,1.46,4.59,4.59,0,0,1-1.91-.39,3.52,3.52,0,0,1-1.45-1.18h-.12l-.34,1.37h-1.16V443.67h1.62v3.69c0,.83,0,1.57-.08,2.23h.08A3.83,3.83,0,0,1,247.7,448Zm-.24,1.35a2.82,2.82,0,0,0-2.39,1,7.35,7.35,0,0,0,0,6.43,2.86,2.86,0,0,0,2.41,1,2.5,2.5,0,0,0,2.23-1.09,5.57,5.57,0,0,0,.73-3.13,5.35,5.35,0,0,0-.73-3.11A2.61,2.61,0,0,0,247.46,449.34Z"/><path class="cls-6" d="M259.5,459.06a4.9,4.9,0,0,1-3.75-1.45,5.6,5.6,0,0,1-1.37-4,6.22,6.22,0,0,1,1.27-4.11,4.22,4.22,0,0,1,3.43-1.52,4,4,0,0,1,3.18,1.32,5.08,5.08,0,0,1,1.17,3.49v1h-7.37a4.25,4.25,0,0,0,.95,2.86,3.29,3.29,0,0,0,2.54,1,8.61,8.61,0,0,0,3.42-.72v1.45a9.23,9.23,0,0,1-1.62.53A9,9,0,0,1,259.5,459.06Zm-.44-9.74a2.65,2.65,0,0,0-2.06.84,3.89,3.89,0,0,0-.9,2.33h5.59a3.54,3.54,0,0,0-.68-2.35A2.43,2.43,0,0,0,259.06,449.32Z"/><path class="cls-6" d="M271,449.42h-2.73v9.44h-1.62v-9.44h-1.91v-.73l1.91-.59v-.59q0-3.94,3.45-3.95a7.33,7.33,0,0,1,2,.34l-.42,1.3a5.38,5.38,0,0,0-1.6-.3,1.57,1.57,0,0,0-1.36.61,3.44,3.44,0,0,0-.44,2v.69H271Z"/><path class="cls-6" d="M282.21,453.5a5.9,5.9,0,0,1-1.32,4.09,4.64,4.64,0,0,1-3.64,1.47,4.81,4.81,0,0,1-2.55-.67,4.52,4.52,0,0,1-1.72-1.94,6.78,6.78,0,0,1-.6-2.95,5.84,5.84,0,0,1,1.31-4.07,4.6,4.6,0,0,1,3.63-1.46,4.51,4.51,0,0,1,3.57,1.49A5.89,5.89,0,0,1,282.21,453.5Zm-8.15,0a5.08,5.08,0,0,0,.82,3.13,3.26,3.26,0,0,0,4.83,0,5,5,0,0,0,.82-3.13,5,5,0,0,0-.82-3.1,2.93,2.93,0,0,0-2.44-1.06,2.84,2.84,0,0,0-2.4,1.05A5,5,0,0,0,274.06,453.5Z"/><path class="cls-6" d="M289.94,448a6.91,6.91,0,0,1,1.27.11l-.22,1.51a5.35,5.35,0,0,0-1.17-.15,2.82,2.82,0,0,0-2.22,1.06,3.8,3.8,0,0,0-.93,2.62v5.74h-1.62v-10.7h1.34l.19,2h.07a4.82,4.82,0,0,1,1.44-1.61A3.28,3.28,0,0,1,289.94,448Z"/><path class="cls-6" d="M297.74,459.06a4.92,4.92,0,0,1-3.75-1.45,5.6,5.6,0,0,1-1.37-4,6.22,6.22,0,0,1,1.28-4.11,4.22,4.22,0,0,1,3.42-1.52,4,4,0,0,1,3.18,1.32,5.08,5.08,0,0,1,1.17,3.49v1H294.3a4.25,4.25,0,0,0,.95,2.86,3.31,3.31,0,0,0,2.55,1,8.6,8.6,0,0,0,3.41-.72v1.45a9.23,9.23,0,0,1-1.62.53A9,9,0,0,1,297.74,459.06Zm-.44-9.74a2.65,2.65,0,0,0-2.06.84,3.89,3.89,0,0,0-.9,2.33h5.6a3.54,3.54,0,0,0-.69-2.35A2.4,2.4,0,0,0,297.3,449.32Z"/><path class="cls-6" d="M314.61,448a4,4,0,0,1,3.28,1.44,6.3,6.3,0,0,1,1.17,4.07,6.4,6.4,0,0,1-1.18,4.1,4,4,0,0,1-3.27,1.46,4.63,4.63,0,0,1-1.91-.39,3.58,3.58,0,0,1-1.45-1.18h-.11l-.35,1.37h-1.16V443.67h1.62v3.69c0,.83,0,1.57-.07,2.23h.07A3.85,3.85,0,0,1,314.61,448Zm-.23,1.35a2.8,2.8,0,0,0-2.39,1,7.27,7.27,0,0,0,0,6.43,2.84,2.84,0,0,0,2.41,1,2.48,2.48,0,0,0,2.22-1.09,5.57,5.57,0,0,0,.74-3.13,5.34,5.34,0,0,0-.74-3.11A2.59,2.59,0,0,0,314.38,449.34Z"/><path class="cls-6" d="M326.41,459.06a4.88,4.88,0,0,1-3.74-1.45,5.56,5.56,0,0,1-1.38-4,6.22,6.22,0,0,1,1.28-4.11A4.22,4.22,0,0,1,326,448a4,4,0,0,1,3.18,1.32,5,5,0,0,1,1.18,3.49v1H323a4.25,4.25,0,0,0,.95,2.86,3.32,3.32,0,0,0,2.55,1,8.68,8.68,0,0,0,3.42-.72v1.45a9.6,9.6,0,0,1-1.63.53A9,9,0,0,1,326.41,459.06Zm-.44-9.74a2.63,2.63,0,0,0-2.05.84,3.83,3.83,0,0,0-.91,2.33h5.6a3.54,3.54,0,0,0-.69-2.35A2.4,2.4,0,0,0,326,449.32Z"/><path class="cls-6" d="M333,445.26a1,1,0,0,1,.28-.81,1,1,0,0,1,1.35,0,1.29,1.29,0,0,1,0,1.63,1,1,0,0,1-1.35,0A1.07,1.07,0,0,1,333,445.26Zm1.76,13.6h-1.62v-10.7h1.62Z"/><path class="cls-6" d="M345.49,458.86v-6.92a2.82,2.82,0,0,0-.59-1.95,2.44,2.44,0,0,0-1.87-.65,3.09,3.09,0,0,0-2.46.91,4.61,4.61,0,0,0-.78,3v5.61h-1.62v-10.7h1.32l.26,1.47h.08a3.33,3.33,0,0,1,1.39-1.23,4.56,4.56,0,0,1,2-.43,4.07,4.07,0,0,1,2.91.93,4,4,0,0,1,1,3v7Z"/><path class="cls-6" d="M359.2,448.16v1l-2,.23a3.41,3.41,0,0,1,.7,2.14,3.15,3.15,0,0,1-1.07,2.51,4.37,4.37,0,0,1-3,.94,5.11,5.11,0,0,1-.9-.08,1.58,1.58,0,0,0-1,1.38.7.7,0,0,0,.36.65,2.62,2.62,0,0,0,1.24.21h1.89a4.22,4.22,0,0,1,2.67.73,2.53,2.53,0,0,1,.94,2.13,3,3,0,0,1-1.43,2.71,7.65,7.65,0,0,1-4.16.93,5.7,5.7,0,0,1-3.24-.78,2.52,2.52,0,0,1-1.13-2.21,2.47,2.47,0,0,1,.62-1.69,3.22,3.22,0,0,1,1.76-1,1.65,1.65,0,0,1-.69-.57,1.49,1.49,0,0,1-.28-.91,1.76,1.76,0,0,1,.31-1,3.18,3.18,0,0,1,1-.85,2.92,2.92,0,0,1-1.35-1.17,3.37,3.37,0,0,1-.52-1.87,3.47,3.47,0,0,1,1.05-2.71,4.28,4.28,0,0,1,3-.95,5.43,5.43,0,0,1,1.51.19Zm-8.53,12.5a1.45,1.45,0,0,0,.73,1.32,4,4,0,0,0,2.1.45,5.81,5.81,0,0,0,3-.61,1.86,1.86,0,0,0,1-1.66A1.29,1.29,0,0,0,357,459a4.12,4.12,0,0,0-2-.34H353a2.58,2.58,0,0,0-1.72.53A1.87,1.87,0,0,0,350.67,460.66Zm.88-9.07a2.2,2.2,0,0,0,.63,1.7,2.55,2.55,0,0,0,1.77.57,2.06,2.06,0,0,0,2.37-2.3,2.12,2.12,0,0,0-2.4-2.41,2.38,2.38,0,0,0-1.76.61A2.48,2.48,0,0,0,351.55,451.59Z"/><path class="cls-6" d="M370.05,457.72a5.49,5.49,0,0,0,.83-.06,6.4,6.4,0,0,0,.64-.13v1.24a3.51,3.51,0,0,1-.78.21,6.48,6.48,0,0,1-.92.08q-3.1,0-3.11-3.27v-6.37h-1.53v-.78l1.53-.67.69-2.29h.93v2.48h3.11v1.26h-3.11v6.3a2.18,2.18,0,0,0,.46,1.48A1.59,1.59,0,0,0,370.05,457.72Z"/><path class="cls-6" d="M378.54,448a7.1,7.1,0,0,1,1.28.11l-.23,1.51a5.35,5.35,0,0,0-1.17-.15,2.85,2.85,0,0,0-2.22,1.06,3.79,3.79,0,0,0-.92,2.62v5.74h-1.62v-10.7H375l.19,2h.08a4.8,4.8,0,0,1,1.43-1.61A3.3,3.3,0,0,1,378.54,448Z"/><path class="cls-6" d="M388.4,458.86l-.32-1.52H388a4.38,4.38,0,0,1-1.59,1.36,4.85,4.85,0,0,1-2,.36,3.59,3.59,0,0,1-2.5-.82,3,3,0,0,1-.9-2.33q0-3.26,5.19-3.4l1.81-.06v-.67a2.72,2.72,0,0,0-.54-1.86,2.23,2.23,0,0,0-1.73-.6,7.12,7.12,0,0,0-3,.82l-.5-1.24a8,8,0,0,1,1.73-.67,7.65,7.65,0,0,1,1.89-.24,4.05,4.05,0,0,1,2.84.85,3.51,3.51,0,0,1,.92,2.72v7.3Zm-3.66-1.14a3.27,3.27,0,0,0,2.38-.83,3.09,3.09,0,0,0,.86-2.32v-1l-1.62.07a5.9,5.9,0,0,0-2.79.6,1.81,1.81,0,0,0-.85,1.66,1.67,1.67,0,0,0,.53,1.33A2.2,2.2,0,0,0,384.74,457.72Z"/><path class="cls-6" d="M400.27,458.86v-6.92a2.78,2.78,0,0,0-.6-1.95,2.43,2.43,0,0,0-1.86-.65,3.09,3.09,0,0,0-2.46.91,4.61,4.61,0,0,0-.79,3v5.61h-1.62v-10.7h1.32l.27,1.47h.07a3.35,3.35,0,0,1,1.4-1.23,4.54,4.54,0,0,1,2-.43,4.07,4.07,0,0,1,2.91.93,4,4,0,0,1,1,3v7Z"/><path class="cls-6" d="M412.12,455.94a2.69,2.69,0,0,1-1.11,2.31,5.23,5.23,0,0,1-3.13.81,6.83,6.83,0,0,1-3.32-.67v-1.51a8.23,8.23,0,0,0,1.66.62,6.9,6.9,0,0,0,1.7.22,3.9,3.9,0,0,0,2-.4A1.4,1.4,0,0,0,410,455,9,9,0,0,0,407.9,454a11.32,11.32,0,0,1-2.12-1,3,3,0,0,1-.94-.94,2.5,2.5,0,0,1-.3-1.26,2.41,2.41,0,0,1,1.06-2.07,5,5,0,0,1,2.92-.75,8.53,8.53,0,0,1,3.38.7l-.58,1.32a7.63,7.63,0,0,0-2.92-.67,3.26,3.26,0,0,0-1.74.37,1.11,1.11,0,0,0-.58,1,1.17,1.17,0,0,0,.22.73,2,2,0,0,0,.71.58,15.15,15.15,0,0,0,1.87.79,6.87,6.87,0,0,1,2.57,1.4A2.45,2.45,0,0,1,412.12,455.94Z"/><path class="cls-6" d="M419.74,459.06a4.59,4.59,0,0,1-1.91-.39,3.52,3.52,0,0,1-1.45-1.18h-.12a14,14,0,0,1,.12,1.78v4.4h-1.62V448.16h1.32l.22,1.47h.08a3.72,3.72,0,0,1,1.46-1.27,4.39,4.39,0,0,1,1.9-.39,4,4,0,0,1,3.29,1.45,7.79,7.79,0,0,1,0,8.18A4,4,0,0,1,419.74,459.06Zm-.23-9.72a2.9,2.9,0,0,0-2.38.91,4.65,4.65,0,0,0-.75,2.89v.36a5.37,5.37,0,0,0,.75,3.23,2.86,2.86,0,0,0,2.41,1,2.52,2.52,0,0,0,2.18-1.12,5.36,5.36,0,0,0,.78-3.1,5.18,5.18,0,0,0-.78-3.07A2.6,2.6,0,0,0,419.51,449.34Z"/><path class="cls-6" d="M436.25,453.5a5.94,5.94,0,0,1-1.31,4.09,4.66,4.66,0,0,1-3.65,1.47,4.86,4.86,0,0,1-2.55-.67,4.44,4.44,0,0,1-1.71-1.94,6.64,6.64,0,0,1-.61-2.95,5.89,5.89,0,0,1,1.31-4.07,4.6,4.6,0,0,1,3.63-1.46,4.51,4.51,0,0,1,3.57,1.49A5.89,5.89,0,0,1,436.25,453.5Zm-8.15,0a5.08,5.08,0,0,0,.82,3.13,3.26,3.26,0,0,0,4.83,0,5,5,0,0,0,.82-3.13,5,5,0,0,0-.82-3.1,2.92,2.92,0,0,0-2.44-1.06,2.84,2.84,0,0,0-2.4,1.05A5,5,0,0,0,428.1,453.5Z"/><path class="cls-6" d="M444,448a7.1,7.1,0,0,1,1.28.11l-.23,1.51a5.35,5.35,0,0,0-1.17-.15,2.83,2.83,0,0,0-2.22,1.06,3.79,3.79,0,0,0-.92,2.62v5.74H439.1v-10.7h1.33l.19,2h.08a4.7,4.7,0,0,1,1.43-1.61A3.3,3.3,0,0,1,444,448Z"/><path class="cls-6" d="M450.72,457.72a5.69,5.69,0,0,0,.83-.06,6.11,6.11,0,0,0,.63-.13v1.24a3.26,3.26,0,0,1-.77.21,6.61,6.61,0,0,1-.93.08q-3.11,0-3.1-3.27v-6.37h-1.54v-.78l1.54-.67.68-2.29H449v2.48h3.1v1.26H449v6.3a2.13,2.13,0,0,0,.46,1.48A1.57,1.57,0,0,0,450.72,457.72Z"/><path class="cls-6" d="M458.84,459.06a4.88,4.88,0,0,1-3.74-1.45,5.56,5.56,0,0,1-1.38-4,6.22,6.22,0,0,1,1.28-4.11,4.22,4.22,0,0,1,3.42-1.52,4.07,4.07,0,0,1,3.19,1.32,5.08,5.08,0,0,1,1.17,3.49v1H455.4a4.25,4.25,0,0,0,1,2.86,3.29,3.29,0,0,0,2.54,1,8.68,8.68,0,0,0,3.42-.72v1.45a9.32,9.32,0,0,1-1.63.53A9,9,0,0,1,458.84,459.06Zm-.44-9.74a2.63,2.63,0,0,0-2,.84,3.89,3.89,0,0,0-.91,2.33H461a3.6,3.6,0,0,0-.68-2.35A2.44,2.44,0,0,0,458.4,449.32Z"/><path class="cls-6" d="M472.83,457.43h-.09a3.81,3.81,0,0,1-3.36,1.63,4,4,0,0,1-3.27-1.44,6.28,6.28,0,0,1-1.16-4.08,6.44,6.44,0,0,1,1.17-4.11,3.93,3.93,0,0,1,3.26-1.46,3.89,3.89,0,0,1,3.34,1.58h.13l-.07-.77,0-.76v-4.35h1.62v15.19H473Zm-3.25.27a3,3,0,0,0,2.41-.9,4.55,4.55,0,0,0,.75-2.92v-.34a5.3,5.3,0,0,0-.76-3.24,2.87,2.87,0,0,0-2.42-1,2.48,2.48,0,0,0-2.18,1.11,5.54,5.54,0,0,0-.76,3.13,5.31,5.31,0,0,0,.76,3.1A2.54,2.54,0,0,0,469.58,457.7Z"/><path class="cls-6" d="M486.45,457.72a5.62,5.62,0,0,0,1.46-.19v1.24a3.26,3.26,0,0,1-.77.21,6.49,6.49,0,0,1-.93.08q-3.1,0-3.1-3.27v-6.37h-1.53v-.78l1.53-.67.68-2.29h.94v2.48h3.11v1.26h-3.11v6.3a2.13,2.13,0,0,0,.46,1.48A1.59,1.59,0,0,0,486.45,457.72Z"/><path class="cls-6" d="M499.29,453.5a5.9,5.9,0,0,1-1.32,4.09,4.64,4.64,0,0,1-3.64,1.47,4.81,4.81,0,0,1-2.55-.67,4.52,4.52,0,0,1-1.72-1.94,6.78,6.78,0,0,1-.6-2.95,5.84,5.84,0,0,1,1.31-4.07A4.6,4.6,0,0,1,494.4,448a4.51,4.51,0,0,1,3.57,1.49A5.89,5.89,0,0,1,499.29,453.5Zm-8.15,0a5.08,5.08,0,0,0,.82,3.13,3.26,3.26,0,0,0,4.83,0,5,5,0,0,0,.82-3.13,5,5,0,0,0-.82-3.1,2.93,2.93,0,0,0-2.44-1.06,2.84,2.84,0,0,0-2.4,1.05A5,5,0,0,0,491.14,453.5Z"/><path class="cls-6" d="M510.87,458.86l-2-6.27c-.12-.39-.35-1.26-.69-2.62h-.08c-.26,1.14-.49,2-.68,2.63l-2,6.26h-1.87l-2.92-10.7h1.7c.69,2.69,1.21,4.74,1.58,6.14a27.3,27.3,0,0,1,.62,2.85h.07c.07-.38.19-.86.35-1.44s.3-1.06.42-1.41l2-6.14h1.76L511,454.3a21.09,21.09,0,0,1,.74,2.83h.08c0-.24.1-.6.21-1.09s.79-3.11,2-7.88h1.68l-3,10.7Z"/><path class="cls-6" d="M524.27,458.86l-.32-1.52h-.08a4.4,4.4,0,0,1-1.6,1.36,4.8,4.8,0,0,1-2,.36,3.57,3.57,0,0,1-2.5-.82,3,3,0,0,1-.9-2.33q0-3.26,5.18-3.4l1.82-.06v-.67a2.72,2.72,0,0,0-.54-1.86,2.23,2.23,0,0,0-1.73-.6,7.12,7.12,0,0,0-3,.82l-.5-1.24a8,8,0,0,1,1.73-.67,7.65,7.65,0,0,1,1.89-.24,4.07,4.07,0,0,1,2.84.85,3.51,3.51,0,0,1,.92,2.72v7.3Zm-3.66-1.14a3.27,3.27,0,0,0,2.38-.83,3.09,3.09,0,0,0,.86-2.32v-1l-1.62.07a5.9,5.9,0,0,0-2.79.6,1.81,1.81,0,0,0-.85,1.66,1.67,1.67,0,0,0,.53,1.33A2.18,2.18,0,0,0,520.61,457.72Z"/><path class="cls-6" d="M533.7,448a6.91,6.91,0,0,1,1.27.11l-.22,1.51a5.35,5.35,0,0,0-1.17-.15,2.82,2.82,0,0,0-2.22,1.06,3.8,3.8,0,0,0-.93,2.62v5.74h-1.62v-10.7h1.34l.19,2h.07a4.82,4.82,0,0,1,1.44-1.61A3.28,3.28,0,0,1,533.7,448Z"/><path class="cls-6" d="M544.26,457.43h-.09a3.79,3.79,0,0,1-3.36,1.63,4,4,0,0,1-3.26-1.44,6.28,6.28,0,0,1-1.17-4.08,6.44,6.44,0,0,1,1.17-4.11,3.93,3.93,0,0,1,3.26-1.46,3.86,3.86,0,0,1,3.34,1.58h.13l-.07-.77,0-.76v-4.35h1.62v15.19h-1.31Zm-3.24.27a3,3,0,0,0,2.41-.9,4.61,4.61,0,0,0,.74-2.92v-.34a5.38,5.38,0,0,0-.75-3.24,2.88,2.88,0,0,0-2.42-1,2.47,2.47,0,0,0-2.18,1.11,5.46,5.46,0,0,0-.76,3.13,5.31,5.31,0,0,0,.75,3.1A2.56,2.56,0,0,0,541,457.7Z"/><path class="cls-6" d="M556.14,455.94a2.67,2.67,0,0,1-1.12,2.31,5.22,5.22,0,0,1-3.12.81,6.78,6.78,0,0,1-3.32-.67v-1.51a7.92,7.92,0,0,0,1.65.62,6.92,6.92,0,0,0,1.71.22,3.89,3.89,0,0,0,1.95-.4,1.34,1.34,0,0,0,.68-1.24A1.36,1.36,0,0,0,554,455a8.88,8.88,0,0,0-2.11-1.05,11.18,11.18,0,0,1-2.13-1,2.86,2.86,0,0,1-.93-.94,2.6,2.6,0,0,1,.75-3.33,5,5,0,0,1,2.92-.75,8.5,8.5,0,0,1,3.38.7l-.57,1.32a7.67,7.67,0,0,0-2.92-.67,3.26,3.26,0,0,0-1.74.37,1.12,1.12,0,0,0-.59,1,1.24,1.24,0,0,0,.22.73,2,2,0,0,0,.71.58,15.15,15.15,0,0,0,1.87.79,7,7,0,0,1,2.58,1.4A2.49,2.49,0,0,1,556.14,455.94Z"/><path class="cls-6" d="M568.61,458.86H567v-12.8h-4.52v-1.47h10.7v1.47h-4.52Z"/><path class="cls-6" d="M582.36,458.86v-6.92a2.78,2.78,0,0,0-.6-1.95,2.43,2.43,0,0,0-1.86-.65,3.07,3.07,0,0,0-2.47.92,4.64,4.64,0,0,0-.78,3v5.59H575V443.67h1.62v4.6a10.69,10.69,0,0,1-.07,1.38h.09a3.33,3.33,0,0,1,1.37-1.22,4.34,4.34,0,0,1,2-.44,4.16,4.16,0,0,1,3,.93,3.94,3.94,0,0,1,1,3v7Z"/><path class="cls-6" d="M593.89,458.86l-.32-1.52h-.08a4.4,4.4,0,0,1-1.6,1.36,4.8,4.8,0,0,1-2,.36,3.55,3.55,0,0,1-2.5-.82,3,3,0,0,1-.9-2.33q0-3.26,5.18-3.4l1.82-.06v-.67a2.72,2.72,0,0,0-.54-1.86,2.24,2.24,0,0,0-1.74-.6,7.12,7.12,0,0,0-3,.82l-.5-1.24a7.78,7.78,0,0,1,1.73-.67,7.65,7.65,0,0,1,1.89-.24,4.07,4.07,0,0,1,2.84.85,3.54,3.54,0,0,1,.92,2.72v7.3Zm-3.66-1.14a3.27,3.27,0,0,0,2.38-.83,3.09,3.09,0,0,0,.86-2.32v-1l-1.62.07a5.9,5.9,0,0,0-2.79.6,1.81,1.81,0,0,0-.85,1.66,1.64,1.64,0,0,0,.53,1.33A2.18,2.18,0,0,0,590.23,457.72Z"/><path class="cls-6" d="M598.29,445.26a1.07,1.07,0,0,1,.28-.81.92.92,0,0,1,.68-.26,1,1,0,0,1,.68.26,1.33,1.33,0,0,1,0,1.63,1,1,0,0,1-.68.27.93.93,0,0,1-.68-.27A1.11,1.11,0,0,1,598.29,445.26Zm1.76,13.6h-1.62v-10.7h1.62Z"/><path class="cls-6" d="M605.11,458.86h-1.62V443.67h1.62Z"/><path class="cls-6" d="M615.13,458.86l-.32-1.52h-.08a4.4,4.4,0,0,1-1.6,1.36,4.8,4.8,0,0,1-2,.36,3.55,3.55,0,0,1-2.5-.82,3,3,0,0,1-.9-2.33q0-3.26,5.18-3.4l1.82-.06v-.67a2.72,2.72,0,0,0-.54-1.86,2.24,2.24,0,0,0-1.74-.6,7.12,7.12,0,0,0-3,.82l-.5-1.24a7.78,7.78,0,0,1,1.73-.67,7.65,7.65,0,0,1,1.89-.24,4.07,4.07,0,0,1,2.84.85,3.54,3.54,0,0,1,.92,2.72v7.3Zm-3.66-1.14a3.27,3.27,0,0,0,2.38-.83,3.09,3.09,0,0,0,.86-2.32v-1l-1.62.07a5.9,5.9,0,0,0-2.79.6,1.81,1.81,0,0,0-.85,1.66,1.64,1.64,0,0,0,.53,1.33A2.18,2.18,0,0,0,611.47,457.72Z"/><path class="cls-6" d="M627,458.86v-6.92a2.78,2.78,0,0,0-.6-1.95,2.43,2.43,0,0,0-1.86-.65,3.11,3.11,0,0,0-2.47.91,4.61,4.61,0,0,0-.78,3v5.61h-1.62v-10.7H621l.26,1.47h.08a3.3,3.3,0,0,1,1.4-1.23,4.54,4.54,0,0,1,2-.43,4.07,4.07,0,0,1,2.91.93,4,4,0,0,1,1,3v7Z"/><path class="cls-6" d="M639.23,457.43h-.09a3.78,3.78,0,0,1-3.35,1.63,4,4,0,0,1-3.27-1.44,6.28,6.28,0,0,1-1.17-4.08,6.44,6.44,0,0,1,1.17-4.11,3.94,3.94,0,0,1,3.27-1.46,3.86,3.86,0,0,1,3.33,1.58h.13l-.07-.77,0-.76v-4.35h1.63v15.19h-1.32Zm-3.24.27a3,3,0,0,0,2.41-.9,4.55,4.55,0,0,0,.74-2.92v-.34a5.38,5.38,0,0,0-.75-3.24,2.88,2.88,0,0,0-2.42-1,2.47,2.47,0,0,0-2.18,1.11,5.46,5.46,0,0,0-.76,3.13,5.31,5.31,0,0,0,.75,3.1A2.56,2.56,0,0,0,636,457.7Z"/><path class="cls-6" d="M644,457.83a1.43,1.43,0,0,1,.3-1,1,1,0,0,1,.85-.34,1.12,1.12,0,0,1,.88.34,1.34,1.34,0,0,1,.32,1,1.41,1.41,0,0,1-.32,1,1.17,1.17,0,0,1-.88.34,1.12,1.12,0,0,1-.82-.31A1.32,1.32,0,0,1,644,457.83Z"/><polygon class="cls-7" points="458 387 425 387 441.5 364 458 387"/></g></svg>