<svg id="details" xmlns="http://www.w3.org/2000/svg" viewBox="0 0 1920 1080"><defs><style>.cls-1{fill:#3b3b3b;}.cls-2,.cls-4{fill:#fff;}.cls-3{fill:#fc7a00;opacity:0.2;}.cls-4{stroke:#fc7a00;stroke-linejoin:round;stroke-width:6px;}.cls-5{fill:#a36a2a;}</style></defs><title>Malaysia map OL</title><g id="caption04"><rect class="cls-1" x="875" y="272.24" width="571" height="110.76"/><path class="cls-2" d="M921.94,316.86l-1.78-4.54h-5.72l-1.76,4.54H911l5.64-14.33H918l5.62,14.33Zm-2.3-6L918,306.41c-.21-.56-.43-1.25-.66-2.06a19.87,19.87,0,0,1-.62,2.06L915,310.83Z"/><path class="cls-2" d="M932.47,316.86h-1.66V302.59h8v1.47h-6.3v5.23h5.92v1.47h-5.92Z"/><path class="cls-2" d="M945.41,317.06a4.88,4.88,0,0,1-3.74-1.45,5.56,5.56,0,0,1-1.37-4,6.22,6.22,0,0,1,1.27-4.11A4.22,4.22,0,0,1,945,306a4.05,4.05,0,0,1,3.19,1.32,5.08,5.08,0,0,1,1.17,3.49v1H942a4.25,4.25,0,0,0,.95,2.86,3.29,3.29,0,0,0,2.54,1,8.68,8.68,0,0,0,3.42-.72v1.45a9.06,9.06,0,0,1-1.63.53A8.9,8.9,0,0,1,945.41,317.06Zm-.44-9.74a2.65,2.65,0,0,0-2.05.84,3.89,3.89,0,0,0-.9,2.33h5.59a3.6,3.6,0,0,0-.68-2.35A2.44,2.44,0,0,0,945,307.32Z"/><path class="cls-2" d="M957.09,306a4,4,0,0,1,3.28,1.44,6.3,6.3,0,0,1,1.17,4.07,6.4,6.4,0,0,1-1.18,4.1,4,4,0,0,1-3.27,1.46,4.63,4.63,0,0,1-1.91-.39,3.58,3.58,0,0,1-1.45-1.18h-.11l-.34,1.37h-1.17V301.67h1.62v3.69c0,.83,0,1.57-.07,2.23h.07A3.85,3.85,0,0,1,957.09,306Zm-.23,1.35a2.81,2.81,0,0,0-2.39,1,7.27,7.27,0,0,0,0,6.43,2.84,2.84,0,0,0,2.41,1,2.48,2.48,0,0,0,2.22-1.09,5.57,5.57,0,0,0,.74-3.13,5.34,5.34,0,0,0-.74-3.11A2.59,2.59,0,0,0,956.86,307.34Z"/><path class="cls-2" d="M978.21,316.86h-9.39v-1.39l3.76-3.78a29.07,29.07,0,0,0,2.27-2.48,6.53,6.53,0,0,0,.82-1.45,4.17,4.17,0,0,0,.27-1.51,2.4,2.4,0,0,0-.69-1.81,2.65,2.65,0,0,0-1.93-.67,4.94,4.94,0,0,0-1.68.29,6.71,6.71,0,0,0-1.77,1.07L969,304a6.57,6.57,0,0,1,4.29-1.64,4.57,4.57,0,0,1,3.16,1,3.55,3.55,0,0,1,1.14,2.77,5.34,5.34,0,0,1-.76,2.69,17.56,17.56,0,0,1-2.85,3.36l-3.13,3v.08h7.35Z"/><path class="cls-2" d="M989.72,309.71a10.38,10.38,0,0,1-1.17,5.52,4.3,4.3,0,0,1-7.07,0,10.22,10.22,0,0,1-1.2-5.48,10.46,10.46,0,0,1,1.16-5.54,4.3,4.3,0,0,1,7.07.08A10.09,10.09,0,0,1,989.72,309.71Zm-7.8,0a10.4,10.4,0,0,0,.73,4.53,2.63,2.63,0,0,0,4.68,0,14.3,14.3,0,0,0,0-9,2.64,2.64,0,0,0-4.68,0A10.37,10.37,0,0,0,981.92,309.71Z"/><path class="cls-2" d="M997.7,316.86h-1.58V306.69c0-.85,0-1.65.08-2.4l-.46.43c-.17.15-1,.78-2.33,1.9l-.86-1.11,3.78-2.92h1.37Z"/><path class="cls-2" d="M1012.51,308.68q0,8.38-6.48,8.38a6.2,6.2,0,0,1-1.8-.2v-1.39a5.76,5.76,0,0,0,1.78.25,4.32,4.32,0,0,0,3.54-1.45,7.29,7.29,0,0,0,1.3-4.45h-.11a3.51,3.51,0,0,1-1.43,1.24,4.62,4.62,0,0,1-2,.42,4,4,0,0,1-3-1.13,4.32,4.32,0,0,1-1.11-3.16,4.85,4.85,0,0,1,1.24-3.52,4.76,4.76,0,0,1,5.82-.54,4.69,4.69,0,0,1,1.68,2.18A8.87,8.87,0,0,1,1012.51,308.68Zm-4.8-4.91a2.68,2.68,0,0,0-2.16.9,3.73,3.73,0,0,0-.76,2.5,3.26,3.26,0,0,0,.7,2.21,2.68,2.68,0,0,0,2.14.81,3.76,3.76,0,0,0,1.64-.37,3,3,0,0,0,1.17-1,2.28,2.28,0,0,0,.43-1.31,4.46,4.46,0,0,0-.4-1.9,3.21,3.21,0,0,0-1.12-1.36A2.79,2.79,0,0,0,1007.71,303.77Z"/><path class="cls-2" d="M1027.41,313.94a2.67,2.67,0,0,1-1.12,2.31,5.22,5.22,0,0,1-3.12.81,6.78,6.78,0,0,1-3.32-.67v-1.51a7.92,7.92,0,0,0,1.65.62,6.92,6.92,0,0,0,1.71.22,3.89,3.89,0,0,0,2-.4,1.34,1.34,0,0,0,.68-1.24,1.36,1.36,0,0,0-.54-1.07,8.88,8.88,0,0,0-2.11-1.05,11.18,11.18,0,0,1-2.13-1,2.86,2.86,0,0,1-.93-.94,2.6,2.6,0,0,1,.75-3.33,5,5,0,0,1,2.92-.75,8.5,8.5,0,0,1,3.38.7l-.57,1.32a7.67,7.67,0,0,0-2.92-.67,3.26,3.26,0,0,0-1.74.37,1.12,1.12,0,0,0-.59,1,1.17,1.17,0,0,0,.22.73,2,2,0,0,0,.71.58,15.15,15.15,0,0,0,1.87.79,7,7,0,0,1,2.58,1.4A2.49,2.49,0,0,1,1027.41,313.94Z"/><path class="cls-2" d="M1034.56,317.06a4.88,4.88,0,0,1-3.74-1.45,5.56,5.56,0,0,1-1.37-4,6.22,6.22,0,0,1,1.27-4.11,4.22,4.22,0,0,1,3.42-1.52,4,4,0,0,1,3.19,1.32,5.08,5.08,0,0,1,1.17,3.49v1h-7.37a4.25,4.25,0,0,0,.95,2.86,3.29,3.29,0,0,0,2.54,1,8.61,8.61,0,0,0,3.42-.72v1.45a9.23,9.23,0,0,1-1.62.53A9.07,9.07,0,0,1,1034.56,317.06Zm-.44-9.74a2.65,2.65,0,0,0-2,.84,3.89,3.89,0,0,0-.9,2.33h5.59a3.6,3.6,0,0,0-.68-2.35A2.44,2.44,0,0,0,1034.12,307.32Z"/><path class="cls-2" d="M1041.13,303.26a1.07,1.07,0,0,1,.27-.81.92.92,0,0,1,.68-.26,1,1,0,0,1,.68.26,1.33,1.33,0,0,1,0,1.63,1,1,0,0,1-.68.27.93.93,0,0,1-.68-.27A1.11,1.11,0,0,1,1041.13,303.26Zm1.75,13.6h-1.62v-10.7h1.62Z"/><path class="cls-2" d="M1053.17,316.86h-7.77v-1.1l5.84-8.34h-5.47v-1.26H1053v1.26l-5.76,8.18h5.91Z"/><path class="cls-2" d="M1057.2,306.16v6.94a2.79,2.79,0,0,0,.6,2,2.41,2.41,0,0,0,1.86.64,3,3,0,0,0,2.46-.92,4.6,4.6,0,0,0,.77-3v-5.63h1.63v10.7h-1.34l-.24-1.43h-.08a3.28,3.28,0,0,1-1.39,1.21,4.63,4.63,0,0,1-2,.42,4.11,4.11,0,0,1-2.93-.93,4,4,0,0,1-1-3v-7Z"/><path class="cls-2" d="M1072.84,306a7.1,7.1,0,0,1,1.28.11l-.23,1.51a5.35,5.35,0,0,0-1.17-.15,2.82,2.82,0,0,0-2.22,1.06,3.8,3.8,0,0,0-.93,2.62v5.74H1068v-10.7h1.34l.19,2h.07a4.82,4.82,0,0,1,1.44-1.61A3.3,3.3,0,0,1,1072.84,306Z"/><path class="cls-2" d="M1080.64,317.06a4.92,4.92,0,0,1-3.75-1.45,5.6,5.6,0,0,1-1.37-4,6.22,6.22,0,0,1,1.28-4.11,4.22,4.22,0,0,1,3.42-1.52,4,4,0,0,1,3.18,1.32,5.08,5.08,0,0,1,1.17,3.49v1h-7.37a4.25,4.25,0,0,0,1,2.86,3.31,3.31,0,0,0,2.55,1,8.68,8.68,0,0,0,3.42-.72v1.45a9.6,9.6,0,0,1-1.63.53A9,9,0,0,1,1080.64,317.06Zm-.44-9.74a2.65,2.65,0,0,0-2.06.84,3.89,3.89,0,0,0-.9,2.33h5.6a3.54,3.54,0,0,0-.69-2.35A2.4,2.4,0,0,0,1080.2,307.32Z"/><path class="cls-2" d="M1097.36,307.42h-2.73v9.44H1093v-9.44h-1.91v-.73l1.91-.59v-.59q0-3.94,3.45-3.95a7.33,7.33,0,0,1,2,.34l-.42,1.3a5.38,5.38,0,0,0-1.6-.3,1.57,1.57,0,0,0-1.36.61,3.44,3.44,0,0,0-.44,2v.69h2.73Z"/><path class="cls-2" d="M1108.55,311.5a5.9,5.9,0,0,1-1.32,4.09,4.64,4.64,0,0,1-3.64,1.47,4.81,4.81,0,0,1-2.55-.67,4.46,4.46,0,0,1-1.72-1.94,6.78,6.78,0,0,1-.61-2.95,5.89,5.89,0,0,1,1.31-4.07,4.63,4.63,0,0,1,3.64-1.46,4.54,4.54,0,0,1,3.57,1.49A5.89,5.89,0,0,1,1108.55,311.5Zm-8.16,0a5.15,5.15,0,0,0,.82,3.13,2.88,2.88,0,0,0,2.42,1.07,2.84,2.84,0,0,0,2.41-1.07,5,5,0,0,0,.83-3.13,5,5,0,0,0-.83-3.1,2.91,2.91,0,0,0-2.43-1.06,2.84,2.84,0,0,0-2.4,1.05A5,5,0,0,0,1100.39,311.5Z"/><path class="cls-2" d="M1112.91,306.16v6.94a2.79,2.79,0,0,0,.6,2,2.43,2.43,0,0,0,1.87.64,3,3,0,0,0,2.45-.92,4.6,4.6,0,0,0,.78-3v-5.63h1.62v10.7h-1.34l-.23-1.43h-.09a3.19,3.19,0,0,1-1.38,1.21,4.68,4.68,0,0,1-2,.42,4.06,4.06,0,0,1-2.92-.93,4,4,0,0,1-1-3v-7Z"/><path class="cls-2" d="M1131,316.86v-6.92a2.78,2.78,0,0,0-.6-1.95,2.4,2.4,0,0,0-1.86-.65,3.09,3.09,0,0,0-2.46.91,4.61,4.61,0,0,0-.78,3v5.61h-1.62v-10.7H1125l.27,1.47h.08a3.27,3.27,0,0,1,1.39-1.23,4.54,4.54,0,0,1,2-.43,4.07,4.07,0,0,1,2.91.93,3.93,3.93,0,0,1,1,3v7Z"/><path class="cls-2" d="M1143.23,315.43h-.09a3.81,3.81,0,0,1-3.36,1.63,4,4,0,0,1-3.27-1.44,6.28,6.28,0,0,1-1.16-4.08,6.44,6.44,0,0,1,1.17-4.11,3.93,3.93,0,0,1,3.26-1.46,3.89,3.89,0,0,1,3.34,1.58h.13l-.07-.77,0-.76v-4.35h1.62v15.19h-1.32Zm-3.25.27a3,3,0,0,0,2.41-.9,4.55,4.55,0,0,0,.75-2.92v-.34a5.3,5.3,0,0,0-.76-3.24,2.87,2.87,0,0,0-2.42-1,2.48,2.48,0,0,0-2.18,1.11,5.55,5.55,0,0,0-.75,3.13,5.31,5.31,0,0,0,.75,3.1A2.54,2.54,0,0,0,1140,315.7Z"/><path class="cls-2" d="M1160,316.86l-.32-1.52h-.08a4.38,4.38,0,0,1-1.59,1.36,4.85,4.85,0,0,1-2,.36,3.54,3.54,0,0,1-2.49-.82,3,3,0,0,1-.91-2.33q0-3.26,5.19-3.4l1.81-.06v-.67a2.72,2.72,0,0,0-.54-1.86,2.23,2.23,0,0,0-1.73-.6,7.19,7.19,0,0,0-3,.82l-.5-1.24a7.86,7.86,0,0,1,1.74-.67,7.53,7.53,0,0,1,1.89-.24,4,4,0,0,1,2.83.85,3.51,3.51,0,0,1,.93,2.72v7.3Zm-3.66-1.14a3.27,3.27,0,0,0,2.38-.83,3,3,0,0,0,.86-2.32v-1l-1.62.07a5.82,5.82,0,0,0-2.78.6,1.82,1.82,0,0,0-.86,1.66,1.67,1.67,0,0,0,.53,1.33A2.2,2.2,0,0,0,1156.31,315.72Z"/><path class="cls-2" d="M1166.14,316.86h-1.62V301.67h1.62Z"/><path class="cls-2" d="M1183.22,316.86v-7a2.93,2.93,0,0,0-.55-1.92,2.13,2.13,0,0,0-1.7-.64,2.76,2.76,0,0,0-2.24.87,4.15,4.15,0,0,0-.72,2.68v6h-1.62v-7a2.88,2.88,0,0,0-.55-1.92,2.14,2.14,0,0,0-1.71-.64,2.66,2.66,0,0,0-2.23.92,5,5,0,0,0-.7,3v5.61h-1.63v-10.7h1.32l.27,1.47h.07a3.19,3.19,0,0,1,1.3-1.22,3.85,3.85,0,0,1,1.87-.44c1.67,0,2.77.6,3.28,1.81h.08a3.47,3.47,0,0,1,1.38-1.33,4.39,4.39,0,0,1,2.07-.48,3.61,3.61,0,0,1,2.72.93,4.14,4.14,0,0,1,.91,3v7Z"/><path class="cls-2" d="M1197.42,311.5a5.9,5.9,0,0,1-1.32,4.09,4.65,4.65,0,0,1-3.64,1.47,4.81,4.81,0,0,1-2.55-.67,4.4,4.4,0,0,1-1.72-1.94,6.64,6.64,0,0,1-.61-2.95,5.89,5.89,0,0,1,1.31-4.07,4.6,4.6,0,0,1,3.63-1.46,4.51,4.51,0,0,1,3.57,1.49A5.89,5.89,0,0,1,1197.42,311.5Zm-8.16,0a5.15,5.15,0,0,0,.82,3.13,3.26,3.26,0,0,0,4.83,0,5,5,0,0,0,.83-3.13,5,5,0,0,0-.83-3.1,2.92,2.92,0,0,0-2.44-1.06,2.84,2.84,0,0,0-2.4,1.05A5,5,0,0,0,1189.26,311.5Z"/><path class="cls-2" d="M1207.16,313.94a2.69,2.69,0,0,1-1.11,2.31,5.25,5.25,0,0,1-3.13.81,6.8,6.8,0,0,1-3.32-.67v-1.51a8.23,8.23,0,0,0,1.66.62,6.9,6.9,0,0,0,1.7.22,3.9,3.9,0,0,0,2-.4,1.4,1.4,0,0,0,.14-2.31,9,9,0,0,0-2.12-1.05,11.32,11.32,0,0,1-2.12-1,3,3,0,0,1-.94-.94,2.5,2.5,0,0,1-.31-1.26,2.42,2.42,0,0,1,1.07-2.07,5,5,0,0,1,2.92-.75,8.53,8.53,0,0,1,3.38.7l-.58,1.32a7.63,7.63,0,0,0-2.92-.67,3.26,3.26,0,0,0-1.74.37,1.11,1.11,0,0,0-.58,1,1.17,1.17,0,0,0,.22.73,2,2,0,0,0,.7.58,16.27,16.27,0,0,0,1.88.79,6.87,6.87,0,0,1,2.57,1.4A2.45,2.45,0,0,1,1207.16,313.94Z"/><path class="cls-2" d="M1213.26,315.72a5.69,5.69,0,0,0,.83-.06c.26,0,.47-.09.63-.13v1.24a3.36,3.36,0,0,1-.78.21,6.48,6.48,0,0,1-.92.08q-3.11,0-3.1-3.27v-6.37h-1.54v-.78l1.54-.67.68-2.29h.94v2.48h3.1v1.26h-3.1v6.3a2.13,2.13,0,0,0,.46,1.48A1.57,1.57,0,0,0,1213.26,315.72Z"/><path class="cls-2" d="M1230.16,306a3.25,3.25,0,0,1-.77,2.23,3.85,3.85,0,0,1-2.17,1.17v.07a4.09,4.09,0,0,1,2.55,1.1,3.21,3.21,0,0,1,.83,2.3,3.72,3.72,0,0,1-1.42,3.14,6.43,6.43,0,0,1-4,1.1,12.16,12.16,0,0,1-2.08-.17,7,7,0,0,1-1.83-.6v-1.54a9.27,9.27,0,0,0,2,.69,8.92,8.92,0,0,0,2,.24c2.47,0,3.7-1,3.7-2.9q0-2.59-4.08-2.59h-1.41v-1.4h1.43a4.29,4.29,0,0,0,2.64-.74,2.39,2.39,0,0,0,1-2,2,2,0,0,0-.72-1.65,3,3,0,0,0-2-.59,5.94,5.94,0,0,0-1.76.25,7.71,7.71,0,0,0-1.9.94l-.82-1.09a6.6,6.6,0,0,1,2-1.09,7.19,7.19,0,0,1,2.42-.4,5,5,0,0,1,3.23.95A3.22,3.22,0,0,1,1230.16,306Z"/><path class="cls-2" d="M1242.21,309.71a10.38,10.38,0,0,1-1.17,5.52,4.3,4.3,0,0,1-7.07,0,10.22,10.22,0,0,1-1.2-5.48,10.46,10.46,0,0,1,1.16-5.54,4.3,4.3,0,0,1,7.07.08A10.09,10.09,0,0,1,1242.21,309.71Zm-7.8,0a10.4,10.4,0,0,0,.73,4.53,2.63,2.63,0,0,0,4.68,0,14.3,14.3,0,0,0,0-9,2.64,2.64,0,0,0-4.68,0A10.37,10.37,0,0,0,1234.41,309.71Z"/><path class="cls-2" d="M1253.58,315.72a5.69,5.69,0,0,0,.83-.06,6.11,6.11,0,0,0,.63-.13v1.24a3.26,3.26,0,0,1-.77.21,6.61,6.61,0,0,1-.93.08q-3.1,0-3.1-3.27v-6.37h-1.53v-.78l1.53-.67.68-2.29h.94v2.48h3.1v1.26h-3.1v6.3a2.13,2.13,0,0,0,.46,1.48A1.57,1.57,0,0,0,1253.58,315.72Z"/><path class="cls-2" d="M1266.42,311.5a5.9,5.9,0,0,1-1.32,4.09,4.64,4.64,0,0,1-3.64,1.47,4.81,4.81,0,0,1-2.55-.67,4.46,4.46,0,0,1-1.72-1.94,6.78,6.78,0,0,1-.6-2.95,5.89,5.89,0,0,1,1.3-4.07,4.63,4.63,0,0,1,3.64-1.46,4.54,4.54,0,0,1,3.57,1.49A5.89,5.89,0,0,1,1266.42,311.5Zm-8.15,0a5.08,5.08,0,0,0,.82,3.13,3.26,3.26,0,0,0,4.83,0,5.1,5.1,0,0,0,.82-3.13,5,5,0,0,0-.82-3.1,2.93,2.93,0,0,0-2.44-1.06,2.84,2.84,0,0,0-2.4,1.05A5,5,0,0,0,1258.27,311.5Z"/><path class="cls-2" d="M1276.59,316.86v-6.92a2.78,2.78,0,0,0-.6-1.95,2.44,2.44,0,0,0-1.87-.65,3.09,3.09,0,0,0-2.46.91,4.61,4.61,0,0,0-.78,3v5.61h-1.62v-10.7h1.32l.26,1.47h.08a3.3,3.3,0,0,1,1.4-1.23,4.51,4.51,0,0,1,2-.43,4.07,4.07,0,0,1,2.91.93,4,4,0,0,1,1,3v7Z"/><path class="cls-2" d="M1288.86,316.86v-6.92a2.82,2.82,0,0,0-.59-1.95,2.44,2.44,0,0,0-1.87-.65,3.09,3.09,0,0,0-2.46.91,4.61,4.61,0,0,0-.78,3v5.61h-1.62v-10.7h1.32l.26,1.47h.08a3.33,3.33,0,0,1,1.39-1.23,4.56,4.56,0,0,1,2-.43,4.1,4.1,0,0,1,2.91.93,4,4,0,0,1,1,3v7Z"/><path class="cls-2" d="M1298.33,317.06a4.88,4.88,0,0,1-3.74-1.45,5.56,5.56,0,0,1-1.37-4,6.22,6.22,0,0,1,1.27-4.11,4.22,4.22,0,0,1,3.42-1.52,4.05,4.05,0,0,1,3.19,1.32,5.08,5.08,0,0,1,1.17,3.49v1h-7.37a4.25,4.25,0,0,0,.95,2.86,3.29,3.29,0,0,0,2.54,1,8.68,8.68,0,0,0,3.42-.72v1.45a9.06,9.06,0,0,1-1.63.53A8.9,8.9,0,0,1,1298.33,317.06Zm-.44-9.74a2.65,2.65,0,0,0-2.05.84,3.89,3.89,0,0,0-.9,2.33h5.59a3.6,3.6,0,0,0-.68-2.35A2.44,2.44,0,0,0,1297.89,307.32Z"/><path class="cls-2" d="M1311.94,313.94a2.67,2.67,0,0,1-1.12,2.31,5.22,5.22,0,0,1-3.12.81,6.78,6.78,0,0,1-3.32-.67v-1.51a8.14,8.14,0,0,0,1.65.62,6.92,6.92,0,0,0,1.71.22,3.86,3.86,0,0,0,2-.4,1.35,1.35,0,0,0,.69-1.24,1.37,1.37,0,0,0-.55-1.07,8.88,8.88,0,0,0-2.11-1.05,11.18,11.18,0,0,1-2.13-1,2.86,2.86,0,0,1-.93-.94,2.6,2.6,0,0,1,.75-3.33,5,5,0,0,1,2.92-.75,8.5,8.5,0,0,1,3.38.7l-.57,1.32a7.67,7.67,0,0,0-2.92-.67,3.26,3.26,0,0,0-1.74.37,1.12,1.12,0,0,0-.59,1,1.24,1.24,0,0,0,.22.73,2.15,2.15,0,0,0,.71.58,15.5,15.5,0,0,0,1.88.79,7,7,0,0,1,2.57,1.4A2.49,2.49,0,0,1,1311.94,313.94Z"/><path class="cls-2" d="M1329,311.5a5.9,5.9,0,0,1-1.32,4.09,4.64,4.64,0,0,1-3.64,1.47,4.81,4.81,0,0,1-2.55-.67,4.46,4.46,0,0,1-1.72-1.94,6.78,6.78,0,0,1-.61-2.95,5.89,5.89,0,0,1,1.31-4.07,4.62,4.62,0,0,1,3.64-1.46,4.5,4.5,0,0,1,3.56,1.49A5.84,5.84,0,0,1,1329,311.5Zm-8.16,0a5.15,5.15,0,0,0,.82,3.13,2.87,2.87,0,0,0,2.42,1.07,2.84,2.84,0,0,0,2.41-1.07,5,5,0,0,0,.83-3.13,5,5,0,0,0-.83-3.1,2.91,2.91,0,0,0-2.43-1.06,2.85,2.85,0,0,0-2.41,1.05A5,5,0,0,0,1320.85,311.5Z"/><path class="cls-2" d="M1336.67,307.42H1334v9.44h-1.62v-9.44h-1.92v-.73l1.92-.59v-.59q0-3.94,3.45-3.95a7.4,7.4,0,0,1,2,.34l-.42,1.3a5.44,5.44,0,0,0-1.6-.3,1.54,1.54,0,0,0-1.36.61,3.44,3.44,0,0,0-.44,2v.69h2.72Z"/><path class="cls-2" d="M1348.65,307.42h-2.73v9.44h-1.62v-9.44h-1.91v-.73l1.91-.59v-.59q0-3.94,3.45-3.95a7.4,7.4,0,0,1,2,.34l-.42,1.3a5.38,5.38,0,0,0-1.6-.3,1.56,1.56,0,0,0-1.36.61,3.44,3.44,0,0,0-.44,2v.69h2.73Z"/><path class="cls-2" d="M1355.48,306a7,7,0,0,1,1.28.11l-.22,1.51a5.5,5.5,0,0,0-1.17-.15,2.85,2.85,0,0,0-2.23,1.06,3.84,3.84,0,0,0-.92,2.62v5.74h-1.62v-10.7h1.34l.18,2h.08a4.82,4.82,0,0,1,1.44-1.61A3.27,3.27,0,0,1,1355.48,306Z"/><path class="cls-2" d="M1368,311.5a5.9,5.9,0,0,1-1.32,4.09,4.64,4.64,0,0,1-3.64,1.47,4.81,4.81,0,0,1-2.55-.67,4.52,4.52,0,0,1-1.72-1.94,6.78,6.78,0,0,1-.6-2.95,5.84,5.84,0,0,1,1.31-4.07,4.6,4.6,0,0,1,3.63-1.46,4.51,4.51,0,0,1,3.57,1.49A5.89,5.89,0,0,1,1368,311.5Zm-8.15,0a5.08,5.08,0,0,0,.82,3.13,3.26,3.26,0,0,0,4.83,0,5,5,0,0,0,.82-3.13,5,5,0,0,0-.82-3.1,2.93,2.93,0,0,0-2.44-1.06,2.84,2.84,0,0,0-2.4,1.05A5,5,0,0,0,1359.85,311.5Z"/><path class="cls-2" d="M1377.69,316.86h-7.76v-1.1l5.84-8.34h-5.48v-1.26h7.25v1.26l-5.76,8.18h5.91Z"/><path class="cls-2" d="M1384.72,317.06a4.88,4.88,0,0,1-3.74-1.45,5.56,5.56,0,0,1-1.38-4,6.22,6.22,0,0,1,1.28-4.11,4.22,4.22,0,0,1,3.42-1.52,4,4,0,0,1,3.18,1.32,5,5,0,0,1,1.18,3.49v1h-7.38a4.25,4.25,0,0,0,1,2.86,3.29,3.29,0,0,0,2.54,1,8.68,8.68,0,0,0,3.42-.72v1.45a9.6,9.6,0,0,1-1.63.53A9,9,0,0,1,1384.72,317.06Zm-.44-9.74a2.63,2.63,0,0,0-2,.84,3.83,3.83,0,0,0-.91,2.33h5.6a3.54,3.54,0,0,0-.69-2.35A2.4,2.4,0,0,0,1384.28,307.32Z"/><path class="cls-2" d="M1398.74,316.86v-6.92a2.78,2.78,0,0,0-.59-1.95,2.44,2.44,0,0,0-1.87-.65,3.09,3.09,0,0,0-2.46.91,4.61,4.61,0,0,0-.78,3v5.61h-1.62v-10.7h1.32l.26,1.47h.08a3.3,3.3,0,0,1,1.4-1.23,4.51,4.51,0,0,1,2-.43,4.07,4.07,0,0,1,2.91.93,4,4,0,0,1,1,3v7Z"/><path class="cls-2" d="M917.7,347.06a4.59,4.59,0,0,1-1.91-.39,3.52,3.52,0,0,1-1.45-1.18h-.12a14,14,0,0,1,.12,1.78v4.4h-1.62V336.16H914l.22,1.47h.08a3.76,3.76,0,0,1,1.45-1.27,4.46,4.46,0,0,1,1.91-.39,4,4,0,0,1,3.29,1.45,7.79,7.79,0,0,1,0,8.18A4,4,0,0,1,917.7,347.06Zm-.24-9.72a2.89,2.89,0,0,0-2.37.91,4.65,4.65,0,0,0-.75,2.89v.36a5.37,5.37,0,0,0,.75,3.23,2.86,2.86,0,0,0,2.41,1,2.52,2.52,0,0,0,2.18-1.12,5.36,5.36,0,0,0,.78-3.1,5.18,5.18,0,0,0-.78-3.07A2.6,2.6,0,0,0,917.46,337.34Z"/><path class="cls-2" d="M931.56,346.86l-.33-1.52h-.07a4.48,4.48,0,0,1-1.6,1.36,4.82,4.82,0,0,1-2,.36,3.54,3.54,0,0,1-2.49-.82,3,3,0,0,1-.91-2.33q0-3.26,5.19-3.4l1.82-.06v-.67a2.67,2.67,0,0,0-.55-1.86,2.23,2.23,0,0,0-1.73-.6,7.19,7.19,0,0,0-3,.82l-.49-1.24A7.75,7.75,0,0,1,929,336a4,4,0,0,1,2.83.85,3.51,3.51,0,0,1,.93,2.72v7.3Zm-3.67-1.14a3.26,3.26,0,0,0,2.38-.83,3.05,3.05,0,0,0,.87-2.32v-1l-1.62.07a5.9,5.9,0,0,0-2.79.6,1.82,1.82,0,0,0-.86,1.66,1.64,1.64,0,0,0,.54,1.33A2.17,2.17,0,0,0,927.89,345.72Z"/><path class="cls-2" d="M943.42,346.86v-6.92a2.82,2.82,0,0,0-.59-1.95,2.44,2.44,0,0,0-1.87-.65,3.09,3.09,0,0,0-2.46.91,4.61,4.61,0,0,0-.78,3v5.61H936.1v-10.7h1.32l.26,1.47h.08a3.33,3.33,0,0,1,1.39-1.23,4.56,4.56,0,0,1,2-.43,4.07,4.07,0,0,1,2.91.93,4,4,0,0,1,1,3v7Z"/><path class="cls-2" d="M957.13,336.16v1l-2,.23a3.41,3.41,0,0,1,.7,2.14,3.15,3.15,0,0,1-1.07,2.51,4.37,4.37,0,0,1-2.95.94,5.11,5.11,0,0,1-.9-.08,1.58,1.58,0,0,0-1,1.38.7.7,0,0,0,.36.65,2.62,2.62,0,0,0,1.24.21h1.89a4.22,4.22,0,0,1,2.67.73A2.53,2.53,0,0,1,957,348a3,3,0,0,1-1.43,2.71,7.65,7.65,0,0,1-4.16.93,5.7,5.7,0,0,1-3.24-.78,2.52,2.52,0,0,1-1.13-2.21,2.47,2.47,0,0,1,.62-1.69,3.22,3.22,0,0,1,1.76-1,1.65,1.65,0,0,1-.69-.57,1.49,1.49,0,0,1-.28-.91,1.76,1.76,0,0,1,.31-1,3.18,3.18,0,0,1,1-.85,2.92,2.92,0,0,1-1.35-1.17,3.37,3.37,0,0,1-.52-1.87,3.47,3.47,0,0,1,1-2.71,4.28,4.28,0,0,1,3-.95,5.43,5.43,0,0,1,1.51.19Zm-8.53,12.5a1.45,1.45,0,0,0,.73,1.32,4,4,0,0,0,2.1.45,5.81,5.81,0,0,0,3-.61,1.86,1.86,0,0,0,1-1.66,1.31,1.31,0,0,0-.53-1.2,4.12,4.12,0,0,0-2-.34h-2a2.58,2.58,0,0,0-1.72.53A1.87,1.87,0,0,0,948.6,348.66Zm.88-9.07a2.2,2.2,0,0,0,.63,1.7,2.55,2.55,0,0,0,1.77.57,2.06,2.06,0,0,0,2.37-2.3,2.12,2.12,0,0,0-2.4-2.41,2.38,2.38,0,0,0-1.76.61A2.48,2.48,0,0,0,949.48,339.59Z"/><path class="cls-2" d="M968.57,341.5a5.9,5.9,0,0,1-1.32,4.09,4.64,4.64,0,0,1-3.64,1.47,4.81,4.81,0,0,1-2.55-.67,4.46,4.46,0,0,1-1.72-1.94,6.78,6.78,0,0,1-.61-2.95,5.89,5.89,0,0,1,1.31-4.07,4.63,4.63,0,0,1,3.64-1.46,4.54,4.54,0,0,1,3.57,1.49A5.89,5.89,0,0,1,968.57,341.5Zm-8.16,0a5.15,5.15,0,0,0,.82,3.13,2.87,2.87,0,0,0,2.42,1.07,2.84,2.84,0,0,0,2.41-1.07,5,5,0,0,0,.83-3.13,5,5,0,0,0-.83-3.1,2.91,2.91,0,0,0-2.43-1.06,2.86,2.86,0,0,0-2.41,1.05A5,5,0,0,0,960.41,341.5Z"/><path class="cls-2" d="M973,346.86h-1.62V331.67H973Z"/><path class="cls-2" d="M976.33,333.26a1,1,0,0,1,.28-.81,1,1,0,0,1,1.35,0,1.29,1.29,0,0,1,0,1.63.94.94,0,0,1-.67.27.93.93,0,0,1-.68-.27A1.07,1.07,0,0,1,976.33,333.26Zm1.76,13.6h-1.62v-10.7h1.62Z"/><path class="cls-2" d="M988.85,346.86v-6.92a2.82,2.82,0,0,0-.59-1.95,2.44,2.44,0,0,0-1.87-.65,3.09,3.09,0,0,0-2.46.91,4.61,4.61,0,0,0-.78,3v5.61h-1.62v-10.7h1.32l.26,1.47h.08a3.33,3.33,0,0,1,1.39-1.23,4.56,4.56,0,0,1,2-.43,4.09,4.09,0,0,1,2.91.93,4,4,0,0,1,1,3v7Z"/><path class="cls-2" d="M1000.71,343.94a2.67,2.67,0,0,1-1.12,2.31,5.22,5.22,0,0,1-3.12.81,6.78,6.78,0,0,1-3.32-.67v-1.51a7.92,7.92,0,0,0,1.65.62,6.92,6.92,0,0,0,1.71.22,3.89,3.89,0,0,0,2-.4,1.34,1.34,0,0,0,.68-1.24,1.36,1.36,0,0,0-.54-1.07,8.88,8.88,0,0,0-2.11-1.05,11.18,11.18,0,0,1-2.13-1,2.86,2.86,0,0,1-.93-.94,2.6,2.6,0,0,1,.75-3.33,5,5,0,0,1,2.92-.75,8.5,8.5,0,0,1,3.38.7l-.57,1.32a7.67,7.67,0,0,0-2.92-.67,3.26,3.26,0,0,0-1.74.37,1.12,1.12,0,0,0-.59,1,1.24,1.24,0,0,0,.22.73,2,2,0,0,0,.71.58,15.89,15.89,0,0,0,1.87.79,7,7,0,0,1,2.58,1.4A2.49,2.49,0,0,1,1000.71,343.94Z"/><path class="cls-2" d="M1015.12,346.86l-.32-1.52h-.08a4.4,4.4,0,0,1-1.6,1.36,4.8,4.8,0,0,1-2,.36,3.57,3.57,0,0,1-2.5-.82,3,3,0,0,1-.9-2.33q0-3.26,5.18-3.4l1.82-.06v-.67a2.72,2.72,0,0,0-.54-1.86,2.24,2.24,0,0,0-1.74-.6,7.12,7.12,0,0,0-3,.82l-.5-1.24a7.78,7.78,0,0,1,1.73-.67,7.65,7.65,0,0,1,1.89-.24,4.07,4.07,0,0,1,2.84.85,3.54,3.54,0,0,1,.92,2.72v7.3Zm-3.66-1.14a3.27,3.27,0,0,0,2.38-.83,3.09,3.09,0,0,0,.86-2.32v-1l-1.62.07a5.9,5.9,0,0,0-2.79.6,1.81,1.81,0,0,0-.85,1.66,1.67,1.67,0,0,0,.53,1.33A2.18,2.18,0,0,0,1011.46,345.72Z"/><path class="cls-2" d="M1027,346.86v-6.92a2.78,2.78,0,0,0-.6-1.95,2.43,2.43,0,0,0-1.86-.65,3.11,3.11,0,0,0-2.47.91,4.61,4.61,0,0,0-.78,3v5.61h-1.62v-10.7H1021l.26,1.47h.08a3.3,3.3,0,0,1,1.4-1.23,4.54,4.54,0,0,1,2-.43,4.07,4.07,0,0,1,2.91.93,4,4,0,0,1,1,3v7Z"/><path class="cls-2" d="M1039.22,345.43h-.09a3.78,3.78,0,0,1-3.35,1.63,4,4,0,0,1-3.27-1.44,6.28,6.28,0,0,1-1.17-4.08,6.44,6.44,0,0,1,1.17-4.11,3.94,3.94,0,0,1,3.27-1.46,3.89,3.89,0,0,1,3.34,1.58h.12l-.07-.77,0-.76v-4.35h1.63v15.19h-1.32Zm-3.24.27a3,3,0,0,0,2.41-.9,4.55,4.55,0,0,0,.74-2.92v-.34a5.38,5.38,0,0,0-.75-3.24,2.88,2.88,0,0,0-2.42-1,2.47,2.47,0,0,0-2.18,1.11,5.46,5.46,0,0,0-.76,3.13,5.31,5.31,0,0,0,.75,3.1A2.56,2.56,0,0,0,1036,345.7Z"/><path class="cls-2" d="M1054.37,347.06a4.59,4.59,0,0,1-1.91-.39,3.52,3.52,0,0,1-1.45-1.18h-.12a14,14,0,0,1,.12,1.78v4.4h-1.62V336.16h1.32l.22,1.47h.08a3.76,3.76,0,0,1,1.45-1.27,4.46,4.46,0,0,1,1.91-.39,4,4,0,0,1,3.29,1.45,7.79,7.79,0,0,1,0,8.18A4,4,0,0,1,1054.37,347.06Zm-.24-9.72a2.89,2.89,0,0,0-2.37.91,4.65,4.65,0,0,0-.75,2.89v.36a5.37,5.37,0,0,0,.75,3.23,2.86,2.86,0,0,0,2.41,1,2.52,2.52,0,0,0,2.18-1.12,5.36,5.36,0,0,0,.78-3.1,5.18,5.18,0,0,0-.78-3.07A2.62,2.62,0,0,0,1054.13,337.34Z"/><path class="cls-2" d="M1068.23,346.86l-.33-1.52h-.07a4.48,4.48,0,0,1-1.6,1.36,4.82,4.82,0,0,1-2,.36,3.54,3.54,0,0,1-2.49-.82,3,3,0,0,1-.91-2.33q0-3.26,5.19-3.4l1.82-.06v-.67a2.67,2.67,0,0,0-.55-1.86,2.23,2.23,0,0,0-1.73-.6,7.19,7.19,0,0,0-3,.82l-.5-1.24a7.86,7.86,0,0,1,1.74-.67,7.65,7.65,0,0,1,1.89-.24,4,4,0,0,1,2.83.85,3.51,3.51,0,0,1,.93,2.72v7.3Zm-3.67-1.14a3.26,3.26,0,0,0,2.38-.83,3.05,3.05,0,0,0,.87-2.32v-1l-1.62.07a5.9,5.9,0,0,0-2.79.6,1.82,1.82,0,0,0-.86,1.66,1.64,1.64,0,0,0,.54,1.33A2.17,2.17,0,0,0,1064.56,345.72Z"/><path class="cls-2" d="M1080.09,346.86v-6.92a2.82,2.82,0,0,0-.59-1.95,2.44,2.44,0,0,0-1.87-.65,3.09,3.09,0,0,0-2.46.91,4.61,4.61,0,0,0-.78,3v5.61h-1.62v-10.7h1.32l.26,1.47h.08a3.33,3.33,0,0,1,1.39-1.23,4.56,4.56,0,0,1,2-.43,4.09,4.09,0,0,1,2.91.93,4,4,0,0,1,1,3v7Z"/><path class="cls-2" d="M1093.8,336.16v1l-2,.23a3.41,3.41,0,0,1,.7,2.14,3.15,3.15,0,0,1-1.07,2.51,4.37,4.37,0,0,1-3,.94,5.11,5.11,0,0,1-.9-.08,1.58,1.58,0,0,0-1,1.38.7.7,0,0,0,.36.65,2.62,2.62,0,0,0,1.24.21h1.89a4.22,4.22,0,0,1,2.67.73,2.53,2.53,0,0,1,.94,2.13,3,3,0,0,1-1.43,2.71,7.65,7.65,0,0,1-4.16.93,5.7,5.7,0,0,1-3.24-.78,2.52,2.52,0,0,1-1.13-2.21,2.47,2.47,0,0,1,.62-1.69,3.22,3.22,0,0,1,1.76-1,1.59,1.59,0,0,1-.69-.57,1.49,1.49,0,0,1-.28-.91,1.76,1.76,0,0,1,.31-1,3.18,3.18,0,0,1,1-.85,2.92,2.92,0,0,1-1.35-1.17,3.38,3.38,0,0,1-.53-1.87,3.47,3.47,0,0,1,1.06-2.71,4.28,4.28,0,0,1,3-.95,5.43,5.43,0,0,1,1.51.19Zm-8.53,12.5A1.45,1.45,0,0,0,1086,350a4,4,0,0,0,2.1.45,5.81,5.81,0,0,0,3-.61,1.86,1.86,0,0,0,1-1.66,1.31,1.31,0,0,0-.53-1.2,4.14,4.14,0,0,0-2-.34h-1.94a2.58,2.58,0,0,0-1.72.53A1.87,1.87,0,0,0,1085.27,348.66Zm.88-9.07a2.2,2.2,0,0,0,.63,1.7,2.55,2.55,0,0,0,1.77.57,2.06,2.06,0,0,0,2.37-2.3,2.12,2.12,0,0,0-2.4-2.41,2.38,2.38,0,0,0-1.76.61A2.48,2.48,0,0,0,1086.15,339.59Z"/><path class="cls-2" d="M1105.24,341.5a5.9,5.9,0,0,1-1.32,4.09,4.64,4.64,0,0,1-3.64,1.47,4.81,4.81,0,0,1-2.55-.67,4.46,4.46,0,0,1-1.72-1.94,6.78,6.78,0,0,1-.61-2.95,5.89,5.89,0,0,1,1.31-4.07,4.62,4.62,0,0,1,3.64-1.46,4.54,4.54,0,0,1,3.57,1.49A5.89,5.89,0,0,1,1105.24,341.5Zm-8.16,0a5.15,5.15,0,0,0,.82,3.13,2.87,2.87,0,0,0,2.42,1.07,2.84,2.84,0,0,0,2.41-1.07,5,5,0,0,0,.83-3.13,5,5,0,0,0-.83-3.1,2.91,2.91,0,0,0-2.43-1.06,2.86,2.86,0,0,0-2.41,1.05A5,5,0,0,0,1097.08,341.5Z"/><path class="cls-2" d="M1109.7,346.86h-1.62V331.67h1.62Z"/><path class="cls-2" d="M1113,333.26a1,1,0,0,1,.28-.81,1,1,0,0,1,1.35,0,1.29,1.29,0,0,1,0,1.63.94.94,0,0,1-.67.27.93.93,0,0,1-.68-.27A1.07,1.07,0,0,1,1113,333.26Zm1.76,13.6h-1.62v-10.7h1.62Z"/><path class="cls-2" d="M1125.52,346.86v-6.92a2.82,2.82,0,0,0-.59-1.95,2.44,2.44,0,0,0-1.87-.65,3.09,3.09,0,0,0-2.46.91,4.61,4.61,0,0,0-.78,3v5.61h-1.62v-10.7h1.32l.26,1.47h.08a3.33,3.33,0,0,1,1.39-1.23,4.56,4.56,0,0,1,2-.43,4.1,4.1,0,0,1,2.91.93,4,4,0,0,1,1,3v7Z"/><path class="cls-2" d="M1142.57,343.94a2.69,2.69,0,0,1-1.11,2.31,5.25,5.25,0,0,1-3.13.81,6.83,6.83,0,0,1-3.32-.67v-1.51a8.23,8.23,0,0,0,1.66.62,6.9,6.9,0,0,0,1.7.22,3.9,3.9,0,0,0,2-.4,1.4,1.4,0,0,0,.14-2.31,9,9,0,0,0-2.12-1.05,11.32,11.32,0,0,1-2.12-1,3,3,0,0,1-.94-.94,2.5,2.5,0,0,1-.31-1.26,2.42,2.42,0,0,1,1.07-2.07A5,5,0,0,1,1139,336a8.53,8.53,0,0,1,3.38.7l-.58,1.32a7.63,7.63,0,0,0-2.92-.67,3.26,3.26,0,0,0-1.74.37,1.11,1.11,0,0,0-.58,1,1.17,1.17,0,0,0,.22.73,2,2,0,0,0,.71.58,15.15,15.15,0,0,0,1.87.79,6.87,6.87,0,0,1,2.57,1.4A2.45,2.45,0,0,1,1142.57,343.94Z"/><path class="cls-2" d="M1149.49,347.06a4.58,4.58,0,0,1-3.6-1.43,5.87,5.87,0,0,1-1.28-4.05,6,6,0,0,1,1.3-4.15,4.63,4.63,0,0,1,3.68-1.46,7.42,7.42,0,0,1,1.55.16,5.21,5.21,0,0,1,1.21.39l-.5,1.38a8.94,8.94,0,0,0-1.17-.36,5.6,5.6,0,0,0-1.13-.14q-3.25,0-3.26,4.16a5,5,0,0,0,.8,3,2.78,2.78,0,0,0,2.36,1.05,7.27,7.27,0,0,0,2.74-.57v1.43A5.84,5.84,0,0,1,1149.49,347.06Z"/><path class="cls-2" d="M1161.31,346.86l-.32-1.52h-.08a4.38,4.38,0,0,1-1.59,1.36,4.85,4.85,0,0,1-2,.36,3.59,3.59,0,0,1-2.5-.82,3,3,0,0,1-.9-2.33q0-3.26,5.19-3.4l1.81-.06v-.67a2.72,2.72,0,0,0-.54-1.86,2.23,2.23,0,0,0-1.73-.6,7.12,7.12,0,0,0-3,.82l-.5-1.24a8,8,0,0,1,1.73-.67,7.65,7.65,0,0,1,1.89-.24,4.05,4.05,0,0,1,2.84.85,3.51,3.51,0,0,1,.92,2.72v7.3Zm-3.66-1.14a3.27,3.27,0,0,0,2.38-.83,3.09,3.09,0,0,0,.86-2.32v-1l-1.62.07a5.9,5.9,0,0,0-2.79.6,1.81,1.81,0,0,0-.85,1.66,1.67,1.67,0,0,0,.53,1.33A2.2,2.2,0,0,0,1157.65,345.72Z"/><path class="cls-2" d="M1167.47,346.86h-1.62V331.67h1.62Z"/><path class="cls-2" d="M1175.43,347.06a4.88,4.88,0,0,1-3.74-1.45,5.56,5.56,0,0,1-1.37-4,6.22,6.22,0,0,1,1.27-4.11A4.22,4.22,0,0,1,1175,336a4.05,4.05,0,0,1,3.19,1.32,5.08,5.08,0,0,1,1.17,3.49v1H1172a4.25,4.25,0,0,0,1,2.86,3.29,3.29,0,0,0,2.54,1,8.68,8.68,0,0,0,3.42-.72v1.45a9.32,9.32,0,0,1-1.63.53A8.9,8.9,0,0,1,1175.43,347.06Zm-.44-9.74a2.63,2.63,0,0,0-2,.84,3.89,3.89,0,0,0-.9,2.33h5.59a3.6,3.6,0,0,0-.68-2.35A2.44,2.44,0,0,0,1175,337.32Z"/><path class="cls-2" d="M1189,343.94a2.67,2.67,0,0,1-1.12,2.31,5.22,5.22,0,0,1-3.12.81,6.78,6.78,0,0,1-3.32-.67v-1.51a7.92,7.92,0,0,0,1.65.62,6.92,6.92,0,0,0,1.71.22,3.89,3.89,0,0,0,2-.4,1.34,1.34,0,0,0,.68-1.24,1.36,1.36,0,0,0-.54-1.07,8.88,8.88,0,0,0-2.11-1.05,11.18,11.18,0,0,1-2.13-1,2.86,2.86,0,0,1-.93-.94,2.6,2.6,0,0,1,.75-3.33,5,5,0,0,1,2.92-.75,8.5,8.5,0,0,1,3.38.7l-.57,1.32a7.67,7.67,0,0,0-2.92-.67,3.26,3.26,0,0,0-1.74.37,1.12,1.12,0,0,0-.59,1,1.24,1.24,0,0,0,.22.73,2,2,0,0,0,.71.58,15.89,15.89,0,0,0,1.87.79,7,7,0,0,1,2.58,1.4A2.49,2.49,0,0,1,1189,343.94Z"/><path class="cls-2" d="M1203.45,346.86l-.32-1.52h-.08a4.4,4.4,0,0,1-1.6,1.36,4.8,4.8,0,0,1-2,.36,3.57,3.57,0,0,1-2.5-.82,3,3,0,0,1-.9-2.33q0-3.26,5.18-3.4l1.82-.06v-.67a2.72,2.72,0,0,0-.54-1.86,2.24,2.24,0,0,0-1.74-.6,7.12,7.12,0,0,0-3,.82l-.5-1.24a8,8,0,0,1,1.73-.67,7.65,7.65,0,0,1,1.89-.24,4.07,4.07,0,0,1,2.84.85,3.54,3.54,0,0,1,.92,2.72v7.3Zm-3.66-1.14a3.27,3.27,0,0,0,2.38-.83,3.09,3.09,0,0,0,.86-2.32v-1l-1.62.07a5.9,5.9,0,0,0-2.79.6,1.81,1.81,0,0,0-.85,1.66,1.67,1.67,0,0,0,.53,1.33A2.18,2.18,0,0,0,1199.79,345.72Z"/><path class="cls-2" d="M1211.45,345.72a5.62,5.62,0,0,0,1.46-.19v1.24a3.26,3.26,0,0,1-.77.21,6.49,6.49,0,0,1-.93.08q-3.11,0-3.1-3.27v-6.37h-1.53v-.78l1.53-.67.68-2.29h.94v2.48h3.11v1.26h-3.11v6.3a2.13,2.13,0,0,0,.46,1.48A1.59,1.59,0,0,0,1211.45,345.72Z"/><path class="cls-2" d="M1223.71,345.72a5.69,5.69,0,0,0,.83-.06c.26,0,.47-.09.63-.13v1.24a3.36,3.36,0,0,1-.78.21,6.48,6.48,0,0,1-.92.08q-3.1,0-3.1-3.27v-6.37h-1.54v-.78l1.54-.67.68-2.29h.94v2.48h3.1v1.26H1222v6.3a2.13,2.13,0,0,0,.46,1.48A1.57,1.57,0,0,0,1223.71,345.72Z"/><path class="cls-2" d="M1234.63,346.86v-6.92A2.82,2.82,0,0,0,1234,338a2.44,2.44,0,0,0-1.87-.65,3,3,0,0,0-2.46.92,4.64,4.64,0,0,0-.78,3v5.59h-1.62V331.67h1.62v4.6a10.47,10.47,0,0,1-.08,1.38h.1a3.3,3.3,0,0,1,1.36-1.22,4.38,4.38,0,0,1,2-.44,4.12,4.12,0,0,1,2.94.93,3.9,3.9,0,0,1,1,3v7Z"/><path class="cls-2" d="M1244.11,347.06a4.9,4.9,0,0,1-3.75-1.45,5.6,5.6,0,0,1-1.37-4,6.22,6.22,0,0,1,1.27-4.11,4.22,4.22,0,0,1,3.43-1.52,4,4,0,0,1,3.18,1.32,5.08,5.08,0,0,1,1.17,3.49v1h-7.37a4.25,4.25,0,0,0,.95,2.86,3.29,3.29,0,0,0,2.54,1,8.61,8.61,0,0,0,3.42-.72v1.45a9.23,9.23,0,0,1-1.62.53A9,9,0,0,1,1244.11,347.06Zm-.44-9.74a2.65,2.65,0,0,0-2.06.84,3.89,3.89,0,0,0-.9,2.33h5.59a3.54,3.54,0,0,0-.68-2.35A2.43,2.43,0,0,0,1243.67,337.32Z"/><path class="cls-2" d="M1257.71,343.94a2.69,2.69,0,0,1-1.11,2.31,5.27,5.27,0,0,1-3.13.81,6.78,6.78,0,0,1-3.32-.67v-1.51a8.23,8.23,0,0,0,1.66.62,6.78,6.78,0,0,0,1.7.22,3.83,3.83,0,0,0,2-.4,1.39,1.39,0,0,0,.14-2.31,8.88,8.88,0,0,0-2.11-1.05,11,11,0,0,1-2.12-1,2.9,2.9,0,0,1-.94-.94,2.59,2.59,0,0,1,.76-3.33,5,5,0,0,1,2.92-.75,8.48,8.48,0,0,1,3.37.7l-.57,1.32a7.67,7.67,0,0,0-2.92-.67,3.26,3.26,0,0,0-1.74.37,1.12,1.12,0,0,0-.59,1,1.24,1.24,0,0,0,.22.73,2.15,2.15,0,0,0,.71.58,15.5,15.5,0,0,0,1.88.79,7,7,0,0,1,2.57,1.4A2.45,2.45,0,0,1,1257.71,343.94Z"/><path class="cls-2" d="M1264.87,347.06a4.92,4.92,0,0,1-3.75-1.45,5.6,5.6,0,0,1-1.37-4,6.22,6.22,0,0,1,1.27-4.11,4.22,4.22,0,0,1,3.43-1.52,4,4,0,0,1,3.18,1.32,5.08,5.08,0,0,1,1.17,3.49v1h-7.37a4.25,4.25,0,0,0,1,2.86,3.29,3.29,0,0,0,2.55,1,8.6,8.6,0,0,0,3.41-.72v1.45a9.23,9.23,0,0,1-1.62.53A9,9,0,0,1,1264.87,347.06Zm-.44-9.74a2.65,2.65,0,0,0-2.06.84,3.89,3.89,0,0,0-.9,2.33h5.59a3.54,3.54,0,0,0-.68-2.35A2.43,2.43,0,0,0,1264.43,337.32Z"/><path class="cls-2" d="M1280.22,345.72a5.69,5.69,0,0,0,.83-.06,5.59,5.59,0,0,0,.63-.13v1.24a3.26,3.26,0,0,1-.77.21,6.49,6.49,0,0,1-.93.08q-3.11,0-3.1-3.27v-6.37h-1.53v-.78l1.53-.67.68-2.29h.94v2.48h3.11v1.26h-3.11v6.3a2.13,2.13,0,0,0,.46,1.48A1.57,1.57,0,0,0,1280.22,345.72Z"/><path class="cls-2" d="M1292.56,346.86l-2-6.27c-.12-.39-.35-1.26-.69-2.62h-.08c-.26,1.14-.49,2-.69,2.63l-2,6.26h-1.87l-2.92-10.7h1.7l1.57,6.14a22.74,22.74,0,0,1,.62,2.85h.08c.07-.38.19-.86.35-1.44s.3-1.06.41-1.41l2-6.14h1.76l1.91,6.14a21.09,21.09,0,0,1,.74,2.83h.08c0-.24.1-.6.21-1.09s.79-3.11,2-7.88h1.68l-3,10.7Z"/><path class="cls-2" d="M1308.62,341.5a5.9,5.9,0,0,1-1.32,4.09,4.64,4.64,0,0,1-3.64,1.47,4.81,4.81,0,0,1-2.55-.67,4.46,4.46,0,0,1-1.72-1.94,6.78,6.78,0,0,1-.61-2.95,5.89,5.89,0,0,1,1.31-4.07,4.6,4.6,0,0,1,3.63-1.46,4.51,4.51,0,0,1,3.57,1.49A5.84,5.84,0,0,1,1308.62,341.5Zm-8.16,0a5.15,5.15,0,0,0,.82,3.13,2.87,2.87,0,0,0,2.42,1.07,2.84,2.84,0,0,0,2.41-1.07,5,5,0,0,0,.83-3.13,5,5,0,0,0-.83-3.1,2.91,2.91,0,0,0-2.43-1.06,2.85,2.85,0,0,0-2.41,1.05A5,5,0,0,0,1300.46,341.5Z"/><path class="cls-2" d="M1318.28,346.86h-1.63V331.67h1.63Z"/><path class="cls-2" d="M1331,341.5a5.9,5.9,0,0,1-1.32,4.09,4.64,4.64,0,0,1-3.64,1.47,4.81,4.81,0,0,1-2.55-.67,4.52,4.52,0,0,1-1.72-1.94,6.78,6.78,0,0,1-.6-2.95,5.84,5.84,0,0,1,1.31-4.07,4.6,4.6,0,0,1,3.63-1.46,4.51,4.51,0,0,1,3.57,1.49A5.89,5.89,0,0,1,1331,341.5Zm-8.15,0a5.08,5.08,0,0,0,.82,3.13,3.26,3.26,0,0,0,4.83,0,5,5,0,0,0,.82-3.13,5,5,0,0,0-.82-3.1,2.93,2.93,0,0,0-2.44-1.06,2.84,2.84,0,0,0-2.4,1.05A5,5,0,0,0,1322.8,341.5Z"/><path class="cls-2" d="M1338.07,347.06a4.58,4.58,0,0,1-3.6-1.43,5.87,5.87,0,0,1-1.27-4.05,6.08,6.08,0,0,1,1.29-4.15,4.64,4.64,0,0,1,3.69-1.46,7.32,7.32,0,0,1,1.54.16,4.91,4.91,0,0,1,1.21.39l-.5,1.38a8.49,8.49,0,0,0-1.17-.36,5.51,5.51,0,0,0-1.12-.14c-2.18,0-3.26,1.39-3.26,4.16a5,5,0,0,0,.79,3,2.78,2.78,0,0,0,2.36,1.05,7.32,7.32,0,0,0,2.75-.57v1.43A5.89,5.89,0,0,1,1338.07,347.06Z"/><path class="cls-2" d="M1349.9,346.86l-.33-1.52h-.07a4.48,4.48,0,0,1-1.6,1.36,4.82,4.82,0,0,1-2,.36,3.54,3.54,0,0,1-2.49-.82,3,3,0,0,1-.91-2.33q0-3.26,5.19-3.4l1.82-.06v-.67a2.72,2.72,0,0,0-.55-1.86,2.23,2.23,0,0,0-1.73-.6,7.19,7.19,0,0,0-3,.82l-.5-1.24a7.86,7.86,0,0,1,1.74-.67,7.65,7.65,0,0,1,1.89-.24,4,4,0,0,1,2.83.85,3.51,3.51,0,0,1,.93,2.72v7.3Zm-3.67-1.14a3.26,3.26,0,0,0,2.38-.83,3.05,3.05,0,0,0,.87-2.32v-1l-1.62.07a5.9,5.9,0,0,0-2.79.6,1.82,1.82,0,0,0-.86,1.66,1.64,1.64,0,0,0,.54,1.33A2.17,2.17,0,0,0,1346.23,345.72Z"/><path class="cls-2" d="M1357.89,345.72a5.49,5.49,0,0,0,.83-.06,6.4,6.4,0,0,0,.64-.13v1.24a3.51,3.51,0,0,1-.78.21,6.48,6.48,0,0,1-.92.08q-3.11,0-3.11-3.27v-6.37H1353v-.78l1.53-.67.69-2.29h.94v2.48h3.1v1.26h-3.1v6.3a2.18,2.18,0,0,0,.45,1.48A1.59,1.59,0,0,0,1357.89,345.72Z"/><path class="cls-2" d="M1361.36,333.26a1.07,1.07,0,0,1,.27-.81.94.94,0,0,1,.69-.26.93.93,0,0,1,.67.26,1.29,1.29,0,0,1,0,1.63.94.94,0,0,1-.67.27,1,1,0,0,1-.69-.27A1.11,1.11,0,0,1,1361.36,333.26Zm1.76,13.6h-1.62v-10.7h1.62Z"/><path class="cls-2" d="M1375.79,341.5a5.9,5.9,0,0,1-1.31,4.09,4.66,4.66,0,0,1-3.65,1.47,4.8,4.8,0,0,1-2.54-.67,4.4,4.4,0,0,1-1.72-1.94,6.64,6.64,0,0,1-.61-2.95,5.89,5.89,0,0,1,1.31-4.07,4.6,4.6,0,0,1,3.63-1.46,4.51,4.51,0,0,1,3.57,1.49A5.89,5.89,0,0,1,1375.79,341.5Zm-8.15,0a5.08,5.08,0,0,0,.82,3.13,3.26,3.26,0,0,0,4.83,0,5,5,0,0,0,.83-3.13,5,5,0,0,0-.83-3.1,2.92,2.92,0,0,0-2.44-1.06,2.84,2.84,0,0,0-2.4,1.05A5,5,0,0,0,1367.64,341.5Z"/><path class="cls-2" d="M1386,346.86v-6.92a2.82,2.82,0,0,0-.59-1.95,2.44,2.44,0,0,0-1.87-.65,3.09,3.09,0,0,0-2.46.91,4.61,4.61,0,0,0-.78,3v5.61h-1.62v-10.7H1380l.26,1.47h.08a3.27,3.27,0,0,1,1.39-1.23,4.56,4.56,0,0,1,2-.43,4.1,4.1,0,0,1,2.91.93,4,4,0,0,1,1,3v7Z"/><path class="cls-2" d="M1397.82,343.94a2.67,2.67,0,0,1-1.12,2.31,5.22,5.22,0,0,1-3.12.81,6.78,6.78,0,0,1-3.32-.67v-1.51a7.92,7.92,0,0,0,1.65.62,6.92,6.92,0,0,0,1.71.22,3.89,3.89,0,0,0,2-.4,1.34,1.34,0,0,0,.68-1.24,1.36,1.36,0,0,0-.54-1.07,8.88,8.88,0,0,0-2.11-1.05,11.18,11.18,0,0,1-2.13-1,2.86,2.86,0,0,1-.93-.94,2.6,2.6,0,0,1,.75-3.33,5,5,0,0,1,2.92-.75,8.5,8.5,0,0,1,3.38.7L1397,338a7.67,7.67,0,0,0-2.92-.67,3.26,3.26,0,0,0-1.74.37,1.12,1.12,0,0,0-.59,1,1.17,1.17,0,0,0,.22.73,2,2,0,0,0,.71.58,15.15,15.15,0,0,0,1.87.79,7,7,0,0,1,2.58,1.4A2.49,2.49,0,0,1,1397.82,343.94Z"/><path class="cls-2" d="M1400.22,345.83a1.43,1.43,0,0,1,.3-1,1,1,0,0,1,.85-.34,1.12,1.12,0,0,1,.88.34,1.34,1.34,0,0,1,.32,1,1.41,1.41,0,0,1-.32,1,1.17,1.17,0,0,1-.88.34,1.12,1.12,0,0,1-.82-.31A1.32,1.32,0,0,1,1400.22,345.83Z"/><polygon class="cls-1" points="1128 380 1161 380 1144.5 403 1128 380"/></g><g id="marker-tamparuli"><circle class="cls-3" cx="1345" cy="461" r="55.68"/><circle class="cls-4" cx="1345" cy="461" r="12.06"/></g><g id="tamparuli-text"><rect class="cls-5" x="1251" y="502.55" width="187" height="43.88"/><path class="cls-2" d="M1277.79,533.67h-4.93V519.46h-4.46v-4h13.83v4h-4.44Z"/><path class="cls-2" d="M1296,533.67l-.9-3.42h-5.93l-.92,3.42h-5.42l6-18.32h6.57l6,18.32Zm-1.92-7.46-.79-3c-.18-.67-.41-1.53-.67-2.59s-.43-1.81-.52-2.27c-.07.43-.22,1.13-.44,2.1s-.71,2.89-1.46,5.75Z"/><path class="cls-2" d="M1311.34,533.67l-3.73-13.14h-.11c.17,2.24.26,4,.26,5.22v7.92h-4.37V515.43H1310l3.81,13h.1l3.73-13h6.58v18.24h-4.53v-8c0-.41,0-.87,0-1.38s.06-1.75.16-3.73h-.11L1316,533.67Z"/><path class="cls-2" d="M1341.34,521.23a6.11,6.11,0,0,1-1.81,4.73,7.27,7.27,0,0,1-5.12,1.66H1333v6h-4.93V515.43h6.31a7.69,7.69,0,0,1,5.19,1.51A5.38,5.38,0,0,1,1341.34,521.23ZM1333,523.6h.89a2.45,2.45,0,0,0,1.77-.62,2.26,2.26,0,0,0,.66-1.72c0-1.23-.69-1.85-2-1.85H1333Z"/><path class="cls-2" d="M1355.44,533.67l-.9-3.42h-5.93l-.92,3.42h-5.42l6-18.32h6.58l6,18.32Zm-1.92-7.46-.79-3c-.18-.67-.41-1.53-.67-2.59s-.43-1.81-.52-2.27c-.07.43-.22,1.13-.44,2.1s-.71,2.89-1.47,5.75Z"/><path class="cls-2" d="M1367.73,527v6.64h-4.93V515.43h6q7.42,0,7.43,5.39a5.38,5.38,0,0,1-3.09,4.9l5.31,7.95h-5.59L1369,527Zm0-3.7h.92q2.58,0,2.58-2.28c0-1.26-.84-1.89-2.53-1.89h-1Z"/><path class="cls-2" d="M1395.6,515.43v11a7.37,7.37,0,0,1-2,5.55,8.08,8.08,0,0,1-5.85,2A7.93,7.93,0,0,1,1382,532a7.2,7.2,0,0,1-2-5.49V515.43h5v10.71a4.37,4.37,0,0,0,.72,2.8,3.12,3.12,0,0,0,4.33,0,4.66,4.66,0,0,0,.68-2.84V515.43Z"/><path class="cls-2" d="M1399.44,533.67V515.43h4.92v14.26h7v4Z"/><path class="cls-2" d="M1414.31,533.67V515.43h5v18.24Z"/></g><g id="marker-tuaran"><circle class="cls-3" cx="1105" cy="580" r="55.68"/><circle class="cls-4" cx="1105" cy="580" r="12.06"/></g><g id="tuaran-text"><rect class="cls-5" x="1029" y="613.55" width="151" height="43.88"/><path class="cls-2" d="M1059.44,644.67h-4.93V630.46h-4.45v-4h13.82v4h-4.44Z"/><path class="cls-2" d="M1082,626.43v11a7.34,7.34,0,0,1-2,5.55,9.63,9.63,0,0,1-11.58,0,7.24,7.24,0,0,1-2-5.49V626.43h5v10.71a4.37,4.37,0,0,0,.72,2.8,3.1,3.1,0,0,0,4.32,0,4.6,4.6,0,0,0,.68-2.84V626.43Z"/><path class="cls-2" d="M1097,644.67l-.9-3.42h-5.93l-.92,3.42h-5.42l6-18.31h6.58l6,18.31Zm-1.93-7.46-.78-3c-.19-.67-.41-1.53-.67-2.59s-.44-1.81-.52-2.27c-.07.43-.22,1.13-.44,2.1s-.71,2.89-1.47,5.75Z"/><path class="cls-2" d="M1109.32,638v6.63h-4.93V626.43h6q7.43,0,7.43,5.39a5.38,5.38,0,0,1-3.09,4.9l5.31,7.95h-5.59l-3.87-6.63Zm0-3.71h.92c1.72,0,2.58-.76,2.58-2.29,0-1.25-.84-1.88-2.53-1.88h-1Z"/><path class="cls-2" d="M1132.88,644.67l-.9-3.42h-5.93l-.92,3.42h-5.42l6-18.31h6.58l6,18.31Zm-1.93-7.46-.78-3c-.19-.67-.41-1.53-.67-2.59s-.43-1.81-.52-2.27c-.07.43-.22,1.13-.44,2.1s-.71,2.89-1.47,5.75Z"/><path class="cls-2" d="M1157.61,644.67h-6.47l-6.66-12.85h-.11c.16,2,.24,3.56.24,4.63v8.22h-4.37V626.43h6.44l6.63,12.68h.08c-.12-1.84-.18-3.32-.18-4.43v-8.25h4.4Z"/></g></svg>