<?xml version="1.0" encoding="utf-8"?>
<!-- Generator: Adobe Illustrator 23.0.0, SVG Export Plug-In . SVG Version: 6.00 Build 0)  -->
<svg version="1.1" id="Layer_1" xmlns="http://www.w3.org/2000/svg" xmlns:xlink="http://www.w3.org/1999/xlink" x="0px" y="0px"
	 viewBox="0 0 1920 576" style="enable-background:new 0 0 1920 576;" xml:space="preserve">
<style type="text/css">
	.st0{opacity:0.2;fill:#FC7A00;enable-background:new    ;}
	.st1{fill:#FFFFFF;stroke:#FC7A00;stroke-width:6;stroke-linejoin:round;}
	.st2{fill:#3B3B3B;}
	.st3{enable-background:new    ;}
	.st4{fill:#FFFFFF;}
</style>
<title>Maps malaysia</title>
<image style="overflow:visible;enable-background:new    ;" width="3000" height="900" xlink:href="A9DD3C90AF5ED975.png"  transform="matrix(0.64 0 0 0.64 0 0)">
</image>
<g>
	
		<ellipse transform="matrix(0.1602 -0.9871 0.9871 0.1602 510.1344 1381.5911)" class="st0" cx="1067" cy="391" rx="55.7" ry="55.7"/>
	<ellipse transform="matrix(0.7071 -0.7071 0.7071 0.7071 36.0383 869.0042)" class="st0" cx="1067" cy="391" rx="78.3" ry="78.3"/>
	<circle class="st0" cx="1067" cy="391" r="87"/>
</g>
<circle id="marker-sepangar" class="st1" cx="1067" cy="391" r="12.1"/>
<g id="sepangar">
	<rect x="903" y="422.5" class="st2" width="341" height="43.9"/>
	<g class="st3">
		<path class="st4" d="M928.3,448.1c0,1.1-0.3,2.1-0.9,3s-1.4,1.6-2.5,2c-1.1,0.5-2.4,0.7-3.8,0.7c-1.2,0-2.2-0.1-3.1-0.3
			c-0.8-0.2-1.7-0.5-2.6-0.9v-4.4c0.9,0.5,1.9,0.9,2.9,1.1s1.9,0.4,2.8,0.4c0.7,0,1.3-0.1,1.6-0.4c0.3-0.3,0.5-0.6,0.5-1
			c0-0.2-0.1-0.5-0.2-0.7c-0.1-0.2-0.4-0.4-0.7-0.6s-1.1-0.6-2.4-1.2c-1.2-0.5-2.1-1.1-2.7-1.6c-0.6-0.5-1-1.1-1.3-1.7
			s-0.4-1.4-0.4-2.3c0-1.7,0.6-3,1.8-3.9c1.2-0.9,2.9-1.4,5-1.4c1.9,0,3.8,0.4,5.8,1.3l-1.5,3.8c-1.7-0.8-3.2-1.2-4.4-1.2
			c-0.6,0-1.1,0.1-1.4,0.3c-0.3,0.2-0.4,0.5-0.4,0.8c0,0.4,0.2,0.7,0.6,1c0.4,0.3,1.4,0.8,3,1.5c1.6,0.7,2.7,1.5,3.3,2.3
			C927.9,445.9,928.3,446.9,928.3,448.1z"/>
		<path class="st4" d="M941.9,453.7h-10.8v-18.2h10.8v4H936v2.9h5.5v4H936v3.4h5.9V453.7z"/>
		<path class="st4" d="M958.3,441.2c0,2-0.6,3.6-1.8,4.7c-1.2,1.1-2.9,1.7-5.1,1.7H950v6.1h-4.9v-18.2h6.3c2.3,0,4,0.5,5.2,1.5
			C957.8,437.9,958.3,439.4,958.3,441.2z M950,443.6h0.9c0.7,0,1.3-0.2,1.8-0.6c0.4-0.4,0.7-1,0.7-1.7c0-1.2-0.7-1.8-2-1.8H950
			V443.6z"/>
		<path class="st4" d="M972.4,453.7l-0.9-3.4h-5.9l-0.9,3.4h-5.4l6-18.3h6.6l6,18.3H972.4z M970.5,446.2l-0.8-3
			c-0.2-0.7-0.4-1.5-0.7-2.6c-0.3-1.1-0.4-1.8-0.5-2.3c-0.1,0.4-0.2,1.1-0.4,2.1s-0.7,2.9-1.5,5.8H970.5z"/>
		<path class="st4" d="M997.2,453.7h-6.5l-6.7-12.9h-0.1c0.2,2,0.2,3.6,0.2,4.6v8.2h-4.4v-18.2h6.4l6.6,12.7h0.1
			c-0.1-1.8-0.2-3.3-0.2-4.4v-8.2h4.4V453.7z"/>
		<path class="st4" d="M1008.5,443h7.9v9.8c-2.1,0.7-4.5,1.1-7.1,1.1c-2.8,0-5-0.8-6.5-2.4s-2.3-4-2.3-7c0-2.9,0.8-5.2,2.5-6.9
			s4-2.5,7.1-2.5c1.1,0,2.2,0.1,3.3,0.3c1,0.2,1.9,0.5,2.7,0.8l-1.6,3.9c-1.3-0.6-2.8-1-4.3-1c-1.4,0-2.6,0.5-3.3,1.4
			c-0.8,0.9-1.2,2.3-1.2,4c0,1.7,0.4,3,1.1,3.9c0.7,0.9,1.7,1.3,3.1,1.3c0.7,0,1.4-0.1,2-0.2v-2.9h-3.3V443z"/>
		<path class="st4" d="M1031.2,453.7l-0.9-3.4h-5.9l-0.9,3.4h-5.4l6-18.3h6.6l6,18.3H1031.2z M1029.3,446.2l-0.8-3
			c-0.2-0.7-0.4-1.5-0.7-2.6c-0.3-1.1-0.4-1.8-0.5-2.3c-0.1,0.4-0.2,1.1-0.4,2.1c-0.2,1-0.7,2.9-1.5,5.8H1029.3z"/>
		<path class="st4" d="M1043.5,447v6.6h-4.9v-18.2h6c5,0,7.4,1.8,7.4,5.4c0,2.1-1,3.7-3.1,4.9l5.3,8h-5.6l-3.9-6.6H1043.5z
			 M1043.5,443.3h0.9c1.7,0,2.6-0.8,2.6-2.3c0-1.3-0.8-1.9-2.5-1.9h-1V443.3z"/>
		<path class="st4" d="M1075.8,441.2c0,2-0.6,3.6-1.8,4.7c-1.2,1.1-2.9,1.7-5.1,1.7h-1.4v6.1h-4.9v-18.2h6.3c2.3,0,4,0.5,5.2,1.5
			S1075.8,439.4,1075.8,441.2z M1067.5,443.6h0.9c0.7,0,1.3-0.2,1.8-0.6c0.4-0.4,0.7-1,0.7-1.7c0-1.2-0.7-1.8-2-1.8h-1.3V443.6z"/>
		<path class="st4" d="M1095.8,444.5c0,3.1-0.8,5.4-2.3,7s-3.7,2.4-6.6,2.4c-2.9,0-5.1-0.8-6.6-2.4c-1.5-1.6-2.3-3.9-2.3-7
			c0-3,0.8-5.4,2.3-7s3.7-2.4,6.6-2.4c2.9,0,5.1,0.8,6.6,2.4C1095,439.1,1095.8,441.4,1095.8,444.5z M1083.2,444.5
			c0,3.5,1.2,5.3,3.7,5.3c1.2,0,2.2-0.4,2.8-1.3c0.6-0.9,0.9-2.2,0.9-4c0-1.8-0.3-3.2-0.9-4s-1.5-1.3-2.7-1.3
			C1084.4,439.2,1083.2,441,1083.2,444.5z"/>
		<path class="st4" d="M1104,447v6.6h-4.9v-18.2h6c5,0,7.4,1.8,7.4,5.4c0,2.1-1,3.7-3.1,4.9l5.3,8h-5.6l-3.9-6.6H1104z M1104,443.3
			h0.9c1.7,0,2.6-0.8,2.6-2.3c0-1.3-0.8-1.9-2.5-1.9h-1V443.3z"/>
		<path class="st4" d="M1124.4,453.7h-4.9v-14.2h-4.5v-4h13.8v4h-4.4V453.7z"/>
		<path class="st4" d="M1135.7,449.9l0.2,0.3c-0.8,3.2-1.5,5.5-2.2,7h-3.5c0.2-1.1,0.5-2.4,0.7-3.9c0.2-1.4,0.4-2.6,0.5-3.4H1135.7z
			"/>
		<path class="st4" d="M1157.9,448.1c0,1.1-0.3,2.1-0.9,3s-1.4,1.6-2.5,2s-2.4,0.7-3.8,0.7c-1.2,0-2.2-0.1-3.1-0.3
			c-0.8-0.2-1.7-0.5-2.6-0.9v-4.4c0.9,0.5,1.9,0.9,2.9,1.1c1,0.3,1.9,0.4,2.8,0.4c0.7,0,1.3-0.1,1.6-0.4c0.3-0.3,0.5-0.6,0.5-1
			c0-0.2-0.1-0.5-0.2-0.7c-0.1-0.2-0.4-0.4-0.7-0.6s-1.1-0.6-2.4-1.2c-1.2-0.5-2.1-1.1-2.7-1.6c-0.6-0.5-1-1.1-1.3-1.7
			s-0.4-1.4-0.4-2.3c0-1.7,0.6-3,1.8-3.9c1.2-0.9,2.9-1.4,5-1.4c1.9,0,3.8,0.4,5.8,1.3l-1.5,3.8c-1.7-0.8-3.2-1.2-4.4-1.2
			c-0.6,0-1.1,0.1-1.4,0.3s-0.4,0.5-0.4,0.8c0,0.4,0.2,0.7,0.6,1c0.4,0.3,1.4,0.8,3,1.5c1.6,0.7,2.7,1.5,3.3,2.3
			S1157.9,446.9,1157.9,448.1z"/>
		<path class="st4" d="M1171.9,453.7l-0.9-3.4h-5.9l-0.9,3.4h-5.4l6-18.3h6.6l6,18.3H1171.9z M1170,446.2l-0.8-3
			c-0.2-0.7-0.4-1.5-0.7-2.6c-0.3-1.1-0.4-1.8-0.5-2.3c-0.1,0.4-0.2,1.1-0.4,2.1s-0.7,2.9-1.5,5.8H1170z"/>
		<path class="st4" d="M1179.3,435.4h6.4c2.5,0,4.3,0.4,5.5,1.1c1.2,0.7,1.8,1.9,1.8,3.4c0,1-0.3,1.9-0.8,2.6
			c-0.5,0.7-1.2,1.2-2.1,1.4v0.1c1.1,0.3,2,0.8,2.5,1.5s0.8,1.6,0.8,2.7c0,1.7-0.6,3-1.9,3.9c-1.2,1-2.9,1.4-5.1,1.4h-7.1V435.4z
			 M1184.2,442.4h1.5c0.7,0,1.3-0.1,1.6-0.4s0.6-0.7,0.6-1.3c0-1-0.8-1.5-2.3-1.5h-1.4V442.4z M1184.2,446v3.8h1.7
			c1.5,0,2.3-0.6,2.3-1.9c0-0.6-0.2-1.1-0.6-1.4c-0.4-0.3-1-0.5-1.8-0.5H1184.2z"/>
		<path class="st4" d="M1207.7,453.7l-0.9-3.4h-5.9l-0.9,3.4h-5.4l6-18.3h6.6l6,18.3H1207.7z M1205.8,446.2l-0.8-3
			c-0.2-0.7-0.4-1.5-0.7-2.6c-0.3-1.1-0.4-1.8-0.5-2.3c-0.1,0.4-0.2,1.1-0.4,2.1c-0.2,1-0.7,2.9-1.5,5.8H1205.8z"/>
		<path class="st4" d="M1230.7,453.7h-5v-7.4h-5.7v7.4h-5v-18.2h5v6.8h5.7v-6.8h5V453.7z"/>
	</g>
</g>
</svg>
