<?xml version="1.0" encoding="utf-8"?>
<!-- Generator: Adobe Illustrator 23.0.0, SVG Export Plug-In . SVG Version: 6.00 Build 0)  -->
<svg version="1.1" id="Layer_1" xmlns="http://www.w3.org/2000/svg" xmlns:xlink="http://www.w3.org/1999/xlink" x="0px" y="0px"
	 viewBox="0 0 1920 576" style="enable-background:new 0 0 1920 576;" xml:space="preserve">
<style type="text/css">
	.st0{opacity:0.2;fill:#FC7A00;enable-background:new    ;}
	.st1{fill:#FFFFFF;stroke:#FC7A00;stroke-width:6;stroke-linejoin:round;}
	.st2{fill:#3B3B3B;}
	.st3{enable-background:new    ;}
	.st4{fill:#FFFFFF;}
</style>
<title>Maps malaysia</title>
<image style="overflow:visible;enable-background:new    ;" width="3000" height="900" xlink:href="A9CC66773B4230E3.png"  transform="matrix(0.64 0 0 0.64 0 0)">
</image>
<g>
	<circle class="st0" cx="917" cy="263" r="55.7"/>
	<circle class="st0" cx="917" cy="263" r="78.3"/>
	<circle class="st0" cx="917" cy="263" r="87"/>
</g>
<circle id="marker-police" class="st1" cx="917" cy="263" r="12.1"/>
<g id="kedahpolice">
	<rect x="662" y="292.5" class="st2" width="513" height="43.9"/>
	<g class="st3">
		<path class="st4" d="M693.8,323.7h-5.6l-3.6-7l-1.5,0.9v6.1h-5v-18.2h5v7.9c0.2-0.5,0.8-1.3,1.5-2.3l3.8-5.6h5.4l-5.8,8.2
			L693.8,323.7z"/>
		<path class="st4" d="M706.6,323.7h-10.8v-18.2h10.8v4h-5.9v2.9h5.5v4h-5.5v3.4h5.9V323.7z"/>
		<path class="st4" d="M725.3,314.2c0,3-0.8,5.4-2.5,7s-4,2.5-7.1,2.5h-5.9v-18.2h6.3c2.9,0,5.2,0.7,6.8,2.2
			C724.5,309.2,725.3,311.3,725.3,314.2z M720.2,314.3c0-1.7-0.3-2.9-1-3.7c-0.7-0.8-1.7-1.2-3-1.2h-1.4v10.2h1.1
			c1.5,0,2.6-0.4,3.3-1.3C719.9,317.5,720.2,316.1,720.2,314.3z"/>
		<path class="st4" d="M739.8,323.7l-0.9-3.4H733l-0.9,3.4h-5.4l6-18.3h6.6l6,18.3H739.8z M737.9,316.2l-0.8-3
			c-0.2-0.7-0.4-1.5-0.7-2.6c-0.3-1.1-0.4-1.8-0.5-2.3c-0.1,0.4-0.2,1.1-0.4,2.1s-0.7,2.9-1.5,5.8H737.9z"/>
		<path class="st4" d="M762.8,323.7h-5v-7.4h-5.7v7.4h-5v-18.2h5v6.8h5.7v-6.8h5V323.7z"/>
		<path class="st4" d="M785.3,318.1c0,1.1-0.3,2.1-0.9,3s-1.4,1.6-2.5,2c-1.1,0.5-2.4,0.7-3.8,0.7c-1.2,0-2.2-0.1-3.1-0.3
			c-0.8-0.2-1.7-0.5-2.6-0.9v-4.4c0.9,0.5,1.9,0.9,2.9,1.1c1,0.3,1.9,0.4,2.8,0.4c0.7,0,1.3-0.1,1.6-0.4c0.3-0.3,0.5-0.6,0.5-1
			c0-0.2-0.1-0.5-0.2-0.7c-0.1-0.2-0.4-0.4-0.7-0.6s-1.1-0.6-2.4-1.2c-1.2-0.5-2.1-1.1-2.7-1.6c-0.6-0.5-1-1.1-1.3-1.7
			s-0.4-1.4-0.4-2.3c0-1.7,0.6-3,1.8-3.9c1.2-0.9,2.9-1.4,5-1.4c1.9,0,3.8,0.4,5.8,1.3l-1.5,3.8c-1.7-0.8-3.2-1.2-4.4-1.2
			c-0.6,0-1.1,0.1-1.4,0.3c-0.3,0.2-0.4,0.5-0.4,0.8c0,0.4,0.2,0.7,0.6,1c0.4,0.3,1.4,0.8,3,1.5c1.6,0.7,2.7,1.5,3.3,2.3
			C785,315.9,785.3,316.9,785.3,318.1z"/>
		<path class="st4" d="M796.2,323.7h-4.9v-14.2h-4.5v-4h13.8v4h-4.4V323.7z"/>
		<path class="st4" d="M814.4,323.7l-0.9-3.4h-5.9l-0.9,3.4h-5.4l6-18.3h6.6l6,18.3H814.4z M812.5,316.2l-0.8-3
			c-0.2-0.7-0.4-1.5-0.7-2.6c-0.3-1.1-0.4-1.8-0.5-2.3c-0.1,0.4-0.2,1.1-0.4,2.1c-0.2,1-0.7,2.9-1.5,5.8H812.5z"/>
		<path class="st4" d="M829.8,323.7h-4.9v-14.2h-4.5v-4h13.8v4h-4.4V323.7z"/>
		<path class="st4" d="M847.7,323.7h-10.8v-18.2h10.8v4h-5.9v2.9h5.5v4h-5.5v3.4h5.9V323.7z"/>
		<path class="st4" d="M870.8,311.2c0,2-0.6,3.6-1.8,4.7c-1.2,1.1-2.9,1.7-5.1,1.7h-1.4v6.1h-4.9v-18.2h6.3c2.3,0,4,0.5,5.2,1.5
			S870.8,309.4,870.8,311.2z M862.5,313.6h0.9c0.7,0,1.3-0.2,1.8-0.6c0.4-0.4,0.7-1,0.7-1.7c0-1.2-0.7-1.8-2-1.8h-1.3V313.6z"/>
		<path class="st4" d="M890.8,314.5c0,3.1-0.8,5.4-2.3,7s-3.7,2.4-6.6,2.4c-2.9,0-5.1-0.8-6.6-2.4c-1.5-1.6-2.3-3.9-2.3-7
			c0-3,0.8-5.4,2.3-7c1.5-1.6,3.7-2.4,6.6-2.4c2.9,0,5.1,0.8,6.6,2.4C890,309.1,890.8,311.4,890.8,314.5z M878.2,314.5
			c0,3.5,1.2,5.3,3.7,5.3c1.2,0,2.2-0.4,2.8-1.3c0.6-0.9,0.9-2.2,0.9-4c0-1.8-0.3-3.2-0.9-4c-0.6-0.9-1.5-1.3-2.7-1.3
			C879.5,309.2,878.2,311,878.2,314.5z"/>
		<path class="st4" d="M894.1,323.7v-18.2h4.9v14.3h7v4H894.1z"/>
		<path class="st4" d="M909,323.7v-18.2h5v18.2H909z"/>
		<path class="st4" d="M926,309.2c-1.2,0-2.1,0.5-2.7,1.4s-1,2.3-1,4c0,3.5,1.3,5.3,4,5.3c0.8,0,1.6-0.1,2.3-0.3s1.5-0.5,2.3-0.8
			v4.2c-1.5,0.7-3.2,1-5.2,1c-2.8,0-4.9-0.8-6.3-2.4s-2.2-3.9-2.2-6.9c0-1.9,0.4-3.5,1.1-5c0.7-1.4,1.7-2.5,3.1-3.3
			c1.3-0.8,2.9-1.2,4.7-1.2c2,0,3.9,0.4,5.7,1.3l-1.5,3.9c-0.7-0.3-1.3-0.6-2-0.8C927.5,309.3,926.8,309.2,926,309.2z"/>
		<path class="st4" d="M945.3,323.7h-10.8v-18.2h10.8v4h-5.9v2.9h5.5v4h-5.5v3.4h5.9V323.7z"/>
		<path class="st4" d="M970.7,323.7h-5v-7.4h-5.7v7.4h-5v-18.2h5v6.8h5.7v-6.8h5V323.7z"/>
		<path class="st4" d="M985.5,323.7h-10.8v-18.2h10.8v4h-5.9v2.9h5.5v4h-5.5v3.4h5.9V323.7z"/>
		<path class="st4" d="M999.9,323.7l-0.9-3.4h-5.9l-0.9,3.4h-5.4l6-18.3h6.6l6,18.3H999.9z M998,316.2l-0.8-3
			c-0.2-0.7-0.4-1.5-0.7-2.6c-0.3-1.1-0.4-1.8-0.5-2.3c-0.1,0.4-0.2,1.1-0.4,2.1c-0.2,1-0.7,2.9-1.5,5.8H998z"/>
		<path class="st4" d="M1022.8,314.2c0,3-0.8,5.4-2.5,7s-4,2.5-7.1,2.5h-5.9v-18.2h6.3c2.9,0,5.2,0.7,6.8,2.2
			C1022,309.2,1022.8,311.3,1022.8,314.2z M1017.6,314.3c0-1.7-0.3-2.9-1-3.7c-0.7-0.8-1.7-1.2-3-1.2h-1.4v10.2h1.1
			c1.5,0,2.6-0.4,3.3-1.3C1017.3,317.5,1017.6,316.1,1017.6,314.3z"/>
		<path class="st4" d="M1043.1,314.5c0,4.1-1.3,6.9-3.9,8.4l4.5,5.1h-6.1l-3.2-4.1l0,0v0l0,0c-2.9,0-5.1-0.8-6.6-2.4
			c-1.5-1.6-2.3-3.9-2.3-7c0-3,0.8-5.4,2.3-7c1.5-1.6,3.7-2.4,6.6-2.4c2.9,0,5.1,0.8,6.6,2.4
			C1042.4,309.1,1043.1,311.4,1043.1,314.5z M1030.6,314.5c0,3.5,1.2,5.3,3.7,5.3c1.2,0,2.2-0.4,2.8-1.3c0.6-0.9,0.9-2.2,0.9-4
			c0-1.8-0.3-3.2-0.9-4c-0.6-0.9-1.5-1.3-2.7-1.3C1031.8,309.2,1030.6,311,1030.6,314.5z"/>
		<path class="st4" d="M1061.9,305.4v11c0,2.4-0.7,4.2-2,5.5c-1.4,1.3-3.3,2-5.8,2c-2.5,0-4.4-0.6-5.7-1.9c-1.3-1.3-2-3.1-2-5.5
			v-11.1h5v10.7c0,1.3,0.2,2.2,0.7,2.8c0.5,0.6,1.2,0.9,2.1,0.9c1,0,1.7-0.3,2.2-0.9c0.5-0.6,0.7-1.5,0.7-2.8v-10.7H1061.9z"/>
		<path class="st4" d="M1076.9,323.7l-0.9-3.4h-5.9l-0.9,3.4h-5.4l6-18.3h6.6l6,18.3H1076.9z M1075,316.2l-0.8-3
			c-0.2-0.7-0.4-1.5-0.7-2.6c-0.3-1.1-0.4-1.8-0.5-2.3c-0.1,0.4-0.2,1.1-0.4,2.1c-0.2,1-0.7,2.9-1.5,5.8H1075z"/>
		<path class="st4" d="M1089.2,317v6.6h-4.9v-18.2h6c5,0,7.4,1.8,7.4,5.4c0,2.1-1,3.7-3.1,4.9l5.3,8h-5.6l-3.9-6.6H1089.2z
			 M1089.2,313.3h0.9c1.7,0,2.6-0.8,2.6-2.3c0-1.3-0.8-1.9-2.5-1.9h-1V313.3z"/>
		<path class="st4" d="M1109.7,323.7h-4.9v-14.2h-4.5v-4h13.8v4h-4.4V323.7z"/>
		<path class="st4" d="M1127.5,323.7h-10.8v-18.2h10.8v4h-5.9v2.9h5.5v4h-5.5v3.4h5.9V323.7z"/>
		<path class="st4" d="M1135.7,317v6.6h-4.9v-18.2h6c5,0,7.4,1.8,7.4,5.4c0,2.1-1,3.7-3.1,4.9l5.3,8h-5.6l-3.9-6.6H1135.7z
			 M1135.7,313.3h0.9c1.7,0,2.6-0.8,2.6-2.3c0-1.3-0.8-1.9-2.5-1.9h-1V313.3z"/>
		<path class="st4" d="M1160,318.1c0,1.1-0.3,2.1-0.9,3s-1.4,1.6-2.5,2c-1.1,0.5-2.4,0.7-3.8,0.7c-1.2,0-2.2-0.1-3.1-0.3
			c-0.8-0.2-1.7-0.5-2.6-0.9v-4.4c0.9,0.5,1.9,0.9,2.9,1.1c1,0.3,1.9,0.4,2.8,0.4c0.7,0,1.3-0.1,1.6-0.4c0.3-0.3,0.5-0.6,0.5-1
			c0-0.2-0.1-0.5-0.2-0.7c-0.1-0.2-0.4-0.4-0.7-0.6s-1.1-0.6-2.4-1.2c-1.2-0.5-2.1-1.1-2.7-1.6c-0.6-0.5-1-1.1-1.3-1.7
			s-0.4-1.4-0.4-2.3c0-1.7,0.6-3,1.8-3.9c1.2-0.9,2.9-1.4,5-1.4c1.9,0,3.8,0.4,5.8,1.3l-1.5,3.8c-1.7-0.8-3.2-1.2-4.4-1.2
			c-0.6,0-1.1,0.1-1.4,0.3c-0.3,0.2-0.4,0.5-0.4,0.8c0,0.4,0.2,0.7,0.6,1c0.4,0.3,1.4,0.8,3,1.5c1.6,0.7,2.7,1.5,3.3,2.3
			C1159.7,315.9,1160,316.9,1160,318.1z"/>
	</g>
</g>
</svg>
