<?xml version="1.0" encoding="utf-8"?>
<!-- Generator: Adobe Illustrator 23.0.0, SVG Export Plug-In . SVG Version: 6.00 Build 0)  -->
<svg version="1.1" id="Layer_1" xmlns="http://www.w3.org/2000/svg" xmlns:xlink="http://www.w3.org/1999/xlink" x="0px" y="0px"
	 viewBox="0 0 1920 576" style="enable-background:new 0 0 1920 576;" xml:space="preserve">
<style type="text/css">
	.st0{fill:none;stroke:#FC7A00;stroke-width:4;stroke-linejoin:round;}
	.st1{opacity:0.2;fill:#FC7A00;enable-background:new    ;}
	.st2{fill:#FFFFFF;stroke:#FC7A00;stroke-width:6;stroke-linejoin:round;}
	.st3{fill:#3B3B3B;}
	.st4{enable-background:new    ;}
	.st5{fill:#FFFFFF;}
</style>
<title>Maps malaysia</title>
<image style="overflow:visible;enable-background:new    ;" width="3014" height="905" xlink:href="A9AABA445308DFBA.png"  transform="matrix(0.6365 0 0 0.6365 0.8486 -0.28)">
</image>
<path id="thaiborder-bukit_1_" class="st0" d="M1920,536.5l-6.8,2.6l-15.4,1.7l-5.1,2.6h-11.1l-5.1-3.4l-8.5,8.5l-7.7-6l-3.4,3.4
	l-25.6,21.3l-9.4,11.1h-28.2l-3.4-6l-2.6-4.3h-9.4l-9.4-1.7l-2.6-3.4l-1.7-3.4l-2.6-4.3h-6l-7.7-2.6v-6.8c1-0.8,2.2-1.4,3.4-1.7
	c2-0.7,4-1.6,6-2.6l3.4-6.8l5.1-5.1V522l4.3-6l-0.9-13.7h-25.6l-7.7,4.3l-9.4-0.9l-12-0.9l-10.1,1.7l-14.5-4.3l-6,3.4h-10.2l-6-3.4
	l-12,5.1l-2.6-3.4l-12.8-5.1h-6l-12-4.3h-12.8l-6.8-5.1h-4.3l-10.2-11.1v-19.6l-5.1-2.6l-6-3.4l-14.5-11.1l-3.4-5.1v-6.8l-5.1-5.1
	l-6.8,2.6h-5.1l-5.1-2.6l-3.4,10.2l-2.6,7.7l-6.8,0.9l-4.3-6l-3.4-3.4l-2.6-3.4l-2.6-6l-5.1-5.1l-2.6-9.4l-13.7-6l-4.3-5.1l-5.1-5.1
	l-6.8-3.4h-12l-6.8-1.7l-2.6-6h-3.4l-5.1,5.1l-8.5,0.9l-6.8,3.4l-6.8-2.6l-16.2-9.4h-4.1l-7.7-2.6l-9.4-6.8h-12.8l-6-5.1h-5.1
	l-4.3-1.7l-2.6-8.5l-3.4-4.3l-2.6-8.5l-4.3-5.1l-6.8-1.7l-3.4-2.6l-6-8.5l-3.4-1.7l-9.4-4.3V312l-4.3-5.1l-3.3-11.9l-5.1-5.1l-6-1.7
	l-5.1,3.4l-5.1,6.8l-3.4,5.1l-5.1,0.9l-12,6l-8.5-0.9l-11.1,3.4l-2.6,6.8l-2.6,6l-6,3.4l-3.4,9.4v6.8l-3.4,6l-9.4,1.7l-6-3.4v-4.3
	l-3.4-2.6l-5.1-3.4l-2.6-6l-5.1-6.8l-6.8-9.4h-3.4l-7.7,11.1l-6.8,5.1l-3.4,0.9l-3.4-0.9l-2.6,6.8l-8.5,0.9l-6-5.1l-6.8-8.5
	l-6.8-1.7l-6-2.6l-5.1,5.1c-1.2,0.1-2.3,0.4-3.4,0.9c-2.6,0.9-6,1.7-6,1.7l-11.1,1.7l-5.1,1.7c0,0-7.7,3.4-8.5,1.7s-2.6-5.1-1.7-6
	s0-3.4,0-3.4l-4.3-6l-4.3,0.9l-4.3,3.4c0,0-4.3,4.3-5.1,3.4s-14.5,1.7-14.5,1.7l-5.1-6.8l-6-8.5l-3.4-6l-3.4-5.1l-9.4,2.6l-3.4-2.6
	l-7.7-5.1l-10.2-6.8l-2.6-7.7l-1.7-6.8l-2.6-11.9l-4-2.6h-4.3l-6.8,10.2h-3.4l-7.7-0.9l-10.2-2.6l-12-11.9l-1.7-5.1v-5.1l-6.8-5.1
	l-8.5-6c-1.9-1.5-3.9-3-6-4.3c-1.7-0.9-6-6.8-6-6.8v-3.4l-6-3.4l-6.8-20.5v-26.4l11.1-2.6l6-5.1l1.7-4.3v-6l-3.4-13.6l-6.8-1.6
	l-10.2-4.3l-13.7-8.5l-6-4.3l-3.4,2.6v6.8l-4.3,4.3l-11.1,4.3c-1.6,1.5-4,1.9-6,0.9c-3.4-1.7-5.1-0.9-6-2.6s-6.8-4.3-6.8-4.3
	l-3.4-1.7l-2.4,3.4v6l-4.3-0.9l-5.1-2.6h-5.1l-6.8-3.4c0,0,1.7,2.6,0,3.4s-8.5-1.7-8.5-1.7v4.3l-4.3-1.7l-4.3,2.6l-6,1.7l-5.1,11.1
	h-11.1l-9.4-0.9l-5.1-5.1v-6l2.6-4.3l-2.6-7.7h-8.5l-9.4-0.9l-4.3-2.6l-6,2.6l-3.4-7.7l-1.7-3.4l-1.7-3.4l-3.4-5.1l-1.7-8.5v-7.7
	h-14.5l-5.1-3.4l-2.6,3.4v6.8l-4.3,7.7h-7.7v6.8l-3.4,5.1l-5.1-1.7l-7.7,0.8l-2.6,3.4l-6.8-0.9l-6-3.4l-1.7,5.1l-5.1-2.6l-7.7,1.7
	l-6-9.4l-4.3,4.3l-5.1-2.6l-3.4,6l-3.4,1.7l-6.8-1.7l-2.5-5.1l-5.1,1.7c0,0,2.6,4.3,0,5.1s-11.1,9.4-11.1,9.4l-12,1.7l-5.1,6.8h-6.8
	l-2.6,4.3l-5.1-1.7l-6-3.4v-5.1l-6,6l-7.7,1.7l-5.1,11.9l-1.7,3.4l-6.8-0.9l-1.7,7.7l-3.4,2.6l-4.3,1.7L524,173l-4.3-4.3
	c0,0-6.8,0.9-7.7,0s-9.4-0.9-9.4-0.9V161l-12.8,1.7v-3.4l-7.7-11.1l1.7-11.1H471l-6.8,2.6h-5.1l-3.4,3.4l-5.1-7.7l-1.7-6.8
	l-11.9-11.1l1.7-10.2l-7.7,0.8l-7.7-6.8l-9.4,2.6l-6-6l-5.1-8.5l3.4-6l4.3-6l-4.3-4.3l-0.9-9.4l-4.3,5.1l-15.4,6.8l-3.4,2.6h-6
	l-7.7-0.9l-9.4,0.9l-3.4-3.4l-12,0.9l-1.7-4.3H332l-7.7,0.8l-1.7-5.1L320,53.5l-5.1-4.3l-7.7,2.6l-4.3,2.6l-5.1-8.5l2.6-4.3l-6-1.7
	l-5.1-6.8h-17.1l-4.2-2.6l-3.5-3.4l-3.4,2.6l-3.4-5.1h-6.8l-3.4-8.5h-7.7l-4.3,6l-5.1,4.3V33l-6-0.8v3.4l-6,14.5l-4.3-0.9l-12.8-5.1
	l-4.3-14.5l-3.4-2.6v-3.4l-4.3-7.7H186l-3.4,1.7l-9.4-5.1l2.6-6l-9.4-6.8"/>
<g>
	<circle class="st1" cx="521" cy="268" r="55.7"/>
	<circle class="st1" cx="521" cy="268" r="78.3"/>
	<circle class="st1" cx="521" cy="268" r="87"/>
</g>
<circle id="marker-bukit" class="st2" cx="521" cy="268" r="12.1"/>
<g id="bukitkayuhitam">
	<rect x="327" y="193.6" class="st3" width="391" height="43.9"/>
	<g class="st4">
		<path class="st5" d="M347.6,206.4h6.4c2.5,0,4.3,0.4,5.5,1.1c1.2,0.7,1.8,1.9,1.8,3.4c0,1-0.3,1.9-0.8,2.6
			c-0.5,0.7-1.2,1.2-2.1,1.4v0.1c1.1,0.3,2,0.8,2.5,1.5c0.5,0.7,0.8,1.6,0.8,2.7c0,1.7-0.6,3-1.9,3.9c-1.2,1-2.9,1.4-5.1,1.4h-7.1
			V206.4z M352.6,213.4h1.5c0.7,0,1.3-0.1,1.6-0.4c0.4-0.3,0.6-0.7,0.6-1.3c0-1-0.8-1.5-2.3-1.5h-1.4V213.4z M352.6,217v3.8h1.7
			c1.5,0,2.3-0.6,2.3-1.9c0-0.6-0.2-1.1-0.6-1.4c-0.4-0.3-1-0.5-1.8-0.5H352.6z"/>
		<path class="st5" d="M380.4,206.4v11c0,2.4-0.7,4.2-2,5.5s-3.3,2-5.8,2c-2.5,0-4.4-0.6-5.7-1.9c-1.3-1.3-2-3.1-2-5.5v-11.1h5v10.7
			c0,1.3,0.2,2.2,0.7,2.8c0.5,0.6,1.2,0.9,2.1,0.9c1,0,1.7-0.3,2.2-0.9s0.7-1.5,0.7-2.8v-10.7H380.4z"/>
		<path class="st5" d="M399.8,224.7h-5.6l-3.6-7l-1.5,0.9v6.1h-5v-18.2h5v7.9c0.2-0.5,0.8-1.3,1.5-2.3l3.8-5.6h5.4l-5.8,8.2
			L399.8,224.7z"/>
		<path class="st5" d="M401.8,224.7v-18.2h5v18.2H401.8z"/>
		<path class="st5" d="M418.7,224.7h-4.9v-14.2h-4.5v-4h13.8v4h-4.4V224.7z"/>
		<path class="st5" d="M448,224.7h-5.6l-3.6-7l-1.5,0.9v6.1h-5v-18.2h5v7.9c0.2-0.5,0.8-1.3,1.5-2.3l3.8-5.6h5.4l-5.8,8.2L448,224.7
			z"/>
		<path class="st5" d="M461.2,224.7l-0.9-3.4h-5.9l-0.9,3.4H448l6-18.3h6.6l6,18.3H461.2z M459.2,217.2l-0.8-3
			c-0.2-0.7-0.4-1.5-0.7-2.6s-0.4-1.8-0.5-2.3c-0.1,0.4-0.2,1.1-0.4,2.1c-0.2,1-0.7,2.9-1.5,5.8H459.2z"/>
		<path class="st5" d="M475,213.2l3.1-6.8h5.3l-6,11.1v7.1h-5v-7l-6-11.3h5.4L475,213.2z"/>
		<path class="st5" d="M501,206.4v11c0,2.4-0.7,4.2-2,5.5s-3.3,2-5.8,2c-2.5,0-4.4-0.6-5.7-1.9c-1.3-1.3-2-3.1-2-5.5v-11.1h5v10.7
			c0,1.3,0.2,2.2,0.7,2.8c0.5,0.6,1.2,0.9,2.1,0.9c1,0,1.7-0.3,2.2-0.9s0.7-1.5,0.7-2.8v-10.7H501z"/>
		<path class="st5" d="M527.1,224.7h-5v-7.4h-5.7v7.4h-5v-18.2h5v6.8h5.7v-6.8h5V224.7z"/>
		<path class="st5" d="M531.1,224.7v-18.2h5v18.2H531.1z"/>
		<path class="st5" d="M548,224.7h-4.9v-14.2h-4.5v-4h13.8v4H548V224.7z"/>
		<path class="st5" d="M566.3,224.7l-0.9-3.4h-5.9l-0.9,3.4h-5.4l6-18.3h6.6l6,18.3H566.3z M564.3,217.2l-0.8-3
			c-0.2-0.7-0.4-1.5-0.7-2.6s-0.4-1.8-0.5-2.3c-0.1,0.4-0.2,1.1-0.4,2.1c-0.2,1-0.7,2.9-1.5,5.8H564.3z"/>
		<path class="st5" d="M581.6,224.7l-3.7-13.1h-0.1c0.2,2.2,0.3,4,0.3,5.2v7.9h-4.4v-18.2h6.6l3.8,13h0.1l3.7-13h6.6v18.2h-4.5v-8
			c0-0.4,0-0.9,0-1.4c0-0.5,0.1-1.8,0.2-3.7H590l-3.7,13.1H581.6z"/>
		<path class="st5" d="M602.6,220.9l0.2,0.3c-0.8,3.2-1.5,5.5-2.2,7h-3.5c0.2-1.1,0.5-2.4,0.7-3.9s0.4-2.6,0.5-3.4H602.6z"/>
		<path class="st5" d="M628.5,224.7h-5.6l-3.6-7l-1.5,0.9v6.1h-5v-18.2h5v7.9c0.2-0.5,0.8-1.3,1.5-2.3l3.8-5.6h5.4l-5.8,8.2
			L628.5,224.7z"/>
		<path class="st5" d="M641.3,224.7h-10.8v-18.2h10.8v4h-5.9v2.9h5.5v4h-5.5v3.4h5.9V224.7z"/>
		<path class="st5" d="M660,215.2c0,3-0.8,5.4-2.5,7s-4,2.5-7.1,2.5h-5.9v-18.2h6.3c2.9,0,5.2,0.7,6.8,2.2
			C659.2,210.2,660,212.3,660,215.2z M654.8,215.3c0-1.7-0.3-2.9-1-3.7c-0.7-0.8-1.7-1.2-3-1.2h-1.4v10.2h1.1c1.5,0,2.6-0.4,3.3-1.3
			C654.5,218.5,654.8,217.1,654.8,215.3z"/>
		<path class="st5" d="M674.4,224.7l-0.9-3.4h-5.9l-0.9,3.4h-5.4l6-18.3h6.6l6,18.3H674.4z M672.5,217.2l-0.8-3
			c-0.2-0.7-0.4-1.5-0.7-2.6s-0.4-1.8-0.5-2.3c-0.1,0.4-0.2,1.1-0.4,2.1c-0.2,1-0.7,2.9-1.5,5.8H672.5z"/>
		<path class="st5" d="M697.4,224.7h-5v-7.4h-5.7v7.4h-5v-18.2h5v6.8h5.7v-6.8h5V224.7z"/>
	</g>
</g>
<g id="thaiborder">
	<rect x="1091.3" y="209.6" class="st3" width="204" height="43.9"/>
	<g class="st4">
		<path class="st5" d="M1116.3,240.7h-4.9v-14.2h-4.5v-4h13.8v4h-4.4V240.7z"/>
		<path class="st5" d="M1139,240.7h-5v-7.4h-5.7v7.4h-5v-18.2h5v6.8h5.7v-6.8h5V240.7z"/>
		<path class="st5" d="M1154.2,240.7l-0.9-3.4h-5.9l-0.9,3.4h-5.4l6-18.3h6.6l6,18.3H1154.2z M1152.2,233.2l-0.8-3
			c-0.2-0.7-0.4-1.5-0.7-2.6s-0.4-1.8-0.5-2.3c-0.1,0.4-0.2,1.1-0.4,2.1c-0.2,1-0.7,2.9-1.5,5.8H1152.2z"/>
		<path class="st5" d="M1161.5,240.7v-18.2h5v18.2H1161.5z"/>
		<path class="st5" d="M1177.1,222.4h6.4c2.5,0,4.3,0.4,5.5,1.1c1.2,0.7,1.8,1.9,1.8,3.4c0,1-0.3,1.9-0.8,2.6
			c-0.5,0.7-1.2,1.2-2.1,1.4v0.1c1.1,0.3,2,0.8,2.5,1.5s0.8,1.6,0.8,2.7c0,1.7-0.6,3-1.9,3.9c-1.2,1-2.9,1.4-5.1,1.4h-7.1V222.4z
			 M1182,229.4h1.5c0.7,0,1.3-0.1,1.6-0.4c0.4-0.3,0.6-0.7,0.6-1.3c0-1-0.8-1.5-2.3-1.5h-1.4V229.4z M1182,233v3.8h1.7
			c1.5,0,2.3-0.6,2.3-1.9c0-0.6-0.2-1.1-0.6-1.4c-0.4-0.3-1-0.5-1.8-0.5H1182z"/>
		<path class="st5" d="M1211.4,231.5c0,3.1-0.8,5.4-2.3,7s-3.7,2.4-6.6,2.4c-2.9,0-5.1-0.8-6.6-2.4c-1.5-1.6-2.3-3.9-2.3-7
			c0-3,0.8-5.4,2.3-7c1.5-1.6,3.7-2.4,6.6-2.4c2.9,0,5.1,0.8,6.6,2.4C1210.6,226.1,1211.4,228.4,1211.4,231.5z M1198.8,231.5
			c0,3.5,1.2,5.3,3.7,5.3c1.2,0,2.2-0.4,2.8-1.3c0.6-0.9,0.9-2.2,0.9-4c0-1.8-0.3-3.2-0.9-4c-0.6-0.9-1.5-1.3-2.7-1.3
			C1200,226.2,1198.8,228,1198.8,231.5z"/>
		<path class="st5" d="M1219.6,234v6.6h-4.9v-18.2h6c5,0,7.4,1.8,7.4,5.4c0,2.1-1,3.7-3.1,4.9l5.3,8h-5.6l-3.9-6.6H1219.6z
			 M1219.6,230.3h0.9c1.7,0,2.6-0.8,2.6-2.3c0-1.3-0.8-1.9-2.5-1.9h-1V230.3z"/>
		<path class="st5" d="M1247.4,231.2c0,3-0.8,5.4-2.5,7c-1.7,1.6-4,2.5-7.1,2.5h-5.9v-18.2h6.3c2.9,0,5.2,0.7,6.8,2.2
			S1247.4,228.3,1247.4,231.2z M1242.3,231.3c0-1.7-0.3-2.9-1-3.7c-0.7-0.8-1.7-1.2-3-1.2h-1.4v10.2h1.1c1.5,0,2.6-0.4,3.3-1.3
			S1242.3,233.1,1242.3,231.3z"/>
		<path class="st5" d="M1261.5,240.7h-10.8v-18.2h10.8v4h-5.9v2.9h5.5v4h-5.5v3.4h5.9V240.7z"/>
		<path class="st5" d="M1269.7,234v6.6h-4.9v-18.2h6c5,0,7.4,1.8,7.4,5.4c0,2.1-1,3.7-3.1,4.9l5.3,8h-5.6l-3.9-6.6H1269.7z
			 M1269.7,230.3h0.9c1.7,0,2.6-0.8,2.6-2.3c0-1.3-0.8-1.9-2.5-1.9h-1V230.3z"/>
	</g>
</g>
</svg>
