<?xml version="1.0" encoding="utf-8"?>
<!-- Generator: Adobe Illustrator 23.0.0, SVG Export Plug-In . SVG Version: 6.00 Build 0)  -->
<svg version="1.1" id="Layer_1" xmlns="http://www.w3.org/2000/svg" xmlns:xlink="http://www.w3.org/1999/xlink" x="0px" y="0px"
	 viewBox="0 0 1920 576" style="enable-background:new 0 0 1920 576;" xml:space="preserve">
<style type="text/css">
	.st0{opacity:0.8;}
	.st1{fill:#609E00;}
	.st2{fill:#3B3B3B;}
	.st3{enable-background:new    ;}
	.st4{fill:#FFFFFF;}
</style>
<title>Maps malaysia</title>
<image style="overflow:visible;enable-background:new    ;" width="3014" height="905" xlink:href="A9C3FB6A8133DC98.png"  transform="matrix(0.6365 0 0 0.6365 0.8486 0)">
</image>
<g id="forestgreen" class="st0">
	<path class="st1" d="M986.1,191.1l6.1-4l1-3l3.4,2c0.5,1.3,1,2.6,1.3,4c0,0.7,2.7,4,2.7,4h2l-2.7,2c0,0-2.7,1.4-2.7,2v2
		c0,0.7-2.7,2.7-2.7,2.7h-2.7c0,0-2.7-2-2.7-2.7c-0.1-0.5-0.3-1-0.7-1.4v-5.4L986.1,191.1z"/>
	<path class="st1" d="M995.5,205.9l4.7-2.7l1.3-4.7c0,0,2.7,1.3,2.7,2v4c0,0,2,0,0,2c-1.1,1.2-2.5,2.1-4,2.7c0,0-1.3,0.7-2,0
		S995.5,205.9,995.5,205.9z"/>
	<path class="st1" d="M1004.9,181v3.4c0.9-0.4,1.8-0.4,2.7,0c1,0.5,1.9,1.2,2.7,2c0,0-0.7,2.7,0,4s-1.3,2.7,0,3.4
		c1.4,1,2.8,2.1,4,3.4l-2,2.7c0,0,2.7,2.7,2,3.4s-0.7,4,0,6.1c0.4,1.2,0.2,2.5-0.7,3.4l-2.7-2c-0.1,0.9-0.6,1.6-1.3,2
		c-1.3,0.7-2.7,2.7-3.4,2s0-0.7-1.3-0.7c-1.9,0.3-3.8,0.9-5.4,2l-1.3,1.4l4.7,6.1c0.4,0.8,0.6,1.8,0.7,2.7c0,1.4-0.7,2-0.7,3.4
		s3.4,2.7,3.4,2.7l3.4,1.4c0,0,2,2.7,2.7,2s1.3-0.7,2-2s0-8.1,0-8.1s2.7,4,3.4,4s4,4,4,4c0.6,1.8,1.1,3.6,1.3,5.4c0,1.3,0.7,4,0,4
		c-1.6,0.4-3.2,0.8-4.7,1.3h-8.8c0,0,0.7-3.4,1.3-4s-4-3.4-4-3.4l-0.7,2h-2.7l-0.7,2.7c0,0-2,3.4-2.7,2.7s-4-0.7-4.7-2
		s0-1.3-1.3-1.3c-1.3,0.1-2.7,0.3-4,0.7l-2,0.7c2-0.7,0.7,4.7,1.3,5.4s1.3,0.7,0.7,2.7s0.7,2-0.7,2c-1.1-0.1-2.3-0.3-3.4-0.7
		l-3.4,1.4l-2,1.3l-2.7-4.5c0,0,4.7,0,5.4-1.4s1.3-2.7,0.7-3.4s-3.4-1.4-3.4-1.4L978,243c2.7,0.7,4,0,4-4s-1.3-4.7,0-5.4
		s-0.7-2,1.3-0.7s0.7,2.7,2.7,1.3s1.3,0.7,2-1.3s-1.3-1.4,2-3.4s4.7-2,4-2s0.7-0.7-0.7-1.4l-2.7-1.3H986c0.4-0.7,0.8-1.4,1.3-2
		c0.7-0.7,2.7,0,2-3.4l-0.7-3.4l-2.7-1.3l-1.3-2l1.3-2V208l-2.7-4.7l-2,0.7c0,0-4.7,4-4,3.4s3.4-4,2.7-5.4s-2-2-1.3-3.4
		s-1.3-0.7,0.7-3.4s2-1.4,2-2.7s0.7-1.4-0.7-2s0,0.7-1.3-0.7s-2,0.7-2-1.3s0.7-4.7,0-4.7s-0.7-2-1.3-1.3s0,0-2,1.3s-4-1.3-4-1.3
		c-2.7,2.7-2,2.7-2.7,4s-0.7,1.3-3.4,2s-3.4,2.7-4.7,2s0.7-1.4-2.7-0.7s-2,0.7-4.7,2s-1.3,1.4-2.7,1.4s0,0.7-2.7,0s0.7-0.7-3.4,0
		s-2-1.4-4,0s-0.7,0.7-2,1.4c-1,0.5-1.5,1.6-1.3,2.7c0.1,1.6-0.2,3.2-0.7,4.7c-0.7,1.4-0.7,2.7-2,2s-2-1.3-2-2s-3.4-2-2.7-0.7
		s-1.3,4.7-1.3,4.7l-2-0.7c0,0-1.3,0-1.3-2.7v-4c0-2.7,1.3-2,0-2.7s-1.3-3.4-2-2.7s-6.1,1.4-6.1,1.4c-0.4-0.4-0.4-1,0-1.3
		c0,0,0,0,0,0c0.6-0.5,1.3-1,2-1.4l0.7-3.4l0.7-4.7V181l-3.4-3.4l2-1.3l-2-3.4c0.4-0.7,0.8-1.4,1.3-2c0.7-0.7,0-5.4,0-5.4l4-0.7
		c0,0,1.3,1.4,2,0c0.8-1.4,1.7-2.7,2.7-4c-0.7-2.7-1.3-6.1-1.3-6.1l2-3.4c0,0,0.7-2,0-2s-2.7,1.4-3.4,0c-0.5-0.8-1.2-1.5-2-2
		c0,0,4-2,4.7-2h0.7l-2-7.4c0,0-1.3-1.3-2.7,0.7c-0.7,1.1-1.6,2-2.7,2.7l-2-2c0,0-2-4.7-3.4-2c-0.7,1.5-1.6,2.8-2.7,4
		c-0.8-0.8-1.7-1.5-2.7-2c-1.3-0.7,0-0.7-1.3-0.7s-2-2-2-2l-0.7-3.4l-0.7-3.4c-0.7-2.7-0.7-4-1.3-4.7s-2.7-3.4-2.7-3.4s-0.7-2-2,0
		s-6.1,6.1-6.1,6.1l-3.4-3.4c-0.7-0.7,0-2-2.7-2s-7.4,0.7-6.7,1.3s0.7,2.7,1.3,2.7s-1.3,2-1.3,2l-1.3,2c-1.3,2-2.7,2-1.3,4
		s0.7,3.4,2,3.4s3.4,0.7,4,0.7s5.4,1.3,2.7,0.7s-1.3-4.7-1.3-4.7s1.3-1.4,2-0.7s2-0.7,2,1.4s-0.7,4,0,4.7s3.4,5.4,3.4,4
		s-1.3-6.1-1.3-6.7s0-2.7,1.3-3.4s0-2,1.3-0.7l1.3,1.4l2.7-2c0.7,1,1.2,2.2,1.3,3.4v8.8c0,1.3-0.7,2-0.7,2.7s1.3-1.4-0.7,1.4
		s-5.4,4-4.7,4.7c0.4,0.6,0.7,1.3,0.7,2c0,0-2,2.7-2.7,3.4s-0.7,2-2,2.7s-3.4,0-2.7,1.4s5.4,1.4,5.4,1.4c2.7-1.4,1.3-0.7,3.4-3.4
		s2-3.4,2.7-4s4.7-1.4,4.7-1.4v2.7l-3.4,2c0,0-2,0.7-0.7,2s0.7,2.7,2,4c0.9,0.8,2.1,1.3,3.4,1.3l0.7,4l-3.4,0.7l-0.7,3.4l-3.4,2.7
		c2,1.3,3.4,2,4.7,2h8.8c0,0-2-4-2-4.7s-2-6.7-1.3-6.7s4.7-2,4.7-0.7s0.7,7.4,0.7,7.4s-0.7,4.7,0,5.4c1,1.1,1,2.9,0,4
		c-1.3,1.4-4,2.7-3.4,2.7s2.7,4.7,2,5.4s-4.7-4-4.7-4l-4.7,2.7l-2,6.7c0,0-2,2-1.3,2.7s4,2,3.4,2.7s-2.7,0-2.7,0l2.7,4.7
		c0,0,3.4-0.7,3.4,0.7s1.3,3.4,0,4c-1,0.5-1.9,1.2-2.7,2l0.7,3.4c0.1,1,0.6,2,1.3,2.7c0.8,0.8,1.5,1.7,2,2.7v3.4c0,0-2,2.7-2,3.4
		s0.7,6.7,0.7,6.7s0.7,2.7-0.7,2c-1.2-0.8-2.4-1.7-3.4-2.7c0,0-2.7,1.3-2,2s1.3,0,1.3,3.4s-1.3,5.4-0.7,6.1s3.4,1.4,4,0.7
		c1.5-1,3.1-1.9,4.7-2.7c0,0,3.4-0.7,2-1.3c-0.8-0.5-1.5-1.2-2-2c1.3-2.2,2.4-4.4,3.4-6.7c0.7-2,2.7-4,2.7-4.7s0.7-8.1,0.7-8.1
		l2.7-2.7c0.6-0.9,1.3-1.8,2-2.7c0.7-0.7,1.2-1.7,1.3-2.7c0-0.7-1.3-9.4-1.3-9.4s1.3-3.4,2-2s3.4,2,2.7,3.4s-0.7,13.5-0.7,13.5
		l-2,3.4l-2.7,2.7l-2.7,4l1.3,2.7l-2.7,2l2.7,2.7c0,0,3.4-0.7,3.4,0s0.7,2,1.3,2s3.4-2,3.4-2c0.8,1.4,1.7,2.7,2.7,4
		c1.2,0.9,2.5,1.6,4,2c0.7,0.2,1.1,0.9,0.9,1.6c0,0.1-0.1,0.3-0.2,0.4l-2,2l-0.7,2.7c0,0-1.3,3.4-0.7,3.4s0.7,1.4,1.3,1.4
		s-1.3,3.4-1.3,3.4s-2,5.4-1.3,6.1s2.7,2,2,3.4s-1.3,2-0.7,2.7c0.7,0.9,1.4,1.8,2,2.7h3.4l-3.4,3.4l4.7,4l0.7,2l-4-2l-2,4.7
		c0,0,1.3,1.4,2,1.4h2l3.4,5.4h2.7l-0.7,5.4c0.6,0.9,1.3,1.8,2,2.7c0.7,0.7,1.3,3.4,1.3,3.4l2.7-1.3c-0.4,1.1-0.4,2.3,0,3.4
		c0.7,1.4,0,0.7,1.3,2.7l1.3,2c0.8,1.2,1.7,2.3,2.7,3.4c0.7,0.7-1.3,2.7,0.7,0s2.7-3.4,3.4-3.4s0,2,0,2l-0.7,2.7l0.7,3.4v6.1
		c0.3,1.4,0.8,2.7,1.3,4c0.6,1.2,1.2,2.3,2,3.4c1.3,2,1.3,1.4,2,3.4s-2,4,1.3,3.4s3.4,0,4.7,0s2.7-1.4,2,0l-1.2,3.1
		c0,1.6,0.2,3.2,0.7,4.7c0.7,4.7,1.3,2.7,0.7,4.7s-3.4,5.4-3.4,5.4c-0.7-1.2-2-1.9-3.4-2l-2,6.1l-1.3,3.4h4c0,0,2-2.7,2.7-2.7
		c1.1-0.2,2.3-0.4,3.4-0.7c0.7,0,1.4,0.2,2,0.7c0.7,0.7,0,1.4,0,2.7s-1.3,4,0,4s3.4-2,3.4,0c0.1,2,0.3,4.1,0.7,6.1v2.7l2.7-7.4
		c0,0,2.7-2.7,3.4-1.4s2,0.7,0,4s-2.7,1.4-2,3.4s0,5.4,0,5.4l4-3.4v5.4c0,2,2,6.1,2,6.1c1.3,2,1.3,2.7,0.7,4s-2,2-2.7,2.7
		s-1.3,2.7-2,1.4c-0.5-1-1.2-1.9-2-2.7l-2,3.4l4,3.4c1.2-0.6,2.3-1.2,3.4-2c0.7-0.7,5.4-4,5.4-4c0.5,1,1.2,1.9,2,2.7
		c1.3,1.4-0.7,5.4-0.7,5.4s0.7,2.7,1.3,3.4c0.8,0.6,1.7,1,2.7,1.4c0,0,3.4,1.4,2.7,2s-1.3,1.4,0,2.7s2,0,4,3.4l2,3.4
		c0,0,5.4-2,4.7-2.7s-0.7-5.4-0.7-5.4l2-4.7c-1.1-0.6-2.2-1-3.4-1.3c-0.7,0-2.7,2-3.4,2h-4c0,0,0-2,1.3-2.7c0.8-0.5,1.5-1.2,2-2
		c0,0-2-2-2.7-1.3s1.3,2-0.7,0.7l-2-1.4c0,0,1.3-3.4,2.7-2.7s2.7,0,3.4,0s-0.7,0,2.7-0.7c1.8-0.4,3.6-0.6,5.4-0.7l-2.7-2.7l2.7-2.7
		l-4-4.7c-0.8,0.6-1.7,1-2.7,1.4c-0.7,0-4-2-2.7-2.7s0.7,1.3,1.3-0.7s1.3-3.4,0-3.4s-1.3-2.7-2-0.7c-0.5,1.4-1.2,2.7-2,4
		c-0.7,1.4,0,1.4-2,2.7s-2,2-4,2.7s-3.4,2.7-3.4,2s1.3-5.4,1.3-5.4l0.7-2c0,0,2-4,2-4.7c0.1-0.7,0.3-1.4,0.7-2l-2.7-2.6l-2-2
		c0,0-1.3-5.4-0.7-2.7s4,2,4.7,2s4,3.4,4,3.4l0.7,2l4-2.7l0.7-4l-4.7-4.7c0,0,2.7-2,1.3-2.7l-1.3-0.7l-5.4-7.4c0,0,0-0.7-1.3-2
		l-3.3-3.5l-3.4-3.4c0,0-2,2-2,2.7s-4.7,4.7-5.4,4.7s-3.4-1.4-2.7-1.4s2.7-2,2.7-2l2.7-2.7l-1.4-6.7v-4l-2.7-3.4l-0.7-7.4
		c-4,1.4-3.4,1.4-4.7,1.4s-2.7-2.7-2.7-2.7s3.4-2.7,4-2s3.4,0,3.4,0l0.7-4c0,0-1.3-1.4-1.3-2s-1.3-7.4-1.3-7.4l1.4-2.8l-2-10.8
		c0,0-1.3-1.3-0.7-2.7s1.3-6.7,2-6.7s0-0.7,1.3,0s0.7,0,2.7,2c1.2,1.2,2.4,2.6,3.4,4l2-2.7c2.7-0.7,4.7-4,4.7-4s-4.7-6.1-3.4-5.4
		s5.4,2,5.4,2l6.1-2.7c0,0-0.7,4.7,0.7,4.7s4-2,4-2v2.7c-0.9,1.1-1.4,2.5-1.3,4c0,2.7-1.3,4-1.3,4.7s-2,3.4-2,3.4l-3.4-1.4
		c0,0-3.4,1.4-2,2.7c1.3,1.5,2.4,3,3.4,4.7c0,0,3.4,2.7,2.7,3.4s0.7,2.7-0.7,2s-0.7-2-2-2s-2.7,0-3.4,0.7s-1.3,2-2,2.7s-4,0-4,0v2
		l-3.4,2.7l4.7,1.3v8.1c0,1.4,4.7,0,4.7,0c1.1,0,2,0.9,2,2c0,1.2-0.2,2.3-0.7,3.4l-2.7,5.4c0,0-1.3,2.7-0.7,4l2.7,5.4l3.4-4
		c0,0,4.7,0.7,4.7,0s2.7-0.7,3.4-1.3s2.7-1.4,2.7,0c-0.1,1-0.6,2-1.3,2.7l2,2.7c0,0,3.4-1.3,3.4-2.7v-4l2-2.7c0,0,0.7-3.4,0-4
		s-2-3.4-1.3-3.4c1.2,0.3,2.3,0.8,3.4,1.4l1.3-2.7c0,0-2-8.1-2-7.4s0.7-7.4,0.7-7.4c0.7-2-2-6.7-2-6.7l-4.7-0.7l-1.3,3.4l3.4,4
		c0,0,0,2-1.3,2.7s-2.7,2-3.4,1.4s-0.7,1.4-2-1.4s-1.3-2-2-4s-1.3-2,0-4l2.7-4c0,0,3.4-2,4-2h2c0.7,0,3.4-0.7,4-0.7s2-0.7,2-1.4
		s1.3-2,1.3-2l2.7,0.7c-0.5,1.5-1,3.1-1.3,4.7c0,0.7-2.7-1.4-0.7,2.7s2,6.7,3.4,6.7s1.3,0.7,2,1.3s-0.7,3.4,0,4s2.7-1.3,2.7-1.3
		l0.7-2.7l4-0.7c0,0,6.1,4.7,6.1,5.4v4c0,0.7,0.7-0.7,0.7,2c0.1,2.3,0.3,4.5,0.7,6.7c0,0,0.7-1.4,2,1.4s4,6.7,4,6.7l2.7,0.7
		c0.6-0.8,1-1.7,1.3-2.7c0-0.7,1.3-2.7,2-3.4s0-3.4,0-4c-0.2-1-0.6-1.9-1.3-2.7c-0.7-0.7-2.7-0.7-4-2.7s-1.3-3.4-2.7-4s-0.7,0.7-2-2
		s-2.7-4.7-2-5.4s3.4-3.4,4-2.7l3.4,3.4c1.3,1.4,0.7,3.4,2,2.7s4.7,0,4.7,0s-3.4,3.4-2.7,4c1,1,1.9,2.1,2.7,3.4
		c1.3,2,0.7,4.7,2.7,6.1s4-2,2,1.4s-2.7,5.4-2.7,7.4s-3.4,2-3.4,2s-3.4,2.7-2.7,4s0,2,0,3.4c0,1.1-0.2,2.2-0.5,3.3l-3.4-2.7
		c0,0-1.3-0.7-2,0s-1.3,0.7-1.3,2v2.7c-2,1.4-6.1,4-5.4,4s0.7,2,2,2s3.4-0.7,2.7,0.7c-0.7,1.1-1.6,2-2.7,2.7c-0.4,1.3-0.6,2.6-0.7,4
		c0,2,0,4-0.7,4s-0.7,0.7-2,0s-2.7,0-2.7-2v-2h-1.3v6.7c0.3,1.1,0.5,2.2,0.7,3.4c0,0.7,1.3-2.7,2-2s4,0,2.7,2.7
		c-0.8,1.7-1,3.6-0.7,5.4c1.6-0.1,3.2-0.3,4.7-0.7l-4.7,3.4l0.7,4.7c0,0,2,1.3,2.7,0.7s2.7-2,4-3.4s0.7,1.4,1.3-1.3s1.3-2.7,0.7-4
		c-0.6-1.3-1-2.6-1.3-4c3.4-4.7,2.7-4.7,4-5.4s2.7-1.4,4-0.7s2.7,0,3.4,0.7s3.4,2.7,3.4,2.7l4,1.4l5.4-2c1-0.3,1.9-0.8,2.7-1.4
		c0.7-0.7,4.7-5.4,4.7-5.4s-1.3-4.7-2-4.7s0.7-2.7-2-4.7s-5.4-2-4.7-1.4s0,2.7-0.7,4s-4,4.7-4,4.7l-1.3-4c0,0-2.7,2-4,1.4
		c-1-0.5-1.9-1.2-2.7-2c1.6-0.8,3.2-1.7,4.7-2.7c0.7-0.7,2-2,2-2.7c-0.3-1.4-0.8-2.7-1.3-4V348c0,0,4-2.7,4.7-3.4s1.3-2.7,0.7-3.4
		s-2.7-0.7-3.4-1.4s0-4.7,0.7-4.7s2.7,0.7,2-0.7c-0.4-0.8-0.6-1.8-0.7-2.7c0,0,1.3-2.7,2.7-2c1.3,0.5,2.6,0.7,4,0.7
		c0.7,0,2,0.7,3.4,0s0.7-2,0.7-3.4s0.7-2,0-2.7s-3.4-2.7-3.4-2.7l-3.4-4l-2.7-3.4l4-4c0,0-0.7,0.7,0.7-2s-0.7-1.3,2-4s2-1.3,2.7-2.7
		s1.3-6.7,1.3-6.7s6.7-1.4,5.4-2c-1.2-0.8-2.4-1.7-3.4-2.7c0-2,1.3-2.7,1.3-4V280l-2.7-2.7c0,0-0.7-0.7,0.7-2.7s2-2,1.3-3.4
		s-2.7-2.7-2-4s-1.3-2.7,0-3.4s0.7,1.4,1.3-0.7s1.3,0,0.7-2c-0.7-1.7-1.1-3.5-1.3-5.4c0-1.4-2-1.4-1.3-2.7s-0.7-2,0.7-2
		s-0.7-3.4-0.7-3.4l-0.7-2c0,0,2.7-0.7,2.7-2c-0.1-1.3-0.3-2.7-0.7-4h-2l-0.7-4c0-1.2-0.2-2.3-0.7-3.4c-0.7-1.3-3.4-6.1-3.4-2.7
		s0,8.8-0.7,10.8c-0.4,1.2-0.8,2.3-1.3,3.4c-2,0-4,0-4-2s1.3-2.7-0.7-2.7s-1.3,1.3-2,0s-0.7-0.7-1.3-2.7c-0.4-1.3-0.6-2.6-0.7-4
		c0,0-1.3-3.4-2-3.4c-1.4-0.5-2.6-1.4-3.4-2.7c-0.5-1-1.2-1.9-2-2.7l2-2.7c0,0,1.3-4-1.3-2s-4,2-4,2s-0.7-2,0-2s2.7-2,2.7-2l0.7-2.7
		l-3.4-0.7l0.7-2l0.7-2l-2-1.4l-2-2l-2-2c1.5-0.8,3.1-1.4,4.7-2v-2l-1.3-3.4v-3.4l-5.4,5.4l-2,3.4c0,0-0.7-4-0.7-4.7s0.7-4,0.7-4
		s-0.7-3.4-0.7-4s-0.7-6.1-0.7-5.4s-3.4,2.7-3.4,2.7s-2-2.7-2.7-2.7s-2-1.3-2,0s-2,0-0.7,2.7s0.7,4,0.7,4c-0.3,1.6-0.5,3.1-0.7,4.7
		c0,1.4,0,1.4-1.3,3.4s-2.7,2.7-2.7,4s0,4.7-2,2.7s-2.7-1.4-2-2.7s0-0.7,1.3-4s2.7-4,2-5.4c-0.5-0.8-0.8-1.7-0.7-2.7v-2.7
		c0-1.3,0.7-1.3,0-2.7s0.7,0.7-0.7-2.7s-0.7-2.7-2-4.7s-2-4-2.7-3.4s-0.7,2-1.3,2c-1.6-0.1-3.2,0.2-4.7,0.7c-1.3,0.7-1.3,0-2,1.4
		S1004.9,181,1004.9,181z"/>
	<path class="st1" d="M1047.3,191.8c0,0,0.7-0.7,2,1.4s8.1,4,8.1,4s3.4,0,2.7,1.4s0,2.7,0,4v5.5c0,0.7-2,0-2,0s-2.7-1.3-2-2.7
		s1.3,0,0.7-1.4s0.7,0-0.7-1.3l-1.3-1.4c0,0-1.3-4.7-2-4s-2.7,0-2.7,0l-2.7-2L1047.3,191.8z"/>
	<path class="st1" d="M996.2,350c0,0,1.3,5.4,2,6.1s3.4,4.7,4,5.4s2,4.7,2,4.7c0.6-0.8,1-1.7,1.3-2.7v-2.7c0,0,0.7-2.7,1.3-2.7
		s-0.7-1.4,1.3,0c1.2,0.8,2.8,0.8,4,0c0,0,2.7,0.7,2.7,0s-1.3-2.7,0-4s2.7-2.7,1.3-3.4s-2.7-2.7-4-2.7h-1.2
		c-1.7-0.1-3.3,0.4-4.7,1.4c-1.3,0.7-1.3,1.3-2.7,0.7s-1.3-2.7-2-2s-0.7,0-2.7,2S996.2,350,996.2,350z"/>
	<polygon class="st1" points="1009,369.6 1013.7,372.9 1014.3,375.6 1014.3,379 1014.3,383 1015.7,387.1 1012.3,384.4 1009,382.4 
		1012.3,380.3 1012.3,378.3 1009,377.6 	"/>
	<path class="st1" d="M918.7,330.5l8.1-1.3l3.4,2c1.9,1,3.7,2.1,5.4,3.4c0.7,0.7,1.3,0,2.7,0s4-4.7,5.4-2.7s2,2.7,2.7,1.4l1.3-2.7
		c0,0,4,0.7,4,2.7s5.4,7.4,5.4,7.4l1.3,4l-2,3.4l0.7,3.4l-5.4,3.4c0,0,2,5.4,1.3,4.7s-1.3-2.7-2.7-2.7s-3.4,1.4-2.7,0
		s-1.3,0,1.3-2.7s4.7-9.4,4.7-9.4s0.7,0-0.7-2s-5.4-3.4-4.7-1.3s0,4.7,0,5.4s-0.7,3.4-1.3,3.4s0-1.4-2-1.4s-2,2-4,1.4s-3.4-0.7-4-2
		s0-1.4-1.3-2s-1.3,0.7-2.7-1.4s-1.3-2.7-2.7-3.4s-2,0.7-2.7-1.4c-0.6-1.5-1.5-2.9-2.7-4c-0.7-0.7-0.7-1.4-2-2
		C921.4,332.9,920,331.8,918.7,330.5z"/>
	<path class="st1" d="M1077.7,393.8l5.4-3.4h4.7c0,0-2.7,0.7-2,1.4s-3.4,6.7-3.4,6.7s4.7,1.4,4,2.7s-0.7,2.7,0,3.4s-1.3,2,1.3,2.7
		c2.1,0.5,4.1,1.1,6.1,2c1.3,0.7,2,2,2.7,1.3s-2.7-0.7,0-0.7s2-1.4,4,0.7s1.3,4.7,4,3.4s2-2.7,2-2.7l6.1,3.4c0.9-0.6,1.8-1.3,2.7-2
		c0.7-0.7,0-0.7,0-0.7l5.4,1.4v2.7c0,0-1.3-0.7-1.3,2s0.7,0.7-0.7,4s0.7,5.4-1.3,5.4s-2,2-2.7,0c-0.6-2.7-1.1-5.4-1.3-8.1
		c-2-2-2.7-2.7-3.4-1.4s-2,1.4-0.7,2.7l1.3,1.4l-1.3,2v4c2.1,1.1,4.4,1.8,6.7,2c0.7,0,2.7-1.4,4.7-1.4c1.1-0.1,2.1,0.4,2.7,1.4
		l-1.3,3.4l-2.7,3.4l4,2l-1.3,6.1l1.3,5.4c0.7,2.7,0.7,5.4,1.3,6.1s1.3,2.7,2,3.4c0.8,0.8,1.5,1.7,2,2.7c0.7,1.4-1.3,2,0,3.4
		s2.7,2,3.4,3.4s-0.7,4.7-1.3,3.4s-2.7-3.4-4-3.4s-3.4,1.3-4.7,1.3s0,0.7-1.3,0s-2.7-6.7-2.7-6.7s-2.7,3.4-3.4,0.7s-1.3-2.7-1.3-4.7
		v-2c-0.1-1.4-0.6-2.8-1.3-4c0,0-2.7,1.3-2.7,2.7s0.7,4,0,3.4s-2-0.7-4-0.7s-3.4,0.7-4-0.7s0.7-0.7-1.3-2l-2-1.4
		c-1.1-0.7-2-1.6-2.7-2.7l2-2.7l3.4,0.7c0,0,0-2.7,0.7-3.4s3.4-6.1,4-6.7s0.7-2.7,1.3-3.4s-1.3-3.4-1.3-3.4l2-2l-4.7-6.1
		c0,0-0.7-2-1.3-2s-5.4,4-5.4,4c-1.6,0.3-3.2,0.8-4.7,1.3c-1.3,0.7-1.3,2.7-3.4,2.7s-0.7-2.7-2,0s-0.7,6.1-2,4.7s-0.7-2-2.7-1.4
		s-1.3,0.7-3.4,0.7c-1.6,0.1-3.2,0.3-4.7,0.7l1.3-2.7v-2c0,0-2-2.7-2.7-2.7s-0.7,0.7-1.3,1.4s0,2-2,0.7s-0.7,1.4-2-1.3
		s-2.7-2.7-1.3-4s4.7-2,4.7-2v-4c0,0-1.3-2-2-2c-1.2,0.4-2.4,0.1-3.4-0.7c-2-1.3-1.3-1.3-2.7-2l-2.7-1.3l2.7-1.4l4.7,0.7l3.4-2.7
		c0-2,0-3.4-1.3-3.4s-2,1.4-2.7,0s1.3,0-0.7-1.3c-1.5-1.1-2.9-2.5-4-4l3.4-0.7l2.7,0.7l-2-3.4l-2.7-3.4c0,0,0.7-2.7,1.3-2.7
		s0-2.7,2-1.4s2.7,2.7,4,3.4s2,0,2.7,0.7S1077.7,393.8,1077.7,393.8z"/>
	<path class="st1" d="M1072.9,344.6h12.8l2,1.4l1.3,2c0,0,2.7,0,1.3,2s-2.7,4-2.7,5.4s3.4,4,3.4,4c-0.7,2.7-0.7,4.7,0,5.4
		s1.3-3.4,0,0.7s-2.7,2.7-3.4,2s-1.3-2.7-2-1.4s-0.7,4.7,0.7,5.4s1.3,0,2.7,2s1.3,2,1.3,3.4s-3.4,0.7-2.7,3.4s0,2.7,0,4
		s0.7,4.7-1.3,2.7l-2-2l-2-2c-1.5-1.5-2.8-3-4-4.7l1.3-3.4c0,0,0-3.4-1.3-2.7l-1.3,0.7c1.3-0.7-1.3-9.4-1.3-9.4s2-2,2-2.7
		s0-3.4-1.3-4s-3.4-0.7-3.4-2.7L1072.9,344.6L1072.9,344.6z"/>
	<path class="st1" d="M916.7,245.7c0.5,0.8,1.2,1.5,2,2c1.3,0.7,3.4,0.7,4,2s0,6.1,0,6.1s-2,0-2.7,1.3c-0.7,1.4,0,2,0,2.7
		c-0.2,1-0.6,2-1.3,2.7c-0.7,0.7-0.7,4.7-2,6.7s0,1.4-1.3,3.4s-0.7,4.7-1.3,2s0.7-6.7,0-7.4s0-2,0-2s1.3-5.4,0.7-4.7s-2.7,2-2,0
		s0-2.7,2-3.4s1.3,1.3,2-0.7s-0.7-2.7-0.7-2.7c-0.7-2.7,0-3.4,0-3.4c-0.3-0.6-0.6-1.3-0.7-2C915.6,247.4,916.1,246.5,916.7,245.7z"
		/>
	<path class="st1" d="M903.2,252.4l-6.1,2l0.7,2.7l2.7,3.4c-3.4,4-2,3.4-2,4.7s0,2.7,0.7,3.4c0.6,0.8,1.6,1.3,2.7,1.3
		c1.1-0.1,2.3-0.3,3.4-0.7c0.8-1.4,1.3-3,1.3-4.7v-3.4l1.3-3.4v-2.7L903.2,252.4z"/>
	<path class="st1" d="M878.3,234.9l4.7,0.7l4,4l4.7,4l2.7,2.7h-2c0,0-2,2.7-1.3,4c0.6,1.1,1,2.2,1.3,3.4c0.5,1.5,0.7,3.1,0.7,4.7
		c0,1.4-1.3,0.7-0.7,2.7s1.3,2.7,0.7,4s-0.7,0.7-2,2.7c-0.9,1.5-1.6,3.1-2,4.7c0,0,0-4.7-0.7-5.4l-2-2c0,0-0.7-0.7,0-2.7
		s-0.7-2.7,0.7-6.1s-1.3-3.4-0.7-5.4s1.3-3.4,0-4.7s-1.3-2-2-2.7s0,0-2-1.4c-1.3-0.8-2.6-1.5-4-2L878.3,234.9z"/>
</g>
<g id="forestspine">
	<rect x="817" y="264.5" class="st2" width="331" height="43.9"/>
	<g class="st3">
		<path class="st4" d="M841.9,281.2c-1.2,0-2.1,0.5-2.7,1.4s-1,2.3-1,4c0,3.5,1.3,5.3,4,5.3c0.8,0,1.6-0.1,2.3-0.3
			c0.8-0.2,1.5-0.5,2.3-0.8v4.2c-1.5,0.7-3.2,1-5.2,1c-2.8,0-4.9-0.8-6.3-2.4c-1.5-1.6-2.2-3.9-2.2-6.9c0-1.9,0.4-3.5,1.1-5
			c0.7-1.4,1.7-2.5,3.1-3.3c1.3-0.8,2.9-1.2,4.7-1.2c2,0,3.9,0.4,5.7,1.3l-1.5,3.9c-0.7-0.3-1.3-0.6-2-0.8
			C843.4,281.3,842.6,281.2,841.9,281.2z"/>
		<path class="st4" d="M861.2,295.7h-10.8v-18.2h10.8v4h-5.9v2.9h5.5v4h-5.5v3.4h5.9V295.7z"/>
		<path class="st4" d="M881.7,295.7h-6.5l-6.7-12.9h-0.1c0.2,2,0.2,3.6,0.2,4.6v8.2h-4.4v-18.2h6.4l6.6,12.7h0.1
			c-0.1-1.8-0.2-3.3-0.2-4.4v-8.2h4.4V295.7z"/>
		<path class="st4" d="M893.7,295.7h-4.9v-14.2h-4.5v-4h13.8v4h-4.4V295.7z"/>
		<path class="st4" d="M905.7,289v6.6h-4.9v-18.2h6c5,0,7.4,1.8,7.4,5.4c0,2.1-1,3.7-3.1,4.9l5.3,8h-5.6L907,289H905.7z
			 M905.7,285.3h0.9c1.7,0,2.6-0.8,2.6-2.3c0-1.3-0.8-1.9-2.5-1.9h-1V285.3z"/>
		<path class="st4" d="M929.3,295.7l-0.9-3.4h-5.9l-0.9,3.4h-5.4l6-18.3h6.6l6,18.3H929.3z M927.3,288.2l-0.8-3
			c-0.2-0.7-0.4-1.5-0.7-2.6s-0.4-1.8-0.5-2.3c-0.1,0.4-0.2,1.1-0.4,2.1c-0.2,1-0.7,2.9-1.5,5.8H927.3z"/>
		<path class="st4" d="M936.6,295.7v-18.2h4.9v14.3h7v4H936.6z"/>
		<path class="st4" d="M963,295.7h-4.9v-18.2h10.8v4H963v3.5h5.5v4H963V295.7z"/>
		<path class="st4" d="M989,286.5c0,3.1-0.8,5.4-2.3,7s-3.7,2.4-6.6,2.4c-2.9,0-5.1-0.8-6.6-2.4c-1.5-1.6-2.3-3.9-2.3-7
			c0-3,0.8-5.4,2.3-7c1.5-1.6,3.7-2.4,6.6-2.4c2.9,0,5.1,0.8,6.6,2.4C988.2,281.1,989,283.4,989,286.5z M976.4,286.5
			c0,3.5,1.2,5.3,3.7,5.3c1.2,0,2.2-0.4,2.8-1.3c0.6-0.9,0.9-2.2,0.9-4c0-1.8-0.3-3.2-0.9-4c-0.6-0.9-1.5-1.3-2.7-1.3
			C977.7,281.2,976.4,283,976.4,286.5z"/>
		<path class="st4" d="M997.2,289v6.6h-4.9v-18.2h6c5,0,7.4,1.8,7.4,5.4c0,2.1-1,3.7-3.1,4.9l5.3,8h-5.6l-3.9-6.6H997.2z
			 M997.2,285.3h0.9c1.7,0,2.6-0.8,2.6-2.3c0-1.3-0.8-1.9-2.5-1.9h-1V285.3z"/>
		<path class="st4" d="M1020.4,295.7h-10.8v-18.2h10.8v4h-5.9v2.9h5.5v4h-5.5v3.4h5.9V295.7z"/>
		<path class="st4" d="M1035.6,290.1c0,1.1-0.3,2.1-0.9,3s-1.4,1.6-2.5,2c-1.1,0.5-2.4,0.7-3.8,0.7c-1.2,0-2.2-0.1-3.1-0.3
			c-0.8-0.2-1.7-0.5-2.6-0.9v-4.4c0.9,0.5,1.9,0.9,2.9,1.1s1.9,0.4,2.8,0.4c0.7,0,1.3-0.1,1.6-0.4c0.3-0.3,0.5-0.6,0.5-1
			c0-0.2-0.1-0.5-0.2-0.7c-0.1-0.2-0.4-0.4-0.7-0.6s-1.1-0.6-2.4-1.2c-1.2-0.5-2.1-1.1-2.7-1.6c-0.6-0.5-1-1.1-1.3-1.7
			s-0.4-1.4-0.4-2.3c0-1.7,0.6-3,1.8-3.9c1.2-0.9,2.9-1.4,5-1.4c1.9,0,3.8,0.4,5.8,1.3l-1.5,3.8c-1.7-0.8-3.2-1.2-4.4-1.2
			c-0.6,0-1.1,0.1-1.4,0.3s-0.4,0.5-0.4,0.8c0,0.4,0.2,0.7,0.6,1c0.4,0.3,1.4,0.8,3,1.5c1.6,0.7,2.7,1.5,3.3,2.3
			C1035.2,287.9,1035.6,288.9,1035.6,290.1z"/>
		<path class="st4" d="M1046.4,295.7h-4.9v-14.2h-4.5v-4h13.8v4h-4.4V295.7z"/>
		<path class="st4" d="M1072,290.1c0,1.1-0.3,2.1-0.9,3s-1.4,1.6-2.5,2s-2.4,0.7-3.8,0.7c-1.2,0-2.2-0.1-3.1-0.3
			c-0.8-0.2-1.7-0.5-2.6-0.9v-4.4c0.9,0.5,1.9,0.9,2.9,1.1c1,0.3,1.9,0.4,2.8,0.4c0.7,0,1.3-0.1,1.6-0.4c0.3-0.3,0.5-0.6,0.5-1
			c0-0.2-0.1-0.5-0.2-0.7c-0.1-0.2-0.4-0.4-0.7-0.6c-0.3-0.2-1.1-0.6-2.4-1.2c-1.2-0.5-2.1-1.1-2.7-1.6c-0.6-0.5-1-1.1-1.3-1.7
			s-0.4-1.4-0.4-2.3c0-1.7,0.6-3,1.8-3.9c1.2-0.9,2.9-1.4,5-1.4c1.9,0,3.8,0.4,5.8,1.3l-1.5,3.8c-1.7-0.8-3.2-1.2-4.4-1.2
			c-0.6,0-1.1,0.1-1.4,0.3c-0.3,0.2-0.4,0.5-0.4,0.8c0,0.4,0.2,0.7,0.6,1c0.4,0.3,1.4,0.8,3,1.5c1.6,0.7,2.7,1.5,3.3,2.3
			S1072,288.9,1072,290.1z"/>
		<path class="st4" d="M1088.1,283.2c0,2-0.6,3.6-1.8,4.7c-1.2,1.1-2.9,1.7-5.1,1.7h-1.4v6.1h-4.9v-18.2h6.3c2.3,0,4,0.5,5.2,1.5
			S1088.1,281.4,1088.1,283.2z M1079.8,285.6h0.9c0.7,0,1.3-0.2,1.8-0.6c0.4-0.4,0.7-1,0.7-1.7c0-1.2-0.7-1.8-2-1.8h-1.3V285.6z"/>
		<path class="st4" d="M1091,295.7v-18.2h5v18.2H1091z"/>
		<path class="st4" d="M1117.3,295.7h-6.5l-6.7-12.9h-0.1c0.2,2,0.2,3.6,0.2,4.6v8.2h-4.4v-18.2h6.4l6.6,12.7h0.1
			c-0.1-1.8-0.2-3.3-0.2-4.4v-8.2h4.4V295.7z"/>
		<path class="st4" d="M1132.1,295.7h-10.8v-18.2h10.8v4h-5.9v2.9h5.5v4h-5.5v3.4h5.9V295.7z"/>
	</g>
</g>
</svg>
