<?xml version="1.0" encoding="utf-8"?>
<!-- Generator: Adobe Illustrator 23.0.0, SVG Export Plug-In . SVG Version: 6.00 Build 0)  -->
<svg version="1.1" id="Layer_1" xmlns="http://www.w3.org/2000/svg" xmlns:xlink="http://www.w3.org/1999/xlink" x="0px" y="0px"
	 viewBox="0 0 1920 576" style="enable-background:new 0 0 1920 576;" xml:space="preserve">
<style type="text/css">
	.st0{fill:none;stroke:#FC7A00;stroke-width:4;stroke-linejoin:round;}
	.st1{opacity:0.2;fill:#FC7A00;enable-background:new    ;}
	.st2{fill:#FFFFFF;stroke:#FC7A00;stroke-width:6;stroke-linejoin:round;}
	.st3{fill:#3B3B3B;}
	.st4{enable-background:new    ;}
	.st5{fill:#FFFFFF;}
</style>
<title>Maps malaysia</title>
<image style="overflow:visible;enable-background:new    ;" width="3014" height="905" xlink:href="A9B325510D173406.png"  transform="matrix(0.6365 0 0 0.6365 0.8486 0)">
</image>
<path id="thaiborder-changlun" class="st0" d="M1299.6,576l1.7-7.7l-4.3-3.4l4.3-3.4c0-1.6-0.6-3.1-1.7-4.3
	c-1.7-1.7,3.8-12.4,3.8-12.4s0.8-3.4,0-4.3s-5.1-6.8-3.4-7.7s0-5.1,0-5.1v-8.5l3.4-4.3v-6l-3.4-6v-6.8l-6-8.5h-2.6v-6l-3.4-6.8
	l3.4-3.4l-3.4-3.4v-7.7l-4.3-3.4h-6.8l-5.1-1.7l-13.7-3.4l-4.3-3.4v-2.6l-3.4-3.4l-4.3,1.7l-3.4-1.7v-5.1l-6-6.8l-7.7,6.8l-6,5.1
	l-4.3-2.6l-7.7-2.6l-2.6,3.4l-6.8-3.4l-4.3-6.8l-2.6-5.1l-4.3-5.1v-9.4l-1.7-10.2l-4.3-3.4v-6l3.4-4.3l2.6-7.7l-4.3-7.7l-3.4-7.7
	h-5.1v8.5l-6-0.9l3.4,4.3l-3.4,2.6v5.1l-3.4,3.4h-8.5l-3.4,6.8v3.4l-3.4,3.4l-6,4.3l-2.6,4.3v5.1l-1.7,7.8l-7.7,0.9l-7.7-3.4v6
	l-3.4,1.7l-7.7,1.7h-6.8v13.6c-1.9,1.5-4.4,2.1-6.8,1.7h-9.4l-6.8,3.4l-10.2,0.9l-11,8.5l-3.4,3.4l-4.3-6.8h-4.3l-5.1-3.4l4.3-3.4
	l2.6-4.3v-5.1L1027,439l-3.4-2.6l-9.4-1.7l-5.1-2.6v-6.8l-3.4-2.6l-3.4-5.1l-6,0.9v6.8l-6.8-9.4l-2.6-4.3l-6.8-2.6h-4.3l-8.5,1.7
	l-6.8-6l-7.7-1.7l-6-8.5l-6-2.6l-2.6-7.7l-16.2,7.7l-2.6,5.1v3.4c-3.4-1.7-6.8-6-6.8-6l-4.3-4.3l-6.8,6.8l-5.1-2.6
	c0,0-1.7-1.7-3.4-0.9s-8.5,3.4-8.5,3.4v-3.4l-9.4,0.9l-3.4-7.6l-6.8-0.9l-2.6-4.3v-3.4l-6.8,1.7h-4.3v-4.3l-6-6.8l-6-5.1v-9.4h5.1
	l-0.8-6.8l-8.5-5.1l-5.1,4.3l-5.1-2.6l-2.6,3.4l-5.1-2.6l-4.3,0.9l-1.7,3.4h-6v-4.3l-8.5-2.6l-3.4-8.5h-4.3v4.3l-3.4,0.9v4.3H777
	l-4.3-3.4l-3.4,2.6l-8.5,2.6c0,0-2.6,1.7-3.4,1.7c-1.4-0.2-2.9-0.5-4.3-0.9l-5.1,4.3l-5.1,3.4c-1.4-0.4-2.8-0.7-4.3-0.9
	c-0.8,0-5.1-2.6-5.1-2.6l-6.9-4.3l-3.4-4.3l-5.1-4.3l-6-1.7l2.6-3.4l-0.9-4.3l-7.7,4.3l-12.8-1.7l-2.6-6.8l-5.1,3.4v-7.7h-9.4
	l-3.4-4.3l-6,10.2l-2.6-0.9l-5.1-9.4h-4.3l-3.4-12.8l3.4-1.7l-7.7-5.1l1.7-4.3h-3.4v-7.7L643,276h-6.8l-2.6,4.3l-6-8.5l2.6-6
	l-9.4-1.7v-4.3c-3.4-0.9-8.5,0-8.5,0h-7.7V253l-4.3-1.7l-5.1-7.7v-6.8l-2.6-5.1l-6,3.4l-3.4-3.4l-6-2.6l1.7-6.8l3.5,1.7l4.3-4.3h8.5
	l11.1-11.1l-4.3-6.8l3.4-3.4l-5.1-4.3l-0.8-6h-8.5l3.4-7.7h6l0.8-11.9l-3.4-5.1l9.4-6l2.6-6.8l-5.1-4.3l-6,2.6l-5.1-6l-7.7,2.6
	l-8.5-2.6l2.6-3.4l-4.3-9.4l-2.5-6.7l-5.1,6l-5.1-2.6l-7.7-16.2l4.3-12l4.3-7.7l-6.8-6.8l-5.1,1.7c0,0-7.7,3.4-8.5,3.4
	s-7.7-0.8-7.7-0.8l-4.3,4.3l-6.8,5.1c0,0-2.6,2.6-3.4,1.7s-1.7-7.7-1.7-7.7l-5.1-1.7l2.6-3.4l-5.1-4.3l-1.7,3.4l-5.1-1.7v10.3
	l-8.5,11.9l-4.2-2.6v3.4l-9.4,2.6l-4.3-3.4l-6.8-0.8L468,108v-6l-13.6-6V82.3l-2.6-6.8v-5.1h-5.1L439,67l-2.6-7.7l-9.4,7.7
	l-12.8,1.7c0,0-6,3.4-5.1,5.1s0,9.4,0,9.4l-4.3,7.7c0,0,0.9,5.1,0,6s-5.1,22.1-4.3,22.1s5.1,14.5,5.1,14.5l-5.1,9.4l2.6,18.8
	l-7.7,7.7l-5.1-3.3l-6.8,6l5.1,5.1l-1.7,15.3l-3.4,0.9l2.6,5.1l-2.6,6.8l6,6v14.5c0,1.7,6.8,7.7,7.7,7.7s6.8-0.9,6.8-0.9l0.9,4.3
	l-2.6,6c0,0-4.3,4.3-3.4,5.1s0,3.4,1.7,4.3l3.4,1.7l1.7,11.1l4.3,2.6l-3.4,4.3l0.9,4.3l-3.4,3.4c0,0-2.6-2.6-3.4-2.6
	c-1.2,0.2-2.3,0.5-3.4,0.9l-0.9,6c0,0-3.4-3.4-4.3-5.1s-2.6-4.3-2.6-4.3l-3.4,4.3l-2.6,3.3l-4.3-4.3v-6.8l-6-5.1l-4.3-0.9v9.4
	l4.3,3.4l0.9,4.3v3.4c0,0-0.9,6.8-0.9,7.7s-4.3,3.4-4.3,3.4l-5,4.3l3.4,14.5l2.6,8.5l-1.7,6l4.3,2.6l-4.3,2.6l2.6,12.8h-4.3
	l6.8,17.1l-2.6,4.3l3.4,3.4v15.4c0,1.5,0.3,2.9,0.9,4.3c0.9,1.7-1.7,5.1-1.7,5.1h-6v4.3l6.8,6.8l-2.6,3.4l-7.7-2.6v6.8l-2.6,4.3
	l-5.1,5.1l-3.4-1.7l1.7,13.6l4.3,8.5l-3.4,3.4h-5.1v3.4H346l-4.3,3.4v6l-5.1,3.4l2.6,12c0,0,0.9,5.1-2.6,5.1h-8.5l-3.4,6.8h-5.1"/>
<circle class="st1" cx="749" cy="432" r="55.7"/>
<circle class="st1" cx="749" cy="432" r="78.3"/>
<circle class="st1" cx="749" cy="432" r="87"/>
<circle id="marker-changlun" class="st2" cx="749" cy="432" r="12.1"/>
<g id="changlun">
	<rect x="614" y="463.5" class="st3" width="283" height="43.9"/>
	<g class="st4">
		<path class="st5" d="M638.9,480.2c-1.2,0-2.1,0.5-2.7,1.4s-1,2.3-1,4c0,3.5,1.3,5.3,4,5.3c0.8,0,1.6-0.1,2.3-0.3s1.5-0.5,2.3-0.8
			v4.2c-1.5,0.7-3.2,1-5.2,1c-2.8,0-4.9-0.8-6.3-2.4s-2.2-3.9-2.2-6.9c0-1.9,0.4-3.5,1.1-5c0.7-1.4,1.7-2.5,3.1-3.3
			c1.3-0.8,2.9-1.2,4.7-1.2c2,0,3.9,0.4,5.7,1.3l-1.5,3.9c-0.7-0.3-1.3-0.6-2-0.8C640.4,480.3,639.6,480.2,638.9,480.2z"/>
		<path class="st5" d="M663,494.7h-5v-7.4h-5.7v7.4h-5v-18.2h5v6.8h5.7v-6.8h5V494.7z"/>
		<path class="st5" d="M678.1,494.7l-0.9-3.4h-5.9l-0.9,3.4h-5.4l6-18.3h6.6l6,18.3H678.1z M676.2,487.2l-0.8-3
			c-0.2-0.7-0.4-1.5-0.7-2.6c-0.3-1.1-0.4-1.8-0.5-2.3c-0.1,0.4-0.2,1.1-0.4,2.1c-0.2,1-0.7,2.9-1.5,5.8H676.2z"/>
		<path class="st5" d="M702.8,494.7h-6.5l-6.7-12.9h-0.1c0.2,2,0.2,3.6,0.2,4.6v8.2h-4.4v-18.2h6.4l6.6,12.7h0.1
			c-0.1-1.8-0.2-3.3-0.2-4.4v-8.2h4.4V494.7z"/>
		<path class="st5" d="M714.1,484h7.9v9.8c-2.1,0.7-4.5,1.1-7.1,1.1c-2.8,0-5-0.8-6.5-2.4s-2.3-4-2.3-7c0-2.9,0.8-5.2,2.5-6.9
			s4-2.5,7.1-2.5c1.1,0,2.2,0.1,3.3,0.3c1,0.2,1.9,0.5,2.7,0.8l-1.6,3.9c-1.3-0.6-2.8-1-4.3-1c-1.4,0-2.6,0.5-3.3,1.4
			c-0.8,0.9-1.2,2.3-1.2,4c0,1.7,0.4,3,1.1,3.9c0.7,0.9,1.7,1.3,3.1,1.3c0.7,0,1.4-0.1,2-0.2v-2.9h-3.3V484z"/>
		<path class="st5" d="M725.7,494.7v-18.2h4.9v14.3h7v4H725.7z"/>
		<path class="st5" d="M756.1,476.4v11c0,2.4-0.7,4.2-2,5.5c-1.4,1.3-3.3,2-5.8,2c-2.5,0-4.4-0.6-5.7-1.9c-1.3-1.3-2-3.1-2-5.5
			v-11.1h5v10.7c0,1.3,0.2,2.2,0.7,2.8c0.5,0.6,1.2,0.9,2.1,0.9c1,0,1.7-0.3,2.2-0.9c0.5-0.6,0.7-1.5,0.7-2.8v-10.7H756.1z"/>
		<path class="st5" d="M777.3,494.7h-6.5l-6.7-12.9H764c0.2,2,0.2,3.6,0.2,4.6v8.2h-4.4v-18.2h6.4l6.6,12.7h0.1
			c-0.1-1.8-0.2-3.3-0.2-4.4v-8.2h4.4V494.7z"/>
		<path class="st5" d="M785.5,490.9l0.2,0.3c-0.8,3.2-1.5,5.5-2.2,7H780c0.2-1.1,0.5-2.4,0.7-3.9c0.2-1.4,0.4-2.6,0.5-3.4H785.5z"/>
		<path class="st5" d="M811.4,494.7h-5.6l-3.6-7l-1.5,0.9v6.1h-5v-18.2h5v7.9c0.2-0.5,0.8-1.3,1.5-2.3l3.8-5.6h5.4l-5.8,8.2
			L811.4,494.7z"/>
		<path class="st5" d="M824.2,494.7h-10.8v-18.2h10.8v4h-5.9v2.9h5.5v4h-5.5v3.4h5.9V494.7z"/>
		<path class="st5" d="M842.8,485.2c0,3-0.8,5.4-2.5,7s-4,2.5-7.1,2.5h-5.9v-18.2h6.3c2.9,0,5.2,0.7,6.8,2.2
			S842.8,482.3,842.8,485.2z M837.7,485.3c0-1.7-0.3-2.9-1-3.7c-0.7-0.8-1.7-1.2-3-1.2h-1.4v10.2h1.1c1.5,0,2.6-0.4,3.3-1.3
			S837.7,487.1,837.7,485.3z"/>
		<path class="st5" d="M857.3,494.7l-0.9-3.4h-5.9l-0.9,3.4h-5.4l6-18.3h6.6l6,18.3H857.3z M855.4,487.2l-0.8-3
			c-0.2-0.7-0.4-1.5-0.7-2.6c-0.3-1.1-0.4-1.8-0.5-2.3c-0.1,0.4-0.2,1.1-0.4,2.1s-0.7,2.9-1.5,5.8H855.4z"/>
		<path class="st5" d="M880.3,494.7h-5v-7.4h-5.7v7.4h-5v-18.2h5v6.8h5.7v-6.8h5V494.7z"/>
	</g>
</g>
<g id="thaiborder">
	<rect x="1322.3" y="462.5" class="st3" width="204" height="43.9"/>
	<g class="st4">
		<path class="st5" d="M1347.3,493.7h-4.9v-14.2h-4.5v-4h13.8v4h-4.4V493.7z"/>
		<path class="st5" d="M1370,493.7h-5v-7.4h-5.7v7.4h-5v-18.2h5v6.8h5.7v-6.8h5V493.7z"/>
		<path class="st5" d="M1385.2,493.7l-0.9-3.4h-5.9l-0.9,3.4h-5.4l6-18.3h6.6l6,18.3H1385.2z M1383.2,486.2l-0.8-3
			c-0.2-0.7-0.4-1.5-0.7-2.6s-0.4-1.8-0.5-2.3c-0.1,0.4-0.2,1.1-0.4,2.1c-0.2,1-0.7,2.9-1.5,5.8H1383.2z"/>
		<path class="st5" d="M1392.5,493.7v-18.2h5v18.2H1392.5z"/>
		<path class="st5" d="M1408.1,475.4h6.4c2.5,0,4.3,0.4,5.5,1.1c1.2,0.7,1.8,1.9,1.8,3.4c0,1-0.3,1.9-0.8,2.6
			c-0.5,0.7-1.2,1.2-2.1,1.4v0.1c1.1,0.3,2,0.8,2.5,1.5s0.8,1.6,0.8,2.7c0,1.7-0.6,3-1.9,3.9c-1.2,1-2.9,1.4-5.1,1.4h-7.1V475.4z
			 M1413,482.4h1.5c0.7,0,1.3-0.1,1.6-0.4c0.4-0.3,0.6-0.7,0.6-1.3c0-1-0.8-1.5-2.3-1.5h-1.4V482.4z M1413,486v3.8h1.7
			c1.5,0,2.3-0.6,2.3-1.9c0-0.6-0.2-1.1-0.6-1.4c-0.4-0.3-1-0.5-1.8-0.5H1413z"/>
		<path class="st5" d="M1442.4,484.5c0,3.1-0.8,5.4-2.3,7s-3.7,2.4-6.6,2.4c-2.9,0-5.1-0.8-6.6-2.4c-1.5-1.6-2.3-3.9-2.3-7
			c0-3,0.8-5.4,2.3-7c1.5-1.6,3.7-2.4,6.6-2.4c2.9,0,5.1,0.8,6.6,2.4C1441.6,479.1,1442.4,481.4,1442.4,484.5z M1429.8,484.5
			c0,3.5,1.2,5.3,3.7,5.3c1.2,0,2.2-0.4,2.8-1.3c0.6-0.9,0.9-2.2,0.9-4c0-1.8-0.3-3.2-0.9-4c-0.6-0.9-1.5-1.3-2.7-1.3
			C1431,479.2,1429.8,481,1429.8,484.5z"/>
		<path class="st5" d="M1450.6,487v6.6h-4.9v-18.2h6c5,0,7.4,1.8,7.4,5.4c0,2.1-1,3.7-3.1,4.9l5.3,8h-5.6l-3.9-6.6H1450.6z
			 M1450.6,483.3h0.9c1.7,0,2.6-0.8,2.6-2.3c0-1.3-0.8-1.9-2.5-1.9h-1V483.3z"/>
		<path class="st5" d="M1478.4,484.2c0,3-0.8,5.4-2.5,7c-1.7,1.6-4,2.5-7.1,2.5h-5.9v-18.2h6.3c2.9,0,5.2,0.7,6.8,2.2
			S1478.4,481.3,1478.4,484.2z M1473.3,484.3c0-1.7-0.3-2.9-1-3.7c-0.7-0.8-1.7-1.2-3-1.2h-1.4v10.2h1.1c1.5,0,2.6-0.4,3.3-1.3
			S1473.3,486.1,1473.3,484.3z"/>
		<path class="st5" d="M1492.5,493.7h-10.8v-18.2h10.8v4h-5.9v2.9h5.5v4h-5.5v3.4h5.9V493.7z"/>
		<path class="st5" d="M1500.7,487v6.6h-4.9v-18.2h6c5,0,7.4,1.8,7.4,5.4c0,2.1-1,3.7-3.1,4.9l5.3,8h-5.6l-3.9-6.6H1500.7z
			 M1500.7,483.3h0.9c1.7,0,2.6-0.8,2.6-2.3c0-1.3-0.8-1.9-2.5-1.9h-1V483.3z"/>
	</g>
</g>
</svg>
