<?xml version="1.0" encoding="utf-8"?>
<!-- Generator: Adobe Illustrator 23.0.0, SVG Export Plug-In . SVG Version: 6.00 Build 0)  -->
<svg version="1.1" id="Layer_1" xmlns="http://www.w3.org/2000/svg" xmlns:xlink="http://www.w3.org/1999/xlink" x="0px" y="0px"
	 viewBox="0 0 1920 576" style="enable-background:new 0 0 1920 576;" xml:space="preserve">
<style type="text/css">
	.st0{opacity:0.2;fill:#FC7A00;enable-background:new    ;}
	.st1{fill:#FFFFFF;stroke:#FC7A00;stroke-width:6;stroke-linejoin:round;}
	.st2{fill:#3B3B3B;}
	.st3{enable-background:new    ;}
	.st4{fill:#FFFFFF;}
	.st5{fill:none;stroke:#FC7A00;stroke-width:6;stroke-linejoin:round;stroke-dasharray:8,6;}
</style>
<title>Maps malaysia</title>
<image style="overflow:visible;enable-background:new    ;" width="3000" height="900" xlink:href="A9D4D183F550852A.png"  transform="matrix(0.64 0 0 0.64 0 0)">
</image>
<g>
	<circle class="st0" cx="793" cy="174" r="55.7"/>
	<circle class="st0" cx="793" cy="174" r="78.3"/>
	<circle class="st0" cx="793" cy="174" r="87"/>
</g>
<circle id="marker-laos" class="st1" cx="793" cy="174" r="12.1"/>
<g id="laos">
	<rect x="745" y="96.6" class="st2" width="95" height="43.9"/>
	<g class="st3">
		<path class="st4" d="M760.2,127.7v-18.2h4.9v14.3h7v4H760.2z"/>
		<path class="st4" d="M786.3,127.7l-0.9-3.4h-5.9l-0.9,3.4h-5.4l6-18.3h6.6l6,18.3H786.3z M784.4,120.2l-0.8-3
			c-0.2-0.7-0.4-1.5-0.7-2.6s-0.4-1.8-0.5-2.3c-0.1,0.4-0.2,1.1-0.4,2.1c-0.2,1-0.7,2.9-1.5,5.8H784.4z"/>
		<path class="st4" d="M810.7,118.5c0,3.1-0.8,5.4-2.3,7s-3.7,2.4-6.6,2.4c-2.9,0-5.1-0.8-6.6-2.4s-2.3-3.9-2.3-7c0-3,0.8-5.4,2.3-7
			c1.5-1.6,3.7-2.4,6.6-2.4c2.9,0,5.1,0.8,6.6,2.4C810,113.1,810.7,115.4,810.7,118.5z M798.2,118.5c0,3.5,1.2,5.3,3.7,5.3
			c1.2,0,2.2-0.4,2.8-1.3c0.6-0.9,0.9-2.2,0.9-4c0-1.8-0.3-3.2-0.9-4c-0.6-0.9-1.5-1.3-2.7-1.3C799.4,113.2,798.2,115,798.2,118.5z"
			/>
		<path class="st4" d="M825.9,122.1c0,1.1-0.3,2.1-0.9,3s-1.4,1.6-2.5,2c-1.1,0.5-2.4,0.7-3.8,0.7c-1.2,0-2.2-0.1-3.1-0.3
			c-0.8-0.2-1.7-0.5-2.6-0.9v-4.4c0.9,0.5,1.9,0.9,2.9,1.1s1.9,0.4,2.8,0.4c0.7,0,1.3-0.1,1.6-0.4c0.3-0.3,0.5-0.6,0.5-1
			c0-0.2-0.1-0.5-0.2-0.7c-0.1-0.2-0.4-0.4-0.7-0.6s-1.1-0.6-2.4-1.2c-1.2-0.5-2.1-1.1-2.7-1.6c-0.6-0.5-1-1.1-1.3-1.7
			s-0.4-1.4-0.4-2.3c0-1.7,0.6-3,1.8-3.9c1.2-0.9,2.9-1.4,5-1.4c1.9,0,3.8,0.4,5.8,1.3l-1.5,3.8c-1.7-0.8-3.2-1.2-4.4-1.2
			c-0.6,0-1.1,0.1-1.4,0.3c-0.3,0.2-0.4,0.5-0.4,0.8c0,0.4,0.2,0.7,0.6,1c0.4,0.3,1.4,0.8,3,1.5c1.6,0.7,2.7,1.5,3.3,2.3
			C825.6,119.9,825.9,120.9,825.9,122.1z"/>
	</g>
</g>
<path id="thai-laos_line" class="st5" d="M707,576l6-6l3-9l10-3l18.5-1.5l8-3l9-3l6-7l4-3l5-3l7-4l6-10l3-2v-4l7-12l6-18l2-11v-6
	l8-13l4-11l4-18l4-15v-8l-2-6l-1-8l3-11l5-11l3-10l2-7l-2-6l-5-9l-5-9l-3-10l1-10l-1-12l-2-8l-3-11c0,0-7-7-8-7s-7-2-7-2l-3-12
	l-4-12l-3-5v-10l-6-7l-2-6l1-9l8-6l6-2l2-6l-5-3l-3-12"/>
</svg>
