<?xml version="1.0" encoding="utf-8"?>
<!-- Generator: Adobe Illustrator 23.0.0, SVG Export Plug-In . SVG Version: 6.00 Build 0)  -->
<svg version="1.1" id="Layer_1" xmlns="http://www.w3.org/2000/svg" xmlns:xlink="http://www.w3.org/1999/xlink" x="0px" y="0px"
	 viewBox="0 0 1920 576" style="enable-background:new 0 0 1920 576;" xml:space="preserve">
<style type="text/css">
	.st0{fill:#3B3B3B;}
	.st1{enable-background:new    ;}
	.st2{fill:#FFFFFF;}
	.st3{fill:none;stroke:#FC7A00;stroke-width:6;stroke-linejoin:round;stroke-dasharray:8.02,6.01;}
	.st4{fill:#FC7A00;}
	.st5{fill:none;stroke:#FC7A00;stroke-width:6;stroke-linejoin:round;stroke-dasharray:8.47,6.35;}
	.st6{fill:none;stroke:#FC7A00;stroke-width:6;stroke-linejoin:round;stroke-dasharray:7.65,5.74;}
</style>
<title>Maps malaysia</title>
<image style="overflow:visible;enable-background:new    ;" width="3000" height="900" xlink:href="A9BB905DC7258851.png"  transform="matrix(0.64 0 0 0.64 0 0)">
</image>
<g id="malacca_strait">
	<rect x="929" y="287.5" class="st0" width="257" height="43.9"/>
	<g class="st1">
		<path class="st2" d="M955.1,318.7l-3.7-13.1h-0.1c0.2,2.2,0.3,4,0.3,5.2v7.9h-4.4v-18.2h6.6l3.8,13h0.1l3.7-13h6.6v18.2h-4.5v-8
			c0-0.4,0-0.9,0-1.4c0-0.5,0.1-1.8,0.2-3.7h-0.1l-3.7,13.1H955.1z"/>
		<path class="st2" d="M983,318.7l-0.9-3.4h-5.9l-0.9,3.4h-5.4l6-18.3h6.6l6,18.3H983z M981.1,311.2l-0.8-3
			c-0.2-0.7-0.4-1.5-0.7-2.6c-0.3-1.1-0.4-1.8-0.5-2.3c-0.1,0.4-0.2,1.1-0.4,2.1c-0.2,1-0.7,2.9-1.5,5.8H981.1z"/>
		<path class="st2" d="M990.4,318.7v-18.2h4.9v14.3h7v4H990.4z"/>
		<path class="st2" d="M1016.4,318.7l-0.9-3.4h-5.9l-0.9,3.4h-5.4l6-18.3h6.6l6,18.3H1016.4z M1014.5,311.2l-0.8-3
			c-0.2-0.7-0.4-1.5-0.7-2.6c-0.3-1.1-0.4-1.8-0.5-2.3c-0.1,0.4-0.2,1.1-0.4,2.1s-0.7,2.9-1.5,5.8H1014.5z"/>
		<path class="st2" d="M1031.9,304.2c-1.2,0-2.1,0.5-2.7,1.4s-1,2.3-1,4c0,3.5,1.3,5.3,4,5.3c0.8,0,1.6-0.1,2.3-0.3s1.5-0.5,2.3-0.8
			v4.2c-1.5,0.7-3.2,1-5.2,1c-2.8,0-4.9-0.8-6.3-2.4s-2.2-3.9-2.2-6.9c0-1.9,0.4-3.5,1.1-5c0.7-1.4,1.7-2.5,3.1-3.3
			c1.3-0.8,2.9-1.2,4.7-1.2c2,0,3.9,0.4,5.7,1.3l-1.5,3.9c-0.7-0.3-1.3-0.6-2-0.8C1033.4,304.3,1032.7,304.2,1031.9,304.2z"/>
		<path class="st2" d="M1048.5,304.2c-1.2,0-2.1,0.5-2.7,1.4s-1,2.3-1,4c0,3.5,1.3,5.3,4,5.3c0.8,0,1.6-0.1,2.3-0.3
			c0.8-0.2,1.5-0.5,2.3-0.8v4.2c-1.5,0.7-3.2,1-5.2,1c-2.8,0-4.9-0.8-6.3-2.4c-1.5-1.6-2.2-3.9-2.2-6.9c0-1.9,0.4-3.5,1.1-5
			c0.7-1.4,1.7-2.5,3.1-3.3c1.3-0.8,2.9-1.2,4.7-1.2c2,0,3.9,0.4,5.7,1.3l-1.5,3.9c-0.7-0.3-1.3-0.6-2-0.8
			C1050,304.3,1049.3,304.2,1048.5,304.2z"/>
		<path class="st2" d="M1068.2,318.7l-0.9-3.4h-5.9l-0.9,3.4h-5.4l6-18.3h6.6l6,18.3H1068.2z M1066.3,311.2l-0.8-3
			c-0.2-0.7-0.4-1.5-0.7-2.6c-0.3-1.1-0.4-1.8-0.5-2.3c-0.1,0.4-0.2,1.1-0.4,2.1s-0.7,2.9-1.5,5.8H1066.3z"/>
		<path class="st2" d="M1094.1,313.1c0,1.1-0.3,2.1-0.9,3s-1.4,1.6-2.5,2s-2.4,0.7-3.8,0.7c-1.2,0-2.2-0.1-3.1-0.3
			c-0.8-0.2-1.7-0.5-2.6-0.9v-4.4c0.9,0.5,1.9,0.9,2.9,1.1c1,0.3,1.9,0.4,2.8,0.4c0.7,0,1.3-0.1,1.6-0.4c0.3-0.3,0.5-0.6,0.5-1
			c0-0.2-0.1-0.5-0.2-0.7c-0.1-0.2-0.4-0.4-0.7-0.6s-1.1-0.6-2.4-1.2c-1.2-0.5-2.1-1.1-2.7-1.6c-0.6-0.5-1-1.1-1.3-1.7
			s-0.4-1.4-0.4-2.3c0-1.7,0.6-3,1.8-3.9c1.2-0.9,2.9-1.4,5-1.4c1.9,0,3.8,0.4,5.8,1.3l-1.5,3.8c-1.7-0.8-3.2-1.2-4.4-1.2
			c-0.6,0-1.1,0.1-1.4,0.3s-0.4,0.5-0.4,0.8c0,0.4,0.2,0.7,0.6,1c0.4,0.3,1.4,0.8,3,1.5c1.6,0.7,2.7,1.5,3.3,2.3
			S1094.1,311.9,1094.1,313.1z"/>
		<path class="st2" d="M1105,318.7h-4.9v-14.2h-4.5v-4h13.8v4h-4.4V318.7z"/>
		<path class="st2" d="M1117,312v6.6h-4.9v-18.2h6c5,0,7.4,1.8,7.4,5.4c0,2.1-1,3.7-3.1,4.9l5.3,8h-5.6l-3.9-6.6H1117z M1117,308.3
			h0.9c1.7,0,2.6-0.8,2.6-2.3c0-1.3-0.8-1.9-2.5-1.9h-1V308.3z"/>
		<path class="st2" d="M1140.5,318.7l-0.9-3.4h-5.9l-0.9,3.4h-5.4l6-18.3h6.6l6,18.3H1140.5z M1138.6,311.2l-0.8-3
			c-0.2-0.7-0.4-1.5-0.7-2.6c-0.3-1.1-0.4-1.8-0.5-2.3c-0.1,0.4-0.2,1.1-0.4,2.1c-0.2,1-0.7,2.9-1.5,5.8H1138.6z"/>
		<path class="st2" d="M1147.9,318.7v-18.2h5v18.2H1147.9z"/>
		<path class="st2" d="M1164.8,318.7h-4.9v-14.2h-4.5v-4h13.8v4h-4.4V318.7z"/>
	</g>
</g>
<g id="arrow_1">
	<line class="st3" x1="836.7" y1="175.7" x2="925.8" y2="112.6"/>
	<polygon class="st4" points="931.9,118 922.4,105.1 940.8,101.5 	"/>
</g>
<g id="arrow_2">
	<line class="st5" x1="915.8" y1="195.7" x2="973.6" y2="154.6"/>
	<polygon class="st4" points="979.9,160 970.4,147.1 988.8,143.5 	"/>
</g>
<g id="arrow_4">
	<line class="st5" x1="1197.8" y1="376.7" x2="1255.6" y2="335.6"/>
	<polygon class="st4" points="1261.9,341 1252.4,328.1 1270.8,324.5 	"/>
</g>
<g id="arrow_3">
	<line class="st6" x1="975.6" y1="225.5" x2="1027.9" y2="188.5"/>
	<polygon class="st4" points="1033.9,194 1024.4,181.1 1042.8,177.5 	"/>
</g>
<g id="arrow_5">
	<line class="st6" x1="1253.6" y1="401.5" x2="1305.9" y2="364.5"/>
	<polygon class="st4" points="1311.9,370 1302.4,357.1 1320.8,353.5 	"/>
</g>
</svg>
