<svg xmlns="http://www.w3.org/2000/svg" width="13.797" height="9.691" viewBox="0 0 13.797 9.691">
    <defs>
        <style>
            .icon-svg{fill:#dcba7d}
        </style>
    </defs>
    <path id="Youtube" d="M244.067 1364.646q0 1.153-.016 1.437-.063.932-.126 1.358a3.322 3.322 0 0 1-.205.773 1.549 1.549 0 0 1-.379.6 1.817 1.817 0 0 1-.963.505q-3 .221-6.393.158-1.989-.032-2.834-.072a9.381 9.381 0 0 1-1.255-.118 1.844 1.844 0 0 1-.931-.489 2.146 2.146 0 0 1-.442-.868 2.963 2.963 0 0 1-.118-.489q-.04-.253-.071-.758a32.574 32.574 0 0 1 0-4.073l.095-.773a3.658 3.658 0 0 1 .174-.758 1.727 1.727 0 0 1 .41-.631 2.013 2.013 0 0 1 .931-.474 16.053 16.053 0 0 1 1.918-.126q1.523-.047 3.307-.047t3.307.055q1.523.056 1.934.119a1.923 1.923 0 0 1 .608.237 1.565 1.565 0 0 1 .466.41 2.873 2.873 0 0 1 .363.853 4.785 4.785 0 0 1 .158.9q0 .079.047.837c.009.188.015.668.015 1.434zm-6.362.774q1.247-.632 1.768-.915l-3.71-1.958v3.9q.647-.362 1.937-1.027z" class="icon-svg" transform="translate(-230.27 -1359.8)"/>
</svg>
