<svg id="details" xmlns="http://www.w3.org/2000/svg" viewBox="0 0 1920 1080"><defs><style>.cls-1,.cls-2,.cls-4,.cls-5{fill:none;stroke:#fc7a00;stroke-linejoin:round;stroke-width:6px;}.cls-2{stroke-dasharray:8.02 6.01;}.cls-3{fill:#fc7a00;}.cls-4{stroke-dasharray:8.47 6.35;}.cls-5{stroke-dasharray:7.65 5.74;}.cls-6{fill:#a36a2a;}.cls-7{fill:#fff;}.cls-8{fill:#3b3b3b;}</style></defs><title>Malaysia map OL</title><g id="arrow01"><line class="cls-1" x1="716.5" y1="375.5" x2="719.76" y2="373.19"/><line class="cls-2" x1="724.67" y1="369.71" x2="813.78" y2="306.55"/><line class="cls-1" x1="816.24" y1="304.81" x2="819.5" y2="302.5"/><polygon class="cls-3" points="819.88 311.98 810.41 299.08 828.85 295.47 819.88 311.98"/></g><g id="arrow02"><line class="cls-1" x1="788.31" y1="436.66" x2="791.57" y2="434.35"/><line class="cls-4" x1="796.76" y1="430.68" x2="854.64" y2="389.65"/><line class="cls-1" x1="857.24" y1="387.81" x2="860.5" y2="385.5"/><polygon class="cls-3" points="860.88 394.98 851.41 382.08 869.85 378.47 860.88 394.98"/></g><g id="arrow04"><line class="cls-1" x1="1145.31" y1="687.66" x2="1148.57" y2="685.35"/><line class="cls-4" x1="1153.76" y1="681.68" x2="1211.64" y2="640.65"/><line class="cls-1" x1="1214.24" y1="638.81" x2="1217.5" y2="636.5"/><polygon class="cls-3" points="1217.88 645.98 1208.41 633.08 1226.85 629.47 1217.88 645.98"/></g><g id="arrow03"><line class="cls-1" x1="828.69" y1="511.14" x2="831.95" y2="508.83"/><line class="cls-5" x1="836.63" y1="505.51" x2="888.9" y2="468.47"/><line class="cls-1" x1="891.24" y1="466.81" x2="894.5" y2="464.5"/><polygon class="cls-3" points="894.88 473.98 885.41 461.08 903.85 457.47 894.88 473.98"/></g><g id="arrow05"><line class="cls-1" x1="1245.69" y1="770.14" x2="1248.95" y2="767.83"/><line class="cls-5" x1="1253.63" y1="764.51" x2="1305.9" y2="727.47"/><line class="cls-1" x1="1308.24" y1="725.81" x2="1311.5" y2="723.5"/><polygon class="cls-3" points="1311.88 732.98 1302.41 720.08 1320.85 716.47 1311.88 732.98"/></g><g id="melaka-text"><rect class="cls-6" x="806" y="557.55" width="263" height="43.88"/><path class="cls-7" d="M837.74,588.67,834,575.53h-.11c.17,2.24.26,4,.26,5.22v7.92h-4.37V570.43h6.57l3.8,13h.1l3.73-13h6.58v18.24H846v-8c0-.41,0-.87,0-1.38s.07-1.75.17-3.73h-.11l-3.69,13.11Z"/><path class="cls-7" d="M865.33,588.67H854.5V570.43h10.83v4h-5.9v2.87h5.47v4h-5.47v3.45h5.9Z"/><path class="cls-7" d="M868.53,588.67V570.43h4.93v14.26h7v4Z"/><path class="cls-7" d="M894.59,588.67l-.9-3.42h-5.92l-.93,3.42h-5.41l6-18.32H894l6,18.32Zm-1.92-7.46-.78-3c-.19-.67-.41-1.53-.67-2.59s-.44-1.81-.52-2.27c-.08.43-.22,1.13-.44,2.1s-.71,2.89-1.47,5.75Z"/><path class="cls-7" d="M917.54,588.67H912l-3.61-7-1.46.87v6.1H902V570.43h4.95v7.92a21.88,21.88,0,0,1,1.51-2.33l3.83-5.59h5.39l-5.75,8.17Z"/><path class="cls-7" d="M930.71,588.67l-.9-3.42h-5.93l-.92,3.42h-5.42l6-18.32h6.58l6,18.32Zm-1.93-7.46-.78-3c-.19-.67-.41-1.53-.67-2.59s-.43-1.81-.52-2.27c-.07.43-.22,1.13-.44,2.1s-.71,2.89-1.47,5.75Z"/><path class="cls-7" d="M956.64,583.13a5.37,5.37,0,0,1-.87,3,5.61,5.61,0,0,1-2.48,2,9.14,9.14,0,0,1-3.8.73,15.46,15.46,0,0,1-3.06-.25,11,11,0,0,1-2.57-.9v-4.39a14.31,14.31,0,0,0,2.93,1.13,11,11,0,0,0,2.8.41,2.77,2.77,0,0,0,1.61-.38,1.18,1.18,0,0,0,.51-1,1.08,1.08,0,0,0-.21-.66,2.6,2.6,0,0,0-.66-.57,26.83,26.83,0,0,0-2.43-1.17,11.36,11.36,0,0,1-2.67-1.57,4.83,4.83,0,0,1-1.33-1.75,5.87,5.87,0,0,1-.43-2.33,4.66,4.66,0,0,1,1.84-3.93,8.07,8.07,0,0,1,5-1.41,14.07,14.07,0,0,1,5.78,1.31l-1.51,3.8a11,11,0,0,0-4.42-1.17,2.27,2.27,0,0,0-1.4.34,1,1,0,0,0-.44.83,1.24,1.24,0,0,0,.56,1,21.73,21.73,0,0,0,3,1.54,8.33,8.33,0,0,1,3.28,2.28A5,5,0,0,1,956.64,583.13Z"/><path class="cls-7" d="M967.5,588.67h-4.92V574.46h-4.46v-4H972v4H967.5Z"/><path class="cls-7" d="M979.48,582v6.64h-4.93V570.43h6q7.44,0,7.44,5.39a5.37,5.37,0,0,1-3.1,4.9l5.32,7.95H984.6L980.73,582Zm0-3.7h.93q2.58,0,2.58-2.28c0-1.26-.84-1.89-2.53-1.89h-1Z"/><path class="cls-7" d="M1003,588.67l-.9-3.42h-5.92l-.93,3.42h-5.41l6-18.32h6.58l6,18.32Zm-1.92-7.46-.79-3c-.18-.67-.4-1.53-.66-2.59s-.44-1.81-.52-2.27c-.08.43-.22,1.13-.44,2.1s-.71,2.89-1.47,5.75Z"/><path class="cls-7" d="M1010.4,588.67V570.43h5v18.24Z"/><path class="cls-7" d="M1027.35,588.67h-4.93V574.46H1018v-4h13.82v4h-4.44Z"/><path class="cls-7" d="M1046.33,583.13a5.44,5.44,0,0,1-.86,3,5.67,5.67,0,0,1-2.48,2,9.22,9.22,0,0,1-3.81.73,15.52,15.52,0,0,1-3.06-.25,11.14,11.14,0,0,1-2.57-.9v-4.39a14.31,14.31,0,0,0,2.93,1.13,11,11,0,0,0,2.8.41,2.75,2.75,0,0,0,1.61-.38,1.18,1.18,0,0,0,.51-1,1.14,1.14,0,0,0-.2-.66,2.5,2.5,0,0,0-.67-.57c-.3-.19-1.11-.58-2.42-1.17a11.45,11.45,0,0,1-2.68-1.57,4.69,4.69,0,0,1-1.32-1.75,5.7,5.7,0,0,1-.43-2.33,4.68,4.68,0,0,1,1.83-3.93,8.07,8.07,0,0,1,5-1.41,14,14,0,0,1,5.78,1.31l-1.51,3.8a11,11,0,0,0-4.42-1.17,2.29,2.29,0,0,0-1.4.34,1,1,0,0,0-.43.83,1.22,1.22,0,0,0,.55,1,22.1,22.1,0,0,0,3,1.54,8.36,8.36,0,0,1,3.27,2.28A5,5,0,0,1,1046.33,583.13Z"/></g><g id="caption01"><rect class="cls-8" x="184" y="490.24" width="584" height="198.52"/><path class="cls-7" d="M226.36,534.86H224.7v-12.8h-4.52v-1.47h10.7v1.47h-4.52Z"/><path class="cls-7" d="M240.11,534.86v-6.92a2.78,2.78,0,0,0-.6-2,2.43,2.43,0,0,0-1.86-.65,3.07,3.07,0,0,0-2.47.92,4.64,4.64,0,0,0-.78,3v5.59h-1.62V519.67h1.62v4.6a10.69,10.69,0,0,1-.07,1.38h.09a3.33,3.33,0,0,1,1.37-1.22,4.37,4.37,0,0,1,2-.44,4.16,4.16,0,0,1,2.95.93,3.94,3.94,0,0,1,1,3v7Z"/><path class="cls-7" d="M249.58,535.06a4.92,4.92,0,0,1-3.75-1.45,5.6,5.6,0,0,1-1.37-4,6.22,6.22,0,0,1,1.28-4.11,4.22,4.22,0,0,1,3.42-1.52,4,4,0,0,1,3.18,1.32,5.08,5.08,0,0,1,1.18,3.49v1h-7.38a4.25,4.25,0,0,0,1,2.86,3.31,3.31,0,0,0,2.55,1,8.68,8.68,0,0,0,3.42-.72v1.45a9.6,9.6,0,0,1-1.63.53A9,9,0,0,1,249.58,535.06Zm-.44-9.74a2.67,2.67,0,0,0-2.06.84,3.89,3.89,0,0,0-.9,2.33h5.6a3.54,3.54,0,0,0-.69-2.35A2.4,2.4,0,0,0,249.14,525.32Z"/><path class="cls-7" d="M268,534.86l-4.85-12.65h-.07c.09,1,.13,2.19.13,3.57v9.08h-1.53V520.59h2.5l4.52,11.77h.08l4.56-11.77h2.48v14.27H274.2v-9.19c0-1.06.05-2.21.14-3.44h-.08l-4.88,12.63Z"/><path class="cls-7" d="M284.05,535.06a4.88,4.88,0,0,1-3.74-1.45,5.56,5.56,0,0,1-1.37-4,6.22,6.22,0,0,1,1.27-4.11,4.22,4.22,0,0,1,3.42-1.52,4.05,4.05,0,0,1,3.19,1.32,5.08,5.08,0,0,1,1.17,3.49v1h-7.37a4.2,4.2,0,0,0,.95,2.86,3.29,3.29,0,0,0,2.54,1,8.68,8.68,0,0,0,3.42-.72v1.45a9.32,9.32,0,0,1-1.63.53A8.9,8.9,0,0,1,284.05,535.06Zm-.44-9.74a2.63,2.63,0,0,0-2.05.84,4,4,0,0,0-.91,2.33h5.6a3.6,3.6,0,0,0-.68-2.35A2.44,2.44,0,0,0,283.61,525.32Z"/><path class="cls-7" d="M292.37,534.86h-1.62V519.67h1.62Z"/><path class="cls-7" d="M302.39,534.86l-.32-1.52H302a4.38,4.38,0,0,1-1.59,1.36,4.85,4.85,0,0,1-2,.36,3.59,3.59,0,0,1-2.5-.82,3,3,0,0,1-.9-2.33q0-3.25,5.19-3.4l1.81-.06v-.67a2.72,2.72,0,0,0-.54-1.86,2.23,2.23,0,0,0-1.73-.6,7.12,7.12,0,0,0-3,.82l-.5-1.24a8,8,0,0,1,1.73-.67,7.65,7.65,0,0,1,1.89-.24,4.05,4.05,0,0,1,2.84.85,3.51,3.51,0,0,1,.92,2.72v7.3Zm-3.66-1.14a3.27,3.27,0,0,0,2.38-.83,3.09,3.09,0,0,0,.86-2.32v-1l-1.62.07a5.9,5.9,0,0,0-2.79.6,1.81,1.81,0,0,0-.85,1.66,1.67,1.67,0,0,0,.53,1.33A2.2,2.2,0,0,0,298.73,533.72Z"/><path class="cls-7" d="M308.54,529.39a19.54,19.54,0,0,1,1.27-1.57l3.46-3.66h1.93l-4.34,4.56,4.64,6.14h-2l-3.78-5.05-1.22,1.05v4h-1.61V519.67h1.61v8.06c0,.35,0,.91-.08,1.66Z"/><path class="cls-7" d="M324,534.86l-.32-1.52h-.08A4.38,4.38,0,0,1,322,534.7a4.85,4.85,0,0,1-2,.36,3.59,3.59,0,0,1-2.5-.82,3,3,0,0,1-.9-2.33q0-3.25,5.19-3.4l1.81-.06v-.67a2.72,2.72,0,0,0-.54-1.86,2.23,2.23,0,0,0-1.73-.6,7.19,7.19,0,0,0-3,.82l-.5-1.24a7.86,7.86,0,0,1,1.74-.67,7.53,7.53,0,0,1,1.89-.24,4,4,0,0,1,2.83.85,3.51,3.51,0,0,1,.92,2.72v7.3Zm-3.66-1.14a3.27,3.27,0,0,0,2.38-.83,3,3,0,0,0,.86-2.32v-1l-1.62.07a5.9,5.9,0,0,0-2.79.6,1.83,1.83,0,0,0-.85,1.66,1.67,1.67,0,0,0,.53,1.33A2.2,2.2,0,0,0,320.35,533.72Z"/><path class="cls-7" d="M342.05,531.07a3.53,3.53,0,0,1-1.37,2.94,5.93,5.93,0,0,1-3.71,1,9.37,9.37,0,0,1-3.9-.65V532.8a9.7,9.7,0,0,0,1.91.59,10.26,10.26,0,0,0,2,.21,4.13,4.13,0,0,0,2.5-.62,2.08,2.08,0,0,0,.84-1.76,2.21,2.21,0,0,0-.3-1.21,2.72,2.72,0,0,0-1-.88,15.21,15.21,0,0,0-2.13-.91,6.6,6.6,0,0,1-2.84-1.69,3.72,3.72,0,0,1-.86-2.54,3.19,3.19,0,0,1,1.24-2.63,5.17,5.17,0,0,1,3.28-1,9.7,9.7,0,0,1,3.92.78l-.52,1.45a8.75,8.75,0,0,0-3.44-.74,3.4,3.4,0,0,0-2.06.56,1.88,1.88,0,0,0-.74,1.58,2.31,2.31,0,0,0,.28,1.21,2.51,2.51,0,0,0,.92.87,10.8,10.8,0,0,0,2,.87,8.08,8.08,0,0,1,3.09,1.72A3.4,3.4,0,0,1,342.05,531.07Z"/><path class="cls-7" d="M348.18,533.72a5.49,5.49,0,0,0,.83-.06,6.4,6.4,0,0,0,.64-.13v1.24a3.51,3.51,0,0,1-.78.21,6.48,6.48,0,0,1-.92.08q-3.1,0-3.11-3.27v-6.37h-1.53v-.78l1.53-.67.69-2.29h.93v2.48h3.11v1.26h-3.11v6.3a2.18,2.18,0,0,0,.46,1.48A1.59,1.59,0,0,0,348.18,533.72Z"/><path class="cls-7" d="M356.67,524a7,7,0,0,1,1.28.11l-.23,1.51a5.35,5.35,0,0,0-1.17-.15,2.85,2.85,0,0,0-2.22,1.06,3.84,3.84,0,0,0-.92,2.62v5.74h-1.62v-10.7h1.33l.19,2h.08a4.8,4.8,0,0,1,1.43-1.61A3.3,3.3,0,0,1,356.67,524Z"/><path class="cls-7" d="M366.53,534.86l-.32-1.52h-.08a4.38,4.38,0,0,1-1.59,1.36,4.85,4.85,0,0,1-2,.36,3.59,3.59,0,0,1-2.5-.82,3,3,0,0,1-.9-2.33q0-3.25,5.19-3.4l1.81-.06v-.67a2.72,2.72,0,0,0-.54-1.86,2.23,2.23,0,0,0-1.73-.6,7.19,7.19,0,0,0-3,.82l-.5-1.24a8,8,0,0,1,1.73-.67A7.65,7.65,0,0,1,364,524a4.05,4.05,0,0,1,2.84.85,3.51,3.51,0,0,1,.92,2.72v7.3Zm-3.66-1.14a3.27,3.27,0,0,0,2.38-.83,3,3,0,0,0,.86-2.32v-1l-1.62.07a5.9,5.9,0,0,0-2.79.6,1.81,1.81,0,0,0-.85,1.66,1.67,1.67,0,0,0,.53,1.33A2.2,2.2,0,0,0,362.87,533.72Z"/><path class="cls-7" d="M370.94,521.26a1.07,1.07,0,0,1,.27-.81.92.92,0,0,1,.68-.26.93.93,0,0,1,.68.26,1.33,1.33,0,0,1,0,1.63.94.94,0,0,1-.68.27.93.93,0,0,1-.68-.27A1.11,1.11,0,0,1,370.94,521.26Zm1.76,13.6h-1.63v-10.7h1.63Z"/><path class="cls-7" d="M379.59,533.72a5.62,5.62,0,0,0,1.46-.19v1.24a3.26,3.26,0,0,1-.77.21,6.48,6.48,0,0,1-.92.08q-3.11,0-3.11-3.27v-6.37h-1.53v-.78l1.53-.67.68-2.29h.94v2.48H381v1.26h-3.11v6.3a2.13,2.13,0,0,0,.46,1.48A1.59,1.59,0,0,0,379.59,533.72Z"/><path class="cls-7" d="M390.1,531.94a2.67,2.67,0,0,1-1.12,2.31,5.22,5.22,0,0,1-3.12.81,6.78,6.78,0,0,1-3.32-.67v-1.51a8.14,8.14,0,0,0,1.65.62,6.92,6.92,0,0,0,1.71.22,3.83,3.83,0,0,0,2-.4,1.35,1.35,0,0,0,.69-1.24A1.37,1.37,0,0,0,388,531a8.88,8.88,0,0,0-2.11-1,11.18,11.18,0,0,1-2.13-1,2.86,2.86,0,0,1-.93-.94,2.6,2.6,0,0,1,.75-3.33,5,5,0,0,1,2.92-.75,8.5,8.5,0,0,1,3.38.7L389.3,526a7.67,7.67,0,0,0-2.92-.67,3.26,3.26,0,0,0-1.74.37,1.12,1.12,0,0,0-.59,1,1.24,1.24,0,0,0,.22.73,2.15,2.15,0,0,0,.71.58,15.5,15.5,0,0,0,1.88.79,7,7,0,0,1,2.57,1.4A2.45,2.45,0,0,1,390.1,531.94Z"/><path class="cls-7" d="M397.79,521.26a1,1,0,0,1,.28-.81,1,1,0,0,1,1.35,0,1.29,1.29,0,0,1,0,1.63,1,1,0,0,1-1.35,0A1.07,1.07,0,0,1,397.79,521.26Zm1.76,13.6h-1.62v-10.7h1.62Z"/><path class="cls-7" d="M409.89,531.94a2.69,2.69,0,0,1-1.11,2.31,5.23,5.23,0,0,1-3.13.81,6.83,6.83,0,0,1-3.32-.67v-1.51a8.23,8.23,0,0,0,1.66.62,6.9,6.9,0,0,0,1.7.22,3.9,3.9,0,0,0,2-.4,1.4,1.4,0,0,0,.14-2.31,9,9,0,0,0-2.12-1,11.32,11.32,0,0,1-2.12-1,3,3,0,0,1-.94-.94,2.5,2.5,0,0,1-.31-1.26,2.42,2.42,0,0,1,1.07-2.07,5,5,0,0,1,2.92-.75,8.53,8.53,0,0,1,3.38.7l-.58,1.32a7.63,7.63,0,0,0-2.92-.67,3.26,3.26,0,0,0-1.74.37,1.11,1.11,0,0,0-.58,1,1.17,1.17,0,0,0,.22.73,2,2,0,0,0,.71.58,15.15,15.15,0,0,0,1.87.79,6.87,6.87,0,0,1,2.57,1.4A2.45,2.45,0,0,1,409.89,531.94Z"/><path class="cls-7" d="M424.31,534.86l-.33-1.52h-.07a4.48,4.48,0,0,1-1.6,1.36,4.82,4.82,0,0,1-2,.36,3.54,3.54,0,0,1-2.49-.82,3,3,0,0,1-.91-2.33q0-3.25,5.19-3.4l1.82-.06v-.67a2.67,2.67,0,0,0-.55-1.86,2.23,2.23,0,0,0-1.73-.6,7.19,7.19,0,0,0-3,.82l-.5-1.24a7.86,7.86,0,0,1,1.74-.67,7.65,7.65,0,0,1,1.89-.24,4,4,0,0,1,2.83.85,3.51,3.51,0,0,1,.93,2.72v7.3Zm-3.67-1.14a3.26,3.26,0,0,0,2.38-.83,3.05,3.05,0,0,0,.87-2.32v-1l-1.62.07a5.9,5.9,0,0,0-2.79.6,1.82,1.82,0,0,0-.86,1.66,1.64,1.64,0,0,0,.54,1.33A2.17,2.17,0,0,0,420.64,533.72Z"/><path class="cls-7" d="M435.64,529.39a20.09,20.09,0,0,1,1.28-1.57l3.46-3.66h1.92L438,528.72l4.64,6.14h-2l-3.77-5.05-1.23,1.05v4H434V519.67h1.6v8.06c0,.35,0,.91-.07,1.66Z"/><path class="cls-7" d="M449.06,535.06a4.88,4.88,0,0,1-3.74-1.45,5.56,5.56,0,0,1-1.37-4,6.22,6.22,0,0,1,1.27-4.11,4.22,4.22,0,0,1,3.42-1.52,4.07,4.07,0,0,1,3.19,1.32,5.08,5.08,0,0,1,1.17,3.49v1h-7.38a4.25,4.25,0,0,0,1,2.86,3.29,3.29,0,0,0,2.54,1,8.68,8.68,0,0,0,3.42-.72v1.45a9.32,9.32,0,0,1-1.63.53A8.9,8.9,0,0,1,449.06,535.06Zm-.44-9.74a2.63,2.63,0,0,0-2.05.84,3.89,3.89,0,0,0-.91,2.33h5.6a3.6,3.6,0,0,0-.68-2.35A2.44,2.44,0,0,0,448.62,525.32Z"/><path class="cls-7" d="M454.06,524.16h1.74l2.34,6.11a21.71,21.71,0,0,1,1,3h.08c.08-.33.26-.9.53-1.7s1.16-3.28,2.65-7.42h1.74l-4.6,12.19a6.09,6.09,0,0,1-1.59,2.56,3.39,3.39,0,0,1-2.25.76,6.54,6.54,0,0,1-1.46-.17v-1.3a5.54,5.54,0,0,0,1.2.12,2.47,2.47,0,0,0,2.38-1.87l.6-1.53Z"/><path class="cls-7" d="M477.94,531.94a2.69,2.69,0,0,1-1.11,2.31,5.27,5.27,0,0,1-3.13.81,6.78,6.78,0,0,1-3.32-.67v-1.51a8.23,8.23,0,0,0,1.66.62,6.78,6.78,0,0,0,1.7.22,3.83,3.83,0,0,0,1.95-.4,1.39,1.39,0,0,0,.14-2.31,8.88,8.88,0,0,0-2.11-1,11,11,0,0,1-2.12-1,2.9,2.9,0,0,1-.94-.94,2.59,2.59,0,0,1,.76-3.33,5,5,0,0,1,2.92-.75,8.48,8.48,0,0,1,3.37.7l-.57,1.32a7.67,7.67,0,0,0-2.92-.67,3.26,3.26,0,0,0-1.74.37,1.12,1.12,0,0,0-.59,1,1.24,1.24,0,0,0,.22.73,2.15,2.15,0,0,0,.71.58,15.5,15.5,0,0,0,1.88.79,7,7,0,0,1,2.57,1.4A2.45,2.45,0,0,1,477.94,531.94Z"/><path class="cls-7" d="M494.22,534.86v-7a2.88,2.88,0,0,0-.55-1.92,2.13,2.13,0,0,0-1.7-.64,2.72,2.72,0,0,0-2.23.87,4.09,4.09,0,0,0-.73,2.68v6h-1.62v-7a2.93,2.93,0,0,0-.54-1.92,2.17,2.17,0,0,0-1.71-.64,2.64,2.64,0,0,0-2.23.92,4.87,4.87,0,0,0-.71,3v5.61h-1.62v-10.7h1.31l.27,1.47h.08a3.1,3.1,0,0,1,1.29-1.22,3.88,3.88,0,0,1,1.87-.44c1.67,0,2.77.6,3.28,1.81h.08a3.43,3.43,0,0,1,1.39-1.33,4.33,4.33,0,0,1,2.07-.48,3.64,3.64,0,0,1,2.72.93,4.18,4.18,0,0,1,.9,3v7Z"/><path class="cls-7" d="M500.7,524.16v6.94a2.79,2.79,0,0,0,.6,2,2.43,2.43,0,0,0,1.86.64,3,3,0,0,0,2.46-.92,4.6,4.6,0,0,0,.78-3v-5.63H508v10.7h-1.34l-.23-1.43h-.09a3.25,3.25,0,0,1-1.38,1.21,4.68,4.68,0,0,1-2,.42,4.11,4.11,0,0,1-2.93-.93,4,4,0,0,1-1-3v-7Z"/><path class="cls-7" d="M520.21,524.16v1l-2,.23a3.24,3.24,0,0,1,.49.89,3.52,3.52,0,0,1,.22,1.25,3.16,3.16,0,0,1-1.08,2.51,4.35,4.35,0,0,1-3,.94,5.11,5.11,0,0,1-.9-.08,1.58,1.58,0,0,0-1,1.38.7.7,0,0,0,.36.65,2.62,2.62,0,0,0,1.24.21h1.89a4.27,4.27,0,0,1,2.68.73,2.55,2.55,0,0,1,.93,2.13,3,3,0,0,1-1.43,2.71,7.63,7.63,0,0,1-4.16.93,5.7,5.7,0,0,1-3.24-.78,2.68,2.68,0,0,1-.51-3.9,3.26,3.26,0,0,1,1.76-1,1.71,1.71,0,0,1-.69-.57,1.56,1.56,0,0,1-.28-.91,1.7,1.7,0,0,1,.32-1,3,3,0,0,1,1-.85,2.92,2.92,0,0,1-1.35-1.17,3.37,3.37,0,0,1-.52-1.87,3.47,3.47,0,0,1,1.05-2.71,4.28,4.28,0,0,1,3-.95,5.43,5.43,0,0,1,1.51.19Zm-8.53,12.5a1.45,1.45,0,0,0,.73,1.32,4,4,0,0,0,2.1.45,5.81,5.81,0,0,0,3-.61,1.87,1.87,0,0,0,1-1.66A1.29,1.29,0,0,0,518,535a4.1,4.1,0,0,0-2-.34h-2a2.6,2.6,0,0,0-1.72.53A1.87,1.87,0,0,0,511.68,536.66Zm.88-9.07a2.2,2.2,0,0,0,.63,1.7,2.58,2.58,0,0,0,1.77.57,2.06,2.06,0,0,0,2.37-2.3,2.12,2.12,0,0,0-2.4-2.41,2.38,2.38,0,0,0-1.76.61A2.48,2.48,0,0,0,512.56,527.59Z"/><path class="cls-7" d="M531.17,524.16v1l-2,.23a3.86,3.86,0,0,1,.49.89,3.52,3.52,0,0,1,.21,1.25,3.19,3.19,0,0,1-1.07,2.51,4.37,4.37,0,0,1-3,.94,5.11,5.11,0,0,1-.9-.08,1.58,1.58,0,0,0-1,1.38.7.7,0,0,0,.36.65,2.62,2.62,0,0,0,1.24.21h1.89a4.22,4.22,0,0,1,2.67.73A2.56,2.56,0,0,1,531,536a3,3,0,0,1-1.43,2.71,7.65,7.65,0,0,1-4.16.93,5.7,5.7,0,0,1-3.24-.78,2.53,2.53,0,0,1-1.14-2.21,2.48,2.48,0,0,1,.63-1.69,3.22,3.22,0,0,1,1.76-1,1.59,1.59,0,0,1-.69-.57,1.49,1.49,0,0,1-.28-.91,1.69,1.69,0,0,1,.31-1,3.18,3.18,0,0,1,1-.85,2.92,2.92,0,0,1-1.35-1.17,3.38,3.38,0,0,1-.53-1.87,3.47,3.47,0,0,1,1.06-2.71,4.28,4.28,0,0,1,3-.95,5.43,5.43,0,0,1,1.51.19Zm-8.53,12.5a1.45,1.45,0,0,0,.73,1.32,4,4,0,0,0,2.1.45,5.81,5.81,0,0,0,3-.61,1.86,1.86,0,0,0,1-1.66,1.31,1.31,0,0,0-.53-1.2,4.14,4.14,0,0,0-2-.34H525a2.58,2.58,0,0,0-1.72.53A1.87,1.87,0,0,0,522.64,536.66Zm.88-9.07a2.2,2.2,0,0,0,.63,1.7,2.55,2.55,0,0,0,1.77.57,2.06,2.06,0,0,0,2.37-2.3,2.12,2.12,0,0,0-2.4-2.41,2.38,2.38,0,0,0-1.76.61A2.48,2.48,0,0,0,523.52,527.59Z"/><path class="cls-7" d="M535,534.86h-1.62V519.67H535Z"/><path class="cls-7" d="M538.29,521.26a1.07,1.07,0,0,1,.27-.81.94.94,0,0,1,.69-.26.93.93,0,0,1,.67.26,1.29,1.29,0,0,1,0,1.63.94.94,0,0,1-.67.27,1,1,0,0,1-.69-.27A1.11,1.11,0,0,1,538.29,521.26Zm1.76,13.6h-1.62v-10.7h1.62Z"/><path class="cls-7" d="M550.81,534.86v-6.92a2.78,2.78,0,0,0-.6-2,2.4,2.4,0,0,0-1.86-.65,3.09,3.09,0,0,0-2.46.91,4.61,4.61,0,0,0-.78,3v5.61h-1.62v-10.7h1.31l.27,1.47h.08a3.27,3.27,0,0,1,1.39-1.23,4.54,4.54,0,0,1,2-.43,4.11,4.11,0,0,1,2.92.93,4,4,0,0,1,1,3v7Z"/><path class="cls-7" d="M564.52,524.16v1l-2,.23a3.86,3.86,0,0,1,.49.89,3.52,3.52,0,0,1,.21,1.25,3.19,3.19,0,0,1-1.07,2.51,4.37,4.37,0,0,1-2.95.94,5.11,5.11,0,0,1-.9-.08,1.58,1.58,0,0,0-1,1.38.7.7,0,0,0,.36.65,2.62,2.62,0,0,0,1.24.21h1.89a4.22,4.22,0,0,1,2.67.73,2.55,2.55,0,0,1,.93,2.13,3,3,0,0,1-1.42,2.71,7.65,7.65,0,0,1-4.16.93,5.7,5.7,0,0,1-3.24-.78,2.53,2.53,0,0,1-1.14-2.21,2.48,2.48,0,0,1,.63-1.69,3.22,3.22,0,0,1,1.76-1,1.59,1.59,0,0,1-.69-.57,1.49,1.49,0,0,1-.28-.91,1.69,1.69,0,0,1,.31-1,3.18,3.18,0,0,1,1-.85,2.83,2.83,0,0,1-1.35-1.17,3.38,3.38,0,0,1-.53-1.87,3.47,3.47,0,0,1,1.06-2.71,4.28,4.28,0,0,1,3-.95,5.43,5.43,0,0,1,1.51.19ZM556,536.66a1.45,1.45,0,0,0,.73,1.32,4,4,0,0,0,2.1.45,5.81,5.81,0,0,0,3-.61,1.86,1.86,0,0,0,1-1.66,1.31,1.31,0,0,0-.53-1.2,4.14,4.14,0,0,0-2-.34h-1.94a2.56,2.56,0,0,0-1.72.53A1.87,1.87,0,0,0,556,536.66Zm.88-9.07a2.2,2.2,0,0,0,.63,1.7,2.55,2.55,0,0,0,1.77.57,2.06,2.06,0,0,0,2.37-2.3,2.12,2.12,0,0,0-2.4-2.41,2.38,2.38,0,0,0-1.76.61A2.48,2.48,0,0,0,556.87,527.59Z"/><path class="cls-7" d="M576.8,524a7.1,7.1,0,0,1,1.28.11l-.23,1.51a5.35,5.35,0,0,0-1.17-.15,2.82,2.82,0,0,0-2.22,1.06,3.79,3.79,0,0,0-.92,2.62v5.74h-1.63v-10.7h1.34l.19,2h.08a4.7,4.7,0,0,1,1.43-1.61A3.3,3.3,0,0,1,576.8,524Z"/><path class="cls-7" d="M589.32,529.5a5.9,5.9,0,0,1-1.32,4.09,4.64,4.64,0,0,1-3.64,1.47,4.81,4.81,0,0,1-2.55-.67,4.4,4.4,0,0,1-1.72-1.94,6.64,6.64,0,0,1-.61-3,5.89,5.89,0,0,1,1.31-4.07,4.6,4.6,0,0,1,3.63-1.46,4.51,4.51,0,0,1,3.57,1.49A5.84,5.84,0,0,1,589.32,529.5Zm-8.16,0a5.15,5.15,0,0,0,.82,3.13,3.26,3.26,0,0,0,4.83,0,5,5,0,0,0,.83-3.13,5,5,0,0,0-.83-3.1,2.91,2.91,0,0,0-2.43-1.06,2.85,2.85,0,0,0-2.41,1A5,5,0,0,0,581.16,529.5Z"/><path class="cls-7" d="M593.68,524.16v6.94a2.79,2.79,0,0,0,.6,2,2.41,2.41,0,0,0,1.86.64,3,3,0,0,0,2.46-.92,4.6,4.6,0,0,0,.78-3v-5.63H601v10.7h-1.34l-.24-1.43h-.08a3.28,3.28,0,0,1-1.39,1.21,4.6,4.6,0,0,1-2,.42,4.11,4.11,0,0,1-2.93-.93,4,4,0,0,1-1-3v-7Z"/><path class="cls-7" d="M607.89,533.72a5.59,5.59,0,0,0,.83-.06,6.4,6.4,0,0,0,.64-.13v1.24a3.51,3.51,0,0,1-.78.21,6.48,6.48,0,0,1-.92.08q-3.1,0-3.11-3.27v-6.37H603v-.78l1.53-.67.68-2.29h.94v2.48h3.11v1.26h-3.11v6.3a2.18,2.18,0,0,0,.46,1.48A1.59,1.59,0,0,0,607.89,533.72Z"/><path class="cls-7" d="M616,535.06a4.9,4.9,0,0,1-3.75-1.45,5.6,5.6,0,0,1-1.37-4,6.22,6.22,0,0,1,1.27-4.11A4.22,4.22,0,0,1,615.6,524a4,4,0,0,1,3.18,1.32,5.08,5.08,0,0,1,1.17,3.49v1h-7.37a4.25,4.25,0,0,0,.95,2.86,3.29,3.29,0,0,0,2.54,1,8.61,8.61,0,0,0,3.42-.72v1.45a9.23,9.23,0,0,1-1.62.53A9,9,0,0,1,616,535.06Zm-.44-9.74a2.65,2.65,0,0,0-2.06.84,3.89,3.89,0,0,0-.9,2.33h5.59a3.54,3.54,0,0,0-.68-2.35A2.43,2.43,0,0,0,615.58,525.32Z"/><path class="cls-7" d="M632.73,525.42H630v9.44h-1.62v-9.44h-1.92v-.73l1.92-.59v-.59q0-3.94,3.45-4a7.4,7.4,0,0,1,2,.34l-.42,1.3a5.44,5.44,0,0,0-1.6-.3,1.54,1.54,0,0,0-1.36.61,3.44,3.44,0,0,0-.44,2v.69h2.72Z"/><path class="cls-7" d="M643.93,529.5a5.9,5.9,0,0,1-1.32,4.09,4.66,4.66,0,0,1-3.65,1.47,4.8,4.8,0,0,1-2.54-.67,4.4,4.4,0,0,1-1.72-1.94,6.64,6.64,0,0,1-.61-3,5.89,5.89,0,0,1,1.31-4.07A4.6,4.6,0,0,1,639,524a4.51,4.51,0,0,1,3.57,1.49A5.89,5.89,0,0,1,643.93,529.5Zm-8.16,0a5.08,5.08,0,0,0,.82,3.13,3.26,3.26,0,0,0,4.83,0,5,5,0,0,0,.83-3.13,5,5,0,0,0-.83-3.1,2.92,2.92,0,0,0-2.44-1.06,2.84,2.84,0,0,0-2.4,1A5,5,0,0,0,635.77,529.5Z"/><path class="cls-7" d="M651.65,524a7,7,0,0,1,1.28.11l-.22,1.51a5.51,5.51,0,0,0-1.18-.15,2.85,2.85,0,0,0-2.22,1.06,3.84,3.84,0,0,0-.92,2.62v5.74h-1.62v-10.7h1.34l.18,2h.08a4.91,4.91,0,0,1,1.43-1.61A3.3,3.3,0,0,1,651.65,524Z"/><path class="cls-7" d="M226.7,565.06a4.59,4.59,0,0,1-1.91-.39,3.52,3.52,0,0,1-1.45-1.18h-.12a14,14,0,0,1,.12,1.78v4.4h-1.62V554.16H223l.22,1.47h.08a3.76,3.76,0,0,1,1.45-1.27,4.46,4.46,0,0,1,1.91-.39,4,4,0,0,1,3.29,1.45,7.79,7.79,0,0,1,0,8.18A4,4,0,0,1,226.7,565.06Zm-.24-9.72a2.89,2.89,0,0,0-2.37.91,4.65,4.65,0,0,0-.75,2.89v.36a5.37,5.37,0,0,0,.75,3.23,2.86,2.86,0,0,0,2.41,1,2.52,2.52,0,0,0,2.18-1.12,5.36,5.36,0,0,0,.78-3.1,5.18,5.18,0,0,0-.78-3.07A2.6,2.6,0,0,0,226.46,555.34Z"/><path class="cls-7" d="M240.56,564.86l-.33-1.52h-.07a4.48,4.48,0,0,1-1.6,1.36,4.82,4.82,0,0,1-2,.36,3.54,3.54,0,0,1-2.49-.82,3,3,0,0,1-.91-2.33q0-3.25,5.19-3.4l1.82-.06v-.67a2.67,2.67,0,0,0-.55-1.86,2.23,2.23,0,0,0-1.73-.6,7.19,7.19,0,0,0-3,.82l-.49-1.24A7.75,7.75,0,0,1,238,554a4,4,0,0,1,2.83.85,3.51,3.51,0,0,1,.93,2.72v7.3Zm-3.67-1.14a3.26,3.26,0,0,0,2.38-.83,3.05,3.05,0,0,0,.87-2.32v-1l-1.62.07a5.9,5.9,0,0,0-2.79.6,1.82,1.82,0,0,0-.86,1.66,1.64,1.64,0,0,0,.54,1.33A2.17,2.17,0,0,0,236.89,563.72Z"/><path class="cls-7" d="M252.42,564.86v-6.92a2.82,2.82,0,0,0-.59-2,2.44,2.44,0,0,0-1.87-.65,3.09,3.09,0,0,0-2.46.91,4.61,4.61,0,0,0-.78,3v5.61H245.1v-10.7h1.32l.26,1.47h.08a3.33,3.33,0,0,1,1.39-1.23,4.56,4.56,0,0,1,2-.43,4.07,4.07,0,0,1,2.91.93,4,4,0,0,1,1,3v7Z"/><path class="cls-7" d="M266.13,554.16v1l-2,.23a3.41,3.41,0,0,1,.7,2.14,3.15,3.15,0,0,1-1.07,2.51,4.37,4.37,0,0,1-2.95.94,5.11,5.11,0,0,1-.9-.08,1.58,1.58,0,0,0-1,1.38.7.7,0,0,0,.36.65,2.62,2.62,0,0,0,1.24.21h1.89a4.22,4.22,0,0,1,2.67.73A2.53,2.53,0,0,1,266,566a3,3,0,0,1-1.43,2.71,7.65,7.65,0,0,1-4.16.93,5.7,5.7,0,0,1-3.24-.78,2.52,2.52,0,0,1-1.13-2.21,2.47,2.47,0,0,1,.62-1.69,3.22,3.22,0,0,1,1.76-1,1.65,1.65,0,0,1-.69-.57,1.49,1.49,0,0,1-.28-.91,1.76,1.76,0,0,1,.31-1,3.18,3.18,0,0,1,1-.85,2.92,2.92,0,0,1-1.35-1.17,3.37,3.37,0,0,1-.52-1.87,3.47,3.47,0,0,1,1.05-2.71,4.28,4.28,0,0,1,3-.95,5.43,5.43,0,0,1,1.51.19Zm-8.53,12.5a1.45,1.45,0,0,0,.73,1.32,4,4,0,0,0,2.1.45,5.81,5.81,0,0,0,3-.61,1.86,1.86,0,0,0,1-1.66,1.31,1.31,0,0,0-.53-1.2,4.12,4.12,0,0,0-2-.34h-1.95a2.58,2.58,0,0,0-1.72.53A1.87,1.87,0,0,0,257.6,566.66Zm.88-9.07a2.2,2.2,0,0,0,.63,1.7,2.55,2.55,0,0,0,1.77.57,2.06,2.06,0,0,0,2.37-2.3,2.12,2.12,0,0,0-2.4-2.41,2.38,2.38,0,0,0-1.76.61A2.48,2.48,0,0,0,258.48,557.59Z"/><path class="cls-7" d="M277.57,559.5a5.9,5.9,0,0,1-1.32,4.09,4.64,4.64,0,0,1-3.64,1.47,4.81,4.81,0,0,1-2.55-.67,4.46,4.46,0,0,1-1.72-1.94,6.78,6.78,0,0,1-.61-3,5.89,5.89,0,0,1,1.31-4.07,4.63,4.63,0,0,1,3.64-1.46,4.54,4.54,0,0,1,3.57,1.49A5.89,5.89,0,0,1,277.57,559.5Zm-8.16,0a5.15,5.15,0,0,0,.82,3.13,2.87,2.87,0,0,0,2.42,1.07,2.84,2.84,0,0,0,2.41-1.07,5,5,0,0,0,.83-3.13,5,5,0,0,0-.83-3.1,2.91,2.91,0,0,0-2.43-1.06,2.86,2.86,0,0,0-2.41,1A5,5,0,0,0,269.41,559.5Z"/><path class="cls-7" d="M282,564.86h-1.62V549.67H282Z"/><path class="cls-7" d="M285.33,551.26a1,1,0,0,1,.28-.81,1,1,0,0,1,1.35,0,1.29,1.29,0,0,1,0,1.63.94.94,0,0,1-.67.27.93.93,0,0,1-.68-.27A1.07,1.07,0,0,1,285.33,551.26Zm1.76,13.6h-1.62v-10.7h1.62Z"/><path class="cls-7" d="M297.85,564.86v-6.92a2.82,2.82,0,0,0-.59-2,2.44,2.44,0,0,0-1.87-.65,3.09,3.09,0,0,0-2.46.91,4.61,4.61,0,0,0-.78,3v5.61h-1.62v-10.7h1.32l.26,1.47h.08a3.33,3.33,0,0,1,1.39-1.23,4.56,4.56,0,0,1,2-.43,4.09,4.09,0,0,1,2.91.93,4,4,0,0,1,1,3v7Z"/><path class="cls-7" d="M309.71,561.94a2.67,2.67,0,0,1-1.12,2.31,5.22,5.22,0,0,1-3.12.81,6.78,6.78,0,0,1-3.32-.67v-1.51a7.92,7.92,0,0,0,1.65.62,6.92,6.92,0,0,0,1.71.22,3.89,3.89,0,0,0,1.95-.4,1.34,1.34,0,0,0,.68-1.24,1.36,1.36,0,0,0-.54-1.07,8.88,8.88,0,0,0-2.11-1,11.18,11.18,0,0,1-2.13-1,2.86,2.86,0,0,1-.93-.94,2.6,2.6,0,0,1,.75-3.33,5,5,0,0,1,2.92-.75,8.5,8.5,0,0,1,3.38.7l-.57,1.32a7.67,7.67,0,0,0-2.92-.67,3.26,3.26,0,0,0-1.74.37,1.12,1.12,0,0,0-.59,1,1.24,1.24,0,0,0,.22.73,2,2,0,0,0,.71.58,15.89,15.89,0,0,0,1.87.79,7,7,0,0,1,2.58,1.4A2.49,2.49,0,0,1,309.71,561.94Z"/><path class="cls-7" d="M312.11,563.83a1.43,1.43,0,0,1,.3-1,1.06,1.06,0,0,1,.85-.34,1.16,1.16,0,0,1,.89.34,1.38,1.38,0,0,1,.31,1,1.36,1.36,0,0,1-.32,1,1.17,1.17,0,0,1-.88.34,1.12,1.12,0,0,1-.82-.31A1.32,1.32,0,0,1,312.11,563.83Z"/><path class="cls-7" d="M331.16,561.07a3.5,3.5,0,0,1-1.37,2.94,5.93,5.93,0,0,1-3.71,1,9.37,9.37,0,0,1-3.9-.65V562.8a9.7,9.7,0,0,0,1.91.59,10.34,10.34,0,0,0,2.05.21,4.13,4.13,0,0,0,2.5-.62,2.08,2.08,0,0,0,.84-1.76,2.21,2.21,0,0,0-.3-1.21,2.72,2.72,0,0,0-1-.88,15.21,15.21,0,0,0-2.13-.91,6.66,6.66,0,0,1-2.84-1.69,3.72,3.72,0,0,1-.86-2.54,3.19,3.19,0,0,1,1.24-2.63,5.17,5.17,0,0,1,3.28-1,9.7,9.7,0,0,1,3.92.78l-.52,1.45a8.74,8.74,0,0,0-3.43-.74,3.36,3.36,0,0,0-2.06.56A1.86,1.86,0,0,0,324,554a2.31,2.31,0,0,0,.28,1.21,2.51,2.51,0,0,0,.92.87,10.8,10.8,0,0,0,2,.87,8.08,8.08,0,0,1,3.09,1.72A3.4,3.4,0,0,1,331.16,561.07Z"/><path class="cls-7" d="M347.48,564.86v-7a2.88,2.88,0,0,0-.55-1.92,2.13,2.13,0,0,0-1.7-.64,2.74,2.74,0,0,0-2.23.87,4.15,4.15,0,0,0-.72,2.68v6h-1.63v-7a2.93,2.93,0,0,0-.54-1.92,2.17,2.17,0,0,0-1.71-.64,2.64,2.64,0,0,0-2.23.92,4.94,4.94,0,0,0-.71,3v5.61h-1.62v-10.7h1.32l.26,1.47h.08a3.16,3.16,0,0,1,1.29-1.22,3.88,3.88,0,0,1,1.87-.44c1.67,0,2.77.6,3.28,1.81H342a3.43,3.43,0,0,1,1.39-1.33,4.33,4.33,0,0,1,2.07-.48,3.63,3.63,0,0,1,2.72.93,4.18,4.18,0,0,1,.9,3v7Z"/><path class="cls-7" d="M354,554.16v6.94a2.79,2.79,0,0,0,.6,2,2.43,2.43,0,0,0,1.87.64,3,3,0,0,0,2.45-.92,4.6,4.6,0,0,0,.78-3v-5.63h1.62v10.7h-1.34l-.23-1.43h-.09a3.19,3.19,0,0,1-1.38,1.21,4.65,4.65,0,0,1-2,.42,4.06,4.06,0,0,1-2.92-.93,4,4,0,0,1-1-3v-7Z"/><path class="cls-7" d="M373.48,554.16v1l-2,.23a3.24,3.24,0,0,1,.49.89,3.31,3.31,0,0,1,.22,1.25,3.16,3.16,0,0,1-1.08,2.51,4.35,4.35,0,0,1-2.95.94,5,5,0,0,1-.89-.08,1.58,1.58,0,0,0-1,1.38.7.7,0,0,0,.36.65,2.65,2.65,0,0,0,1.24.21h1.9a4.22,4.22,0,0,1,2.67.73,2.55,2.55,0,0,1,.93,2.13,3,3,0,0,1-1.43,2.71,7.63,7.63,0,0,1-4.16.93,5.67,5.67,0,0,1-3.23-.78A2.67,2.67,0,0,1,364,565a3.26,3.26,0,0,1,1.76-1,1.71,1.71,0,0,1-.69-.57,1.56,1.56,0,0,1-.28-.91,1.7,1.7,0,0,1,.32-1,3.13,3.13,0,0,1,1-.85,2.92,2.92,0,0,1-1.35-1.17,3.37,3.37,0,0,1-.52-1.87,3.47,3.47,0,0,1,1-2.71,4.3,4.3,0,0,1,3-.95,5.5,5.5,0,0,1,1.52.19Zm-8.54,12.5a1.47,1.47,0,0,0,.73,1.32,4,4,0,0,0,2.1.45,5.87,5.87,0,0,0,3-.61,1.88,1.88,0,0,0,1-1.66,1.29,1.29,0,0,0-.54-1.2,4.1,4.1,0,0,0-2-.34h-1.94a2.56,2.56,0,0,0-1.72.53A1.87,1.87,0,0,0,364.94,566.66Zm.88-9.07a2.17,2.17,0,0,0,.64,1.7,2.54,2.54,0,0,0,1.76.57,2.07,2.07,0,0,0,2.38-2.3,2.13,2.13,0,0,0-2.41-2.41,2.36,2.36,0,0,0-1.75.61A2.48,2.48,0,0,0,365.82,557.59Z"/><path class="cls-7" d="M384.43,554.16v1l-2,.23a3.41,3.41,0,0,1,.7,2.14,3.15,3.15,0,0,1-1.07,2.51,4.37,4.37,0,0,1-2.95.94,5.11,5.11,0,0,1-.9-.08,1.58,1.58,0,0,0-1,1.38.7.7,0,0,0,.36.65,2.62,2.62,0,0,0,1.24.21h1.89a4.22,4.22,0,0,1,2.67.73,2.53,2.53,0,0,1,.94,2.13,3,3,0,0,1-1.43,2.71,7.65,7.65,0,0,1-4.16.93,5.7,5.7,0,0,1-3.24-.78,2.52,2.52,0,0,1-1.13-2.21A2.47,2.47,0,0,1,375,565a3.22,3.22,0,0,1,1.76-1,1.71,1.71,0,0,1-.69-.57,1.49,1.49,0,0,1-.28-.91,1.76,1.76,0,0,1,.31-1,3.18,3.18,0,0,1,1-.85,2.92,2.92,0,0,1-1.35-1.17,3.37,3.37,0,0,1-.52-1.87,3.47,3.47,0,0,1,1.05-2.71,4.28,4.28,0,0,1,3-.95,5.43,5.43,0,0,1,1.51.19Zm-8.53,12.5a1.45,1.45,0,0,0,.73,1.32,4,4,0,0,0,2.1.45,5.81,5.81,0,0,0,3-.61,1.86,1.86,0,0,0,1-1.66,1.29,1.29,0,0,0-.53-1.2,4.1,4.1,0,0,0-2-.34h-1.95a2.58,2.58,0,0,0-1.72.53A1.87,1.87,0,0,0,375.9,566.66Zm.88-9.07a2.2,2.2,0,0,0,.63,1.7,2.55,2.55,0,0,0,1.77.57,2.06,2.06,0,0,0,2.37-2.3,2.12,2.12,0,0,0-2.4-2.41,2.38,2.38,0,0,0-1.76.61A2.48,2.48,0,0,0,376.78,557.59Z"/><path class="cls-7" d="M388.25,564.86h-1.62V549.67h1.62Z"/><path class="cls-7" d="M396.21,565.06a4.88,4.88,0,0,1-3.74-1.45,5.56,5.56,0,0,1-1.38-4,6.22,6.22,0,0,1,1.28-4.11,4.22,4.22,0,0,1,3.42-1.52,4,4,0,0,1,3.18,1.32,5,5,0,0,1,1.18,3.49v1h-7.38a4.25,4.25,0,0,0,1,2.86,3.29,3.29,0,0,0,2.54,1,8.68,8.68,0,0,0,3.42-.72v1.45a9.6,9.6,0,0,1-1.63.53A9,9,0,0,1,396.21,565.06Zm-.44-9.74a2.63,2.63,0,0,0-2,.84,3.89,3.89,0,0,0-.91,2.33h5.6a3.54,3.54,0,0,0-.69-2.35A2.4,2.4,0,0,0,395.77,555.32Z"/><path class="cls-7" d="M407.79,554a7,7,0,0,1,1.28.11l-.22,1.51a5.43,5.43,0,0,0-1.17-.15,2.85,2.85,0,0,0-2.23,1.06,3.84,3.84,0,0,0-.92,2.62v5.74h-1.62v-10.7h1.34l.18,2h.08a4.82,4.82,0,0,1,1.44-1.61A3.27,3.27,0,0,1,407.79,554Z"/><path class="cls-7" d="M418,561.94a2.69,2.69,0,0,1-1.11,2.31,5.27,5.27,0,0,1-3.13.81,6.78,6.78,0,0,1-3.32-.67v-1.51a8,8,0,0,0,1.66.62,6.78,6.78,0,0,0,1.7.22,3.83,3.83,0,0,0,2-.4,1.39,1.39,0,0,0,.14-2.31,8.88,8.88,0,0,0-2.11-1,11,11,0,0,1-2.12-1,2.9,2.9,0,0,1-.94-.94,2.59,2.59,0,0,1,.76-3.33,5,5,0,0,1,2.92-.75,8.48,8.48,0,0,1,3.37.7l-.57,1.32a7.67,7.67,0,0,0-2.92-.67,3.26,3.26,0,0,0-1.74.37,1.12,1.12,0,0,0-.59,1,1.24,1.24,0,0,0,.22.73,2.15,2.15,0,0,0,.71.58,15.5,15.5,0,0,0,1.88.79,7,7,0,0,1,2.57,1.4A2.45,2.45,0,0,1,418,561.94Z"/><path class="cls-7" d="M432.39,564.86l-.32-1.52H432a4.38,4.38,0,0,1-1.59,1.36,4.85,4.85,0,0,1-2,.36,3.59,3.59,0,0,1-2.5-.82,3,3,0,0,1-.9-2.33q0-3.25,5.19-3.4l1.81-.06v-.67a2.72,2.72,0,0,0-.54-1.86,2.23,2.23,0,0,0-1.73-.6,7.12,7.12,0,0,0-3,.82l-.5-1.24a8,8,0,0,1,1.73-.67,7.65,7.65,0,0,1,1.89-.24,4.05,4.05,0,0,1,2.84.85,3.51,3.51,0,0,1,.92,2.72v7.3Zm-3.66-1.14a3.27,3.27,0,0,0,2.38-.83,3.09,3.09,0,0,0,.86-2.32v-1l-1.62.07a5.9,5.9,0,0,0-2.79.6,1.81,1.81,0,0,0-.85,1.66,1.67,1.67,0,0,0,.53,1.33A2.2,2.2,0,0,0,428.73,563.72Z"/><path class="cls-7" d="M444.26,564.86v-6.92a2.78,2.78,0,0,0-.6-2,2.43,2.43,0,0,0-1.86-.65,3.09,3.09,0,0,0-2.46.91,4.61,4.61,0,0,0-.79,3v5.61h-1.62v-10.7h1.32l.27,1.47h.07a3.35,3.35,0,0,1,1.4-1.23,4.54,4.54,0,0,1,2-.43,4.07,4.07,0,0,1,2.91.93,4,4,0,0,1,1,3v7Z"/><path class="cls-7" d="M456.49,563.43h-.08a3.81,3.81,0,0,1-3.36,1.63,4,4,0,0,1-3.27-1.44,6.28,6.28,0,0,1-1.17-4.08,6.39,6.39,0,0,1,1.18-4.11,4.34,4.34,0,0,1,6.6.12h.12l-.06-.77,0-.76v-4.35H458v15.19h-1.32Zm-3.24.27a3,3,0,0,0,2.41-.9,4.55,4.55,0,0,0,.75-2.92v-.34a5.37,5.37,0,0,0-.76-3.24,2.88,2.88,0,0,0-2.42-1,2.47,2.47,0,0,0-2.18,1.11,5.46,5.46,0,0,0-.76,3.13,5.31,5.31,0,0,0,.75,3.1A2.58,2.58,0,0,0,453.25,563.7Z"/><path class="cls-7" d="M473.56,561.94a2.69,2.69,0,0,1-1.11,2.31,5.22,5.22,0,0,1-3.12.81,6.78,6.78,0,0,1-3.32-.67v-1.51a7.92,7.92,0,0,0,1.65.62,6.92,6.92,0,0,0,1.71.22,3.89,3.89,0,0,0,1.95-.4,1.4,1.4,0,0,0,.14-2.31,9.09,9.09,0,0,0-2.11-1,11.18,11.18,0,0,1-2.13-1,3,3,0,0,1-.94-.94,2.5,2.5,0,0,1-.3-1.26,2.41,2.41,0,0,1,1.06-2.07A5,5,0,0,1,470,554a8.53,8.53,0,0,1,3.38.7l-.58,1.32a7.59,7.59,0,0,0-2.92-.67,3.25,3.25,0,0,0-1.73.37,1.1,1.1,0,0,0-.59,1,1.17,1.17,0,0,0,.22.73,2,2,0,0,0,.71.58,15.15,15.15,0,0,0,1.87.79,7,7,0,0,1,2.58,1.4A2.48,2.48,0,0,1,473.56,561.94Z"/><path class="cls-7" d="M485.44,559.5a5.9,5.9,0,0,1-1.32,4.09,4.64,4.64,0,0,1-3.64,1.47,4.81,4.81,0,0,1-2.55-.67,4.46,4.46,0,0,1-1.72-1.94,6.78,6.78,0,0,1-.6-3,5.89,5.89,0,0,1,1.3-4.07,4.63,4.63,0,0,1,3.64-1.46,4.54,4.54,0,0,1,3.57,1.49A5.89,5.89,0,0,1,485.44,559.5Zm-8.15,0a5.08,5.08,0,0,0,.82,3.13,3.25,3.25,0,0,0,4.82,0,5,5,0,0,0,.83-3.13,5,5,0,0,0-.83-3.1,2.91,2.91,0,0,0-2.43-1.06,2.84,2.84,0,0,0-2.4,1A5,5,0,0,0,477.29,559.5Z"/><path class="cls-7" d="M489.8,554.16v6.94a2.79,2.79,0,0,0,.6,2,2.43,2.43,0,0,0,1.87.64,3,3,0,0,0,2.45-.92,4.6,4.6,0,0,0,.78-3v-5.63h1.62v10.7h-1.34l-.23-1.43h-.09a3.19,3.19,0,0,1-1.38,1.21,4.65,4.65,0,0,1-2,.42,4.06,4.06,0,0,1-2.92-.93,4,4,0,0,1-1-3v-7Z"/><path class="cls-7" d="M505.44,554a7,7,0,0,1,1.28.11l-.23,1.51a5.35,5.35,0,0,0-1.17-.15,2.85,2.85,0,0,0-2.22,1.06,3.84,3.84,0,0,0-.92,2.62v5.74h-1.62v-10.7h1.33l.19,2h.08a4.8,4.8,0,0,1,1.43-1.61A3.3,3.3,0,0,1,505.44,554Z"/><path class="cls-7" d="M513,565.06a4.58,4.58,0,0,1-3.6-1.43,5.87,5.87,0,0,1-1.28-4,6.09,6.09,0,0,1,1.3-4.15,4.64,4.64,0,0,1,3.69-1.46,7.39,7.39,0,0,1,1.54.16,5.05,5.05,0,0,1,1.21.39l-.5,1.38a8.94,8.94,0,0,0-1.17-.36,5.51,5.51,0,0,0-1.12-.14q-3.27,0-3.27,4.16a5,5,0,0,0,.8,3,2.78,2.78,0,0,0,2.36,1,7.24,7.24,0,0,0,2.74-.57v1.43A5.84,5.84,0,0,1,513,565.06Z"/><path class="cls-7" d="M522.76,565.06a4.88,4.88,0,0,1-3.74-1.45,5.56,5.56,0,0,1-1.37-4,6.22,6.22,0,0,1,1.27-4.11,4.22,4.22,0,0,1,3.42-1.52,4.05,4.05,0,0,1,3.19,1.32,5.08,5.08,0,0,1,1.17,3.49v1h-7.37a4.25,4.25,0,0,0,.95,2.86,3.29,3.29,0,0,0,2.54,1,8.68,8.68,0,0,0,3.42-.72v1.45a9.32,9.32,0,0,1-1.63.53A8.9,8.9,0,0,1,522.76,565.06Zm-.44-9.74a2.63,2.63,0,0,0-2.05.84,3.89,3.89,0,0,0-.9,2.33H525a3.6,3.6,0,0,0-.68-2.35A2.44,2.44,0,0,0,522.32,555.32Z"/><path class="cls-7" d="M536.37,561.94a2.67,2.67,0,0,1-1.12,2.31,5.22,5.22,0,0,1-3.12.81,6.78,6.78,0,0,1-3.32-.67v-1.51a8.14,8.14,0,0,0,1.65.62,6.92,6.92,0,0,0,1.71.22,3.86,3.86,0,0,0,2-.4,1.34,1.34,0,0,0,.68-1.24,1.36,1.36,0,0,0-.54-1.07,8.88,8.88,0,0,0-2.11-1,11.18,11.18,0,0,1-2.13-1,2.86,2.86,0,0,1-.93-.94,2.6,2.6,0,0,1,.75-3.33,5,5,0,0,1,2.92-.75,8.5,8.5,0,0,1,3.38.7l-.57,1.32a7.67,7.67,0,0,0-2.92-.67,3.26,3.26,0,0,0-1.74.37,1.12,1.12,0,0,0-.59,1,1.24,1.24,0,0,0,.22.73,2,2,0,0,0,.71.58,15.89,15.89,0,0,0,1.87.79,7,7,0,0,1,2.58,1.4A2.49,2.49,0,0,1,536.37,561.94Z"/><path class="cls-7" d="M552.94,564.86l-2-6.27c-.13-.39-.36-1.26-.7-2.62h-.07c-.27,1.14-.49,2-.69,2.63l-2,6.26h-1.88l-2.91-10.7h1.69L546,560.3a24.81,24.81,0,0,1,.62,2.85h.08c.07-.38.19-.86.35-1.44s.29-1.06.41-1.41l2-6.14h1.76l1.92,6.14a21.09,21.09,0,0,1,.74,2.83h.08a7.82,7.82,0,0,1,.21-1.09c.11-.49.79-3.11,2-7.88h1.68l-3,10.7Z"/><path class="cls-7" d="M559.62,551.26a1.07,1.07,0,0,1,.27-.81.94.94,0,0,1,.69-.26.93.93,0,0,1,.67.26,1.33,1.33,0,0,1,0,1.63.94.94,0,0,1-.67.27,1,1,0,0,1-.69-.27A1.11,1.11,0,0,1,559.62,551.26Zm1.76,13.6h-1.62v-10.7h1.62Z"/><path class="cls-7" d="M568.27,563.72a5.59,5.59,0,0,0,.83-.06,6.4,6.4,0,0,0,.64-.13v1.24a3.51,3.51,0,0,1-.78.21,6.48,6.48,0,0,1-.92.08q-3.1,0-3.11-3.27v-6.37H563.4v-.78l1.53-.67.69-2.29h.93v2.48h3.11v1.26h-3.11v6.3a2.18,2.18,0,0,0,.46,1.48A1.59,1.59,0,0,0,568.27,563.72Z"/><path class="cls-7" d="M579.2,564.86v-6.92a2.78,2.78,0,0,0-.6-2,2.41,2.41,0,0,0-1.86-.65,3.07,3.07,0,0,0-2.47.92,4.65,4.65,0,0,0-.77,3v5.59h-1.62V549.67h1.62v4.6a10.47,10.47,0,0,1-.08,1.38h.1a3.24,3.24,0,0,1,1.36-1.22,4.37,4.37,0,0,1,2-.44,4.16,4.16,0,0,1,3,.93,3.94,3.94,0,0,1,1,3v7Z"/><path class="cls-7" d="M584,551.26a1,1,0,0,1,.28-.81,1,1,0,0,1,1.35,0,1.29,1.29,0,0,1,0,1.63,1,1,0,0,1-1.35,0A1.07,1.07,0,0,1,584,551.26Zm1.76,13.6h-1.62v-10.7h1.62Z"/><path class="cls-7" d="M596.53,564.86v-6.92a2.82,2.82,0,0,0-.59-2,2.44,2.44,0,0,0-1.87-.65,3.09,3.09,0,0,0-2.46.91,4.61,4.61,0,0,0-.78,3v5.61h-1.62v-10.7h1.32l.26,1.47h.08a3.3,3.3,0,0,1,1.4-1.23,4.48,4.48,0,0,1,2-.43,4.07,4.07,0,0,1,2.91.93,4,4,0,0,1,1,3v7Z"/><path class="cls-7" d="M611.2,565.06a4.88,4.88,0,0,1-3.74-1.45,5.56,5.56,0,0,1-1.38-4,6.22,6.22,0,0,1,1.28-4.11,4.22,4.22,0,0,1,3.42-1.52,4,4,0,0,1,3.18,1.32,5,5,0,0,1,1.18,3.49v1h-7.38a4.25,4.25,0,0,0,1,2.86,3.29,3.29,0,0,0,2.54,1,8.68,8.68,0,0,0,3.42-.72v1.45a9.6,9.6,0,0,1-1.63.53A9,9,0,0,1,611.2,565.06Zm-.44-9.74a2.63,2.63,0,0,0-2,.84,3.89,3.89,0,0,0-.91,2.33h5.6a3.54,3.54,0,0,0-.69-2.35A2.4,2.4,0,0,0,610.76,555.32Z"/><path class="cls-7" d="M625.22,564.86v-6.92a2.78,2.78,0,0,0-.59-2,2.44,2.44,0,0,0-1.87-.65,3.09,3.09,0,0,0-2.46.91,4.61,4.61,0,0,0-.78,3v5.61H617.9v-10.7h1.32l.26,1.47h.08a3.3,3.3,0,0,1,1.4-1.23,4.51,4.51,0,0,1,2-.43,4.07,4.07,0,0,1,2.91.93,4,4,0,0,1,1,3v7Z"/><path class="cls-7" d="M635,555.42h-2.72v9.44h-1.63v-9.44h-1.91v-.73l1.91-.59v-.59q0-3.94,3.45-4a7.33,7.33,0,0,1,2,.34l-.42,1.3a5.38,5.38,0,0,0-1.6-.3,1.57,1.57,0,0,0-1.36.61,3.45,3.45,0,0,0-.43,2v.69H635Z"/><path class="cls-7" d="M646.19,559.5a5.9,5.9,0,0,1-1.32,4.09,4.64,4.64,0,0,1-3.64,1.47,4.81,4.81,0,0,1-2.55-.67,4.52,4.52,0,0,1-1.72-1.94,6.78,6.78,0,0,1-.6-3,5.84,5.84,0,0,1,1.31-4.07A4.6,4.6,0,0,1,641.3,554a4.51,4.51,0,0,1,3.57,1.49A5.89,5.89,0,0,1,646.19,559.5Zm-8.15,0a5.08,5.08,0,0,0,.82,3.13,3.26,3.26,0,0,0,4.83,0,5,5,0,0,0,.82-3.13,5,5,0,0,0-.82-3.1,2.93,2.93,0,0,0-2.44-1.06,2.84,2.84,0,0,0-2.4,1A5,5,0,0,0,638,559.5Z"/><path class="cls-7" d="M653.92,554a7.1,7.1,0,0,1,1.28.11l-.23,1.51a5.35,5.35,0,0,0-1.17-.15,2.82,2.82,0,0,0-2.22,1.06,3.8,3.8,0,0,0-.93,2.62v5.74H649v-10.7h1.34l.19,2h.07a4.82,4.82,0,0,1,1.44-1.61A3.3,3.3,0,0,1,653.92,554Z"/><path class="cls-7" d="M661.47,565.06a4.56,4.56,0,0,1-3.59-1.43,5.87,5.87,0,0,1-1.28-4,6,6,0,0,1,1.3-4.15,4.63,4.63,0,0,1,3.68-1.46,7.26,7.26,0,0,1,1.54.16,5.15,5.15,0,0,1,1.22.39l-.5,1.38a8.94,8.94,0,0,0-1.17-.36,5.6,5.6,0,0,0-1.13-.14q-3.25,0-3.26,4.16a5,5,0,0,0,.8,3,2.77,2.77,0,0,0,2.36,1,7.27,7.27,0,0,0,2.74-.57v1.43A5.89,5.89,0,0,1,661.47,565.06Z"/><path class="cls-7" d="M671.24,565.06a4.88,4.88,0,0,1-3.74-1.45,5.56,5.56,0,0,1-1.38-4,6.22,6.22,0,0,1,1.28-4.11,4.22,4.22,0,0,1,3.42-1.52,4,4,0,0,1,3.18,1.32,5,5,0,0,1,1.18,3.49v1H667.8a4.25,4.25,0,0,0,1,2.86,3.32,3.32,0,0,0,2.55,1,8.68,8.68,0,0,0,3.42-.72v1.45a9.6,9.6,0,0,1-1.63.53A9,9,0,0,1,671.24,565.06Zm-.44-9.74a2.63,2.63,0,0,0-2,.84,3.83,3.83,0,0,0-.91,2.33h5.6a3.54,3.54,0,0,0-.69-2.35A2.4,2.4,0,0,0,670.8,555.32Z"/><path class="cls-7" d="M691.58,564.86v-7A2.93,2.93,0,0,0,691,556a2.16,2.16,0,0,0-1.7-.64,2.75,2.75,0,0,0-2.24.87,4.15,4.15,0,0,0-.72,2.68v6h-1.62v-7a2.93,2.93,0,0,0-.55-1.92,2.17,2.17,0,0,0-1.71-.64,2.64,2.64,0,0,0-2.23.92,4.94,4.94,0,0,0-.71,3v5.61h-1.62v-10.7h1.32l.26,1.47h.08a3.23,3.23,0,0,1,1.29-1.22,3.88,3.88,0,0,1,1.87-.44c1.68,0,2.77.6,3.28,1.81h.08a3.43,3.43,0,0,1,1.39-1.33,4.39,4.39,0,0,1,2.07-.48,3.63,3.63,0,0,1,2.72.93,4.18,4.18,0,0,1,.9,3v7Z"/><path class="cls-7" d="M701.06,565.06a4.88,4.88,0,0,1-3.74-1.45,5.56,5.56,0,0,1-1.37-4,6.22,6.22,0,0,1,1.27-4.11,4.22,4.22,0,0,1,3.42-1.52,4,4,0,0,1,3.19,1.32,5.08,5.08,0,0,1,1.17,3.49v1h-7.37a4.25,4.25,0,0,0,1,2.86,3.29,3.29,0,0,0,2.54,1,8.61,8.61,0,0,0,3.42-.72v1.45a9.23,9.23,0,0,1-1.62.53A9.07,9.07,0,0,1,701.06,565.06Zm-.44-9.74a2.65,2.65,0,0,0-2,.84,3.89,3.89,0,0,0-.9,2.33h5.59a3.6,3.6,0,0,0-.68-2.35A2.44,2.44,0,0,0,700.62,555.32Z"/><path class="cls-7" d="M715.09,564.86v-6.92a2.78,2.78,0,0,0-.6-2,2.43,2.43,0,0,0-1.86-.65,3.09,3.09,0,0,0-2.46.91,4.61,4.61,0,0,0-.79,3v5.61h-1.62v-10.7h1.32l.27,1.47h.07a3.35,3.35,0,0,1,1.4-1.23,4.54,4.54,0,0,1,2-.43,4.07,4.07,0,0,1,2.91.93,4,4,0,0,1,1,3v7Z"/><path class="cls-7" d="M723.5,563.72a5.69,5.69,0,0,0,.83-.06c.26,0,.47-.09.63-.13v1.24a3.22,3.22,0,0,1-.78.21,6.36,6.36,0,0,1-.92.08q-3.1,0-3.1-3.27v-6.37h-1.54v-.78l1.54-.67.68-2.29h.94v2.48h3.1v1.26h-3.1v6.3a2.13,2.13,0,0,0,.46,1.48A1.57,1.57,0,0,0,723.5,563.72Z"/><path class="cls-7" d="M228.3,594.86l-.32-1.52h-.08a4.4,4.4,0,0,1-1.6,1.36,4.8,4.8,0,0,1-2,.36,3.55,3.55,0,0,1-2.5-.82,3,3,0,0,1-.9-2.33q0-3.25,5.18-3.4l1.82-.06v-.67a2.72,2.72,0,0,0-.54-1.86,2.24,2.24,0,0,0-1.74-.6,7.12,7.12,0,0,0-3,.82l-.5-1.24a7.78,7.78,0,0,1,1.73-.67,7.65,7.65,0,0,1,1.89-.24,4.07,4.07,0,0,1,2.84.85,3.54,3.54,0,0,1,.92,2.72v7.3Zm-3.66-1.14a3.27,3.27,0,0,0,2.38-.83,3.09,3.09,0,0,0,.86-2.32v-1l-1.62.07a5.9,5.9,0,0,0-2.79.6,1.81,1.81,0,0,0-.85,1.66,1.64,1.64,0,0,0,.53,1.33A2.18,2.18,0,0,0,224.64,593.72Z"/><path class="cls-7" d="M241.6,584.16v1l-2,.23a3.86,3.86,0,0,1,.49.89,3.52,3.52,0,0,1,.21,1.25,3.19,3.19,0,0,1-1.07,2.51,4.37,4.37,0,0,1-2.95.94,5.11,5.11,0,0,1-.9-.08,1.58,1.58,0,0,0-1,1.38.7.7,0,0,0,.36.65,2.62,2.62,0,0,0,1.24.21h1.89a4.22,4.22,0,0,1,2.67.73,2.55,2.55,0,0,1,.93,2.13,3,3,0,0,1-1.42,2.71,7.65,7.65,0,0,1-4.16.93,5.7,5.7,0,0,1-3.24-.78,2.53,2.53,0,0,1-1.14-2.21,2.48,2.48,0,0,1,.63-1.69,3.22,3.22,0,0,1,1.76-1,1.59,1.59,0,0,1-.69-.57,1.49,1.49,0,0,1-.28-.91,1.69,1.69,0,0,1,.31-1,3.18,3.18,0,0,1,1-.85,2.87,2.87,0,0,1-1.35-1.17,3.38,3.38,0,0,1-.53-1.87,3.47,3.47,0,0,1,1.06-2.71,4.28,4.28,0,0,1,3-.95,5.43,5.43,0,0,1,1.51.19Zm-8.53,12.5a1.45,1.45,0,0,0,.73,1.32,4,4,0,0,0,2.1.45,5.81,5.81,0,0,0,3-.61,1.86,1.86,0,0,0,1-1.66,1.31,1.31,0,0,0-.53-1.2,4.14,4.14,0,0,0-2-.34H235.4a2.58,2.58,0,0,0-1.72.53A1.87,1.87,0,0,0,233.07,596.66Zm.88-9.07a2.2,2.2,0,0,0,.63,1.7,2.55,2.55,0,0,0,1.77.57,2.06,2.06,0,0,0,2.37-2.3,2.12,2.12,0,0,0-2.4-2.41,2.38,2.38,0,0,0-1.76.61A2.48,2.48,0,0,0,234,587.59Z"/><path class="cls-7" d="M248.32,595.06a4.88,4.88,0,0,1-3.74-1.45,5.56,5.56,0,0,1-1.38-4,6.22,6.22,0,0,1,1.28-4.11A4.22,4.22,0,0,1,247.9,584a4,4,0,0,1,3.18,1.32,5,5,0,0,1,1.18,3.49v1h-7.38a4.3,4.3,0,0,0,1,2.86,3.32,3.32,0,0,0,2.55,1,8.68,8.68,0,0,0,3.42-.72v1.45a9.6,9.6,0,0,1-1.63.53A9,9,0,0,1,248.32,595.06Zm-.44-9.74a2.63,2.63,0,0,0-2,.84,3.83,3.83,0,0,0-.91,2.33h5.6a3.54,3.54,0,0,0-.69-2.35A2.4,2.4,0,0,0,247.88,585.32Z"/><path class="cls-7" d="M262.34,594.86v-6.92a2.78,2.78,0,0,0-.59-2,2.44,2.44,0,0,0-1.87-.65,3.09,3.09,0,0,0-2.46.91,4.61,4.61,0,0,0-.78,3v5.61H255v-10.7h1.32l.26,1.47h.08a3.3,3.3,0,0,1,1.4-1.23,4.48,4.48,0,0,1,2-.43,4.07,4.07,0,0,1,2.91.93,4,4,0,0,1,1,3v7Z"/><path class="cls-7" d="M271.57,595.06a4.58,4.58,0,0,1-3.6-1.43,5.87,5.87,0,0,1-1.27-4,6.08,6.08,0,0,1,1.29-4.15,4.66,4.66,0,0,1,3.69-1.46,7.32,7.32,0,0,1,1.54.16,4.91,4.91,0,0,1,1.21.39l-.49,1.38a8.65,8.65,0,0,0-1.18-.36,5.43,5.43,0,0,0-1.12-.14q-3.25,0-3.26,4.16a5,5,0,0,0,.79,3,2.79,2.79,0,0,0,2.36,1,7.32,7.32,0,0,0,2.75-.57v1.43A5.89,5.89,0,0,1,271.57,595.06Z"/><path class="cls-7" d="M276.68,581.26a1.07,1.07,0,0,1,.27-.81.94.94,0,0,1,.69-.26.93.93,0,0,1,.67.26,1.33,1.33,0,0,1,0,1.63.94.94,0,0,1-.67.27,1,1,0,0,1-.69-.27A1.11,1.11,0,0,1,276.68,581.26Zm1.76,13.6h-1.62v-10.7h1.62Z"/><path class="cls-7" d="M286.4,595.06a4.9,4.9,0,0,1-3.75-1.45,5.6,5.6,0,0,1-1.37-4,6.22,6.22,0,0,1,1.27-4.11A4.22,4.22,0,0,1,286,584a4,4,0,0,1,3.18,1.32,5.08,5.08,0,0,1,1.17,3.49v1H283a4.25,4.25,0,0,0,1,2.86,3.29,3.29,0,0,0,2.55,1,8.6,8.6,0,0,0,3.41-.72v1.45a9.23,9.23,0,0,1-1.62.53A9,9,0,0,1,286.4,595.06Zm-.44-9.74a2.65,2.65,0,0,0-2.06.84,3.89,3.89,0,0,0-.9,2.33h5.59a3.54,3.54,0,0,0-.68-2.35A2.43,2.43,0,0,0,286,585.32Z"/><path class="cls-7" d="M300,591.94a2.69,2.69,0,0,1-1.11,2.31,5.27,5.27,0,0,1-3.13.81,6.8,6.8,0,0,1-3.32-.67v-1.51a8.23,8.23,0,0,0,1.66.62,6.84,6.84,0,0,0,1.7.22,3.83,3.83,0,0,0,1.95-.4,1.4,1.4,0,0,0,.15-2.31,9.22,9.22,0,0,0-2.12-1,11.32,11.32,0,0,1-2.12-1,2.9,2.9,0,0,1-.94-.94,2.59,2.59,0,0,1,.76-3.33,5,5,0,0,1,2.92-.75,8.57,8.57,0,0,1,3.38.7L299.2,586a7.67,7.67,0,0,0-2.92-.67,3.26,3.26,0,0,0-1.74.37,1.11,1.11,0,0,0-.58,1,1.23,1.23,0,0,0,.21.73,2.15,2.15,0,0,0,.71.58,15.5,15.5,0,0,0,1.88.79,7,7,0,0,1,2.57,1.4A2.45,2.45,0,0,1,300,591.94Z"/><path class="cls-7" d="M314.74,591.94a2.67,2.67,0,0,1-1.12,2.31,5.22,5.22,0,0,1-3.12.81,6.78,6.78,0,0,1-3.32-.67v-1.51a7.92,7.92,0,0,0,1.65.62,6.92,6.92,0,0,0,1.71.22,3.89,3.89,0,0,0,1.95-.4,1.34,1.34,0,0,0,.68-1.24,1.36,1.36,0,0,0-.54-1.07,8.88,8.88,0,0,0-2.11-1,11.18,11.18,0,0,1-2.13-1,2.86,2.86,0,0,1-.93-.94,2.6,2.6,0,0,1,.75-3.33,5,5,0,0,1,2.92-.75,8.5,8.5,0,0,1,3.38.7l-.57,1.32a7.67,7.67,0,0,0-2.92-.67,3.26,3.26,0,0,0-1.74.37,1.12,1.12,0,0,0-.59,1,1.17,1.17,0,0,0,.22.73,2,2,0,0,0,.71.58,15.15,15.15,0,0,0,1.87.79,7,7,0,0,1,2.58,1.4A2.49,2.49,0,0,1,314.74,591.94Z"/><path class="cls-7" d="M324,594.86l-.33-1.52h-.08A4.38,4.38,0,0,1,322,594.7a4.85,4.85,0,0,1-2,.36,3.54,3.54,0,0,1-2.49-.82,3,3,0,0,1-.91-2.33q0-3.25,5.19-3.4l1.81-.06v-.67a2.72,2.72,0,0,0-.54-1.86,2.23,2.23,0,0,0-1.73-.6,7.19,7.19,0,0,0-3,.82l-.5-1.24a7.86,7.86,0,0,1,1.74-.67,7.53,7.53,0,0,1,1.89-.24,4,4,0,0,1,2.83.85,3.51,3.51,0,0,1,.93,2.72v7.3Zm-3.67-1.14a3.27,3.27,0,0,0,2.38-.83,3.05,3.05,0,0,0,.87-2.32v-1l-1.63.07a5.85,5.85,0,0,0-2.78.6,1.82,1.82,0,0,0-.86,1.66,1.67,1.67,0,0,0,.53,1.33A2.21,2.21,0,0,0,320.29,593.72Z"/><path class="cls-7" d="M326.8,584.16h1.74l2.34,6.11a25,25,0,0,1,1,3h.07c.09-.33.27-.9.54-1.7s1.15-3.28,2.65-7.42h1.74l-4.6,12.19a6.09,6.09,0,0,1-1.6,2.56,3.38,3.38,0,0,1-2.24.76,6.63,6.63,0,0,1-1.47-.17v-1.3a5.54,5.54,0,0,0,1.2.12,2.48,2.48,0,0,0,2.39-1.87l.59-1.53Z"/><path class="cls-7" d="M347.23,593.72a5.69,5.69,0,0,0,.83-.06,6.11,6.11,0,0,0,.63-.13v1.24a3.26,3.26,0,0,1-.77.21,6.61,6.61,0,0,1-.93.08q-3.11,0-3.1-3.27v-6.37h-1.54v-.78l1.54-.67.68-2.29h.94v2.48h3.1v1.26h-3.1v6.3a2.13,2.13,0,0,0,.46,1.48A1.57,1.57,0,0,0,347.23,593.72Z"/><path class="cls-7" d="M358.15,594.86v-6.92a2.78,2.78,0,0,0-.59-2,2.44,2.44,0,0,0-1.87-.65,3.06,3.06,0,0,0-2.46.92,4.64,4.64,0,0,0-.78,3v5.59h-1.62V579.67h1.62v4.6a10.47,10.47,0,0,1-.08,1.38h.1a3.3,3.3,0,0,1,1.36-1.22,4.38,4.38,0,0,1,2-.44,4.12,4.12,0,0,1,2.94.93,3.9,3.9,0,0,1,1,3v7Z"/><path class="cls-7" d="M369.69,594.86l-.32-1.52h-.08a4.48,4.48,0,0,1-1.6,1.36,4.82,4.82,0,0,1-2,.36,3.54,3.54,0,0,1-2.49-.82,3,3,0,0,1-.91-2.33q0-3.25,5.19-3.4l1.82-.06v-.67a2.67,2.67,0,0,0-.55-1.86,2.21,2.21,0,0,0-1.73-.6,7.19,7.19,0,0,0-3,.82l-.49-1.24a7.75,7.75,0,0,1,3.62-.91,4.07,4.07,0,0,1,2.84.85,3.54,3.54,0,0,1,.92,2.72v7.3ZM366,593.72a3.25,3.25,0,0,0,2.37-.83,3.05,3.05,0,0,0,.87-2.32v-1l-1.62.07a5.9,5.9,0,0,0-2.79.6,1.82,1.82,0,0,0-.86,1.66,1.64,1.64,0,0,0,.54,1.33A2.18,2.18,0,0,0,366,593.72Z"/><path class="cls-7" d="M377.69,593.72a5.69,5.69,0,0,0,.83-.06c.26,0,.47-.09.63-.13v1.24a3.36,3.36,0,0,1-.78.21,6.48,6.48,0,0,1-.92.08q-3.1,0-3.1-3.27v-6.37h-1.54v-.78l1.54-.67.68-2.29H376v2.48h3.1v1.26H376v6.3a2.13,2.13,0,0,0,.46,1.48A1.57,1.57,0,0,0,377.69,593.72Z"/><path class="cls-7" d="M391.46,584a4,4,0,0,1,3.28,1.44,7.69,7.69,0,0,1,0,8.17,4,4,0,0,1-3.27,1.46,4.55,4.55,0,0,1-1.9-.39,3.52,3.52,0,0,1-1.45-1.18H388l-.34,1.37h-1.17V579.67h1.63v3.69c0,.83,0,1.57-.08,2.23h.08A3.82,3.82,0,0,1,391.46,584Zm-.23,1.35a2.81,2.81,0,0,0-2.39,1,7.35,7.35,0,0,0,0,6.43,2.84,2.84,0,0,0,2.41,1,2.5,2.5,0,0,0,2.23-1.09,5.66,5.66,0,0,0,.73-3.13,5.43,5.43,0,0,0-.73-3.11A2.62,2.62,0,0,0,391.23,585.34Z"/><path class="cls-7" d="M405.32,594.86l-.32-1.52h-.08a4.38,4.38,0,0,1-1.59,1.36,4.88,4.88,0,0,1-2,.36,3.59,3.59,0,0,1-2.5-.82,3,3,0,0,1-.9-2.33q0-3.25,5.18-3.4l1.82-.06v-.67a2.72,2.72,0,0,0-.54-1.86,2.23,2.23,0,0,0-1.73-.6,7.12,7.12,0,0,0-3,.82l-.5-1.24a8,8,0,0,1,1.73-.67,7.65,7.65,0,0,1,1.89-.24,4.05,4.05,0,0,1,2.84.85,3.51,3.51,0,0,1,.92,2.72v7.3Zm-3.66-1.14a3.27,3.27,0,0,0,2.38-.83,3.09,3.09,0,0,0,.86-2.32v-1l-1.62.07a5.9,5.9,0,0,0-2.79.6,1.81,1.81,0,0,0-.85,1.66,1.67,1.67,0,0,0,.53,1.33A2.2,2.2,0,0,0,401.66,593.72Z"/><path class="cls-7" d="M413.32,593.72a5.59,5.59,0,0,0,.83-.06,6.4,6.4,0,0,0,.64-.13v1.24a3.51,3.51,0,0,1-.78.21,6.48,6.48,0,0,1-.92.08q-3.1,0-3.11-3.27v-6.37h-1.53v-.78L410,584l.68-2.29h.94v2.48h3.11v1.26H411.6v6.3a2.13,2.13,0,0,0,.46,1.48A1.59,1.59,0,0,0,413.32,593.72Z"/><path class="cls-7" d="M421.2,595.06a4.58,4.58,0,0,1-3.6-1.43,5.87,5.87,0,0,1-1.27-4,6.08,6.08,0,0,1,1.29-4.15,4.64,4.64,0,0,1,3.69-1.46,7.32,7.32,0,0,1,1.54.16,4.91,4.91,0,0,1,1.21.39l-.5,1.38a8.09,8.09,0,0,0-1.17-.36,5.51,5.51,0,0,0-1.12-.14c-2.18,0-3.26,1.39-3.26,4.16a5,5,0,0,0,.79,3,2.78,2.78,0,0,0,2.36,1,7.32,7.32,0,0,0,2.75-.57v1.43A5.89,5.89,0,0,1,421.2,595.06Z"/><path class="cls-7" d="M433.77,594.86v-6.92a2.78,2.78,0,0,0-.6-2,2.4,2.4,0,0,0-1.86-.65,3.07,3.07,0,0,0-2.47.92,4.71,4.71,0,0,0-.77,3v5.59h-1.62V579.67h1.62v4.6a10.47,10.47,0,0,1-.08,1.38h.1a3.3,3.3,0,0,1,1.36-1.22,4.37,4.37,0,0,1,2-.44,4.16,4.16,0,0,1,3,.93,3.94,3.94,0,0,1,1,3v7Z"/><path class="cls-7" d="M443.24,595.06a4.88,4.88,0,0,1-3.74-1.45,5.56,5.56,0,0,1-1.38-4,6.22,6.22,0,0,1,1.28-4.11,4.22,4.22,0,0,1,3.42-1.52,4.07,4.07,0,0,1,3.19,1.32,5.08,5.08,0,0,1,1.17,3.49v1H439.8a4.25,4.25,0,0,0,1,2.86,3.29,3.29,0,0,0,2.54,1,8.68,8.68,0,0,0,3.42-.72v1.45a9.32,9.32,0,0,1-1.63.53A9,9,0,0,1,443.24,595.06Zm-.44-9.74a2.63,2.63,0,0,0-2.05.84,3.89,3.89,0,0,0-.91,2.33h5.6a3.6,3.6,0,0,0-.68-2.35A2.44,2.44,0,0,0,442.8,585.32Z"/><path class="cls-7" d="M456.85,591.94a2.7,2.7,0,0,1-1.12,2.31,5.22,5.22,0,0,1-3.12.81,6.78,6.78,0,0,1-3.32-.67v-1.51a7.92,7.92,0,0,0,1.65.62,6.92,6.92,0,0,0,1.71.22,3.89,3.89,0,0,0,2-.4,1.34,1.34,0,0,0,.68-1.24,1.36,1.36,0,0,0-.54-1.07,9.09,9.09,0,0,0-2.11-1,11.18,11.18,0,0,1-2.13-1,2.86,2.86,0,0,1-.93-.94,2.6,2.6,0,0,1,.75-3.33,5,5,0,0,1,2.92-.75,8.53,8.53,0,0,1,3.38.7L456,586a7.59,7.59,0,0,0-2.92-.67,3.25,3.25,0,0,0-1.73.37,1.12,1.12,0,0,0-.59,1,1.17,1.17,0,0,0,.22.73,2,2,0,0,0,.71.58,15.15,15.15,0,0,0,1.87.79,7,7,0,0,1,2.58,1.4A2.49,2.49,0,0,1,456.85,591.94Z"/><path class="cls-7" d="M473.92,589.5a5.9,5.9,0,0,1-1.32,4.09,4.65,4.65,0,0,1-3.64,1.47,4.81,4.81,0,0,1-2.55-.67,4.4,4.4,0,0,1-1.72-1.94,6.64,6.64,0,0,1-.61-3,5.89,5.89,0,0,1,1.31-4.07A4.6,4.6,0,0,1,469,584a4.51,4.51,0,0,1,3.57,1.49A5.89,5.89,0,0,1,473.92,589.5Zm-8.16,0a5.15,5.15,0,0,0,.82,3.13,3.26,3.26,0,0,0,4.83,0,5,5,0,0,0,.83-3.13,5,5,0,0,0-.83-3.1,2.92,2.92,0,0,0-2.44-1.06,2.84,2.84,0,0,0-2.4,1A5,5,0,0,0,465.76,589.5Z"/><path class="cls-7" d="M481.58,585.42h-2.72v9.44h-1.62v-9.44h-1.92v-.73l1.92-.59v-.59q0-3.94,3.44-4a7.46,7.46,0,0,1,2,.34l-.42,1.3a5.44,5.44,0,0,0-1.61-.3,1.54,1.54,0,0,0-1.35.61,3.36,3.36,0,0,0-.44,2v.69h2.72Z"/><path class="cls-7" d="M490.35,594.86h-1.62V579.67h1.62Z"/><path class="cls-7" d="M493.65,581.26a1,1,0,0,1,.28-.81,1,1,0,0,1,1.35,0,1.29,1.29,0,0,1,0,1.63.94.94,0,0,1-.67.27.93.93,0,0,1-.68-.27A1.07,1.07,0,0,1,493.65,581.26Zm1.76,13.6h-1.62v-10.7h1.62Z"/><path class="cls-7" d="M501.19,594.86l-4.06-10.7h1.74l2.3,6.35a30,30,0,0,1,.92,2.89h.08a21,21,0,0,1,.68-2.14c.38-1.09,1.23-3.45,2.56-7.1h1.74l-4.06,10.7Z"/><path class="cls-7" d="M513.39,595.06a4.92,4.92,0,0,1-3.75-1.45,5.6,5.6,0,0,1-1.37-4,6.22,6.22,0,0,1,1.28-4.11A4.22,4.22,0,0,1,513,584a4,4,0,0,1,3.18,1.32,5.08,5.08,0,0,1,1.17,3.49v1H510a4.25,4.25,0,0,0,.95,2.86,3.31,3.31,0,0,0,2.55,1,8.68,8.68,0,0,0,3.42-.72v1.45a9.6,9.6,0,0,1-1.63.53A9,9,0,0,1,513.39,595.06Zm-.44-9.74a2.65,2.65,0,0,0-2.06.84,3.89,3.89,0,0,0-.9,2.33h5.6a3.54,3.54,0,0,0-.69-2.35A2.4,2.4,0,0,0,513,585.32Z"/><path class="cls-7" d="M530.26,595.06a4.63,4.63,0,0,1-1.91-.39,3.58,3.58,0,0,1-1.45-1.18h-.11a13.93,13.93,0,0,1,.11,1.78v4.4h-1.62V584.16h1.32l.23,1.47h.07a3.79,3.79,0,0,1,1.46-1.27,4.42,4.42,0,0,1,1.9-.39,4,4,0,0,1,3.29,1.45,7.73,7.73,0,0,1,0,8.18A4,4,0,0,1,530.26,595.06Zm-.23-9.72a2.88,2.88,0,0,0-2.37.91,4.72,4.72,0,0,0-.76,2.89v.36a5.36,5.36,0,0,0,.76,3.23,2.84,2.84,0,0,0,2.41,1,2.5,2.5,0,0,0,2.17-1.12,5.29,5.29,0,0,0,.79-3.1,5.1,5.1,0,0,0-.79-3.07A2.59,2.59,0,0,0,530,585.34Z"/><path class="cls-7" d="M544.12,594.86l-.32-1.52h-.08a4.4,4.4,0,0,1-1.6,1.36,4.8,4.8,0,0,1-2,.36,3.57,3.57,0,0,1-2.5-.82,3,3,0,0,1-.9-2.33q0-3.25,5.18-3.4l1.82-.06v-.67a2.72,2.72,0,0,0-.54-1.86,2.24,2.24,0,0,0-1.74-.6,7.12,7.12,0,0,0-3,.82l-.5-1.24a7.78,7.78,0,0,1,1.73-.67,7.65,7.65,0,0,1,1.89-.24,4.07,4.07,0,0,1,2.84.85,3.54,3.54,0,0,1,.92,2.72v7.3Zm-3.66-1.14a3.27,3.27,0,0,0,2.38-.83,3.09,3.09,0,0,0,.86-2.32v-1l-1.62.07a5.9,5.9,0,0,0-2.79.6,1.81,1.81,0,0,0-.85,1.66,1.67,1.67,0,0,0,.53,1.33A2.18,2.18,0,0,0,540.46,593.72Z"/><path class="cls-7" d="M556,594.86v-6.92a2.78,2.78,0,0,0-.6-2,2.43,2.43,0,0,0-1.86-.65,3.11,3.11,0,0,0-2.47.91,4.61,4.61,0,0,0-.78,3v5.61h-1.62v-10.7H550l.26,1.47h.08a3.3,3.3,0,0,1,1.4-1.23,4.54,4.54,0,0,1,2-.43,4.07,4.07,0,0,1,2.91.93,4,4,0,0,1,1,3v7Z"/><path class="cls-7" d="M569.7,584.16v1l-2,.23a3.24,3.24,0,0,1,.49.89,3.31,3.31,0,0,1,.22,1.25,3.16,3.16,0,0,1-1.08,2.51,4.35,4.35,0,0,1-3,.94,5.08,5.08,0,0,1-.89-.08,1.59,1.59,0,0,0-1,1.38.7.7,0,0,0,.36.65,2.65,2.65,0,0,0,1.24.21H566a4.22,4.22,0,0,1,2.67.73,2.55,2.55,0,0,1,.93,2.13,3,3,0,0,1-1.43,2.71,7.63,7.63,0,0,1-4.16.93,5.69,5.69,0,0,1-3.23-.78,2.67,2.67,0,0,1-.52-3.9,3.26,3.26,0,0,1,1.76-1,1.71,1.71,0,0,1-.69-.57,1.55,1.55,0,0,1-.27-.91,1.69,1.69,0,0,1,.31-1,3.24,3.24,0,0,1,1-.85A2.92,2.92,0,0,1,561,589.5a3.37,3.37,0,0,1-.52-1.87,3.47,3.47,0,0,1,1-2.71,4.3,4.3,0,0,1,3-.95,5.5,5.5,0,0,1,1.52.19Zm-8.54,12.5a1.47,1.47,0,0,0,.73,1.32,4,4,0,0,0,2.1.45,5.87,5.87,0,0,0,3-.61,1.88,1.88,0,0,0,1-1.66,1.29,1.29,0,0,0-.54-1.2,4.1,4.1,0,0,0-2-.34H563.5a2.56,2.56,0,0,0-1.72.53A1.87,1.87,0,0,0,561.16,596.66Zm.88-9.07a2.17,2.17,0,0,0,.64,1.7,2.54,2.54,0,0,0,1.76.57c1.59,0,2.38-.76,2.38-2.3a2.13,2.13,0,0,0-2.41-2.41,2.36,2.36,0,0,0-1.75.61A2.48,2.48,0,0,0,562,587.59Z"/><path class="cls-7" d="M581.13,589.5a5.9,5.9,0,0,1-1.32,4.09,4.62,4.62,0,0,1-3.64,1.47,4.83,4.83,0,0,1-2.55-.67,4.52,4.52,0,0,1-1.72-1.94,6.78,6.78,0,0,1-.6-3,5.89,5.89,0,0,1,1.31-4.07,4.6,4.6,0,0,1,3.63-1.46,4.51,4.51,0,0,1,3.57,1.49A5.89,5.89,0,0,1,581.13,589.5Zm-8.15,0a5.08,5.08,0,0,0,.82,3.13,3.26,3.26,0,0,0,4.83,0,5,5,0,0,0,.82-3.13,5,5,0,0,0-.82-3.1,2.92,2.92,0,0,0-2.44-1.06,2.84,2.84,0,0,0-2.4,1A5,5,0,0,0,573,589.5Z"/><path class="cls-7" d="M585.6,594.86H584V579.67h1.63Z"/><path class="cls-7" d="M588.9,581.26a1.07,1.07,0,0,1,.27-.81.92.92,0,0,1,.68-.26,1,1,0,0,1,.68.26,1.33,1.33,0,0,1,0,1.63,1,1,0,0,1-.68.27.93.93,0,0,1-.68-.27A1.11,1.11,0,0,1,588.9,581.26Zm1.75,13.6H589v-10.7h1.62Z"/><path class="cls-7" d="M601.42,594.86v-6.92a2.78,2.78,0,0,0-.6-2,2.43,2.43,0,0,0-1.86-.65,3.1,3.1,0,0,0-2.47.91,4.61,4.61,0,0,0-.78,3v5.61h-1.62v-10.7h1.32l.26,1.47h.08a3.3,3.3,0,0,1,1.4-1.23,4.54,4.54,0,0,1,2-.43,4.07,4.07,0,0,1,2.91.93,4,4,0,0,1,1,3v7Z"/><path class="cls-7" d="M613.27,591.94a2.69,2.69,0,0,1-1.11,2.31,5.25,5.25,0,0,1-3.13.81,6.8,6.8,0,0,1-3.32-.67v-1.51a8.23,8.23,0,0,0,1.66.62,6.9,6.9,0,0,0,1.7.22,3.9,3.9,0,0,0,2-.4,1.4,1.4,0,0,0,.14-2.31,9,9,0,0,0-2.12-1,11.32,11.32,0,0,1-2.12-1,3,3,0,0,1-.94-.94,2.5,2.5,0,0,1-.31-1.26,2.42,2.42,0,0,1,1.07-2.07,5,5,0,0,1,2.92-.75,8.53,8.53,0,0,1,3.38.7l-.58,1.32a7.63,7.63,0,0,0-2.92-.67,3.26,3.26,0,0,0-1.74.37,1.11,1.11,0,0,0-.58,1,1.17,1.17,0,0,0,.22.73,2,2,0,0,0,.7.58,15.5,15.5,0,0,0,1.88.79,6.87,6.87,0,0,1,2.57,1.4A2.45,2.45,0,0,1,613.27,591.94Z"/><path class="cls-7" d="M627.69,594.86l-.33-1.52h-.07a4.48,4.48,0,0,1-1.6,1.36,4.82,4.82,0,0,1-2,.36,3.54,3.54,0,0,1-2.49-.82,3,3,0,0,1-.91-2.33q0-3.25,5.19-3.4l1.81-.06v-.67a2.72,2.72,0,0,0-.54-1.86,2.23,2.23,0,0,0-1.73-.6,7.19,7.19,0,0,0-3,.82l-.5-1.24a7.86,7.86,0,0,1,1.74-.67,7.65,7.65,0,0,1,1.89-.24,4,4,0,0,1,2.83.85,3.51,3.51,0,0,1,.93,2.72v7.3ZM624,593.72a3.26,3.26,0,0,0,2.38-.83,3.05,3.05,0,0,0,.87-2.32v-1l-1.63.07a5.88,5.88,0,0,0-2.78.6,1.82,1.82,0,0,0-.86,1.66,1.67,1.67,0,0,0,.53,1.33A2.21,2.21,0,0,0,624,593.72Z"/><path class="cls-7" d="M637.11,584a7.1,7.1,0,0,1,1.28.11l-.23,1.51a5.35,5.35,0,0,0-1.17-.15,2.85,2.85,0,0,0-2.22,1.06,3.84,3.84,0,0,0-.92,2.62v5.74h-1.62v-10.7h1.33l.19,2h.08a4.8,4.8,0,0,1,1.43-1.61A3.3,3.3,0,0,1,637.11,584Z"/><path class="cls-7" d="M644.91,595.06a4.88,4.88,0,0,1-3.74-1.45,5.56,5.56,0,0,1-1.38-4,6.22,6.22,0,0,1,1.28-4.11,4.22,4.22,0,0,1,3.42-1.52,4.07,4.07,0,0,1,3.19,1.32,5.08,5.08,0,0,1,1.17,3.49v1h-7.38a4.25,4.25,0,0,0,1,2.86,3.29,3.29,0,0,0,2.54,1,8.68,8.68,0,0,0,3.42-.72v1.45a9.32,9.32,0,0,1-1.63.53A9,9,0,0,1,644.91,595.06Zm-.44-9.74a2.63,2.63,0,0,0-2.05.84,3.89,3.89,0,0,0-.91,2.33h5.6a3.6,3.6,0,0,0-.68-2.35A2.44,2.44,0,0,0,644.47,585.32Z"/><path class="cls-7" d="M660.26,593.72a5.49,5.49,0,0,0,.83-.06,6.4,6.4,0,0,0,.64-.13v1.24a3.51,3.51,0,0,1-.78.21,6.48,6.48,0,0,1-.92.08q-3.1,0-3.11-3.27v-6.37h-1.53v-.78l1.53-.67.69-2.29h.93v2.48h3.11v1.26h-3.11v6.3a2.18,2.18,0,0,0,.46,1.48A1.59,1.59,0,0,0,660.26,593.72Z"/><path class="cls-7" d="M662.17,584.16h1.74l2.34,6.11a25,25,0,0,1,1,3h.08c.08-.33.26-.9.53-1.7s1.15-3.28,2.65-7.42h1.74l-4.6,12.19a6.09,6.09,0,0,1-1.6,2.56,3.36,3.36,0,0,1-2.24.76,6.63,6.63,0,0,1-1.47-.17v-1.3a5.57,5.57,0,0,0,1.21.12,2.47,2.47,0,0,0,2.38-1.87l.59-1.53Z"/><path class="cls-7" d="M678.93,595.06a4.56,4.56,0,0,1-1.91-.39,3.52,3.52,0,0,1-1.45-1.18h-.12a14,14,0,0,1,.12,1.78v4.4H674V584.16h1.31l.23,1.47h.08a3.69,3.69,0,0,1,1.45-1.27,4.46,4.46,0,0,1,1.91-.39,4,4,0,0,1,3.28,1.45,6.41,6.41,0,0,1,1.16,4.08,6.34,6.34,0,0,1-1.18,4.1A4,4,0,0,1,678.93,595.06Zm-.24-9.72a2.89,2.89,0,0,0-2.37.91,4.65,4.65,0,0,0-.75,2.89v.36a5.37,5.37,0,0,0,.75,3.23,2.84,2.84,0,0,0,2.41,1,2.49,2.49,0,0,0,2.17-1.12,5.29,5.29,0,0,0,.79-3.1,5.1,5.1,0,0,0-.79-3.07A2.59,2.59,0,0,0,678.69,585.34Z"/><path class="cls-7" d="M686.06,581.26a1.07,1.07,0,0,1,.28-.81.92.92,0,0,1,.68-.26,1,1,0,0,1,.68.26,1.33,1.33,0,0,1,0,1.63,1,1,0,0,1-.68.27.93.93,0,0,1-.68-.27A1.11,1.11,0,0,1,686.06,581.26Zm1.76,13.6H686.2v-10.7h1.62Z"/><path class="cls-7" d="M695.54,595.06a4.58,4.58,0,0,1-3.6-1.43,5.87,5.87,0,0,1-1.28-4,6.09,6.09,0,0,1,1.3-4.15,4.63,4.63,0,0,1,3.68-1.46,7.42,7.42,0,0,1,1.55.16,5.05,5.05,0,0,1,1.21.39l-.5,1.38a8.94,8.94,0,0,0-1.17-.36,5.51,5.51,0,0,0-1.12-.14q-3.27,0-3.27,4.16a5,5,0,0,0,.8,3,2.78,2.78,0,0,0,2.36,1,7.27,7.27,0,0,0,2.74-.57v1.43A5.84,5.84,0,0,1,695.54,595.06Z"/><path class="cls-7" d="M707.36,594.86l-.32-1.52H707a4.38,4.38,0,0,1-1.59,1.36,4.85,4.85,0,0,1-2,.36,3.59,3.59,0,0,1-2.5-.82,3,3,0,0,1-.9-2.33q0-3.25,5.19-3.4l1.81-.06v-.67a2.72,2.72,0,0,0-.54-1.86,2.23,2.23,0,0,0-1.73-.6,7.19,7.19,0,0,0-3,.82l-.5-1.24a7.86,7.86,0,0,1,1.74-.67,7.51,7.51,0,0,1,1.88-.24,4.05,4.05,0,0,1,2.84.85,3.51,3.51,0,0,1,.92,2.72v7.3Zm-3.66-1.14a3.27,3.27,0,0,0,2.38-.83,3,3,0,0,0,.86-2.32v-1l-1.62.07a5.9,5.9,0,0,0-2.79.6,1.81,1.81,0,0,0-.85,1.66,1.67,1.67,0,0,0,.53,1.33A2.2,2.2,0,0,0,703.7,593.72Z"/><path class="cls-7" d="M713.53,594.86H711.9V579.67h1.63Z"/><path class="cls-7" d="M718.58,594.86H717V579.67h1.62Z"/><path class="cls-7" d="M720.32,584.16h1.74l2.34,6.11a21.71,21.71,0,0,1,1,3h.08c.08-.33.26-.9.53-1.7s1.16-3.28,2.65-7.42h1.74l-4.6,12.19a6.09,6.09,0,0,1-1.59,2.56,3.39,3.39,0,0,1-2.25.76,6.54,6.54,0,0,1-1.46-.17v-1.3a5.54,5.54,0,0,0,1.2.12,2.47,2.47,0,0,0,2.38-1.87l.6-1.53Z"/><path class="cls-7" d="M228.62,621.94a2.69,2.69,0,0,1-1.11,2.31,5.23,5.23,0,0,1-3.13.81,6.83,6.83,0,0,1-3.32-.67v-1.51a8.23,8.23,0,0,0,1.66.62,6.9,6.9,0,0,0,1.7.22,3.9,3.9,0,0,0,2-.4,1.4,1.4,0,0,0,.14-2.31,9,9,0,0,0-2.12-1,11.32,11.32,0,0,1-2.12-1,3,3,0,0,1-.94-.94,2.5,2.5,0,0,1-.3-1.26,2.41,2.41,0,0,1,1.06-2.07A5,5,0,0,1,225,614a8.53,8.53,0,0,1,3.38.7l-.58,1.32a7.63,7.63,0,0,0-2.92-.67,3.26,3.26,0,0,0-1.74.37,1.11,1.11,0,0,0-.58,1,1.17,1.17,0,0,0,.22.73,2,2,0,0,0,.71.58,15.15,15.15,0,0,0,1.87.79,6.87,6.87,0,0,1,2.57,1.4A2.45,2.45,0,0,1,228.62,621.94Z"/><path class="cls-7" d="M238.58,624.86v-6.92a2.78,2.78,0,0,0-.59-2,2.44,2.44,0,0,0-1.87-.65,3,3,0,0,0-2.46.92,4.64,4.64,0,0,0-.78,3v5.59h-1.62V609.67h1.62v4.6a10.47,10.47,0,0,1-.08,1.38h.1a3.3,3.3,0,0,1,1.36-1.22,4.38,4.38,0,0,1,2-.44,4.12,4.12,0,0,1,2.94.93,3.9,3.9,0,0,1,1,3v7Z"/><path class="cls-7" d="M243.4,611.26a1.07,1.07,0,0,1,.27-.81,1,1,0,0,1,1.36,0,1.33,1.33,0,0,1,0,1.63,1,1,0,0,1-1.36,0A1.11,1.11,0,0,1,243.4,611.26Zm1.76,13.6h-1.62v-10.7h1.62Z"/><path class="cls-7" d="M253.57,625.06a4.55,4.55,0,0,1-1.9-.39,3.61,3.61,0,0,1-1.46-1.18h-.11a13.93,13.93,0,0,1,.11,1.78v4.4h-1.62V614.16h1.32l.23,1.47h.07a3.79,3.79,0,0,1,1.46-1.27,4.42,4.42,0,0,1,1.9-.39,4,4,0,0,1,3.29,1.45,7.73,7.73,0,0,1,0,8.18A4,4,0,0,1,253.57,625.06Zm-.23-9.72a2.89,2.89,0,0,0-2.37.91,4.72,4.72,0,0,0-.76,2.89v.36a5.36,5.36,0,0,0,.76,3.23,2.84,2.84,0,0,0,2.41,1,2.5,2.5,0,0,0,2.17-1.12,5.29,5.29,0,0,0,.79-3.1,5.1,5.1,0,0,0-.79-3.07A2.59,2.59,0,0,0,253.34,615.34Z"/><path class="cls-7" d="M265.83,625.06a4.59,4.59,0,0,1-1.91-.39,3.52,3.52,0,0,1-1.45-1.18h-.12a14,14,0,0,1,.12,1.78v4.4h-1.62V614.16h1.32l.22,1.47h.08a3.72,3.72,0,0,1,1.46-1.27,4.39,4.39,0,0,1,1.9-.39,4,4,0,0,1,3.29,1.45,7.79,7.79,0,0,1,0,8.18A4,4,0,0,1,265.83,625.06Zm-.23-9.72a2.9,2.9,0,0,0-2.38.91,4.65,4.65,0,0,0-.75,2.89v.36a5.37,5.37,0,0,0,.75,3.23,2.86,2.86,0,0,0,2.41,1,2.52,2.52,0,0,0,2.18-1.12,5.36,5.36,0,0,0,.78-3.1,5.18,5.18,0,0,0-.78-3.07A2.6,2.6,0,0,0,265.6,615.34Z"/><path class="cls-7" d="M277.63,625.06a4.9,4.9,0,0,1-3.75-1.45,5.6,5.6,0,0,1-1.37-4,6.22,6.22,0,0,1,1.27-4.11,4.22,4.22,0,0,1,3.43-1.52,4,4,0,0,1,3.18,1.32,5.08,5.08,0,0,1,1.17,3.49v1h-7.37a4.25,4.25,0,0,0,.95,2.86,3.29,3.29,0,0,0,2.55,1,8.6,8.6,0,0,0,3.41-.72v1.45a9.23,9.23,0,0,1-1.62.53A9,9,0,0,1,277.63,625.06Zm-.44-9.74a2.65,2.65,0,0,0-2.06.84,3.89,3.89,0,0,0-.9,2.33h5.59a3.54,3.54,0,0,0-.68-2.35A2.43,2.43,0,0,0,277.19,615.32Z"/><path class="cls-7" d="M291.61,623.43h-.09a3.79,3.79,0,0,1-3.36,1.63,4,4,0,0,1-3.26-1.44,6.28,6.28,0,0,1-1.17-4.08,6.44,6.44,0,0,1,1.17-4.11,3.93,3.93,0,0,1,3.26-1.46,3.86,3.86,0,0,1,3.34,1.58h.13l-.07-.77,0-.76v-4.35h1.62v15.19h-1.31Zm-3.24.27a3,3,0,0,0,2.41-.9,4.61,4.61,0,0,0,.74-2.92v-.34a5.38,5.38,0,0,0-.75-3.24,2.88,2.88,0,0,0-2.42-1,2.47,2.47,0,0,0-2.18,1.11,5.46,5.46,0,0,0-.76,3.13,5.31,5.31,0,0,0,.75,3.1A2.56,2.56,0,0,0,288.37,623.7Z"/><path class="cls-7" d="M311,619.5a5.9,5.9,0,0,1-1.32,4.09,4.66,4.66,0,0,1-3.65,1.47,4.8,4.8,0,0,1-2.54-.67,4.4,4.4,0,0,1-1.72-1.94,6.64,6.64,0,0,1-.61-3,5.89,5.89,0,0,1,1.31-4.07,4.6,4.6,0,0,1,3.63-1.46,4.51,4.51,0,0,1,3.57,1.49A5.89,5.89,0,0,1,311,619.5Zm-8.16,0a5.08,5.08,0,0,0,.82,3.13,3.26,3.26,0,0,0,4.83,0,5,5,0,0,0,.83-3.13,5,5,0,0,0-.83-3.1,2.92,2.92,0,0,0-2.44-1.06,2.84,2.84,0,0,0-2.4,1A5,5,0,0,0,302.86,619.5Z"/><path class="cls-7" d="M321.18,624.86v-6.92a2.82,2.82,0,0,0-.59-2,2.44,2.44,0,0,0-1.87-.65,3.09,3.09,0,0,0-2.46.91,4.61,4.61,0,0,0-.78,3v5.61h-1.62v-10.7h1.32l.26,1.47h.08a3.33,3.33,0,0,1,1.39-1.23,4.56,4.56,0,0,1,2-.43,4.09,4.09,0,0,1,2.91.93,4,4,0,0,1,1,3v7Z"/><path class="cls-7" d="M338.23,621.94a2.69,2.69,0,0,1-1.11,2.31,5.25,5.25,0,0,1-3.13.81,6.83,6.83,0,0,1-3.32-.67v-1.51a8.23,8.23,0,0,0,1.66.62,6.9,6.9,0,0,0,1.7.22,3.9,3.9,0,0,0,2-.4,1.4,1.4,0,0,0,.14-2.31,9,9,0,0,0-2.12-1,11.32,11.32,0,0,1-2.12-1,3,3,0,0,1-.94-.94,2.5,2.5,0,0,1-.31-1.26,2.42,2.42,0,0,1,1.07-2.07,5,5,0,0,1,2.92-.75,8.53,8.53,0,0,1,3.38.7l-.58,1.32a7.63,7.63,0,0,0-2.92-.67,3.26,3.26,0,0,0-1.74.37,1.11,1.11,0,0,0-.58,1,1.17,1.17,0,0,0,.22.73,2,2,0,0,0,.71.58,15.15,15.15,0,0,0,1.87.79,6.87,6.87,0,0,1,2.57,1.4A2.45,2.45,0,0,1,338.23,621.94Z"/><path class="cls-7" d="M354.51,624.86v-7A2.88,2.88,0,0,0,354,616a2.12,2.12,0,0,0-1.69-.64,2.75,2.75,0,0,0-2.24.87,4.15,4.15,0,0,0-.72,2.68v6h-1.62v-7a2.93,2.93,0,0,0-.55-1.92,2.17,2.17,0,0,0-1.71-.64,2.64,2.64,0,0,0-2.23.92,4.94,4.94,0,0,0-.71,3v5.61h-1.62v-10.7h1.32l.26,1.47h.08a3.16,3.16,0,0,1,1.29-1.22,3.88,3.88,0,0,1,1.87-.44c1.68,0,2.77.6,3.28,1.81h.08a3.43,3.43,0,0,1,1.39-1.33,4.36,4.36,0,0,1,2.07-.48,3.63,3.63,0,0,1,2.72.93,4.18,4.18,0,0,1,.9,3v7Z"/><path class="cls-7" d="M366.05,624.86l-.32-1.52h-.08a4.38,4.38,0,0,1-1.59,1.36,4.85,4.85,0,0,1-2,.36,3.54,3.54,0,0,1-2.49-.82,3,3,0,0,1-.91-2.33q0-3.25,5.19-3.4l1.81-.06v-.67a2.72,2.72,0,0,0-.54-1.86,2.23,2.23,0,0,0-1.73-.6,7.19,7.19,0,0,0-3,.82l-.5-1.24a7.86,7.86,0,0,1,1.74-.67,7.53,7.53,0,0,1,1.89-.24,4,4,0,0,1,2.83.85,3.51,3.51,0,0,1,.93,2.72v7.3Zm-3.66-1.14a3.27,3.27,0,0,0,2.38-.83,3,3,0,0,0,.86-2.32v-1l-1.62.07a5.82,5.82,0,0,0-2.78.6,1.82,1.82,0,0,0-.86,1.66,1.67,1.67,0,0,0,.53,1.33A2.2,2.2,0,0,0,362.39,623.72Z"/><path class="cls-7" d="M372.22,624.86H370.6V609.67h1.62Z"/><path class="cls-7" d="M377.28,624.86h-1.63V609.67h1.63Z"/><path class="cls-7" d="M389.37,623.72a5.69,5.69,0,0,0,.83-.06c.26,0,.47-.09.63-.13v1.24a3.36,3.36,0,0,1-.78.21,6.48,6.48,0,0,1-.92.08q-3.11,0-3.1-3.27v-6.37h-1.54v-.78L386,614l.68-2.29h.94v2.48h3.1v1.26h-3.1v6.3a2.13,2.13,0,0,0,.46,1.48A1.57,1.57,0,0,0,389.37,623.72Z"/><path class="cls-7" d="M402.21,619.5a5.9,5.9,0,0,1-1.32,4.09,4.64,4.64,0,0,1-3.64,1.47,4.81,4.81,0,0,1-2.55-.67,4.46,4.46,0,0,1-1.72-1.94,6.78,6.78,0,0,1-.61-3,5.89,5.89,0,0,1,1.31-4.07,4.6,4.6,0,0,1,3.63-1.46,4.51,4.51,0,0,1,3.57,1.49A5.84,5.84,0,0,1,402.21,619.5Zm-8.16,0a5.15,5.15,0,0,0,.82,3.13,2.87,2.87,0,0,0,2.42,1.07,2.84,2.84,0,0,0,2.41-1.07,5,5,0,0,0,.83-3.13,5,5,0,0,0-.83-3.1,2.91,2.91,0,0,0-2.43-1.06,2.85,2.85,0,0,0-2.41,1A5,5,0,0,0,394.05,619.5Z"/><path class="cls-7" d="M423.89,624.86v-7a2.93,2.93,0,0,0-.55-1.92,2.13,2.13,0,0,0-1.7-.64,2.76,2.76,0,0,0-2.24.87,4.15,4.15,0,0,0-.72,2.68v6h-1.62v-7a2.88,2.88,0,0,0-.55-1.92,2.14,2.14,0,0,0-1.71-.64,2.65,2.65,0,0,0-2.23.92,5,5,0,0,0-.7,3v5.61h-1.63v-10.7h1.32l.27,1.47h.07a3.19,3.19,0,0,1,1.3-1.22,3.85,3.85,0,0,1,1.87-.44c1.67,0,2.76.6,3.28,1.81h.08a3.47,3.47,0,0,1,1.38-1.33,4.39,4.39,0,0,1,2.07-.48,3.61,3.61,0,0,1,2.72.93,4.14,4.14,0,0,1,.91,3v7Z"/><path class="cls-7" d="M433.37,625.06a4.92,4.92,0,0,1-3.75-1.45,5.6,5.6,0,0,1-1.37-4,6.22,6.22,0,0,1,1.28-4.11A4.22,4.22,0,0,1,433,614a4,4,0,0,1,3.18,1.32,5.08,5.08,0,0,1,1.17,3.49v1h-7.37a4.25,4.25,0,0,0,.95,2.86,3.31,3.31,0,0,0,2.55,1,8.68,8.68,0,0,0,3.42-.72v1.45a9.6,9.6,0,0,1-1.63.53A9,9,0,0,1,433.37,625.06Zm-.44-9.74a2.65,2.65,0,0,0-2.06.84,3.89,3.89,0,0,0-.9,2.33h5.6a3.54,3.54,0,0,0-.69-2.35A2.4,2.4,0,0,0,432.93,615.32Z"/><path class="cls-7" d="M447.35,623.43h-.08a3.81,3.81,0,0,1-3.36,1.63,4,4,0,0,1-3.27-1.44,6.28,6.28,0,0,1-1.17-4.08,6.44,6.44,0,0,1,1.17-4.11,4,4,0,0,1,3.27-1.46,3.89,3.89,0,0,1,3.34,1.58h.12l-.07-.77,0-.76v-4.35h1.62v15.19h-1.32Zm-3.24.27a3,3,0,0,0,2.41-.9,4.55,4.55,0,0,0,.75-2.92v-.34a5.37,5.37,0,0,0-.76-3.24,2.88,2.88,0,0,0-2.42-1,2.47,2.47,0,0,0-2.18,1.11,5.46,5.46,0,0,0-.76,3.13,5.31,5.31,0,0,0,.75,3.1A2.58,2.58,0,0,0,444.11,623.7Z"/><path class="cls-7" d="M452.19,611.26a1.07,1.07,0,0,1,.27-.81.92.92,0,0,1,.68-.26.93.93,0,0,1,.68.26,1.33,1.33,0,0,1,0,1.63.94.94,0,0,1-.68.27.93.93,0,0,1-.68-.27A1.11,1.11,0,0,1,452.19,611.26Zm1.76,13.6h-1.63v-10.7H454Z"/><path class="cls-7" d="M458.91,614.16v6.94a2.79,2.79,0,0,0,.59,2,2.43,2.43,0,0,0,1.87.64,3,3,0,0,0,2.45-.92,4.6,4.6,0,0,0,.78-3v-5.63h1.62v10.7h-1.34l-.23-1.43h-.09a3.19,3.19,0,0,1-1.38,1.21,4.65,4.65,0,0,1-2,.42,4.06,4.06,0,0,1-2.92-.93,4,4,0,0,1-1-3v-7Z"/><path class="cls-7" d="M483.3,624.86v-7a2.88,2.88,0,0,0-.55-1.92,2.13,2.13,0,0,0-1.7-.64,2.74,2.74,0,0,0-2.23.87,4.15,4.15,0,0,0-.72,2.68v6h-1.63v-7a2.93,2.93,0,0,0-.54-1.92,2.17,2.17,0,0,0-1.71-.64,2.64,2.64,0,0,0-2.23.92,4.94,4.94,0,0,0-.71,3v5.61h-1.62v-10.7H471l.26,1.47h.08a3.16,3.16,0,0,1,1.29-1.22,3.88,3.88,0,0,1,1.87-.44c1.68,0,2.77.6,3.28,1.81h.08a3.43,3.43,0,0,1,1.39-1.33,4.33,4.33,0,0,1,2.07-.48,3.63,3.63,0,0,1,2.72.93,4.18,4.18,0,0,1,.9,3v7Z"/><path class="cls-7" d="M487.36,620.25v-1.49h4.8v1.49Z"/><path class="cls-7" d="M501.6,621.94a2.69,2.69,0,0,1-1.11,2.31,5.25,5.25,0,0,1-3.13.81,6.8,6.8,0,0,1-3.32-.67v-1.51a8.23,8.23,0,0,0,1.66.62,6.9,6.9,0,0,0,1.7.22,3.9,3.9,0,0,0,2-.4,1.4,1.4,0,0,0,.14-2.31,9,9,0,0,0-2.12-1,11.32,11.32,0,0,1-2.12-1,3,3,0,0,1-.94-.94,2.5,2.5,0,0,1-.31-1.26,2.42,2.42,0,0,1,1.07-2.07A5,5,0,0,1,498,614a8.53,8.53,0,0,1,3.38.7L500.8,616a7.63,7.63,0,0,0-2.92-.67,3.26,3.26,0,0,0-1.74.37,1.11,1.11,0,0,0-.58,1,1.17,1.17,0,0,0,.22.73,2,2,0,0,0,.7.58,15.5,15.5,0,0,0,1.88.79,6.87,6.87,0,0,1,2.57,1.4A2.45,2.45,0,0,1,501.6,621.94Z"/><path class="cls-7" d="M504.1,611.26a1,1,0,0,1,.28-.81,1,1,0,0,1,1.35,0,1.29,1.29,0,0,1,0,1.63.94.94,0,0,1-.67.27.93.93,0,0,1-.68-.27A1.07,1.07,0,0,1,504.1,611.26Zm1.76,13.6h-1.62v-10.7h1.62Z"/><path class="cls-7" d="M516.14,624.86h-7.76v-1.1l5.84-8.34h-5.48v-1.26H516v1.26l-5.77,8.18h5.91Z"/><path class="cls-7" d="M523.17,625.06a4.88,4.88,0,0,1-3.74-1.45,5.56,5.56,0,0,1-1.37-4,6.22,6.22,0,0,1,1.27-4.11,4.22,4.22,0,0,1,3.42-1.52,4.05,4.05,0,0,1,3.19,1.32,5.08,5.08,0,0,1,1.17,3.49v1h-7.37a4.25,4.25,0,0,0,1,2.86,3.29,3.29,0,0,0,2.54,1,8.68,8.68,0,0,0,3.42-.72v1.45a9.06,9.06,0,0,1-1.63.53A8.9,8.9,0,0,1,523.17,625.06Zm-.44-9.74a2.65,2.65,0,0,0-2.05.84,3.89,3.89,0,0,0-.9,2.33h5.59a3.6,3.6,0,0,0-.68-2.35A2.44,2.44,0,0,0,522.73,615.32Z"/><path class="cls-7" d="M537.16,623.43h-.09a3.81,3.81,0,0,1-3.36,1.63,4,4,0,0,1-3.27-1.44,6.34,6.34,0,0,1-1.16-4.08,6.44,6.44,0,0,1,1.17-4.11,3.93,3.93,0,0,1,3.26-1.46,3.87,3.87,0,0,1,3.34,1.58h.13l-.07-.77,0-.76v-4.35h1.62v15.19h-1.32Zm-3.24.27a2.94,2.94,0,0,0,2.4-.9,4.55,4.55,0,0,0,.75-2.92v-.34a5.3,5.3,0,0,0-.76-3.24,2.86,2.86,0,0,0-2.41-1,2.5,2.5,0,0,0-2.19,1.11,5.55,5.55,0,0,0-.75,3.13,5.31,5.31,0,0,0,.75,3.1A2.56,2.56,0,0,0,533.92,623.7Z"/><path class="cls-7" d="M552.3,614a4,4,0,0,1,3.28,1.44,7.69,7.69,0,0,1,0,8.17,4,4,0,0,1-3.27,1.46,4.55,4.55,0,0,1-1.9-.39,3.52,3.52,0,0,1-1.45-1.18h-.12l-.34,1.37h-1.17V609.67H549v3.69c0,.83,0,1.57-.08,2.23H549A3.82,3.82,0,0,1,552.3,614Zm-.23,1.35a2.81,2.81,0,0,0-2.39,1,7.35,7.35,0,0,0,0,6.43,2.84,2.84,0,0,0,2.41,1,2.5,2.5,0,0,0,2.23-1.09,5.66,5.66,0,0,0,.73-3.13,5.43,5.43,0,0,0-.73-3.11A2.62,2.62,0,0,0,552.07,615.34Z"/><path class="cls-7" d="M568.82,619.5a5.9,5.9,0,0,1-1.32,4.09,4.64,4.64,0,0,1-3.64,1.47,4.81,4.81,0,0,1-2.55-.67,4.46,4.46,0,0,1-1.72-1.94,6.78,6.78,0,0,1-.61-3,5.89,5.89,0,0,1,1.31-4.07,4.63,4.63,0,0,1,3.64-1.46,4.54,4.54,0,0,1,3.57,1.49A5.89,5.89,0,0,1,568.82,619.5Zm-8.16,0a5.15,5.15,0,0,0,.82,3.13,2.87,2.87,0,0,0,2.42,1.07,2.84,2.84,0,0,0,2.41-1.07,5,5,0,0,0,.83-3.13,5,5,0,0,0-.83-3.1,2.91,2.91,0,0,0-2.43-1.06,2.86,2.86,0,0,0-2.41,1A5,5,0,0,0,560.66,619.5Z"/><path class="cls-7" d="M578.24,624.86l-.32-1.52h-.08a4.38,4.38,0,0,1-1.59,1.36,4.88,4.88,0,0,1-2,.36,3.59,3.59,0,0,1-2.5-.82,3,3,0,0,1-.9-2.33q0-3.25,5.18-3.4l1.82-.06v-.67a2.72,2.72,0,0,0-.54-1.86,2.23,2.23,0,0,0-1.73-.6,7.12,7.12,0,0,0-3,.82l-.5-1.24a8,8,0,0,1,1.73-.67,7.65,7.65,0,0,1,1.89-.24,4.05,4.05,0,0,1,2.84.85,3.51,3.51,0,0,1,.92,2.72v7.3Zm-3.66-1.14a3.27,3.27,0,0,0,2.38-.83,3.09,3.09,0,0,0,.86-2.32v-1l-1.62.07a5.9,5.9,0,0,0-2.79.6,1.81,1.81,0,0,0-.85,1.66,1.67,1.67,0,0,0,.53,1.33A2.2,2.2,0,0,0,574.58,623.72Z"/><path class="cls-7" d="M586.24,623.72a5.59,5.59,0,0,0,.83-.06,6.4,6.4,0,0,0,.64-.13v1.24a3.51,3.51,0,0,1-.78.21,6.48,6.48,0,0,1-.92.08q-3.1,0-3.11-3.27v-6.37h-1.53v-.78l1.53-.67.68-2.29h.94v2.48h3.11v1.26h-3.11v6.3a2.13,2.13,0,0,0,.46,1.48A1.59,1.59,0,0,0,586.24,623.72Z"/><path class="cls-7" d="M596.75,621.94a2.67,2.67,0,0,1-1.12,2.31,5.22,5.22,0,0,1-3.12.81,6.78,6.78,0,0,1-3.32-.67v-1.51a8.14,8.14,0,0,0,1.65.62,6.92,6.92,0,0,0,1.71.22,3.83,3.83,0,0,0,2-.4,1.35,1.35,0,0,0,.69-1.24,1.37,1.37,0,0,0-.55-1.07,8.88,8.88,0,0,0-2.11-1,11,11,0,0,1-2.12-1,2.9,2.9,0,0,1-.94-.94,2.6,2.6,0,0,1,.75-3.33,5,5,0,0,1,2.92-.75,8.5,8.5,0,0,1,3.38.7L596,616a7.67,7.67,0,0,0-2.92-.67,3.26,3.26,0,0,0-1.74.37,1.12,1.12,0,0,0-.59,1,1.24,1.24,0,0,0,.22.73,2.15,2.15,0,0,0,.71.58,15.5,15.5,0,0,0,1.88.79,7,7,0,0,1,2.57,1.4A2.45,2.45,0,0,1,596.75,621.94Z"/><path class="cls-7" d="M601.08,622.54l.15.23c-.17.65-.41,1.4-.73,2.27s-.65,1.66-1,2.4h-1.22c.18-.67.37-1.51.58-2.51s.36-1.79.45-2.39Z"/><path class="cls-7" d="M611.1,624.86h-1.62V609.67h1.62Z"/><path class="cls-7" d="M621.12,624.86l-.32-1.52h-.08a4.38,4.38,0,0,1-1.59,1.36,4.85,4.85,0,0,1-2,.36,3.59,3.59,0,0,1-2.5-.82,3,3,0,0,1-.9-2.33q0-3.25,5.19-3.4l1.81-.06v-.67a2.72,2.72,0,0,0-.54-1.86,2.23,2.23,0,0,0-1.73-.6,7.19,7.19,0,0,0-3,.82l-.5-1.24a8,8,0,0,1,1.73-.67,7.65,7.65,0,0,1,1.89-.24,4.05,4.05,0,0,1,2.84.85,3.51,3.51,0,0,1,.92,2.72v7.3Zm-3.66-1.14a3.27,3.27,0,0,0,2.38-.83,3,3,0,0,0,.86-2.32v-1l-1.62.07a5.9,5.9,0,0,0-2.79.6,1.81,1.81,0,0,0-.85,1.66,1.67,1.67,0,0,0,.53,1.33A2.2,2.2,0,0,0,617.46,623.72Z"/><path class="cls-7" d="M633,624.86v-6.92a2.78,2.78,0,0,0-.6-2,2.41,2.41,0,0,0-1.86-.65,3.09,3.09,0,0,0-2.46.91,4.61,4.61,0,0,0-.78,3v5.61h-1.63v-10.7H627l.27,1.47h.07a3.35,3.35,0,0,1,1.4-1.23,4.54,4.54,0,0,1,2-.43,4.07,4.07,0,0,1,2.91.93,4,4,0,0,1,1,3v7Z"/><path class="cls-7" d="M645.22,623.43h-.08a3.81,3.81,0,0,1-3.36,1.63,4,4,0,0,1-3.27-1.44,6.28,6.28,0,0,1-1.17-4.08,6.39,6.39,0,0,1,1.18-4.11,4.34,4.34,0,0,1,6.6.12h.12l-.06-.77,0-.76v-4.35h1.62v15.19h-1.32Zm-3.24.27a3,3,0,0,0,2.41-.9,4.55,4.55,0,0,0,.75-2.92v-.34a5.37,5.37,0,0,0-.76-3.24,2.87,2.87,0,0,0-2.42-1,2.48,2.48,0,0,0-2.18,1.11,5.54,5.54,0,0,0-.76,3.13,5.23,5.23,0,0,0,.76,3.1A2.54,2.54,0,0,0,642,623.7Z"/><path class="cls-7" d="M650.06,611.26a1.07,1.07,0,0,1,.27-.81,1,1,0,0,1,1.36,0,1.33,1.33,0,0,1,0,1.63,1,1,0,0,1-1.36,0A1.11,1.11,0,0,1,650.06,611.26Zm1.76,13.6H650.2v-10.7h1.62Z"/><path class="cls-7" d="M662.58,624.86v-6.92a2.78,2.78,0,0,0-.6-2,2.43,2.43,0,0,0-1.86-.65,3.09,3.09,0,0,0-2.46.91,4.61,4.61,0,0,0-.78,3v5.61h-1.63v-10.7h1.32l.27,1.47h.07a3.35,3.35,0,0,1,1.4-1.23,4.54,4.54,0,0,1,2-.43,4.07,4.07,0,0,1,2.91.93,4,4,0,0,1,1,3v7Z"/><path class="cls-7" d="M676.29,614.16v1l-2,.23a3.52,3.52,0,0,1,.48.89,3.31,3.31,0,0,1,.22,1.25,3.19,3.19,0,0,1-1.07,2.51,4.37,4.37,0,0,1-3,.94,5.11,5.11,0,0,1-.9-.08,1.59,1.59,0,0,0-1,1.38.7.7,0,0,0,.36.65,2.68,2.68,0,0,0,1.24.21h1.9a4.22,4.22,0,0,1,2.67.73,2.55,2.55,0,0,1,.93,2.13,3,3,0,0,1-1.42,2.71,7.65,7.65,0,0,1-4.16.93,5.7,5.7,0,0,1-3.24-.78,2.53,2.53,0,0,1-1.14-2.21,2.48,2.48,0,0,1,.63-1.69,3.19,3.19,0,0,1,1.75-1,1.62,1.62,0,0,1-.68-.57,1.49,1.49,0,0,1-.28-.91,1.69,1.69,0,0,1,.31-1,3.18,3.18,0,0,1,1-.85,2.9,2.9,0,0,1-1.36-1.17,3.84,3.84,0,0,1,.54-4.58,4.27,4.27,0,0,1,3-.95,5.5,5.5,0,0,1,1.52.19Zm-8.54,12.5a1.46,1.46,0,0,0,.74,1.32,4,4,0,0,0,2.1.45,5.83,5.83,0,0,0,3-.61,1.88,1.88,0,0,0,1-1.66,1.29,1.29,0,0,0-.54-1.2,4.1,4.1,0,0,0-2-.34h-1.94a2.56,2.56,0,0,0-1.72.53A1.87,1.87,0,0,0,667.75,626.66Zm.88-9.07a2.17,2.17,0,0,0,.64,1.7,2.55,2.55,0,0,0,1.77.57,2.06,2.06,0,0,0,2.37-2.3,2.12,2.12,0,0,0-2.4-2.41,2.37,2.37,0,0,0-1.76.61A2.48,2.48,0,0,0,668.63,617.59Z"/><path class="cls-7" d="M690.26,624.86l-.32-1.52h-.08a4.38,4.38,0,0,1-1.59,1.36,4.85,4.85,0,0,1-2,.36,3.59,3.59,0,0,1-2.5-.82,3,3,0,0,1-.9-2.33q0-3.25,5.19-3.4l1.81-.06v-.67a2.72,2.72,0,0,0-.54-1.86,2.23,2.23,0,0,0-1.73-.6,7.19,7.19,0,0,0-3,.82l-.5-1.24a7.86,7.86,0,0,1,1.74-.67,7.53,7.53,0,0,1,1.89-.24,4,4,0,0,1,2.83.85,3.51,3.51,0,0,1,.92,2.72v7.3Zm-3.66-1.14a3.27,3.27,0,0,0,2.38-.83,3,3,0,0,0,.86-2.32v-1l-1.62.07a5.9,5.9,0,0,0-2.79.6,1.83,1.83,0,0,0-.85,1.66,1.67,1.67,0,0,0,.53,1.33A2.2,2.2,0,0,0,686.6,623.72Z"/><path class="cls-7" d="M698.26,623.72a5.49,5.49,0,0,0,.83-.06,6.4,6.4,0,0,0,.64-.13v1.24a3.51,3.51,0,0,1-.78.21,6.48,6.48,0,0,1-.92.08q-3.1,0-3.11-3.27v-6.37h-1.53v-.78l1.53-.67.69-2.29h.93v2.48h3.11v1.26h-3.11v6.3a2.18,2.18,0,0,0,.46,1.48A1.59,1.59,0,0,0,698.26,623.72Z"/><path class="cls-7" d="M229,654.86v-6.92a2.82,2.82,0,0,0-.59-2,2.44,2.44,0,0,0-1.87-.65,3,3,0,0,0-2.46.92,4.64,4.64,0,0,0-.78,3v5.59h-1.62V639.67h1.62v4.6a10.47,10.47,0,0,1-.08,1.38h.1a3.3,3.3,0,0,1,1.36-1.22,4.38,4.38,0,0,1,2-.44,4.12,4.12,0,0,1,2.94.93,3.9,3.9,0,0,1,1,3v7Z"/><path class="cls-7" d="M233.86,641.26a1.07,1.07,0,0,1,.27-.81.92.92,0,0,1,.68-.26.93.93,0,0,1,.68.26,1.33,1.33,0,0,1,0,1.63.94.94,0,0,1-.68.27.93.93,0,0,1-.68-.27A1.11,1.11,0,0,1,233.86,641.26Zm1.76,13.6H234v-10.7h1.63Z"/><path class="cls-7" d="M246.34,653.43h-.09a3.81,3.81,0,0,1-3.36,1.63,4,4,0,0,1-3.27-1.44,6.34,6.34,0,0,1-1.16-4.08,6.44,6.44,0,0,1,1.17-4.11,3.93,3.93,0,0,1,3.26-1.46,3.87,3.87,0,0,1,3.34,1.58h.13l-.07-.77,0-.76v-4.35h1.62v15.19h-1.32Zm-3.24.27a3,3,0,0,0,2.4-.9,4.55,4.55,0,0,0,.75-2.92v-.34a5.3,5.3,0,0,0-.76-3.24,2.86,2.86,0,0,0-2.41-1,2.5,2.5,0,0,0-2.19,1.11,5.55,5.55,0,0,0-.75,3.13,5.31,5.31,0,0,0,.75,3.1A2.56,2.56,0,0,0,243.1,653.7Z"/><path class="cls-7" d="M258.59,653.43h-.08a3.81,3.81,0,0,1-3.36,1.63,4,4,0,0,1-3.27-1.44,6.28,6.28,0,0,1-1.17-4.08,6.44,6.44,0,0,1,1.17-4.11,4,4,0,0,1,3.27-1.46,3.89,3.89,0,0,1,3.34,1.58h.12l-.07-.77,0-.76v-4.35h1.62v15.19h-1.32Zm-3.24.27a3,3,0,0,0,2.41-.9,4.55,4.55,0,0,0,.75-2.92v-.34a5.37,5.37,0,0,0-.76-3.24,2.88,2.88,0,0,0-2.42-1,2.47,2.47,0,0,0-2.18,1.11,5.46,5.46,0,0,0-.76,3.13,5.31,5.31,0,0,0,.75,3.1A2.58,2.58,0,0,0,255.35,653.7Z"/><path class="cls-7" d="M268.09,655.06a4.9,4.9,0,0,1-3.75-1.45,5.6,5.6,0,0,1-1.37-4,6.22,6.22,0,0,1,1.27-4.11,4.22,4.22,0,0,1,3.43-1.52,4,4,0,0,1,3.18,1.32,5.08,5.08,0,0,1,1.17,3.49v1h-7.37a4.25,4.25,0,0,0,1,2.86,3.29,3.29,0,0,0,2.54,1,8.61,8.61,0,0,0,3.42-.72v1.45a9.23,9.23,0,0,1-1.62.53A9,9,0,0,1,268.09,655.06Zm-.44-9.74a2.65,2.65,0,0,0-2.06.84,3.89,3.89,0,0,0-.9,2.33h5.59a3.54,3.54,0,0,0-.68-2.35A2.43,2.43,0,0,0,267.65,645.32Z"/><path class="cls-7" d="M282.11,654.86v-6.92a2.78,2.78,0,0,0-.6-2,2.4,2.4,0,0,0-1.86-.65,3.09,3.09,0,0,0-2.46.91,4.61,4.61,0,0,0-.78,3v5.61h-1.62v-10.7h1.31l.27,1.47h.08a3.27,3.27,0,0,1,1.39-1.23,4.54,4.54,0,0,1,2-.43,4.07,4.07,0,0,1,2.91.93,3.93,3.93,0,0,1,1,3v7Z"/><path class="cls-7" d="M293.88,654.86h-1.62V639.67h1.62Z"/><path class="cls-7" d="M306.55,649.5a5.9,5.9,0,0,1-1.32,4.09,4.62,4.62,0,0,1-3.64,1.47,4.83,4.83,0,0,1-2.55-.67,4.52,4.52,0,0,1-1.72-1.94,6.78,6.78,0,0,1-.6-3,5.89,5.89,0,0,1,1.31-4.07,4.6,4.6,0,0,1,3.63-1.46,4.51,4.51,0,0,1,3.57,1.49A5.89,5.89,0,0,1,306.55,649.5Zm-8.15,0a5.08,5.08,0,0,0,.82,3.13,3.26,3.26,0,0,0,4.83,0,5,5,0,0,0,.82-3.13,5,5,0,0,0-.82-3.1,2.92,2.92,0,0,0-2.44-1.06,2.84,2.84,0,0,0-2.4,1A5,5,0,0,0,298.4,649.5Z"/><path class="cls-7" d="M313.67,655.06a4.58,4.58,0,0,1-3.6-1.43,5.87,5.87,0,0,1-1.27-4,6.08,6.08,0,0,1,1.29-4.15,4.66,4.66,0,0,1,3.69-1.46,7.32,7.32,0,0,1,1.54.16,4.91,4.91,0,0,1,1.21.39L316,645.9a8.65,8.65,0,0,0-1.18-.36,5.43,5.43,0,0,0-1.12-.14q-3.25,0-3.26,4.16a5,5,0,0,0,.79,3,2.78,2.78,0,0,0,2.36,1,7.32,7.32,0,0,0,2.75-.57v1.43A5.89,5.89,0,0,1,313.67,655.06Z"/><path class="cls-7" d="M325.5,654.86l-.32-1.52h-.08a4.48,4.48,0,0,1-1.6,1.36,4.82,4.82,0,0,1-2,.36,3.54,3.54,0,0,1-2.49-.82,3,3,0,0,1-.9-2.33c0-2.17,1.72-3.3,5.18-3.4l1.82-.06v-.67a2.72,2.72,0,0,0-.54-1.86,2.25,2.25,0,0,0-1.74-.6,7.19,7.19,0,0,0-3,.82l-.49-1.24a7.75,7.75,0,0,1,3.62-.91,4.07,4.07,0,0,1,2.84.85,3.54,3.54,0,0,1,.92,2.72v7.3Zm-3.66-1.14a3.25,3.25,0,0,0,2.37-.83,3.05,3.05,0,0,0,.87-2.32v-1l-1.62.07a5.9,5.9,0,0,0-2.79.6,1.82,1.82,0,0,0-.86,1.66,1.64,1.64,0,0,0,.54,1.33A2.18,2.18,0,0,0,321.84,653.72Z"/><path class="cls-7" d="M333.5,653.72a5.69,5.69,0,0,0,.83-.06c.26,0,.47-.09.63-.13v1.24a3.22,3.22,0,0,1-.78.21,6.36,6.36,0,0,1-.92.08q-3.11,0-3.1-3.27v-6.37h-1.54v-.78l1.54-.67.68-2.29h.94v2.48h3.1v1.26h-3.1v6.3a2.13,2.13,0,0,0,.46,1.48A1.57,1.57,0,0,0,333.5,653.72Z"/><path class="cls-7" d="M337,641.26a1,1,0,0,1,.28-.81,1,1,0,0,1,1.35,0,1.29,1.29,0,0,1,0,1.63,1,1,0,0,1-1.35,0A1.07,1.07,0,0,1,337,641.26Zm1.76,13.6H337.1v-10.7h1.62Z"/><path class="cls-7" d="M351.4,649.5a5.9,5.9,0,0,1-1.32,4.09,4.64,4.64,0,0,1-3.64,1.47,4.81,4.81,0,0,1-2.55-.67,4.4,4.4,0,0,1-1.72-1.94,6.64,6.64,0,0,1-.61-3,5.89,5.89,0,0,1,1.31-4.07A4.6,4.6,0,0,1,346.5,644a4.51,4.51,0,0,1,3.57,1.49A5.84,5.84,0,0,1,351.4,649.5Zm-8.16,0a5.15,5.15,0,0,0,.82,3.13,3.26,3.26,0,0,0,4.83,0,5,5,0,0,0,.83-3.13,5,5,0,0,0-.83-3.1,2.91,2.91,0,0,0-2.43-1.06,2.85,2.85,0,0,0-2.41,1A5,5,0,0,0,343.24,649.5Z"/><path class="cls-7" d="M361.56,654.86v-6.92a2.82,2.82,0,0,0-.59-2,2.44,2.44,0,0,0-1.87-.65,3.09,3.09,0,0,0-2.46.91,4.61,4.61,0,0,0-.78,3v5.61h-1.62v-10.7h1.32l.26,1.47h.08a3.33,3.33,0,0,1,1.39-1.23,4.56,4.56,0,0,1,2-.43,4.07,4.07,0,0,1,2.91.93,4,4,0,0,1,1,3v7Z"/><path class="cls-7" d="M373.42,651.94a2.67,2.67,0,0,1-1.12,2.31,5.22,5.22,0,0,1-3.12.81,6.78,6.78,0,0,1-3.32-.67v-1.51a8.14,8.14,0,0,0,1.65.62,6.92,6.92,0,0,0,1.71.22,3.83,3.83,0,0,0,1.95-.4,1.35,1.35,0,0,0,.69-1.24,1.37,1.37,0,0,0-.55-1.07,8.88,8.88,0,0,0-2.11-1,11,11,0,0,1-2.12-1,2.9,2.9,0,0,1-.94-.94,2.6,2.6,0,0,1,.75-3.33,5,5,0,0,1,2.92-.75,8.5,8.5,0,0,1,3.38.7l-.57,1.32a7.67,7.67,0,0,0-2.92-.67,3.26,3.26,0,0,0-1.74.37,1.12,1.12,0,0,0-.59,1,1.24,1.24,0,0,0,.22.73,2.15,2.15,0,0,0,.71.58,15.5,15.5,0,0,0,1.88.79,7,7,0,0,1,2.57,1.4A2.45,2.45,0,0,1,373.42,651.94Z"/><path class="cls-7" d="M387.83,654.86l-.32-1.52h-.08a4.32,4.32,0,0,1-1.6,1.36,4.8,4.8,0,0,1-2,.36,3.59,3.59,0,0,1-2.5-.82,3,3,0,0,1-.9-2.33q0-3.25,5.18-3.4l1.82-.06v-.67a2.72,2.72,0,0,0-.54-1.86,2.23,2.23,0,0,0-1.73-.6,7.12,7.12,0,0,0-3,.82l-.5-1.24a8,8,0,0,1,1.73-.67,7.65,7.65,0,0,1,1.89-.24,4.05,4.05,0,0,1,2.84.85,3.51,3.51,0,0,1,.92,2.72v7.3Zm-3.66-1.14a3.27,3.27,0,0,0,2.38-.83,3.09,3.09,0,0,0,.86-2.32v-1l-1.62.07a5.9,5.9,0,0,0-2.79.6,1.81,1.81,0,0,0-.85,1.66,1.67,1.67,0,0,0,.53,1.33A2.2,2.2,0,0,0,384.17,653.72Z"/><path class="cls-7" d="M394,654.86h-1.62V639.67H394Z"/><path class="cls-7" d="M406.67,649.5a5.9,5.9,0,0,1-1.32,4.09,4.64,4.64,0,0,1-3.64,1.47,4.81,4.81,0,0,1-2.55-.67,4.46,4.46,0,0,1-1.72-1.94,6.78,6.78,0,0,1-.6-3,5.89,5.89,0,0,1,1.3-4.07,4.63,4.63,0,0,1,3.64-1.46,4.54,4.54,0,0,1,3.57,1.49A5.89,5.89,0,0,1,406.67,649.5Zm-8.15,0a5.08,5.08,0,0,0,.82,3.13,3.26,3.26,0,0,0,4.83,0,5.1,5.1,0,0,0,.82-3.13,5,5,0,0,0-.82-3.1,2.93,2.93,0,0,0-2.44-1.06,2.84,2.84,0,0,0-2.4,1A5,5,0,0,0,398.52,649.5Z"/><path class="cls-7" d="M416.84,654.86v-6.92a2.78,2.78,0,0,0-.6-2,2.43,2.43,0,0,0-1.86-.65,3.1,3.1,0,0,0-2.47.91,4.61,4.61,0,0,0-.78,3v5.61h-1.62v-10.7h1.32l.26,1.47h.08a3.3,3.3,0,0,1,1.4-1.23,4.51,4.51,0,0,1,2-.43,4.07,4.07,0,0,1,2.91.93,4,4,0,0,1,1,3v7Z"/><path class="cls-7" d="M430.55,644.16v1l-2,.23a3.24,3.24,0,0,1,.49.89,3.31,3.31,0,0,1,.22,1.25,3.16,3.16,0,0,1-1.08,2.51,4.35,4.35,0,0,1-2.95.94,5,5,0,0,1-.89-.08,1.59,1.59,0,0,0-1,1.38.7.7,0,0,0,.36.65,2.65,2.65,0,0,0,1.24.21h1.9a4.22,4.22,0,0,1,2.67.73,2.55,2.55,0,0,1,.93,2.13,3,3,0,0,1-1.43,2.71,7.63,7.63,0,0,1-4.16.93,5.67,5.67,0,0,1-3.23-.78,2.67,2.67,0,0,1-.52-3.9,3.26,3.26,0,0,1,1.76-1,1.71,1.71,0,0,1-.69-.57,1.55,1.55,0,0,1-.27-.91,1.69,1.69,0,0,1,.31-1,3.13,3.13,0,0,1,1-.85,2.92,2.92,0,0,1-1.35-1.17,3.37,3.37,0,0,1-.52-1.87,3.47,3.47,0,0,1,1-2.71,4.3,4.3,0,0,1,3-.95,5.5,5.5,0,0,1,1.52.19ZM422,656.66a1.47,1.47,0,0,0,.73,1.32,4,4,0,0,0,2.1.45,5.87,5.87,0,0,0,3-.61,1.88,1.88,0,0,0,1-1.66,1.29,1.29,0,0,0-.54-1.2,4.1,4.1,0,0,0-2-.34h-1.94a2.56,2.56,0,0,0-1.72.53A1.87,1.87,0,0,0,422,656.66Zm.88-9.07a2.17,2.17,0,0,0,.64,1.7,2.54,2.54,0,0,0,1.76.57c1.59,0,2.38-.76,2.38-2.3a2.13,2.13,0,0,0-2.41-2.41,2.36,2.36,0,0,0-1.75.61A2.48,2.48,0,0,0,422.89,647.59Z"/><path class="cls-7" d="M441.4,653.72a5.69,5.69,0,0,0,.83-.06,6.11,6.11,0,0,0,.63-.13v1.24a3.22,3.22,0,0,1-.78.21,6.36,6.36,0,0,1-.92.08q-3.11,0-3.1-3.27v-6.37h-1.54v-.78l1.54-.67.68-2.29h.94v2.48h3.1v1.26h-3.1v6.3a2.13,2.13,0,0,0,.46,1.48A1.57,1.57,0,0,0,441.4,653.72Z"/><path class="cls-7" d="M452.32,654.86v-6.92a2.78,2.78,0,0,0-.59-2,2.44,2.44,0,0,0-1.87-.65,3.06,3.06,0,0,0-2.46.92,4.64,4.64,0,0,0-.78,3v5.59H445V639.67h1.62v4.6a10.47,10.47,0,0,1-.08,1.38h.1a3.3,3.3,0,0,1,1.36-1.22,4.38,4.38,0,0,1,2-.44,4.12,4.12,0,0,1,2.94.93,3.9,3.9,0,0,1,1,3v7Z"/><path class="cls-7" d="M461.8,655.06a4.9,4.9,0,0,1-3.75-1.45,5.6,5.6,0,0,1-1.37-4,6.22,6.22,0,0,1,1.27-4.11,4.22,4.22,0,0,1,3.43-1.52,4,4,0,0,1,3.18,1.32,5.08,5.08,0,0,1,1.17,3.49v1h-7.37a4.25,4.25,0,0,0,.95,2.86,3.29,3.29,0,0,0,2.55,1,8.6,8.6,0,0,0,3.41-.72v1.45a9.23,9.23,0,0,1-1.62.53A9,9,0,0,1,461.8,655.06Zm-.44-9.74a2.65,2.65,0,0,0-2.06.84,3.89,3.89,0,0,0-.9,2.33H464a3.54,3.54,0,0,0-.68-2.35A2.43,2.43,0,0,0,461.36,645.32Z"/><path class="cls-7" d="M480.25,654.86l-4.84-12.65h-.08c.09,1,.14,2.19.14,3.57v9.08h-1.53V640.59h2.5L481,652.36H481l4.56-11.77h2.48v14.27h-1.66v-9.19c0-1.06,0-2.21.13-3.44h-.08l-4.88,12.63Z"/><path class="cls-7" d="M498.33,654.86l-.32-1.52h-.08a4.4,4.4,0,0,1-1.6,1.36,4.8,4.8,0,0,1-2,.36,3.55,3.55,0,0,1-2.5-.82,3,3,0,0,1-.9-2.33q0-3.25,5.18-3.4l1.82-.06v-.67a2.72,2.72,0,0,0-.54-1.86,2.24,2.24,0,0,0-1.74-.6,7.12,7.12,0,0,0-3,.82l-.5-1.24a7.78,7.78,0,0,1,1.73-.67,7.65,7.65,0,0,1,1.89-.24,4.07,4.07,0,0,1,2.84.85,3.54,3.54,0,0,1,.92,2.72v7.3Zm-3.66-1.14a3.27,3.27,0,0,0,2.38-.83,3.09,3.09,0,0,0,.86-2.32v-1l-1.62.07a5.9,5.9,0,0,0-2.79.6,1.81,1.81,0,0,0-.85,1.66,1.64,1.64,0,0,0,.53,1.33A2.18,2.18,0,0,0,494.67,653.72Z"/><path class="cls-7" d="M504.49,654.86h-1.62V639.67h1.62Z"/><path class="cls-7" d="M514.51,654.86l-.32-1.52h-.08a4.4,4.4,0,0,1-1.6,1.36,4.8,4.8,0,0,1-2,.36,3.57,3.57,0,0,1-2.5-.82,3,3,0,0,1-.9-2.33q0-3.25,5.18-3.4l1.82-.06v-.67a2.72,2.72,0,0,0-.54-1.86,2.23,2.23,0,0,0-1.73-.6,7.12,7.12,0,0,0-3,.82l-.5-1.24a8,8,0,0,1,1.73-.67A7.65,7.65,0,0,1,512,644a4.07,4.07,0,0,1,2.84.85,3.51,3.51,0,0,1,.92,2.72v7.3Zm-3.66-1.14a3.27,3.27,0,0,0,2.38-.83,3.09,3.09,0,0,0,.86-2.32v-1l-1.62.07a5.9,5.9,0,0,0-2.79.6,1.81,1.81,0,0,0-.85,1.66,1.67,1.67,0,0,0,.53,1.33A2.18,2.18,0,0,0,510.85,653.72Z"/><path class="cls-7" d="M517.35,644.16h1.74l2.35,6.11a22.75,22.75,0,0,1,.95,3h.08c.09-.33.26-.9.53-1.7s1.16-3.28,2.65-7.42h1.74l-4.6,12.19a6.09,6.09,0,0,1-1.59,2.56,3.38,3.38,0,0,1-2.24.76,6.56,6.56,0,0,1-1.47-.17v-1.3a5.54,5.54,0,0,0,1.2.12,2.47,2.47,0,0,0,2.38-1.87l.6-1.53Z"/><path class="cls-7" d="M536,651.94a2.7,2.7,0,0,1-1.12,2.31,5.22,5.22,0,0,1-3.12.81,6.78,6.78,0,0,1-3.32-.67v-1.51a7.92,7.92,0,0,0,1.65.62,6.92,6.92,0,0,0,1.71.22,3.89,3.89,0,0,0,1.95-.4,1.34,1.34,0,0,0,.68-1.24,1.36,1.36,0,0,0-.54-1.07,9.09,9.09,0,0,0-2.11-1,11.18,11.18,0,0,1-2.13-1,3,3,0,0,1-.94-.94,2.5,2.5,0,0,1-.3-1.26,2.41,2.41,0,0,1,1.06-2.07,5,5,0,0,1,2.92-.75,8.53,8.53,0,0,1,3.38.7l-.58,1.32a7.59,7.59,0,0,0-2.92-.67,3.25,3.25,0,0,0-1.73.37,1.12,1.12,0,0,0-.59,1,1.17,1.17,0,0,0,.22.73,2,2,0,0,0,.71.58,15.15,15.15,0,0,0,1.87.79,7,7,0,0,1,2.58,1.4A2.49,2.49,0,0,1,536,651.94Z"/><path class="cls-7" d="M538.54,641.26a1.07,1.07,0,0,1,.27-.81.92.92,0,0,1,.68-.26,1,1,0,0,1,.68.26,1.33,1.33,0,0,1,0,1.63,1,1,0,0,1-.68.27.93.93,0,0,1-.68-.27A1.11,1.11,0,0,1,538.54,641.26Zm1.75,13.6h-1.62v-10.7h1.62Z"/><path class="cls-7" d="M550.31,654.86l-.32-1.52h-.08a4.38,4.38,0,0,1-1.59,1.36,4.85,4.85,0,0,1-2,.36,3.59,3.59,0,0,1-2.5-.82,3,3,0,0,1-.9-2.33q0-3.25,5.19-3.4l1.81-.06v-.67a2.72,2.72,0,0,0-.54-1.86,2.23,2.23,0,0,0-1.73-.6,7.12,7.12,0,0,0-3,.82l-.5-1.24a8,8,0,0,1,1.73-.67,7.65,7.65,0,0,1,1.89-.24,4.05,4.05,0,0,1,2.84.85,3.51,3.51,0,0,1,.92,2.72v7.3Zm-3.66-1.14a3.27,3.27,0,0,0,2.38-.83,3.09,3.09,0,0,0,.86-2.32v-1l-1.62.07a5.9,5.9,0,0,0-2.79.6,1.81,1.81,0,0,0-.85,1.66,1.67,1.67,0,0,0,.53,1.33A2.2,2.2,0,0,0,546.65,653.72Z"/><path class="cls-7" d="M562.18,654.86v-6.92a2.78,2.78,0,0,0-.6-2,2.43,2.43,0,0,0-1.86-.65,3.09,3.09,0,0,0-2.46.91,4.61,4.61,0,0,0-.79,3v5.61h-1.62v-10.7h1.32l.27,1.47h.07a3.35,3.35,0,0,1,1.4-1.23,4.54,4.54,0,0,1,2-.43,4.07,4.07,0,0,1,2.91.93,4,4,0,0,1,1,3v7Z"/><path class="cls-7" d="M576.6,655.06a4.58,4.58,0,0,1-3.6-1.43,5.87,5.87,0,0,1-1.27-4,6.08,6.08,0,0,1,1.29-4.15,4.64,4.64,0,0,1,3.69-1.46,7.32,7.32,0,0,1,1.54.16,4.91,4.91,0,0,1,1.21.39l-.5,1.38a8.09,8.09,0,0,0-1.17-.36,5.43,5.43,0,0,0-1.12-.14q-3.25,0-3.26,4.16a5,5,0,0,0,.79,3,2.78,2.78,0,0,0,2.36,1,7.32,7.32,0,0,0,2.75-.57v1.43A5.89,5.89,0,0,1,576.6,655.06Z"/><path class="cls-7" d="M591.08,649.5a5.94,5.94,0,0,1-1.31,4.09,4.66,4.66,0,0,1-3.65,1.47,4.86,4.86,0,0,1-2.55-.67,4.44,4.44,0,0,1-1.71-1.94,6.64,6.64,0,0,1-.61-3,5.89,5.89,0,0,1,1.31-4.07,4.6,4.6,0,0,1,3.63-1.46,4.51,4.51,0,0,1,3.57,1.49A5.89,5.89,0,0,1,591.08,649.5Zm-8.15,0a5.08,5.08,0,0,0,.82,3.13,3.26,3.26,0,0,0,4.83,0,5,5,0,0,0,.82-3.13,5,5,0,0,0-.82-3.1,2.92,2.92,0,0,0-2.44-1.06,2.84,2.84,0,0,0-2.4,1A5,5,0,0,0,582.93,649.5Z"/><path class="cls-7" d="M600.51,654.86l-.32-1.52h-.08a4.48,4.48,0,0,1-1.6,1.36,4.82,4.82,0,0,1-2,.36,3.54,3.54,0,0,1-2.49-.82,3,3,0,0,1-.91-2.33q0-3.25,5.19-3.4l1.82-.06v-.67a2.67,2.67,0,0,0-.55-1.86,2.21,2.21,0,0,0-1.73-.6,7.19,7.19,0,0,0-3,.82l-.49-1.24A7.75,7.75,0,0,1,598,644a4.07,4.07,0,0,1,2.84.85,3.54,3.54,0,0,1,.92,2.72v7.3Zm-3.66-1.14a3.25,3.25,0,0,0,2.37-.83,3.05,3.05,0,0,0,.87-2.32v-1l-1.62.07a5.9,5.9,0,0,0-2.79.6,1.82,1.82,0,0,0-.86,1.66,1.64,1.64,0,0,0,.54,1.33A2.18,2.18,0,0,0,596.85,653.72Z"/><path class="cls-7" d="M612,651.94a2.69,2.69,0,0,1-1.11,2.31,5.23,5.23,0,0,1-3.13.81,6.83,6.83,0,0,1-3.32-.67v-1.51a8.23,8.23,0,0,0,1.66.62,6.9,6.9,0,0,0,1.7.22,3.9,3.9,0,0,0,2-.4,1.4,1.4,0,0,0,.14-2.31,9,9,0,0,0-2.12-1,11.32,11.32,0,0,1-2.12-1,3,3,0,0,1-.94-.94,2.5,2.5,0,0,1-.3-1.26,2.41,2.41,0,0,1,1.06-2.07,5,5,0,0,1,2.92-.75,8.53,8.53,0,0,1,3.38.7l-.58,1.32a7.63,7.63,0,0,0-2.92-.67,3.26,3.26,0,0,0-1.74.37,1.11,1.11,0,0,0-.58,1,1.17,1.17,0,0,0,.22.73,2,2,0,0,0,.71.58,15.15,15.15,0,0,0,1.87.79,6.87,6.87,0,0,1,2.57,1.4A2.45,2.45,0,0,1,612,651.94Z"/><path class="cls-7" d="M618.05,653.72a5.69,5.69,0,0,0,.83-.06,6.11,6.11,0,0,0,.63-.13v1.24a3.26,3.26,0,0,1-.77.21,6.61,6.61,0,0,1-.93.08q-3.1,0-3.1-3.27v-6.37h-1.54v-.78l1.54-.67.68-2.29h.94v2.48h3.1v1.26h-3.1v6.3a2.13,2.13,0,0,0,.46,1.48A1.57,1.57,0,0,0,618.05,653.72Z"/><path class="cls-7" d="M623.27,654.86h-1.62V639.67h1.62Z"/><path class="cls-7" d="M626.57,641.26a1,1,0,0,1,.28-.81,1,1,0,0,1,1.35,0,1.29,1.29,0,0,1,0,1.63.94.94,0,0,1-.67.27.93.93,0,0,1-.68-.27A1.07,1.07,0,0,1,626.57,641.26Zm1.76,13.6h-1.62v-10.7h1.62Z"/><path class="cls-7" d="M639.09,654.86v-6.92a2.82,2.82,0,0,0-.59-2,2.44,2.44,0,0,0-1.87-.65,3.09,3.09,0,0,0-2.46.91,4.61,4.61,0,0,0-.78,3v5.61h-1.62v-10.7h1.32l.26,1.47h.08a3.33,3.33,0,0,1,1.39-1.23,4.56,4.56,0,0,1,2-.43,4.09,4.09,0,0,1,2.91.93,4,4,0,0,1,1,3v7Z"/><path class="cls-7" d="M648.56,655.06a4.88,4.88,0,0,1-3.74-1.45,5.56,5.56,0,0,1-1.37-4,6.22,6.22,0,0,1,1.27-4.11,4.22,4.22,0,0,1,3.42-1.52,4,4,0,0,1,3.19,1.32,5.08,5.08,0,0,1,1.17,3.49v1h-7.37a4.25,4.25,0,0,0,1,2.86,3.29,3.29,0,0,0,2.54,1,8.61,8.61,0,0,0,3.42-.72v1.45a9.23,9.23,0,0,1-1.62.53A9.07,9.07,0,0,1,648.56,655.06Zm-.44-9.74a2.65,2.65,0,0,0-2,.84,3.89,3.89,0,0,0-.9,2.33h5.59a3.6,3.6,0,0,0-.68-2.35A2.44,2.44,0,0,0,648.12,645.32Z"/><path class="cls-7" d="M655,653.83a1.43,1.43,0,0,1,.3-1,1.06,1.06,0,0,1,.85-.34,1.16,1.16,0,0,1,.89.34,1.38,1.38,0,0,1,.31,1,1.36,1.36,0,0,1-.32,1,1.17,1.17,0,0,1-.88.34,1.12,1.12,0,0,1-.82-.31A1.32,1.32,0,0,1,655,653.83Z"/><polygon class="cls-8" points="763 596 763 563 786 579.5 763 596"/></g></svg>