<svg xmlns="http://www.w3.org/2000/svg" viewBox="0 0 1920 1080"><defs><style>.cls-1{isolation:isolate;}.cls-2{opacity:0.8;mix-blend-mode:multiply;}.cls-3{fill:#609e00;}.cls-4{fill:#a36a2a;}.cls-5{fill:#fff;}.cls-6{fill:#3b3b3b;}</style></defs><title>Malaysia map OL</title><g class="cls-1"><g id="details"><g id="forest-fill" class="cls-2"><path class="cls-3" d="M1131.58,350.22l11.33-7.56,1.89-5.66,6.29,3.77s2.52,6.3,2.52,7.56,5,7.55,5,7.55h3.78l-5,3.78s-5,2.52-5,3.77v3.78c0,1.26-5,5-5,5h-5s-5-3.78-5-5a4.4,4.4,0,0,0-1.26-2.52V354.62Z"/><path class="cls-3" d="M1149.2,377.91l8.81-5,2.52-8.82s5,2.52,5,3.78v7.55s3.77,0,0,3.78a21.62,21.62,0,0,1-7.56,5s-2.51,1.25-3.77,0S1149.2,377.91,1149.2,377.91Z"/><path class="cls-3" d="M1166.83,331.33v6.3a6.06,6.06,0,0,1,5,0,23.62,23.62,0,0,1,5,3.77s-1.26,5,0,7.56-2.52,5,0,6.29,7.55,6.3,7.55,6.3l-3.78,5s5,5,3.78,6.3-1.26,7.55,0,11.33a6.32,6.32,0,0,1-1.26,6.29l-5-3.78a4.48,4.48,0,0,1-2.52,3.78c-2.52,1.26-5,5-6.3,3.78s0-1.26-2.51-1.26-8.82,2.51-10.07,3.77l-2.52,2.52,8.81,11.33a13,13,0,0,1,1.26,5c0,2.51-1.26,3.77-1.26,6.29s6.29,5,6.29,5l6.3,2.51s3.77,5,5,3.78,2.52-1.26,3.78-3.78,0-15.1,0-15.1,5,7.55,6.29,7.55,7.56,7.55,7.56,7.55,2.52,7.56,2.52,10.07,1.25,7.56,0,7.56-8.82,2.52-8.82,2.52h-16.36s1.26-6.3,2.52-7.56-7.56-6.29-7.56-6.29l-1.26,3.77h-5l-1.26,5s-3.78,6.29-5,5-7.55-1.26-8.81-3.78,0-2.52-2.52-2.52a44.57,44.57,0,0,0-7.55,1.26l-3.78,1.26c3.78-1.26,1.26,8.81,2.52,10.07s2.52,1.26,1.26,5,1.26,3.77-1.26,3.77a25.51,25.51,0,0,1-6.29-1.26l-6.3,2.52-3.77,2.52-5-8.81s8.81,0,10.07-2.52,2.52-5,1.26-6.3-6.29-2.51-6.29-2.51l-5-1.26c5,1.26,7.56,0,7.56-7.56s-2.52-8.81,0-10.07-1.26-3.77,2.51-1.25,1.26,5,5,2.51,2.52,1.26,3.77-2.51-2.51-2.52,3.78-6.3,8.81-3.78,7.55-3.78,1.26-1.25-1.25-2.51l-5-2.52h-8.81a18.13,18.13,0,0,1,2.52-3.78c1.25-1.26,5,0,3.77-6.29l-1.26-6.3-5-2.51-2.52-3.78,2.52-3.78v-5l-5-8.81-3.77,1.25s-8.82,7.56-7.56,6.3,6.3-7.55,5-10.07-3.78-3.78-2.52-6.3-2.52-1.26,1.26-6.29,3.78-2.52,3.78-5,1.26-2.51-1.26-3.77,0,1.26-2.52-1.26-3.78,1.26-3.78-2.52,1.26-8.81,0-8.81-1.26-3.78-2.51-2.52,0,0-3.78,2.52-7.55-2.52-7.55-2.52c-5,5-3.78,5-5,7.55s-1.26,2.52-6.29,3.78-6.3,5-8.82,3.78,1.26-2.52-5-1.26-3.78,1.26-8.81,3.78-2.52,2.51-5,2.51,0,1.26-5,0,1.25-1.26-6.3,0-3.77-2.51-7.55,0-1.26,1.26-3.78,2.52-2.52,3.78-2.52,5,0,6.29-1.25,8.81-1.26,5-3.78,3.77-3.78-2.51-3.78-3.77-6.29-3.78-5-1.26-2.52,8.81-2.52,8.81l-3.78-1.26s-2.52,0-2.52-5v-7.56c0-5,2.52-3.77,0-5s-2.51-6.3-3.77-5-11.33,2.52-11.33,2.52a1.75,1.75,0,0,1,0-2.52,17.92,17.92,0,0,1,3.78-2.51l1.25-6.3,1.26-8.81v-5L999.4,325l3.78-2.52-3.78-6.29a18.13,18.13,0,0,1,2.52-3.78c1.26-1.26,0-10.07,0-10.07l7.55-1.26s2.52,2.52,3.78,0a72.85,72.85,0,0,1,5-7.55c-1.26-5-2.52-11.33-2.52-11.33l3.78-6.3s1.26-3.77,0-3.77-5,2.52-6.29,0a9.41,9.41,0,0,0-3.78-3.78s7.55-3.78,8.81-3.78h1.26l-3.78-13.84s-2.51-2.52-5,1.26a15.11,15.11,0,0,1-5,5l-3.77-3.78s-3.78-8.81-6.3-3.77a31.41,31.41,0,0,1-5,7.55,23.51,23.51,0,0,0-5-3.78C983,252,985.55,252,983,252s-3.77-3.78-3.77-3.78L978,242l-1.26-6.29c-1.26-5-1.26-7.55-2.52-8.81s-5-6.3-5-6.3-1.26-3.77-3.78,0-11.33,11.33-11.33,11.33l-6.29-6.29c-1.26-1.26,0-3.78-5-3.78s-13.85,1.26-12.59,2.52,1.26,5,2.52,5-2.52,3.77-2.52,3.77l-2.52,3.78c-2.51,3.78-5,3.78-2.51,7.55s1.26,6.3,3.77,6.3,6.3,1.26,7.56,1.26,10.07,2.51,5,1.25-2.52-8.81-2.52-8.81,2.52-2.52,3.78-1.26,3.78-1.26,3.78,2.52-1.26,7.55,0,8.81,6.29,10.07,6.29,7.56-2.52-11.33-2.52-12.59,0-5,2.52-6.3,0-3.77,2.52-1.26l2.52,2.52,5-3.77s2.52,3.77,2.52,6.29v16.37c0,2.51-1.26,3.77-1.26,5s2.52-2.52-1.26,2.52-10.07,7.55-8.81,8.81,1.26,3.78,1.26,3.78-3.78,5-5,6.29-1.26,3.78-3.77,5-6.3,0-5,2.51,10.07,2.52,10.07,2.52c5-2.52,2.52-1.26,6.3-6.29s3.77-6.3,5-7.56,8.81-2.51,8.81-2.51v5l-6.29,3.78s-3.78,1.26-1.26,3.78,1.26,5,3.78,7.55a9.82,9.82,0,0,0,6.29,2.52l1.26,7.55L969.19,315l-1.26,6.29-6.3,5c3.78,2.52,6.3,3.77,8.82,3.77h16.36s-3.78-7.55-3.78-8.81-3.77-12.59-2.51-12.59,8.81-3.77,8.81-1.25,1.26,13.84,1.26,13.84-1.26,8.81,0,10.07,2.51,5,0,7.56-7.56,5-6.3,5,5,8.81,3.78,10.07-8.81-7.55-8.81-7.55l-8.81,5-3.78,12.58s-3.78,3.78-2.52,5,7.55,3.78,6.3,5-5,0-5,0l5,8.82s6.29-1.26,6.29,1.26,2.52,6.29,0,7.55a23.62,23.62,0,0,0-5,3.77l1.26,6.3a7.77,7.77,0,0,0,2.52,5,21.75,21.75,0,0,1,3.78,5v6.29s-3.78,5-3.78,6.3,1.26,12.59,1.26,12.59,1.26,5-1.26,3.77-6.29-5-6.29-5-5,2.52-3.78,3.77,2.52,0,2.52,6.3-2.52,10.07-1.26,11.33,6.29,2.52,7.55,1.26,8.81-5,8.81-5,6.3-1.26,3.78-2.52a9.35,9.35,0,0,1-3.78-3.77s5-8.81,6.3-12.59,5-7.55,5-8.81,1.26-15.11,1.26-15.11l5-5a51.32,51.32,0,0,1,3.77-5,9.55,9.55,0,0,0,2.52-5c0-1.25-2.52-17.62-2.52-17.62s2.52-6.29,3.78-3.78,6.29,3.78,5,6.3-1.26,25.18-1.26,25.18l-3.78,6.29-5,5-5,7.55,2.52,5-5,3.78,5,5s6.29-1.26,6.29,0,1.26,3.77,2.52,3.77,6.29-3.77,6.29-3.77,3.78,6.29,5,7.55,6.29,3.78,7.55,3.78,2.52,2.51,1.26,3.77l-3.78,3.78-1.25,5s-2.52,6.3-1.26,6.3,1.26,2.52,2.51,2.52-2.51,6.29-2.51,6.29-3.78,10.07-2.52,11.33,5,3.78,3.78,6.29-2.52,3.78-1.26,5a49.7,49.7,0,0,1,3.77,5h6.3l-6.3,6.29,8.82,7.55,1.25,3.78-7.55-3.78-3.78,8.81s2.52,2.52,3.78,2.52h3.78l6.29,10.07h5l-1.26,10.07a50.24,50.24,0,0,0,3.78,5c1.25,1.26,2.51,6.29,2.51,6.29l5-2.51s-1.26,3.77,0,6.29,0,1.26,2.52,5l2.51,3.77a34.47,34.47,0,0,0,5,6.3c1.26,1.26-2.52,5,1.26,0s5-6.3,6.29-6.3,0,3.78,0,3.78l-1.26,5,1.26,6.3v11.33a49.56,49.56,0,0,0,2.52,7.55,40.42,40.42,0,0,0,3.78,6.3c2.51,3.77,2.51,2.51,3.77,6.29s-3.77,7.55,2.52,6.29,6.29,0,8.81,0,5-2.51,3.78,0l-2.52,5a30.74,30.74,0,0,0,1.26,8.81c1.26,8.81,2.52,5,1.26,8.81s-6.3,10.07-6.3,10.07a8.12,8.12,0,0,0-6.29-3.77l-3.78,11.33-2.51,6.29h7.55s3.78-5,5-5a54.57,54.57,0,0,0,6.3-1.26s2.52,0,3.78,1.26,0,2.51,0,5-2.52,7.55,0,7.55,6.29-3.77,6.29,0a97.44,97.44,0,0,0,1.26,11.33v5l5-13.85s5-5,6.3-2.52,3.78,1.26,0,7.56-5,2.52-3.78,6.29,0,10.07,0,10.07l7.56-6.29V709c0,3.78,3.77,11.33,3.77,11.33,2.52,3.78,2.52,5,1.26,7.55s-3.78,3.78-5,5-2.52,5-3.78,2.52a23.51,23.51,0,0,0-3.78-5l-3.77,6.29,7.55,6.3s5-2.52,6.29-3.78,10.07-7.55,10.07-7.55a21.6,21.6,0,0,0,3.78,5c2.52,2.52-1.26,10.07-1.26,10.07s1.26,5,2.52,6.3,5,2.52,5,2.52,6.3,2.51,5,3.77-2.52,2.52,0,5,3.78,0,7.55,6.29l3.78,6.3s10.07-3.78,8.81-5-1.26-10.07-1.26-10.07l3.78-8.81s-5-2.52-6.3-2.52-5,3.78-6.29,3.78h-7.55s0-3.78,2.52-5a9.43,9.43,0,0,0,3.77-3.77s-3.77-3.78-5-2.52,2.51,3.77-1.26,1.26l-3.78-2.52s2.52-6.29,5-5,5,0,6.29,0-1.26,0,5-1.25a56.94,56.94,0,0,1,10.07-1.26l-5-5,5-5-7.56-8.82s-3.77,2.52-5,2.52-7.55-3.78-5-5,1.26,2.51,2.52-1.26,2.52-6.3,0-6.3-2.52-5-3.78-1.26-2.51,5-3.77,7.56,0,2.51-3.78,5-3.78,3.78-7.55,5-6.3,5-6.3,3.77,2.52-10.07,2.52-10.07l1.26-3.77s3.78-7.56,3.78-8.82a12.71,12.71,0,0,1,1.26-3.77l-5-5-3.78-3.77s-2.51-10.07-1.26-5,7.56,3.78,8.82,3.78,7.55,6.29,7.55,6.29l1.26,3.78,7.55-5,1.26-7.55-8.81-8.81s5-3.78,2.52-5l-2.52-1.26-10.07-13.84s0-1.26-2.52-3.78l-6.29-6.29-6.3-6.3s-3.77,3.78-3.77,5-8.82,8.81-10.08,8.81-6.29-2.52-5-2.52,5-3.78,5-3.78l5-5-2.52-12.59v-7.55l-5-6.3-1.26-13.84c-7.56,2.51-6.3,2.51-8.81,2.51s-5-5-5-5,6.29-5,7.55-3.78,6.3,0,6.3,0l1.26-7.55s-2.52-2.52-2.52-3.78-2.52-13.85-2.52-13.85l2.52-5-3.78-20.14s-2.52-2.52-1.26-5,2.52-12.59,3.78-12.59,0-1.26,2.52,0,1.26,0,5,3.78a56.14,56.14,0,0,1,6.3,7.55l3.77-5c5-1.26,8.82-7.56,8.82-7.56s-8.82-11.33-6.3-10.07,10.07,3.78,10.07,3.78l11.33-5s-1.26,8.82,1.26,8.82,7.55-3.78,7.55-3.78v5s-2.51,2.51-2.51,7.55-2.52,7.55-2.52,8.81-3.78,6.29-3.78,6.29l-6.29-2.51s-6.3,2.51-3.78,5,6.3,8.81,6.3,8.81,6.29,5,5,6.3,1.26,5-1.26,3.78-1.26-3.78-3.77-3.78-5,0-6.3,1.26-2.52,3.77-3.78,5-7.55,0-7.55,0v3.78l-6.29,5,8.81,2.51v15.11c0,2.52,8.81,0,8.81,0s3.78,0,3.78,3.78a15.27,15.27,0,0,1-1.26,6.29l-5,10.07s-2.51,5-1.26,7.55l5,10.07,6.29-7.55s8.82,1.26,8.82,0,5-1.26,6.29-2.52,5-2.51,5,0-2.52,5-2.52,5l3.77,5s6.3-2.51,6.3-5v-7.55l3.78-5s1.25-6.29,0-7.55-3.78-6.3-2.52-6.3,6.29,2.52,6.29,2.52l2.52-5s-3.78-15.11-3.78-13.85,1.26-13.85,1.26-13.85c1.26-3.78-3.77-12.59-3.77-12.59l-8.82-1.26-2.51,6.3,6.29,7.55s0,3.78-2.52,5-5,3.77-6.29,2.51-1.26,2.52-3.78-2.51-2.52-3.78-3.77-7.56-2.52-3.77,0-7.55l5-7.55s6.29-3.78,7.55-3.78h3.78c1.26,0,6.29-1.26,7.55-1.26s3.78-1.26,3.78-2.52,2.52-3.77,2.52-3.77l5,1.26s-2.51,7.55-2.51,8.81-5-2.52-1.26,5,3.77,12.59,6.29,12.59,2.52,1.26,3.78,2.52-1.26,6.29,0,7.55,5-2.51,5-2.51l1.26-5,7.55-1.26s11.33,8.81,11.33,10.07v7.55c0,1.26,1.26-1.25,1.26,3.78a97,97,0,0,0,1.26,12.59s1.26-2.52,3.78,2.52,7.55,12.59,7.55,12.59l5,1.25s2.51-3.77,2.51-5,2.52-5,3.78-6.29,0-6.3,0-7.56a9.53,9.53,0,0,0-2.52-5c-1.26-1.26-5-1.26-7.55-5s-2.52-6.29-5-7.55-1.26,1.26-3.78-3.78-5-8.81-3.78-10.07,6.3-6.29,7.56-5l6.29,6.29c2.52,2.52,1.26,6.29,3.78,5s8.81,0,8.81,0-6.3,6.29-5,7.55a34.65,34.65,0,0,1,5,6.29c2.52,3.78,1.26,8.81,5,11.33s7.56-3.77,3.78,2.52-5,10.07-5,13.85-6.29,3.77-6.29,3.77-6.29,5-5,7.56,0,3.77,0,6.29a25.81,25.81,0,0,1-1.25,6.3l-6.3-5s-2.52-1.26-3.77,0-2.52,1.26-2.52,3.78v5c-3.78,2.52-11.33,7.56-10.07,7.56s1.26,3.77,3.77,3.77,6.3-1.26,5,1.26-5,5-5,5a27.35,27.35,0,0,0-1.26,7.55c0,3.78,0,7.55-1.25,7.55s-1.26,1.26-3.78,0-5,0-5-3.77v-3.78h-2.51v12.59a54.7,54.7,0,0,1,1.25,6.29c0,1.26,2.52-5,3.78-3.77s7.55,0,5,5a16,16,0,0,0-1.26,10.07,44.69,44.69,0,0,0,8.81-1.26l-8.81,6.3,1.26,8.81s3.77,2.52,5,1.26,5-3.78,7.56-6.3,1.25,2.52,2.51-2.51,2.52-5,1.26-7.56a49.56,49.56,0,0,1-2.52-7.55c6.3-8.81,5-8.81,7.56-10.07s5-2.52,7.55-1.26,5,0,6.29,1.26,6.3,5,6.3,5l7.55,2.52,10.07-3.77s3.78-1.26,5-2.52,8.81-10.07,8.81-10.07-2.52-8.82-3.78-8.82,1.26-5-3.77-8.81-10.07-3.77-8.81-2.51,0,5-1.26,7.55-7.56,8.81-7.56,8.81l-2.51-7.55s-5,3.77-7.56,2.51a23.08,23.08,0,0,1-5-3.77s7.55-3.78,8.81-5,3.78-3.77,3.78-5-2.52-7.56-2.52-7.56v-5s7.55-5,8.81-6.3,2.52-5,1.26-6.29-5-1.26-6.3-2.52,0-8.81,1.26-8.81,5,1.26,3.78-1.26a12.53,12.53,0,0,1-1.26-5s2.52-5,5-3.78,6.29,1.26,7.55,1.26,3.78,1.26,6.29,0,1.26-3.78,1.26-6.3,1.26-3.77,0-5-6.29-5-6.29-5l-6.3-7.55-5-6.29,7.55-7.56s-1.26,1.26,1.26-3.77-1.26-2.52,3.78-7.56,3.77-2.51,5-5,2.52-12.59,2.52-12.59,12.59-2.52,10.07-3.78-6.29-5-6.29-5c0-3.78,2.51-5,2.51-7.56V516.38l-5-5s-1.26-1.26,1.26-5,3.77-3.77,2.52-6.29-5-5-3.78-7.55-2.52-5,0-6.3,1.26,2.52,2.52-1.26,2.51,0,1.26-3.77-2.52-7.56-2.52-10.07-3.78-2.52-2.52-5-1.26-3.78,1.26-3.78S1294,456,1294,456l-1.26-3.78s5-1.26,5-3.77a44.55,44.55,0,0,0-1.26-7.56h-3.78l-1.26-7.55a16.79,16.79,0,0,0-1.26-6.29c-1.26-2.52-6.29-11.33-6.29-5s0,16.37-1.26,20.14a53,53,0,0,1-2.52,6.3c-3.77,0-7.55,0-7.55-3.78s2.52-5-1.26-5-2.52,2.52-3.78,0-1.25-1.25-2.51-5a27,27,0,0,1-1.26-7.55s-2.52-6.3-3.78-6.3-5-2.52-6.29-5a23.51,23.51,0,0,0-3.78-5l3.78-5s2.51-7.56-2.52-3.78-7.55,3.78-7.55,3.78-1.26-3.78,0-3.78,5-3.78,5-3.78l1.26-5-6.29-1.26,1.25-3.78,1.26-3.77-3.77-2.52-3.78-3.78-3.78-3.78a75.74,75.74,0,0,1,8.82-3.77v-3.78l-2.52-6.29V354L1231,364.06l-3.78,6.3s-1.26-7.56-1.26-8.81,1.26-7.56,1.26-7.56-1.26-6.29-1.26-7.55-1.26-11.33-1.26-10.07-6.29,5-6.29,5-3.78-5-5-5-3.77-2.52-3.77,0-3.78,0-1.26,5,1.26,7.56,1.26,7.56a70.8,70.8,0,0,0-1.26,8.81c0,2.52,0,2.52-2.52,6.29s-5,5-5,7.56,0,8.81-3.78,5-5-2.52-3.78-5,0-1.26,2.52-7.56,5-7.55,3.78-10.07-1.26-2.51-1.26-5v-5c0-2.52,1.26-2.52,0-5s1.26,1.26-1.26-5-1.26-5-3.78-8.81-3.77-7.55-5-6.3-1.26,3.78-2.52,3.78-6.3,0-8.81,1.26-2.52,0-3.78,2.52S1166.83,331.33,1166.83,331.33Z"/><path class="cls-3" d="M1246.13,351.48s1.26-1.26,3.78,2.51,15.11,7.56,15.11,7.56,6.29,0,5,2.51,0,5,0,7.56v10.07c0,1.26-3.77,0-3.77,0s-5-2.52-3.78-5,2.52,0,1.26-2.52,1.26,0-1.26-2.51L1260,369.1s-2.52-8.81-3.78-7.55-5,0-5,0l-5-3.78Z"/><path class="cls-3" d="M1150.46,647.31s2.52,10.07,3.78,11.33,6.29,8.81,7.55,10.07,3.78,8.81,3.78,8.81,2.51-3.78,2.51-5v-5s1.26-5,2.52-5-1.26-2.52,2.52,0a7.09,7.09,0,0,0,7.55,0s5,1.26,5,0-2.52-5,0-7.55,5-5,2.52-6.3-5-5-7.56-5h-2.51c-5,0-6.3,1.26-8.82,2.52s-2.51,2.51-5,1.26-2.52-5-3.78-3.78-1.26,0-5,3.78S1150.46,647.31,1150.46,647.31Z"/><polygon class="cls-3" points="1174.38 683.81 1183.19 690.11 1184.45 695.14 1184.45 701.44 1184.45 708.99 1186.97 716.54 1180.67 711.51 1174.38 707.73 1180.67 703.95 1180.67 700.18 1174.38 698.92 1174.38 683.81"/><path class="cls-3" d="M1005.69,610.8l15.11-2.52,6.29,3.78s8.82,5,10.07,6.29,2.52,0,5,0,7.55-8.81,10.07-5,3.78,5,5,2.51l2.51-5s7.56,1.26,7.56,5,10.07,13.85,10.07,13.85l2.52,7.55-3.78,6.3,1.26,6.29-10.07,6.3s3.77,10.07,2.51,8.81-2.51-5-5-5-6.3,2.52-5,0-2.51,0,2.52-5,8.81-17.63,8.81-17.63,1.26,0-1.26-3.77-10.07-6.3-8.81-2.52,0,8.81,0,10.07-1.26,6.3-2.52,6.3,0-2.52-3.77-2.52-3.78,3.77-7.55,2.52-6.3-1.26-7.56-3.78,0-2.52-2.52-3.78-2.51,1.26-5-2.52-2.52-5-5-6.29-3.77,1.26-5-2.52a19.4,19.4,0,0,0-5-7.55c-1.26-1.26-1.26-2.52-3.77-3.78S1005.69,610.8,1005.69,610.8Z"/><path class="cls-3" d="M1302.78,729.13l10.07-6.29h8.81s-5,1.26-3.77,2.51-6.3,12.59-6.3,12.59,8.82,2.52,7.56,5-1.26,5,0,6.29-2.52,3.78,2.51,5a59,59,0,0,1,11.33,3.77c2.52,1.26,3.78,3.78,5,2.52s-5-1.26,0-1.26,3.78-2.51,7.55,1.26,2.52,8.81,7.56,6.3,3.77-5,3.77-5l11.33,6.3a50.24,50.24,0,0,0,5-3.78c1.26-1.26,0-1.26,0-1.26l10.07,2.52v5s-2.52-1.26-2.52,3.78,1.26,1.26-1.26,7.55,1.26,10.07-2.52,10.07-3.77,3.78-5,0-2.52-15.1-2.52-15.1c-3.78-3.78-5-5-6.29-2.52s-3.78,2.52-1.26,5l2.52,2.52-2.52,3.78v7.55c3.77,2.52,11.33,3.78,12.59,3.78s5-2.52,8.81-2.52,5,2.52,5,2.52l-2.51,6.29-5,6.3,7.55,3.77-2.51,11.33,2.51,10.07c1.26,5,1.26,10.08,2.52,11.33s2.52,5,3.78,6.3a17.29,17.29,0,0,1,3.77,5c1.26,2.52-2.51,3.78,0,6.3s5,3.77,6.3,6.29-1.26,8.81-2.52,6.3-5-6.3-7.55-6.3-6.3,2.52-8.81,2.52,0,1.26-2.52,0-5-12.59-5-12.59-5,6.3-6.29,1.26-2.52-5-2.52-8.81v-3.78c0-3.77-2.52-7.55-2.52-7.55s-5,2.52-5,5,1.26,7.56,0,6.3-3.78-1.26-7.55-1.26-6.3,1.26-7.56-1.26,1.26-1.26-2.52-3.78l-3.77-2.51a15.09,15.09,0,0,1-5-5l3.78-5,6.29,1.25s0-5,1.26-6.29,6.3-11.33,7.56-12.59,1.25-5,2.51-6.29-2.51-6.3-2.51-6.3l3.77-3.77-8.81-11.33s-1.26-3.78-2.52-3.78-10.07,7.55-10.07,7.55-6.29,1.26-8.81,2.52-2.52,5-6.3,5-1.25-5-3.77,0-1.26,11.33-3.78,8.81-1.26-3.78-5-2.52-2.52,1.26-6.3,1.26a44.69,44.69,0,0,0-8.81,1.26l2.52-5v-3.77s-3.78-5-5-5-1.26,1.26-2.52,2.52,0,3.78-3.77,1.26-1.26,2.52-3.78-2.52-5-5-2.52-7.55,8.82-3.78,8.82-3.78V777s-2.52-3.78-3.78-3.78-2.52,1.26-6.29-1.26-2.52-2.52-5-3.77l-5-2.52,5-2.52,8.81,1.26,6.3-5c0-3.77,0-6.29-2.52-6.29s-3.78,2.52-5,0,2.52,0-1.26-2.52-7.55-7.55-7.55-7.55l6.3-1.26,5,1.26-3.78-6.3-5-6.29s1.26-5,2.52-5,0-5,3.77-2.51,5,5,7.56,6.29,3.77,0,5,1.26S1302.78,729.13,1302.78,729.13Z"/><path class="cls-3" d="M1294,637.23h23.92l3.77,2.52,2.52,3.78s5,0,2.52,3.78-5,7.55-5,10.07,6.3,7.55,6.3,7.55c-1.26,5-1.26,8.81,0,10.07s2.52-6.29,0,1.26-5,5-6.3,3.78-2.51-5-3.77-2.52-1.26,8.81,1.26,10.07,2.51,0,5,3.78,2.52,3.77,2.52,6.29-6.29,1.26-5,6.29,0,5,0,7.56,1.26,8.81-2.51,5l-3.78-3.77c-3.78-3.78,1.26,1.25-3.78-3.78a65.78,65.78,0,0,1-7.55-8.81l2.52-6.3s0-6.29-2.52-5l-2.52,1.26c2.52-1.26-2.51-17.63-2.51-17.63s3.77-3.77,3.77-5,0-6.3-2.52-7.56-6.29-1.25-6.29-5V637.23Z"/><path class="cls-3" d="M1001.92,452.18a9.43,9.43,0,0,0,3.77,3.78c2.52,1.26,6.3,1.26,7.56,3.78s0,11.33,0,11.33-3.78,0-5,2.51,0,3.78,0,5a9.49,9.49,0,0,1-2.52,5c-1.26,1.26-1.26,8.82-3.77,12.59s0,2.52-2.52,6.3-1.26,8.81-2.52,3.77,1.26-12.58,0-13.84,0-3.78,0-3.78,2.52-10.07,1.26-8.81-5,3.77-3.78,0,0-5,3.78-6.3,2.52,2.52,3.78-1.26-1.26-5-1.26-5c-1.26-5,0-6.29,0-6.29a12.69,12.69,0,0,1-1.26-3.78C999.4,456,1001.92,452.18,1001.92,452.18Z"/><path class="cls-3" d="M976.74,464.77l-11.33,3.78,1.26,5,5,6.3c-6.29,7.55-3.77,6.29-3.77,8.81s0,5,1.26,6.29,2.51,2.52,5,2.52a25.63,25.63,0,0,0,6.3-1.26c2.51-5,2.51-7.55,2.51-8.81v-6.29l2.52-6.3v-5Z"/><path class="cls-3" d="M930.16,432,939,433.3l7.56,7.55,8.81,7.56,5,5H956.6s-3.78,5-2.52,7.56a31.94,31.94,0,0,1,2.52,6.29,24.55,24.55,0,0,1,1.26,8.81c0,2.52-2.52,1.26-1.26,5s2.52,5,1.26,7.55-1.26,1.26-3.78,5a32.64,32.64,0,0,0-3.78,8.81s0-8.81-1.26-10.07l-3.77-3.78s-1.26-1.26,0-5-1.26-5,1.26-11.33S944,466,945.27,462.25s2.52-6.29,0-8.81-2.52-3.77-3.78-5,0,0-3.78-2.52a35.45,35.45,0,0,0-7.55-3.78Z"/></g><rect class="cls-4" x="942" y="539.55" width="329" height="43.88"/><path class="cls-5" d="M965.86,556.21a3.14,3.14,0,0,0-2.74,1.44,7,7,0,0,0-1,4q0,5.26,4,5.26a8.27,8.27,0,0,0,2.34-.33,24.25,24.25,0,0,0,2.29-.82v4.17a12.55,12.55,0,0,1-5.17,1,8.2,8.2,0,0,1-6.33-2.39q-2.21-2.4-2.2-6.93a11.06,11.06,0,0,1,1.06-5,7.66,7.66,0,0,1,3.07-3.3,9.29,9.29,0,0,1,4.71-1.15,13.12,13.12,0,0,1,5.66,1.28l-1.51,3.88a17.54,17.54,0,0,0-2-.79A7,7,0,0,0,965.86,556.21Z"/><path class="cls-5" d="M985.15,570.67H974.32V552.43h10.83v4h-5.9v2.87h5.47v4h-5.47v3.45h5.9Z"/><path class="cls-5" d="M1005.72,570.67h-6.47l-6.66-12.85h-.11c.16,2,.24,3.57.24,4.63v8.22h-4.37V552.43h6.44l6.64,12.68h.07c-.12-1.84-.17-3.32-.17-4.43v-8.25h4.39Z"/><path class="cls-5" d="M1017.71,570.67h-4.93V556.46h-4.45v-4h13.82v4h-4.44Z"/><path class="cls-5" d="M1029.69,564v6.64h-4.93V552.43h6q7.44,0,7.43,5.39a5.38,5.38,0,0,1-3.09,4.9l5.32,7.95h-5.59l-3.87-6.64Zm0-3.7h.92c1.72,0,2.59-.76,2.59-2.28,0-1.26-.85-1.89-2.54-1.89h-1Z"/><path class="cls-5" d="M1053.25,570.67l-.9-3.42h-5.93l-.92,3.42h-5.42l6-18.32h6.57l6,18.32Zm-1.92-7.46-.79-3c-.18-.67-.41-1.53-.67-2.59s-.43-1.81-.51-2.27q-.12.64-.45,2.1t-1.46,5.75Z"/><path class="cls-5" d="M1060.61,570.67V552.43h4.93v14.26h7v4Z"/><path class="cls-5" d="M1087,570.67h-4.86V552.43h10.78v4H1087v3.48h5.46v4H1087Z"/><path class="cls-5" d="M1113,561.53q0,4.61-2.26,7c-1.5,1.59-3.71,2.39-6.61,2.39s-5.06-.8-6.58-2.41-2.29-3.94-2.29-7,.75-5.35,2.27-7,3.73-2.4,6.62-2.4,5.11.8,6.6,2.39S1113,558.45,1113,561.53Zm-12.55,0c0,3.52,1.22,5.29,3.68,5.29a3.14,3.14,0,0,0,2.77-1.29,7,7,0,0,0,.91-4,7.11,7.11,0,0,0-.92-4,3.12,3.12,0,0,0-2.74-1.3Q1100.42,556.19,1100.42,561.53Z"/><path class="cls-5" d="M1121.19,564v6.64h-4.93V552.43h6q7.44,0,7.44,5.39a5.37,5.37,0,0,1-3.1,4.9l5.32,7.95h-5.59l-3.87-6.64Zm0-3.7h.93q2.58,0,2.58-2.28c0-1.26-.84-1.89-2.53-1.89h-1Z"/><path class="cls-5" d="M1144.39,570.67h-10.83V552.43h10.83v4h-5.9v2.87H1144v4h-5.46v3.45h5.9Z"/><path class="cls-5" d="M1159.51,565.13a5.36,5.36,0,0,1-.86,3,5.61,5.61,0,0,1-2.48,2,9.15,9.15,0,0,1-3.81.73,15.42,15.42,0,0,1-3-.25,11,11,0,0,1-2.57-.9v-4.39a14.09,14.09,0,0,0,2.93,1.13,11,11,0,0,0,2.79.41,2.73,2.73,0,0,0,1.61-.38,1.18,1.18,0,0,0,.51-1,1.08,1.08,0,0,0-.2-.66,2.6,2.6,0,0,0-.66-.57q-.46-.29-2.43-1.17a11.67,11.67,0,0,1-2.68-1.57,4.92,4.92,0,0,1-1.32-1.75,5.7,5.7,0,0,1-.43-2.33,4.66,4.66,0,0,1,1.84-3.93,8.07,8.07,0,0,1,5-1.41,14,14,0,0,1,5.77,1.31l-1.51,3.8a10.91,10.91,0,0,0-4.41-1.17,2.27,2.27,0,0,0-1.4.34,1,1,0,0,0-.44.83,1.24,1.24,0,0,0,.56,1,21.73,21.73,0,0,0,3,1.54,8.48,8.48,0,0,1,3.28,2.28A4.94,4.94,0,0,1,1159.51,565.13Z"/><path class="cls-5" d="M1170.38,570.67h-4.93V556.46H1161v-4h13.82v4h-4.44Z"/><path class="cls-5" d="M1196,565.13a5.44,5.44,0,0,1-.86,3,5.61,5.61,0,0,1-2.48,2,9.18,9.18,0,0,1-3.81.73,15.59,15.59,0,0,1-3.06-.25,11.14,11.14,0,0,1-2.57-.9v-4.39a14.17,14.17,0,0,0,2.94,1.13,10.89,10.89,0,0,0,2.79.41,2.75,2.75,0,0,0,1.61-.38,1.18,1.18,0,0,0,.51-1,1.14,1.14,0,0,0-.2-.66,2.5,2.5,0,0,0-.67-.57c-.3-.19-1.11-.58-2.42-1.17a11.67,11.67,0,0,1-2.68-1.57,4.8,4.8,0,0,1-1.32-1.75,5.7,5.7,0,0,1-.43-2.33,4.68,4.68,0,0,1,1.83-3.93,8.07,8.07,0,0,1,5-1.41,14,14,0,0,1,5.78,1.31l-1.51,3.8a11,11,0,0,0-4.42-1.17,2.24,2.24,0,0,0-1.39.34,1,1,0,0,0-.44.83,1.22,1.22,0,0,0,.55,1,22.1,22.1,0,0,0,3,1.54,8.36,8.36,0,0,1,3.27,2.28A4.88,4.88,0,0,1,1196,565.13Z"/><path class="cls-5" d="M1212.06,558.23a6.14,6.14,0,0,1-1.8,4.73,7.3,7.3,0,0,1-5.13,1.66h-1.38v6h-4.93V552.43h6.31a7.72,7.72,0,0,1,5.2,1.51A5.41,5.41,0,0,1,1212.06,558.23Zm-8.31,2.37h.9a2.41,2.41,0,0,0,1.76-.62,2.26,2.26,0,0,0,.66-1.72c0-1.23-.68-1.85-2-1.85h-1.27Z"/><path class="cls-5" d="M1215,570.67V552.43h5v18.24Z"/><path class="cls-5" d="M1241.23,570.67h-6.46l-6.66-12.85H1228c.15,2,.23,3.57.23,4.63v8.22h-4.36V552.43h6.43l6.64,12.68h.08c-.12-1.84-.18-3.32-.18-4.43v-8.25h4.39Z"/><path class="cls-5" d="M1256,570.67h-10.83V552.43H1256v4h-5.9v2.87h5.46v4h-5.46v3.45h5.9Z"/><g id="forest-text"><rect class="cls-6" x="426" y="514.24" width="470" height="106.76"/><path class="cls-5" d="M473,548.75a4,4,0,0,1-1.48,3.33,6.71,6.71,0,0,1-4.24,1.17h-1.68v5.61H464V544.59h3.7C471.23,544.59,473,546,473,548.75Zm-7.4,3.07h1.5a5.51,5.51,0,0,0,3.19-.71,2.62,2.62,0,0,0,1-2.28,2.45,2.45,0,0,0-.93-2.11,4.79,4.79,0,0,0-2.89-.7h-1.86Z"/><path class="cls-5" d="M482.34,558.86l-.32-1.52h-.08a4.32,4.32,0,0,1-1.6,1.36,4.8,4.8,0,0,1-2,.36,3.57,3.57,0,0,1-2.5-.82,3,3,0,0,1-.9-2.33q0-3.25,5.18-3.4l1.82-.06v-.67a2.72,2.72,0,0,0-.54-1.86,2.23,2.23,0,0,0-1.73-.6,7.12,7.12,0,0,0-3,.82l-.5-1.24a8,8,0,0,1,1.73-.67,7.65,7.65,0,0,1,1.89-.24,4.07,4.07,0,0,1,2.84.85,3.51,3.51,0,0,1,.92,2.72v7.3Zm-3.66-1.14a3.27,3.27,0,0,0,2.38-.83,3.09,3.09,0,0,0,.86-2.32v-1l-1.62.07a5.9,5.9,0,0,0-2.79.6,1.81,1.81,0,0,0-.85,1.66,1.67,1.67,0,0,0,.53,1.33A2.18,2.18,0,0,0,478.68,557.72Z"/><path class="cls-5" d="M494.21,558.86v-6.92a2.78,2.78,0,0,0-.6-2,2.43,2.43,0,0,0-1.86-.65,3.09,3.09,0,0,0-2.46.91,4.55,4.55,0,0,0-.79,3v5.61h-1.62v-10.7h1.32l.26,1.47h.08a3.35,3.35,0,0,1,1.4-1.23,4.54,4.54,0,0,1,2-.43,4.07,4.07,0,0,1,2.91.93,4,4,0,0,1,1,3v7Z"/><path class="cls-5" d="M507.92,548.16v1l-2,.23a3.52,3.52,0,0,1,.48.89,3.31,3.31,0,0,1,.22,1.25,3.16,3.16,0,0,1-1.08,2.51,4.32,4.32,0,0,1-2.94.94,5.11,5.11,0,0,1-.9-.08,1.59,1.59,0,0,0-1,1.38.7.7,0,0,0,.36.65,2.65,2.65,0,0,0,1.24.21h1.9a4.22,4.22,0,0,1,2.67.73,2.55,2.55,0,0,1,.93,2.13,3,3,0,0,1-1.42,2.71,7.65,7.65,0,0,1-4.16.93,5.7,5.7,0,0,1-3.24-.78,2.53,2.53,0,0,1-1.14-2.21,2.48,2.48,0,0,1,.63-1.69,3.19,3.19,0,0,1,1.75-1,1.71,1.71,0,0,1-.69-.57,1.55,1.55,0,0,1-.27-.91,1.69,1.69,0,0,1,.31-1,3.18,3.18,0,0,1,1-.85,2.9,2.9,0,0,1-1.36-1.17,3.37,3.37,0,0,1-.52-1.87,3.47,3.47,0,0,1,1-2.71,4.3,4.3,0,0,1,3-.95,5.5,5.5,0,0,1,1.52.19Zm-8.54,12.5a1.46,1.46,0,0,0,.74,1.32,4,4,0,0,0,2.09.45,5.85,5.85,0,0,0,3-.61,1.88,1.88,0,0,0,1-1.66,1.29,1.29,0,0,0-.54-1.2,4.1,4.1,0,0,0-2-.34h-1.94a2.56,2.56,0,0,0-1.72.53A1.87,1.87,0,0,0,499.38,560.66Zm.88-9.07a2.17,2.17,0,0,0,.64,1.7,2.54,2.54,0,0,0,1.76.57c1.59,0,2.38-.76,2.38-2.3a2.13,2.13,0,0,0-2.41-2.41,2.36,2.36,0,0,0-1.75.61A2.48,2.48,0,0,0,500.26,551.59Z"/><path class="cls-5" d="M519.35,553.5a5.94,5.94,0,0,1-1.31,4.09,4.66,4.66,0,0,1-3.65,1.47,4.86,4.86,0,0,1-2.55-.67,4.52,4.52,0,0,1-1.72-1.94,6.78,6.78,0,0,1-.6-3,5.89,5.89,0,0,1,1.31-4.07,4.6,4.6,0,0,1,3.63-1.46,4.51,4.51,0,0,1,3.57,1.49A5.89,5.89,0,0,1,519.35,553.5Zm-8.15,0a5.08,5.08,0,0,0,.82,3.13,3.26,3.26,0,0,0,4.83,0,5,5,0,0,0,.82-3.13,5,5,0,0,0-.82-3.1,2.92,2.92,0,0,0-2.44-1.06,2.84,2.84,0,0,0-2.4,1A5,5,0,0,0,511.2,553.5Z"/><path class="cls-5" d="M523.82,558.86H522.2V543.67h1.62Z"/><path class="cls-5" d="M527.12,545.26a1.07,1.07,0,0,1,.27-.81.92.92,0,0,1,.68-.26,1,1,0,0,1,.68.26,1.33,1.33,0,0,1,0,1.63,1,1,0,0,1-.68.27.93.93,0,0,1-.68-.27A1.11,1.11,0,0,1,527.12,545.26Zm1.76,13.6h-1.63v-10.7h1.63Z"/><path class="cls-5" d="M539.64,558.86v-6.92a2.78,2.78,0,0,0-.6-2,2.43,2.43,0,0,0-1.86-.65,3.13,3.13,0,0,0-2.47.91,4.61,4.61,0,0,0-.78,3v5.61h-1.62v-10.7h1.32l.26,1.47H534a3.3,3.3,0,0,1,1.4-1.23,4.54,4.54,0,0,1,2-.43,4.07,4.07,0,0,1,2.91.93,4,4,0,0,1,1,3v7Z"/><path class="cls-5" d="M551.49,555.94a2.69,2.69,0,0,1-1.11,2.31,5.25,5.25,0,0,1-3.13.81,6.8,6.8,0,0,1-3.32-.67v-1.51a8.23,8.23,0,0,0,1.66.62,6.9,6.9,0,0,0,1.7.22,3.9,3.9,0,0,0,2-.4,1.4,1.4,0,0,0,.14-2.31,9,9,0,0,0-2.12-1,11.32,11.32,0,0,1-2.12-1,3,3,0,0,1-.94-.94,2.5,2.5,0,0,1-.31-1.26,2.42,2.42,0,0,1,1.07-2.07,5,5,0,0,1,2.92-.75,8.53,8.53,0,0,1,3.38.7l-.58,1.32a7.63,7.63,0,0,0-2.92-.67,3.26,3.26,0,0,0-1.74.37,1.11,1.11,0,0,0-.58,1,1.17,1.17,0,0,0,.22.73,2,2,0,0,0,.71.58,15.15,15.15,0,0,0,1.87.79,6.87,6.87,0,0,1,2.57,1.4A2.45,2.45,0,0,1,551.49,555.94Z"/><path class="cls-5" d="M565.91,558.86l-.33-1.52h-.07a4.48,4.48,0,0,1-1.6,1.36,4.82,4.82,0,0,1-2,.36,3.54,3.54,0,0,1-2.49-.82,3,3,0,0,1-.91-2.33q0-3.25,5.19-3.4l1.82-.06v-.67a2.72,2.72,0,0,0-.55-1.86,2.23,2.23,0,0,0-1.73-.6,7.19,7.19,0,0,0-3,.82l-.5-1.24a7.86,7.86,0,0,1,1.74-.67,7.65,7.65,0,0,1,1.89-.24,4,4,0,0,1,2.83.85,3.51,3.51,0,0,1,.93,2.72v7.3Zm-3.67-1.14a3.26,3.26,0,0,0,2.38-.83,3.05,3.05,0,0,0,.87-2.32v-1l-1.62.07a5.9,5.9,0,0,0-2.79.6,1.82,1.82,0,0,0-.86,1.66,1.67,1.67,0,0,0,.53,1.33A2.21,2.21,0,0,0,562.24,557.72Z"/><path class="cls-5" d="M575.33,548a7,7,0,0,1,1.28.11l-.23,1.51a5.35,5.35,0,0,0-1.17-.15A2.85,2.85,0,0,0,573,550.5a3.84,3.84,0,0,0-.92,2.62v5.74h-1.62v-10.7h1.34l.18,2h.08a4.8,4.8,0,0,1,1.43-1.61A3.3,3.3,0,0,1,575.33,548Z"/><path class="cls-5" d="M583.13,559.06a4.88,4.88,0,0,1-3.74-1.45,5.56,5.56,0,0,1-1.37-4,6.22,6.22,0,0,1,1.27-4.11,4.22,4.22,0,0,1,3.42-1.52,4.05,4.05,0,0,1,3.19,1.32,5.08,5.08,0,0,1,1.17,3.49v1H579.7a4.2,4.2,0,0,0,.95,2.86,3.29,3.29,0,0,0,2.54,1,8.68,8.68,0,0,0,3.42-.72v1.45a9.32,9.32,0,0,1-1.63.53A8.9,8.9,0,0,1,583.13,559.06Zm-.44-9.74a2.63,2.63,0,0,0-2.05.84,4,4,0,0,0-.91,2.33h5.6a3.6,3.6,0,0,0-.68-2.35A2.44,2.44,0,0,0,582.69,549.32Z"/><path class="cls-5" d="M601.61,558.86l-.32-1.52h-.08a4.48,4.48,0,0,1-1.6,1.36,4.82,4.82,0,0,1-2,.36,3.54,3.54,0,0,1-2.49-.82,3,3,0,0,1-.9-2.33q0-3.25,5.18-3.4l1.82-.06v-.67a2.72,2.72,0,0,0-.54-1.86,2.24,2.24,0,0,0-1.74-.6,7.12,7.12,0,0,0-3,.82l-.5-1.24a7.78,7.78,0,0,1,1.73-.67,7.65,7.65,0,0,1,1.89-.24,4.07,4.07,0,0,1,2.84.85,3.54,3.54,0,0,1,.92,2.72v7.3ZM598,557.72a3.27,3.27,0,0,0,2.38-.83,3.09,3.09,0,0,0,.86-2.32v-1l-1.62.07a5.9,5.9,0,0,0-2.79.6,1.81,1.81,0,0,0-.85,1.66,1.64,1.64,0,0,0,.53,1.33A2.18,2.18,0,0,0,598,557.72Z"/><path class="cls-5" d="M607.77,558.86h-1.62V543.67h1.62Z"/><path class="cls-5" d="M618.11,555.94a2.69,2.69,0,0,1-1.11,2.31,5.22,5.22,0,0,1-3.12.81,6.84,6.84,0,0,1-3.33-.67v-1.51a8.23,8.23,0,0,0,1.66.62,6.9,6.9,0,0,0,1.7.22,3.9,3.9,0,0,0,2-.4A1.4,1.4,0,0,0,616,555a9,9,0,0,0-2.12-1,11.32,11.32,0,0,1-2.12-1,3,3,0,0,1-.94-.94,2.5,2.5,0,0,1-.3-1.26,2.41,2.41,0,0,1,1.06-2.07,5,5,0,0,1,2.92-.75,8.53,8.53,0,0,1,3.38.7l-.58,1.32a7.63,7.63,0,0,0-2.92-.67,3.26,3.26,0,0,0-1.74.37,1.11,1.11,0,0,0-.58,1,1.17,1.17,0,0,0,.22.73,2,2,0,0,0,.71.58,15.15,15.15,0,0,0,1.87.79,6.87,6.87,0,0,1,2.57,1.4A2.45,2.45,0,0,1,618.11,555.94Z"/><path class="cls-5" d="M630,553.5a5.9,5.9,0,0,1-1.32,4.09,4.64,4.64,0,0,1-3.64,1.47,4.81,4.81,0,0,1-2.55-.67,4.46,4.46,0,0,1-1.72-1.94,6.78,6.78,0,0,1-.61-3,5.89,5.89,0,0,1,1.31-4.07A4.62,4.62,0,0,1,625.1,548a4.54,4.54,0,0,1,3.57,1.49A5.89,5.89,0,0,1,630,553.5Zm-8.16,0a5.15,5.15,0,0,0,.82,3.13,2.87,2.87,0,0,0,2.42,1.07,2.84,2.84,0,0,0,2.41-1.07,5,5,0,0,0,.83-3.13,5,5,0,0,0-.83-3.1,2.91,2.91,0,0,0-2.43-1.06,2.86,2.86,0,0,0-2.41,1A5,5,0,0,0,621.83,553.5Z"/><path class="cls-5" d="M644.93,555.94a2.69,2.69,0,0,1-1.11,2.31,5.27,5.27,0,0,1-3.13.81,6.8,6.8,0,0,1-3.32-.67v-1.51a8.23,8.23,0,0,0,1.66.62,6.84,6.84,0,0,0,1.7.22,3.83,3.83,0,0,0,1.95-.4,1.4,1.4,0,0,0,.15-2.31,9.22,9.22,0,0,0-2.12-1,11,11,0,0,1-2.12-1,2.9,2.9,0,0,1-.94-.94,2.59,2.59,0,0,1,.76-3.33,5,5,0,0,1,2.92-.75,8.57,8.57,0,0,1,3.38.7l-.58,1.32a7.67,7.67,0,0,0-2.92-.67,3.26,3.26,0,0,0-1.74.37,1.12,1.12,0,0,0-.59,1,1.24,1.24,0,0,0,.22.73,2.15,2.15,0,0,0,.71.58,15.5,15.5,0,0,0,1.88.79,7,7,0,0,1,2.57,1.4A2.45,2.45,0,0,1,644.93,555.94Z"/><path class="cls-5" d="M656.8,553.5a5.9,5.9,0,0,1-1.31,4.09,4.66,4.66,0,0,1-3.65,1.47,4.86,4.86,0,0,1-2.55-.67,4.44,4.44,0,0,1-1.71-1.94,6.64,6.64,0,0,1-.61-3,5.89,5.89,0,0,1,1.31-4.07,4.6,4.6,0,0,1,3.63-1.46,4.51,4.51,0,0,1,3.57,1.49A5.89,5.89,0,0,1,656.8,553.5Zm-8.15,0a5.08,5.08,0,0,0,.82,3.13,3.26,3.26,0,0,0,4.83,0,5,5,0,0,0,.82-3.13,5,5,0,0,0-.82-3.1,2.92,2.92,0,0,0-2.44-1.06,2.84,2.84,0,0,0-2.4,1A5,5,0,0,0,648.65,553.5Z"/><path class="cls-5" d="M661.17,548.16v6.94a2.79,2.79,0,0,0,.6,2,2.4,2.4,0,0,0,1.86.64,3,3,0,0,0,2.46-.92,4.66,4.66,0,0,0,.77-3v-5.63h1.62v10.7h-1.33l-.24-1.43h-.09a3.19,3.19,0,0,1-1.38,1.21,4.63,4.63,0,0,1-2,.42,4.09,4.09,0,0,1-2.93-.93,4,4,0,0,1-1-3v-7Z"/><path class="cls-5" d="M676.8,548a6.94,6.94,0,0,1,1.28.11l-.22,1.51a5.35,5.35,0,0,0-1.17-.15,2.82,2.82,0,0,0-2.22,1.06,3.8,3.8,0,0,0-.93,2.62v5.74h-1.62v-10.7h1.34l.19,2h.07a4.82,4.82,0,0,1,1.44-1.61A3.27,3.27,0,0,1,676.8,548Z"/><path class="cls-5" d="M684.36,559.06a4.58,4.58,0,0,1-3.6-1.43,5.92,5.92,0,0,1-1.27-4,6.08,6.08,0,0,1,1.29-4.15,4.67,4.67,0,0,1,3.69-1.46,7.26,7.26,0,0,1,1.54.16,4.91,4.91,0,0,1,1.21.39l-.49,1.38a8.65,8.65,0,0,0-1.18-.36,5.43,5.43,0,0,0-1.12-.14q-3.25,0-3.26,4.16a5,5,0,0,0,.8,3,2.76,2.76,0,0,0,2.35,1,7.28,7.28,0,0,0,2.75-.57v1.43A5.89,5.89,0,0,1,684.36,559.06Z"/><path class="cls-5" d="M694.13,559.06a4.92,4.92,0,0,1-3.75-1.45,5.6,5.6,0,0,1-1.37-4,6.22,6.22,0,0,1,1.28-4.11,4.22,4.22,0,0,1,3.42-1.52,4,4,0,0,1,3.18,1.32,5.08,5.08,0,0,1,1.17,3.49v1h-7.37a4.25,4.25,0,0,0,.95,2.86,3.31,3.31,0,0,0,2.55,1,8.68,8.68,0,0,0,3.42-.72v1.45a9.6,9.6,0,0,1-1.63.53A9,9,0,0,1,694.13,559.06Zm-.44-9.74a2.65,2.65,0,0,0-2.06.84,3.89,3.89,0,0,0-.9,2.33h5.6a3.54,3.54,0,0,0-.69-2.35A2.4,2.4,0,0,0,693.69,549.32Z"/><path class="cls-5" d="M708.11,557.43H708a3.81,3.81,0,0,1-3.36,1.63,4,4,0,0,1-3.27-1.44,6.28,6.28,0,0,1-1.17-4.08,6.44,6.44,0,0,1,1.17-4.11,4,4,0,0,1,3.27-1.46,3.89,3.89,0,0,1,3.34,1.58h.12l-.07-.77,0-.76v-4.35h1.62v15.19h-1.32Zm-3.24.27a3,3,0,0,0,2.41-.9,4.55,4.55,0,0,0,.75-2.92v-.34a5.37,5.37,0,0,0-.76-3.24,2.88,2.88,0,0,0-2.42-1,2.47,2.47,0,0,0-2.18,1.11,5.46,5.46,0,0,0-.76,3.13,5.31,5.31,0,0,0,.75,3.1A2.58,2.58,0,0,0,704.87,557.7Z"/><path class="cls-5" d="M723.1,549.42h-2.72v9.44h-1.62v-9.44h-1.92v-.73l1.92-.59v-.59q0-3.94,3.45-4a7.4,7.4,0,0,1,2,.34l-.42,1.3a5.44,5.44,0,0,0-1.6-.3,1.54,1.54,0,0,0-1.36.61,3.44,3.44,0,0,0-.44,2v.69h2.72Z"/><path class="cls-5" d="M729.94,548a7,7,0,0,1,1.28.11l-.23,1.51a5.35,5.35,0,0,0-1.17-.15,2.85,2.85,0,0,0-2.22,1.06,3.84,3.84,0,0,0-.92,2.62v5.74h-1.62v-10.7h1.33l.19,2h.08a4.8,4.8,0,0,1,1.43-1.61A3.3,3.3,0,0,1,729.94,548Z"/><path class="cls-5" d="M742.46,553.5a5.9,5.9,0,0,1-1.32,4.09,4.64,4.64,0,0,1-3.64,1.47,4.81,4.81,0,0,1-2.55-.67,4.46,4.46,0,0,1-1.72-1.94,6.78,6.78,0,0,1-.61-3,5.89,5.89,0,0,1,1.31-4.07,4.63,4.63,0,0,1,3.64-1.46,4.54,4.54,0,0,1,3.57,1.49A5.89,5.89,0,0,1,742.46,553.5Zm-8.16,0a5.15,5.15,0,0,0,.82,3.13,2.88,2.88,0,0,0,2.42,1.07,2.84,2.84,0,0,0,2.41-1.07,5,5,0,0,0,.83-3.13,5,5,0,0,0-.83-3.1,2.91,2.91,0,0,0-2.43-1.06,2.84,2.84,0,0,0-2.4,1A5,5,0,0,0,734.3,553.5Z"/><path class="cls-5" d="M758.94,558.86v-7a2.93,2.93,0,0,0-.54-1.92,2.14,2.14,0,0,0-1.7-.64,2.75,2.75,0,0,0-2.24.87,4.15,4.15,0,0,0-.72,2.68v6h-1.62v-7a2.93,2.93,0,0,0-.55-1.92,2.14,2.14,0,0,0-1.71-.64,2.65,2.65,0,0,0-2.23.92,4.94,4.94,0,0,0-.71,3v5.61H745.3v-10.7h1.32l.26,1.47H747a3.23,3.23,0,0,1,1.29-1.22,3.88,3.88,0,0,1,1.87-.44c1.68,0,2.77.6,3.29,1.81h.07a3.5,3.5,0,0,1,1.39-1.33,4.39,4.39,0,0,1,2.07-.48,3.63,3.63,0,0,1,2.72.93,4.18,4.18,0,0,1,.9,3v7Z"/><path class="cls-5" d="M775.66,558.86l-4.84-12.65h-.08c.09,1,.14,2.19.14,3.57v9.08h-1.54V544.59h2.5l4.53,11.77h.07L781,544.59h2.48v14.27h-1.66v-9.19c0-1.06,0-2.21.14-3.44h-.08L777,558.86Z"/><path class="cls-5" d="M793.74,558.86l-.32-1.52h-.08a4.48,4.48,0,0,1-1.6,1.36,4.82,4.82,0,0,1-2,.36,3.54,3.54,0,0,1-2.49-.82,3,3,0,0,1-.9-2.33c0-2.17,1.72-3.3,5.18-3.4l1.82-.06v-.67a2.72,2.72,0,0,0-.54-1.86,2.25,2.25,0,0,0-1.74-.6,7.19,7.19,0,0,0-3,.82l-.49-1.24a7.75,7.75,0,0,1,3.62-.91,4.07,4.07,0,0,1,2.84.85,3.54,3.54,0,0,1,.92,2.72v7.3Zm-3.66-1.14a3.25,3.25,0,0,0,2.37-.83,3.05,3.05,0,0,0,.87-2.32v-1l-1.62.07a5.9,5.9,0,0,0-2.79.6,1.82,1.82,0,0,0-.86,1.66,1.64,1.64,0,0,0,.54,1.33A2.18,2.18,0,0,0,790.08,557.72Z"/><path class="cls-5" d="M799.9,558.86h-1.62V543.67h1.62Z"/><path class="cls-5" d="M809.92,558.86l-.32-1.52h-.08a4.4,4.4,0,0,1-1.6,1.36,4.8,4.8,0,0,1-2,.36,3.55,3.55,0,0,1-2.5-.82,3,3,0,0,1-.9-2.33q0-3.25,5.18-3.4l1.82-.06v-.67a2.72,2.72,0,0,0-.54-1.86,2.24,2.24,0,0,0-1.74-.6,7.12,7.12,0,0,0-3,.82l-.5-1.24a7.78,7.78,0,0,1,1.73-.67,7.65,7.65,0,0,1,1.89-.24,4.07,4.07,0,0,1,2.84.85,3.54,3.54,0,0,1,.92,2.72v7.3Zm-3.66-1.14a3.27,3.27,0,0,0,2.38-.83,3.09,3.09,0,0,0,.86-2.32v-1l-1.62.07a5.9,5.9,0,0,0-2.79.6,1.81,1.81,0,0,0-.85,1.66,1.64,1.64,0,0,0,.53,1.33A2.18,2.18,0,0,0,806.26,557.72Z"/><path class="cls-5" d="M812.76,548.16h1.74l2.34,6.11a21.71,21.71,0,0,1,1,3h.08c.08-.33.26-.9.53-1.7s1.16-3.28,2.65-7.42h1.74l-4.6,12.19a6,6,0,0,1-1.6,2.56,3.34,3.34,0,0,1-2.24.76,6.54,6.54,0,0,1-1.46-.17v-1.3a5.54,5.54,0,0,0,1.2.12,2.47,2.47,0,0,0,2.38-1.87l.6-1.53Z"/><path class="cls-5" d="M831.44,555.94a2.69,2.69,0,0,1-1.11,2.31,5.22,5.22,0,0,1-3.12.81,6.84,6.84,0,0,1-3.33-.67v-1.51a8.23,8.23,0,0,0,1.66.62,6.9,6.9,0,0,0,1.7.22,3.9,3.9,0,0,0,2-.4,1.4,1.4,0,0,0,.14-2.31,9,9,0,0,0-2.12-1,11.32,11.32,0,0,1-2.12-1,3,3,0,0,1-.94-.94,2.5,2.5,0,0,1-.3-1.26,2.41,2.41,0,0,1,1.06-2.07,5,5,0,0,1,2.92-.75,8.53,8.53,0,0,1,3.38.7l-.58,1.32a7.63,7.63,0,0,0-2.92-.67,3.29,3.29,0,0,0-1.74.37,1.11,1.11,0,0,0-.58,1,1.17,1.17,0,0,0,.22.73,2,2,0,0,0,.71.58,15.15,15.15,0,0,0,1.87.79,6.87,6.87,0,0,1,2.57,1.4A2.45,2.45,0,0,1,831.44,555.94Z"/><path class="cls-5" d="M833.94,545.26a1,1,0,0,1,.28-.81,1,1,0,0,1,1.35,0,1.29,1.29,0,0,1,0,1.63,1,1,0,0,1-1.35,0A1.07,1.07,0,0,1,833.94,545.26Zm1.76,13.6h-1.62v-10.7h1.62Z"/><path class="cls-5" d="M845.72,558.86l-.32-1.52h-.08a4.4,4.4,0,0,1-1.6,1.36,4.8,4.8,0,0,1-2,.36,3.55,3.55,0,0,1-2.5-.82,3,3,0,0,1-.9-2.33q0-3.25,5.18-3.4l1.82-.06v-.67a2.72,2.72,0,0,0-.54-1.86,2.24,2.24,0,0,0-1.74-.6,7.12,7.12,0,0,0-3,.82l-.5-1.24a7.78,7.78,0,0,1,1.73-.67,7.65,7.65,0,0,1,1.89-.24,4.07,4.07,0,0,1,2.84.85,3.54,3.54,0,0,1,.92,2.72v7.3Zm-3.66-1.14a3.27,3.27,0,0,0,2.38-.83,3.09,3.09,0,0,0,.86-2.32v-1l-1.62.07a5.9,5.9,0,0,0-2.79.6,1.81,1.81,0,0,0-.85,1.66,1.64,1.64,0,0,0,.53,1.33A2.18,2.18,0,0,0,842.06,557.72Z"/><path class="cls-5" d="M857.59,558.86v-6.92a2.78,2.78,0,0,0-.6-2,2.44,2.44,0,0,0-1.87-.65,3.09,3.09,0,0,0-2.46.91,4.61,4.61,0,0,0-.78,3v5.61h-1.62v-10.7h1.32l.26,1.47h.08a3.3,3.3,0,0,1,1.4-1.23,4.51,4.51,0,0,1,2-.43,4.07,4.07,0,0,1,2.91.93,4,4,0,0,1,1,3v7Z"/><path class="cls-5" d="M462.42,593.67a3.92,3.92,0,0,1-1.5-.24v-1.32a4.73,4.73,0,0,0,1.32.19,1.42,1.42,0,0,0,1.12-.41,1.91,1.91,0,0,0,.36-1.27V578.16h1.62v12.35C465.34,592.61,464.37,593.67,462.42,593.67Zm1.16-18.41a1,1,0,0,1,.28-.81,1,1,0,0,1,1.35,0,1.29,1.29,0,0,1,0,1.63.94.94,0,0,1-.67.27.93.93,0,0,1-.68-.27A1.07,1.07,0,0,1,463.58,575.26Z"/><path class="cls-5" d="M470.3,578.16v6.94a2.79,2.79,0,0,0,.6,2,2.41,2.41,0,0,0,1.86.64,3,3,0,0,0,2.46-.92,4.6,4.6,0,0,0,.77-3v-5.63h1.63v10.7h-1.34l-.24-1.43H476a3.28,3.28,0,0,1-1.39,1.21,4.63,4.63,0,0,1-2,.42,4.09,4.09,0,0,1-2.93-.93,4,4,0,0,1-1-3v-7Z"/><path class="cls-5" d="M488.38,588.86v-6.92a2.78,2.78,0,0,0-.6-2,2.43,2.43,0,0,0-1.86-.65,3.09,3.09,0,0,0-2.46.91,4.55,4.55,0,0,0-.79,3v5.61h-1.62v-10.7h1.32l.26,1.47h.08a3.3,3.3,0,0,1,1.4-1.23,4.54,4.54,0,0,1,2-.43,4.07,4.07,0,0,1,2.91.93,4,4,0,0,1,1,3v7Z"/><path class="cls-5" d="M502.09,578.16v1l-2,.23a3.52,3.52,0,0,1,.48.89,3.31,3.31,0,0,1,.22,1.25,3.16,3.16,0,0,1-1.08,2.51,4.32,4.32,0,0,1-2.94.94,5.11,5.11,0,0,1-.9-.08,1.59,1.59,0,0,0-1,1.38.7.7,0,0,0,.36.65,2.65,2.65,0,0,0,1.24.21h1.9a4.22,4.22,0,0,1,2.67.73A2.55,2.55,0,0,1,502,590a3,3,0,0,1-1.42,2.71,7.65,7.65,0,0,1-4.16.93,5.7,5.7,0,0,1-3.24-.78,2.53,2.53,0,0,1-1.14-2.21,2.48,2.48,0,0,1,.63-1.69,3.19,3.19,0,0,1,1.75-1,1.71,1.71,0,0,1-.69-.57,1.55,1.55,0,0,1-.27-.91,1.69,1.69,0,0,1,.31-1,3.18,3.18,0,0,1,1-.85,2.9,2.9,0,0,1-1.36-1.17,3.37,3.37,0,0,1-.52-1.87,3.47,3.47,0,0,1,1.05-2.71,4.3,4.3,0,0,1,3-.95,5.5,5.5,0,0,1,1.52.19Zm-8.54,12.5a1.46,1.46,0,0,0,.74,1.32,4,4,0,0,0,2.09.45,5.85,5.85,0,0,0,3-.61,1.88,1.88,0,0,0,1-1.66,1.29,1.29,0,0,0-.54-1.2,4.1,4.1,0,0,0-2-.34h-1.94a2.56,2.56,0,0,0-1.72.53A1.87,1.87,0,0,0,493.55,590.66Zm.88-9.07a2.17,2.17,0,0,0,.64,1.7,2.54,2.54,0,0,0,1.76.57c1.59,0,2.38-.76,2.38-2.3a2.13,2.13,0,0,0-2.41-2.41,2.36,2.36,0,0,0-1.75.61A2.48,2.48,0,0,0,494.43,581.59Z"/><path class="cls-5" d="M505.91,588.86h-1.62V573.67h1.62Z"/><path class="cls-5" d="M513.87,589.06a4.9,4.9,0,0,1-3.75-1.45,5.6,5.6,0,0,1-1.37-4,6.22,6.22,0,0,1,1.27-4.11,4.22,4.22,0,0,1,3.43-1.52,4,4,0,0,1,3.18,1.32,5.08,5.08,0,0,1,1.17,3.49v1h-7.37a4.25,4.25,0,0,0,.95,2.86,3.29,3.29,0,0,0,2.54,1,8.61,8.61,0,0,0,3.42-.72v1.45a9.23,9.23,0,0,1-1.62.53A9,9,0,0,1,513.87,589.06Zm-.44-9.74a2.65,2.65,0,0,0-2.06.84,3.89,3.89,0,0,0-.9,2.33h5.59a3.6,3.6,0,0,0-.68-2.35A2.43,2.43,0,0,0,513.43,579.32Z"/><path class="cls-5" d="M527.47,585.94a2.69,2.69,0,0,1-1.11,2.31,5.27,5.27,0,0,1-3.13.81,6.78,6.78,0,0,1-3.32-.67v-1.51a8,8,0,0,0,1.66.62,6.78,6.78,0,0,0,1.7.22,3.83,3.83,0,0,0,2-.4,1.39,1.39,0,0,0,.14-2.31,8.88,8.88,0,0,0-2.11-1,11,11,0,0,1-2.12-1,2.9,2.9,0,0,1-.94-.94,2.59,2.59,0,0,1,.76-3.33,5,5,0,0,1,2.92-.75,8.48,8.48,0,0,1,3.37.7l-.57,1.32a7.67,7.67,0,0,0-2.92-.67,3.26,3.26,0,0,0-1.74.37,1.12,1.12,0,0,0-.59,1,1.24,1.24,0,0,0,.22.73,2.15,2.15,0,0,0,.71.58,15.5,15.5,0,0,0,1.88.79,7,7,0,0,1,2.57,1.4A2.45,2.45,0,0,1,527.47,585.94Z"/><path class="cls-5" d="M544.54,583.5a5.9,5.9,0,0,1-1.32,4.09,4.64,4.64,0,0,1-3.64,1.47,4.81,4.81,0,0,1-2.55-.67,4.46,4.46,0,0,1-1.72-1.94,6.78,6.78,0,0,1-.6-3,5.89,5.89,0,0,1,1.3-4.07,4.63,4.63,0,0,1,3.64-1.46,4.54,4.54,0,0,1,3.57,1.49A5.89,5.89,0,0,1,544.54,583.5Zm-8.16,0a5.08,5.08,0,0,0,.83,3.13,3.25,3.25,0,0,0,4.82,0,5,5,0,0,0,.83-3.13,5,5,0,0,0-.83-3.1,2.91,2.91,0,0,0-2.43-1.06,2.84,2.84,0,0,0-2.4,1A5,5,0,0,0,536.38,583.5Z"/><path class="cls-5" d="M552.26,578a6.94,6.94,0,0,1,1.28.11l-.22,1.51a5.35,5.35,0,0,0-1.17-.15,2.85,2.85,0,0,0-2.23,1.06,3.84,3.84,0,0,0-.92,2.62v5.74h-1.62v-10.7h1.34l.18,2H549a4.82,4.82,0,0,1,1.44-1.61A3.27,3.27,0,0,1,552.26,578Z"/><path class="cls-5" d="M565.72,589.06a4.59,4.59,0,0,1-1.91-.39,3.58,3.58,0,0,1-1.45-1.18h-.12a14,14,0,0,1,.12,1.78v4.4h-1.62V578.16h1.32l.22,1.47h.08a3.72,3.72,0,0,1,1.46-1.27,4.39,4.39,0,0,1,1.9-.39,4,4,0,0,1,3.29,1.45,7.79,7.79,0,0,1,0,8.18A4,4,0,0,1,565.72,589.06Zm-.23-9.72a2.9,2.9,0,0,0-2.38.91,4.65,4.65,0,0,0-.75,2.89v.36a5.37,5.37,0,0,0,.75,3.23,2.86,2.86,0,0,0,2.42,1,2.51,2.51,0,0,0,2.17-1.12,5.36,5.36,0,0,0,.78-3.1,5.18,5.18,0,0,0-.78-3.07A2.6,2.6,0,0,0,565.49,579.34Z"/><path class="cls-5" d="M574.62,588.86H573V573.67h1.62Z"/><path class="cls-5" d="M584.64,588.86l-.33-1.52h-.07a4.48,4.48,0,0,1-1.6,1.36,4.82,4.82,0,0,1-2,.36,3.54,3.54,0,0,1-2.49-.82,3,3,0,0,1-.91-2.33q0-3.25,5.19-3.4l1.82-.06v-.67a2.67,2.67,0,0,0-.55-1.86,2.23,2.23,0,0,0-1.73-.6,7.19,7.19,0,0,0-3,.82l-.49-1.24a7.75,7.75,0,0,1,3.62-.91,4.09,4.09,0,0,1,2.84.85,3.54,3.54,0,0,1,.92,2.72v7.3ZM581,587.72a3.26,3.26,0,0,0,2.38-.83,3.05,3.05,0,0,0,.87-2.32v-1l-1.62.07a5.9,5.9,0,0,0-2.79.6,1.82,1.82,0,0,0-.86,1.66,1.64,1.64,0,0,0,.54,1.33A2.17,2.17,0,0,0,581,587.72Z"/><path class="cls-5" d="M596.5,588.86v-6.92a2.82,2.82,0,0,0-.59-2,2.44,2.44,0,0,0-1.87-.65,3.09,3.09,0,0,0-2.46.91,4.61,4.61,0,0,0-.78,3v5.61h-1.62v-10.7h1.32l.26,1.47h.08a3.33,3.33,0,0,1,1.39-1.23,4.56,4.56,0,0,1,2-.43,4.07,4.07,0,0,1,2.91.93,4,4,0,0,1,1,3v7Z"/><path class="cls-5" d="M604.91,587.72a5.59,5.59,0,0,0,.83-.06,6.4,6.4,0,0,0,.64-.13v1.24a3.51,3.51,0,0,1-.78.21,6.48,6.48,0,0,1-.92.08q-3.1,0-3.11-3.27v-6.37H600v-.78l1.53-.67.68-2.29h.94v2.48h3.11v1.26h-3.11v6.3a2.13,2.13,0,0,0,.46,1.48A1.59,1.59,0,0,0,604.91,587.72Z"/><path class="cls-5" d="M615.1,588.86l-.33-1.52h-.07a4.48,4.48,0,0,1-1.6,1.36,4.82,4.82,0,0,1-2,.36,3.54,3.54,0,0,1-2.49-.82,3,3,0,0,1-.91-2.33q0-3.25,5.19-3.4l1.81-.06v-.67a2.72,2.72,0,0,0-.54-1.86,2.23,2.23,0,0,0-1.73-.6,7.19,7.19,0,0,0-3,.82l-.5-1.24a7.86,7.86,0,0,1,1.74-.67,7.65,7.65,0,0,1,1.89-.24,4,4,0,0,1,2.83.85,3.51,3.51,0,0,1,.93,2.72v7.3Zm-3.67-1.14a3.26,3.26,0,0,0,2.38-.83,3.05,3.05,0,0,0,.87-2.32v-1l-1.63.07a5.88,5.88,0,0,0-2.78.6,1.82,1.82,0,0,0-.86,1.66,1.67,1.67,0,0,0,.53,1.33A2.21,2.21,0,0,0,611.43,587.72Z"/><path class="cls-5" d="M623.09,587.72a5.49,5.49,0,0,0,.83-.06,6.4,6.4,0,0,0,.64-.13v1.24a3.51,3.51,0,0,1-.78.21,6.48,6.48,0,0,1-.92.08q-3.11,0-3.11-3.27v-6.37h-1.53v-.78l1.53-.67.69-2.29h.94v2.48h3.1v1.26h-3.1v6.3a2.18,2.18,0,0,0,.45,1.48A1.59,1.59,0,0,0,623.09,587.72Z"/><path class="cls-5" d="M626.56,575.26a1.07,1.07,0,0,1,.27-.81.94.94,0,0,1,.69-.26.93.93,0,0,1,.67.26,1.33,1.33,0,0,1,0,1.63.94.94,0,0,1-.67.27,1,1,0,0,1-.69-.27A1.11,1.11,0,0,1,626.56,575.26Zm1.76,13.6H626.7v-10.7h1.62Z"/><path class="cls-5" d="M641,583.5a5.94,5.94,0,0,1-1.31,4.09,4.66,4.66,0,0,1-3.65,1.47,4.86,4.86,0,0,1-2.55-.67,4.44,4.44,0,0,1-1.71-1.94,6.64,6.64,0,0,1-.61-3,5.89,5.89,0,0,1,1.31-4.07A4.6,4.6,0,0,1,636.1,578a4.51,4.51,0,0,1,3.57,1.49A5.89,5.89,0,0,1,641,583.5Zm-8.15,0a5.08,5.08,0,0,0,.82,3.13,3.26,3.26,0,0,0,4.83,0,5,5,0,0,0,.82-3.13,5,5,0,0,0-.82-3.1,2.92,2.92,0,0,0-2.44-1.06,2.84,2.84,0,0,0-2.4,1A5,5,0,0,0,632.84,583.5Z"/><path class="cls-5" d="M651.16,588.86v-6.92a2.78,2.78,0,0,0-.6-2,2.4,2.4,0,0,0-1.86-.65,3.09,3.09,0,0,0-2.46.91,4.61,4.61,0,0,0-.78,3v5.61h-1.62v-10.7h1.31l.27,1.47h.08a3.27,3.27,0,0,1,1.39-1.23,4.54,4.54,0,0,1,2-.43,4.07,4.07,0,0,1,2.91.93,3.93,3.93,0,0,1,1,3v7Z"/><path class="cls-5" d="M667.89,588.86l-.32-1.52h-.08a4.48,4.48,0,0,1-1.6,1.36,4.82,4.82,0,0,1-2,.36,3.54,3.54,0,0,1-2.49-.82,3,3,0,0,1-.9-2.33c0-2.17,1.72-3.3,5.18-3.4l1.82-.06v-.67a2.72,2.72,0,0,0-.54-1.86,2.25,2.25,0,0,0-1.74-.6,7.12,7.12,0,0,0-3,.82l-.5-1.24a7.75,7.75,0,0,1,3.62-.91,4.07,4.07,0,0,1,2.84.85,3.54,3.54,0,0,1,.92,2.72v7.3Zm-3.66-1.14a3.23,3.23,0,0,0,2.37-.83,3.05,3.05,0,0,0,.87-2.32v-1l-1.62.07a5.9,5.9,0,0,0-2.79.6,1.81,1.81,0,0,0-.85,1.66,1.64,1.64,0,0,0,.53,1.33A2.18,2.18,0,0,0,664.23,587.72Z"/><path class="cls-5" d="M677.31,578a7,7,0,0,1,1.28.11l-.22,1.51a5.5,5.5,0,0,0-1.17-.15A2.85,2.85,0,0,0,675,580.5a3.84,3.84,0,0,0-.92,2.62v5.74h-1.62v-10.7h1.34l.18,2H674a4.82,4.82,0,0,1,1.44-1.61A3.27,3.27,0,0,1,677.31,578Z"/><path class="cls-5" d="M685.12,589.06a4.9,4.9,0,0,1-3.75-1.45,5.6,5.6,0,0,1-1.37-4,6.22,6.22,0,0,1,1.27-4.11A4.22,4.22,0,0,1,684.7,578a4,4,0,0,1,3.18,1.32,5.08,5.08,0,0,1,1.17,3.49v1h-7.37a4.25,4.25,0,0,0,1,2.86,3.29,3.29,0,0,0,2.54,1,8.61,8.61,0,0,0,3.42-.72v1.45a9.23,9.23,0,0,1-1.62.53A9,9,0,0,1,685.12,589.06Zm-.44-9.74a2.65,2.65,0,0,0-2.06.84,3.89,3.89,0,0,0-.9,2.33h5.59a3.6,3.6,0,0,0-.68-2.35A2.43,2.43,0,0,0,684.68,579.32Z"/><path class="cls-5" d="M698.4,588.86l-.33-1.52H698a4.48,4.48,0,0,1-1.6,1.36,4.82,4.82,0,0,1-2,.36,3.54,3.54,0,0,1-2.49-.82,3,3,0,0,1-.91-2.33q0-3.25,5.19-3.4l1.82-.06v-.67a2.72,2.72,0,0,0-.55-1.86,2.23,2.23,0,0,0-1.73-.6,7.19,7.19,0,0,0-3,.82l-.5-1.24a7.86,7.86,0,0,1,1.74-.67,7.65,7.65,0,0,1,1.89-.24,4,4,0,0,1,2.83.85,3.51,3.51,0,0,1,.93,2.72v7.3Zm-3.67-1.14a3.26,3.26,0,0,0,2.38-.83,3.05,3.05,0,0,0,.87-2.32v-1l-1.62.07a5.9,5.9,0,0,0-2.79.6,1.82,1.82,0,0,0-.86,1.66,1.64,1.64,0,0,0,.54,1.33A2.17,2.17,0,0,0,694.73,587.72Z"/><path class="cls-5" d="M709.84,585.94a2.69,2.69,0,0,1-1.11,2.31,5.25,5.25,0,0,1-3.13.81,6.8,6.8,0,0,1-3.32-.67v-1.51a8.23,8.23,0,0,0,1.66.62,6.9,6.9,0,0,0,1.7.22,3.9,3.9,0,0,0,2-.4,1.4,1.4,0,0,0,.14-2.31,9,9,0,0,0-2.12-1,11.32,11.32,0,0,1-2.12-1,3,3,0,0,1-.94-.94,2.5,2.5,0,0,1-.31-1.26,2.42,2.42,0,0,1,1.07-2.07,5,5,0,0,1,2.92-.75,8.53,8.53,0,0,1,3.38.7L709,580a7.63,7.63,0,0,0-2.92-.67,3.26,3.26,0,0,0-1.74.37,1.11,1.11,0,0,0-.58,1,1.17,1.17,0,0,0,.22.73,2,2,0,0,0,.7.58,15.5,15.5,0,0,0,1.88.79,6.87,6.87,0,0,1,2.57,1.4A2.45,2.45,0,0,1,709.84,585.94Z"/><path class="cls-5" d="M712.24,587.83a1.43,1.43,0,0,1,.3-1,1.08,1.08,0,0,1,.86-.34,1.14,1.14,0,0,1,.88.34,1.39,1.39,0,0,1,.32,1,1.41,1.41,0,0,1-.32,1,1.19,1.19,0,0,1-.88.34,1.14,1.14,0,0,1-.83-.31A1.32,1.32,0,0,1,712.24,587.83Z"/><polygon class="cls-6" points="890 584 890 551 913 567.5 890 584"/></g></g></g></svg>