<svg xmlns="http://www.w3.org/2000/svg" width="68.502" height="74.933" viewBox="0 0 68.502 74.933">
    <defs>
        <style>
            .cls-1{fill:#636565}
        </style>
    </defs>
    <g id="Pangolin-logo-footer" transform="translate(326.545 -290.831)">
        <g id="Group_384" data-name="Group 384" transform="translate(-326.545 313.8)">
            <g id="Group_383" data-name="Group 383">
                <path id="Path_486" d="M-322.449 381.9h-2.741a.3.3 0 0 0-.347.346v.739h-1.008v-1.164c0-.676.22-.9.9-.9h7.5c.677 0 .9.221.9.9v1.164h-1.024v-.739c0-.252-.11-.346-.346-.346h-2.725v10.083h-1.1z" class="cls-1" data-name="Path 486" transform="translate(326.545 -380.928)"/>
                <path id="Path_487" d="M-286.916 382.2a.315.315 0 0 0-.347-.346h-.662v-.928h1.118c.678 0 .961.283.961.928v3.351c0 .362-.032.645-.032.645h.032a3.387 3.387 0 0 1 3.135-1.966c1.969 0 2.663 1.117 2.663 3.067v3.76a.308.308 0 0 0 .347.346h.662v.928h-1.118c-.678 0-.961-.283-.961-.96v-3.791c0-1.243-.189-2.344-1.733-2.344a3 3 0 0 0-2.867 2.249 3.72 3.72 0 0 0-.126 1.054v3.791h-1.071z" class="cls-1" data-name="Path 487" transform="translate(297.77 -380.928)"/>
                <path id="Path_488" d="M-245.4 392.53c2.19 0 3.324 1.683 3.324 3.649 0 .189-.031.535-.031.535h-6.081a3 3 0 0 0 3.072 3.146 3.533 3.533 0 0 0 2.379-.975l.52.8a4.5 4.5 0 0 1-2.946 1.133 4.012 4.012 0 0 1-4.143-4.137 3.874 3.874 0 0 1 3.906-4.151zm2.221 3.335a2.248 2.248 0 0 0-2.237-2.438 2.72 2.72 0 0 0-2.725 2.438z" class="cls-1" data-name="Path 488" transform="translate(268.995 -389.572)"/>
            </g>
        </g>
        <g id="Group_386" data-name="Group 386" transform="translate(-326.12 332.679)">
            <g id="Group_385" data-name="Group 385">
                <path id="Path_489" d="M-323.852 455.96h-1.024v-.975h4.679a3.21 3.21 0 0 1 3.419 3.335 3.239 3.239 0 0 1-3.422 3.38h-2.552v4.342h-1.1zm3.513 4.766a2.245 2.245 0 0 0 2.426-2.407 2.212 2.212 0 0 0-2.411-2.36h-2.426v4.766z" class="cls-1" data-name="Path 489" transform="translate(324.876 -454.985)"/>
                <path id="Path_490" d="M-284.8 469.811h.441v-.094c0-1.652-.6-2.234-2.048-2.234-.394 0-1.544.11-1.544.692v.5h-1.024v-.755c0-1.1 1.891-1.337 2.584-1.337 2.5 0 3.1 1.337 3.1 3.036v3.791a.308.308 0 0 0 .346.346h.662v.928h-1.087c-.677 0-.945-.3-.945-.944 0-.346.016-.582.016-.582h-.031a2.8 2.8 0 0 1-2.631 1.714 2.453 2.453 0 0 1-2.694-2.344c.001-2.623 3.483-2.717 4.855-2.717zm-1.985 4.153c1.512 0 2.426-1.573 2.426-2.942v-.362h-.457c-1.245 0-3.734.032-3.734 1.809a1.574 1.574 0 0 0 1.763 1.495z" class="cls-1" data-name="Path 490" transform="translate(298.633 -463.629)"/>
                <path id="Path_491" d="M-257.008 468.049a.315.315 0 0 0-.347-.346h-.662v-.928h1.1c.662 0 .961.283.961.881v.362a5.072 5.072 0 0 1-.032.566h.032a3.366 3.366 0 0 1 3.151-2c1.969 0 2.662 1.117 2.662 3.068v3.76a.308.308 0 0 0 .347.346h.662v.928h-1.118c-.677 0-.961-.283-.961-.96v-3.791c0-1.243-.189-2.344-1.717-2.344a3.011 3.011 0 0 0-2.883 2.234 3.9 3.9 0 0 0-.126 1.07v3.791h-1.071z" class="cls-1" data-name="Path 491" transform="translate(275.061 -463.629)"/>
                <path id="Path_492" d="M-215.838 466.586c2.127 0 2.631 1.353 2.631 1.353h.031v-.3c0-.566.252-.865.9-.865h1.1v.928h-.646a.308.308 0 0 0-.347.346v6.45c0 2.517-1.859 3.492-3.812 3.492a5.8 5.8 0 0 1-2.584-.629l.41-.9a4.87 4.87 0 0 0 2.143.551c1.544 0 2.773-.724 2.773-2.486v-.692c0-.3.016-.566.016-.566h-.032a2.6 2.6 0 0 1-2.489 1.369c-2.127 0-3.529-1.683-3.529-4.059s1.308-3.992 3.435-3.992zm2.615 4c0-2.312-1.1-3.02-2.5-3.02-1.544 0-2.442 1.117-2.442 3s1.024 3.115 2.584 3.115c1.256 0 2.358-.771 2.358-3.1z" class="cls-1" data-name="Path 492" transform="translate(246.193 -463.629)"/>
                <path id="Path_493" d="M-179.443 466.586a4.1 4.1 0 0 1 4.191 4.106 4.133 4.133 0 0 1-4.175 4.184 4.136 4.136 0 0 1-4.191-4.184 4.1 4.1 0 0 1 4.175-4.106zm.016 7.331a3.121 3.121 0 0 0 3.072-3.225 3.068 3.068 0 0 0-3.072-3.131 3.071 3.071 0 0 0-3.088 3.131 3.124 3.124 0 0 0 3.088 3.225z" class="cls-1" data-name="Path 493" transform="translate(219.629 -463.629)"/>
                <path id="Path_494" d="M-145.967 456.259a.315.315 0 0 0-.347-.346h-.662v-.928h1.119c.677 0 .961.283.961.96v8.825a.308.308 0 0 0 .347.346h.662v.928h-1.118c-.678 0-.961-.283-.961-.96z" class="cls-1" data-name="Path 494" transform="translate(192.328 -454.985)"/>
                <path id="Path_495" d="M-130.457 459.405a.315.315 0 0 0-.347-.346h-.662v-.928h1.118c.678 0 .961.283.961.96v5.679a.308.308 0 0 0 .346.346h.662v.928h-1.121c-.677 0-.961-.283-.961-.96zm-.032-4.42h1.04v1.353h-1.04z" class="cls-1" data-name="Path 495" transform="translate(180.771 -454.985)"/>
                <path id="Path_496" d="M-115.257 468.049a.315.315 0 0 0-.346-.346h-.662v-.928h1.1c.662 0 .961.283.961.881v.362a5.07 5.07 0 0 1-.032.566h.032a3.366 3.366 0 0 1 3.151-2c1.969 0 2.662 1.117 2.662 3.068v3.76a.308.308 0 0 0 .347.346h.662v.928h-1.118c-.678 0-.961-.283-.961-.96v-3.791c0-1.243-.189-2.344-1.717-2.344a3.011 3.011 0 0 0-2.883 2.234 3.9 3.9 0 0 0-.126 1.07v3.791h-1.071z" class="cls-1" data-name="Path 496" transform="translate(169.446 -463.629)"/>
            </g>
        </g>
        <g id="Group_388" data-name="Group 388" transform="translate(-326.12 351.558)">
            <g id="Group_387" data-name="Group 387">
                <path id="Path_497" d="M-323.852 530.017h-1.024v-.975h4.695a3 3 0 0 1 3.181 3.146 2.846 2.846 0 0 1-2.143 2.957v.032a1.083 1.083 0 0 1 .378.44l1.591 3.146c.158.33.394.362.788.362h.221v.975h-.488c-.9 0-1.166-.11-1.528-.834l-1.591-3.162a.975.975 0 0 0-1.119-.661h-1.859v4.657h-1.1zm3.56 4.452a2.04 2.04 0 0 0 2.143-2.249 2.006 2.006 0 0 0-2.127-2.2h-2.473v4.452z" class="cls-1" data-name="Path 497" transform="translate(324.876 -529.042)"/>
                <path id="Path_498" d="M-284.141 540.643c2.19 0 3.324 1.683 3.324 3.649 0 .189-.032.535-.032.535h-6.081a3 3 0 0 0 3.072 3.146 3.533 3.533 0 0 0 2.379-.975l.52.8a4.5 4.5 0 0 1-2.946 1.132 4.011 4.011 0 0 1-4.143-4.137 3.873 3.873 0 0 1 3.907-4.15zm2.221 3.335a2.248 2.248 0 0 0-2.237-2.438 2.721 2.721 0 0 0-2.725 2.438z" class="cls-1" data-name="Path 498" transform="translate(297.436 -537.686)"/>
                <path id="Path_499" d="M-254.66 542.106a.315.315 0 0 0-.347-.346h-.662v-.928h1.087c.677 0 .945.283.945.834 0 .315-.016.535-.016.535h.031a2.841 2.841 0 0 1 2.725-1.557c2.127 0 3.45 1.7 3.45 4.153 0 2.5-1.5 4.137-3.544 4.137a2.808 2.808 0 0 1-2.6-1.494h-.032a6.9 6.9 0 0 1 .032.692v3.76h-1.071zm3.56 5.883c1.4 0 2.552-1.18 2.552-3.193 0-1.935-1.024-3.178-2.5-3.178-1.324 0-2.568.944-2.568 3.193-.004 1.589.862 3.178 2.516 3.178z" class="cls-1" data-name="Path 499" transform="translate(273.311 -537.686)"/>
                <path id="Path_500" d="M-214.6 540.643a4.1 4.1 0 0 1 4.191 4.106 4.133 4.133 0 0 1-4.175 4.184 4.136 4.136 0 0 1-4.191-4.184 4.1 4.1 0 0 1 4.175-4.106zm.016 7.33a3.121 3.121 0 0 0 3.072-3.225 3.068 3.068 0 0 0-3.072-3.13 3.071 3.071 0 0 0-3.088 3.13 3.124 3.124 0 0 0 3.085 3.225z" class="cls-1" data-name="Path 500" transform="translate(245.825 -537.686)"/>
                <path id="Path_501" d="M-181.5 542.427a.315.315 0 0 0-.347-.346h-.662v-.928h1.1c.662 0 .961.267.961.9v.535a5.729 5.729 0 0 1-.031.6h.031a2.7 2.7 0 0 1 2.5-2.108 2.139 2.139 0 0 1 .425.047v1.054a2.725 2.725 0 0 0-.394-.031 2.538 2.538 0 0 0-2.3 2.045 5.211 5.211 0 0 0-.221 1.542v3.335h-1.062z" class="cls-1" data-name="Path 501" transform="translate(218.8 -538.007)"/>
                <path id="Path_502" d="M-159.282 535.889h-1.04v-.9h1.055v-2.187h1.056v2.187h1.985v.9h-1.985v4.027c0 1.856 1.182 2.092 1.78 2.092a1.819 1.819 0 0 0 .362-.032v.96a3.083 3.083 0 0 1-.457.031c-.914 0-2.757-.3-2.757-2.942z" class="cls-1" data-name="Path 502" transform="translate(202.272 -531.846)"/>
                <path id="Path_503" d="M-139.317 546.809a3.228 3.228 0 0 0 2.442 1.2c.882 0 1.67-.425 1.67-1.259 0-1.73-4.443-1.416-4.443-3.964 0-1.431 1.229-2.139 2.82-2.139.8 0 2.41.314 2.41 1.431v.676h-1.008v-.378c0-.582-.851-.8-1.371-.8-1.1 0-1.765.378-1.765 1.148 0 1.778 4.443 1.369 4.443 4 0 1.322-1.2 2.218-2.773 2.218a3.8 3.8 0 0 1-3.041-1.384z" class="cls-1" data-name="Path 503" transform="translate(187.079 -537.686)"/>
            </g>
        </g>
        <g id="Group_442" data-name="Group 442" transform="translate(-291.92 290.831)">
            <g id="Group_441" data-name="Group 441">
                <g id="Group_390" data-name="Group 390" transform="translate(28.901 16.602)">
                    <g id="Group_389" data-name="Group 389">
                        <path id="Path_504" d="M-76.8 360.034l-.551-.2a7.1 7.1 0 0 1 2.976-3.826.437.437 0 0 1 .534.092 5.589 5.589 0 0 1 1.3 2.3l-.567.145a4.932 4.932 0 0 0-1.087-1.967 6.651 6.651 0 0 0-2.605 3.456z" class="cls-1" data-name="Path 504" transform="translate(77.351 -355.955)"/>
                    </g>
                </g>
                <g id="Group_392" data-name="Group 392" transform="translate(29.46 20.575)">
                    <g id="Group_391" data-name="Group 391">
                        <path id="Path_505" d="M-74.744 378.792l-.416-.412c1.737-1.752 1.956-5.509 1.842-6.26a4.9 4.9 0 0 0-1.271.391l-.238-.535c.228-.1 1.39-.6 1.846-.383a.48.48 0 0 1 .232.39c.166.949-.129 4.927-1.995 6.809z" class="cls-1" data-name="Path 505" transform="translate(75.16 -371.54)"/>
                    </g>
                </g>
                <g id="Group_394" data-name="Group 394" transform="translate(18.348 20.534)">
                    <g id="Group_393" data-name="Group 393">
                        <path id="Path_506" d="M-115.086 378.505l-.128-.572a6.006 6.006 0 0 0 4.153-3.723c-.482-.572-2.812-2.951-7.579-2.038l-.11-.575c5.672-1.086 8.154 2.244 8.257 2.387l.085.117-.042.139a6.53 6.53 0 0 1-4.636 4.265z" class="cls-1" data-name="Path 506" transform="translate(118.75 -371.38)"/>
                    </g>
                </g>
                <g id="Group_396" data-name="Group 396" transform="translate(10.533 23.351)">
                    <g id="Group_395" data-name="Group 395">
                        <path id="Path_507" d="M-147.154 392.019a7.424 7.424 0 0 1-2.006-.281l.158-.564a7.1 7.1 0 0 0 5.794-.94c-.149-.631-1.108-3.639-6.2-7.33l.344-.474c5.429 3.938 6.491 7.322 6.463 7.948l-.148.261-.1.062a8.11 8.11 0 0 1-4.305 1.318zm4.108-1.884h-.007z" class="cls-1" data-name="Path 507" transform="translate(149.405 -382.43)"/>
                    </g>
                </g>
                <g id="Group_398" data-name="Group 398" transform="translate(2.904 15.441)">
                    <g id="Group_397" data-name="Group 397">
                        <path id="Path_508" d="M-176.364 364.283a.479.479 0 0 1-.249-.069 22.005 22.005 0 0 1-2.719-1.9l.39-.437a21.089 21.089 0 0 0 2.579 1.8c.55-.492 3.021-5.7.9-12.093l.556-.185c2.192 6.594-.409 12.308-1.162 12.792a.537.537 0 0 1-.295.092z" class="cls-1" data-name="Path 508" transform="translate(179.331 -351.403)"/>
                    </g>
                </g>
                <g id="Group_400" data-name="Group 400" transform="translate(.242 9.436)">
                    <g id="Group_399" data-name="Group 399">
                        <path id="Path_509" d="M-188.708 336.45a.5.5 0 0 1-.46-.308c-.086-.213-.816-3.017-.547-3.962l.563.16a11.53 11.53 0 0 0 .506 3.521 12.564 12.564 0 0 0 4.637-1.674 7.138 7.138 0 0 0 3.857-6.339h.586c.021 6.773-7.929 8.568-9.129 8.6z" class="cls-1" data-name="Path 509" transform="translate(189.774 -327.845)"/>
                    </g>
                </g>
                <g id="Group_402" data-name="Group 402" transform="translate(8.837 9.482)">
                    <g id="Group_401" data-name="Group 401">
                        <path id="Path_510" d="M-154.94 334.595a1 1 0 0 1-.417-.073c-.52-.244-.753-1.805-.691-2.817l.585.036a4.414 4.414 0 0 0 .37 2.257 4.693 4.693 0 0 0 2.219-.591 9.008 9.008 0 0 0 4.847-5.378l.561.17a9.586 9.586 0 0 1-5.31 5.801 6.186 6.186 0 0 1-2.164.595z" class="cls-1" data-name="Path 510" transform="translate(156.057 -328.027)"/>
                    </g>
                </g>
                <g id="Group_404" data-name="Group 404" transform="translate(18.563 4.624)">
                    <g id="Group_403" data-name="Group 403">
                        <path id="Path_511" d="M-117.495 313.485l-.408-.42a14.87 14.87 0 0 1 5.426-3.655c1.8-.769 5.085-.537 5.844.746l-.5.3c-.546-.921-3.459-1.209-5.111-.505a14.381 14.381 0 0 0-5.251 3.534z" class="cls-1" data-name="Path 511" transform="translate(117.903 -308.97)"/>
                    </g>
                </g>
                <g id="Group_406" data-name="Group 406" transform="translate(12.907 4.348)">
                    <g id="Group_405" data-name="Group 405">
                        <path id="Path_512" d="M-135.971 313.4a9.015 9.015 0 0 1-3.915-1.36.387.387 0 0 1-.191-.245.52.52 0 0 1 .068-.4c.731-1.175 3.393-4.863 6.967-2.99l-.272.519c-2.971-1.558-5.241 1.277-6.137 2.683 1.941 1.035 3.921 1.874 5.195.457l.436.392a2.765 2.765 0 0 1-2.151.944z" class="cls-1" data-name="Path 512" transform="translate(140.092 -307.886)"/>
                    </g>
                </g>
                <g id="Group_408" data-name="Group 408" transform="translate(14.246 .113)">
                    <g id="Group_407" data-name="Group 407">
                        <path id="Path_513" d="M-132.694 296.361a6.9 6.9 0 0 1-2.106-2.561.506.506 0 0 1 .089-.51 5.627 5.627 0 0 1 4.037-2.009 5.4 5.4 0 0 1 4.367 1.953l-.434.394a4.878 4.878 0 0 0-3.9-1.762 5.086 5.086 0 0 0-3.591 1.766 6.45 6.45 0 0 0 1.8 2.2z" class="cls-1" data-name="Path 513" transform="translate(134.837 -291.276)"/>
                    </g>
                </g>
                <g id="Group_410" data-name="Group 410" transform="translate(18.834 1.945)">
                    <g id="Group_409" data-name="Group 409">
                        <path id="Path_514" d="M-113.777 302.723a3.429 3.429 0 0 1-1.3-.248 3.221 3.221 0 0 1-1.728-1.644.492.492 0 0 1 .13-.557c.41-.363 4.12-3.469 7.767-.622l-.36.462c-3.158-2.465-6.407.076-6.968.555a2.679 2.679 0 0 0 1.38 1.263 3.593 3.593 0 0 0 2.831-.2l.235.537a4.973 4.973 0 0 1-1.987.454z" class="cls-1" data-name="Path 514" transform="translate(116.843 -298.461)"/>
                    </g>
                </g>
                <g id="Group_412" data-name="Group 412" transform="translate(4.413 3.391)">
                    <g id="Group_411" data-name="Group 411">
                        <path id="Path_515" d="M-166.93 310.641a9.22 9.22 0 0 1-6.214-2.861l-.1-.1a.493.493 0 0 1-.119-.563 10.017 10.017 0 0 1 2.309-2.987l.372.452a9.533 9.533 0 0 0-2.118 2.718l.057.053c3 2.781 6.031 3.414 9.018 1.882l.267.521a7.543 7.543 0 0 1-3.472.885zm-5.923-3.39z" class="cls-1" data-name="Path 515" transform="translate(173.41 -304.134)"/>
                    </g>
                </g>
                <g id="Group_414" data-name="Group 414" transform="translate(14.962 18.707)">
                    <g id="Group_413" data-name="Group 413">
                        <path id="Path_516" d="M-131.137 373.457a3.3 3.3 0 0 1-.892-.112l.159-.564c1.2.337 2.969-.338 3.822-.663.183-.07.3-.115.391-.143a15.463 15.463 0 0 0-2.519-7.414l.471-.347a15.657 15.657 0 0 1 2.621 7.935.423.423 0 0 1-.349.372c-.049.01-.239.082-.407.146a9.969 9.969 0 0 1-3.297.79z" class="cls-1" data-name="Path 516" transform="translate(132.029 -364.213)"/>
                    </g>
                </g>
                <g id="Group_416" data-name="Group 416" transform="translate(19.01 18.12)">
                    <g id="Group_415" data-name="Group 415">
                        <path id="Path_517" d="M-115.641 364.181c-.291 0-.476-.009-.511-.011l.032-.585c.044 0 4.388.213 6.152-1.676l.428.4c-1.586 1.699-4.838 1.872-6.101 1.872z" class="cls-1" data-name="Path 517" transform="translate(116.152 -361.909)"/>
                    </g>
                </g>
                <g id="Group_418" data-name="Group 418" transform="translate(24.557 13.379)">
                    <g id="Group_417" data-name="Group 417">
                        <path id="Path_518" d="M-93.806 348.553c-.493-.479-.6-2.812-.586-2.971v-.015a2.893 2.893 0 0 1 .828-1.2c.213-.223 2.1-1.743 3.355-.68a1.611 1.611 0 0 1 .235.243c.052.068-.057.21-.139.182a1.948 1.948 0 0 0-.807-.112 1.575 1.575 0 0 0-.882.406c-.085.075-.066.194.027.168a2.924 2.924 0 0 1 .84-.127 1.738 1.738 0 0 1 .878.242c.069.044-.009.193-.1.2a2.924 2.924 0 0 0-.822.171 3.018 3.018 0 0 0-1.195.993c-.082.1-.007.2.093.121a3.65 3.65 0 0 1 1.385-.757 2.732 2.732 0 0 1 .6-.069c.1 0 .059.162-.045.2-.176.063-.4.149-.645.252-1.051.446-2.735 3.029-3.015 2.757" class="cls-1" data-name="Path 518" transform="translate(94.393 -343.313)"/>
                    </g>
                </g>
                <g id="Group_420" data-name="Group 420" transform="translate(19.395 15.303)">
                    <g id="Group_419" data-name="Group 419">
                        <path id="Path_519" d="M-112.629 352.191a9.8 9.8 0 0 1-2.013-.217l.12-.573a6.93 6.93 0 0 0 5.007-.54l.329.485a6.423 6.423 0 0 1-3.443.845z" class="cls-1" data-name="Path 519" transform="translate(114.642 -350.861)"/>
                    </g>
                </g>
                <g id="Group_422" data-name="Group 422" transform="translate(7.625 14.774)">
                    <g id="Group_421" data-name="Group 421">
                        <path id="Path_520" d="M-156.745 357.949a6.092 6.092 0 0 1-4.068-1.294l.389-.437c1.927 1.715 5.271 1.033 5.8.908a7.761 7.761 0 0 0-1.467-7.95l.438-.389a8.194 8.194 0 0 1 1.463 8.752c-.045.067-.13.19-1.254.33a10.69 10.69 0 0 1-1.301.08z" class="cls-1" data-name="Path 520" transform="translate(160.813 -348.786)"/>
                    </g>
                </g>
                <g id="Group_424" data-name="Group 424" transform="translate(19.57 26.315)">
                    <g id="Group_423" data-name="Group 423">
                        <path id="Path_521" d="M-113.129 401.205l-.082-.58a6.26 6.26 0 0 0 4.25-2.753 7.442 7.442 0 0 0-4.992-3.239l.094-.578a7.812 7.812 0 0 1 5.5 3.7.312.312 0 0 1-.023.317l-.04.057a6.856 6.856 0 0 1-4.707 3.076zm4.265-3.471z" class="cls-1" data-name="Path 521" transform="translate(113.953 -394.055)"/>
                    </g>
                </g>
                <g id="Group_426" data-name="Group 426" transform="translate(13.65 8.821)">
                    <g id="Group_425" data-name="Group 425">
                        <path id="Path_522" d="M-134.351 336c-.655 0-2.346-1.377-2.825-2.221l.509-.289a5.821 5.821 0 0 0 2.28 1.918 6.777 6.777 0 0 0 2.032-2.724 8.8 8.8 0 0 0 .024-7.032l.544-.217a9.344 9.344 0 0 1-.108 7.649 6.384 6.384 0 0 1-2.352 2.9.338.338 0 0 1-.104.016zm0-.582z" class="cls-1" data-name="Path 522" transform="translate(137.176 -325.434)"/>
                    </g>
                </g>
                <g id="Group_428" data-name="Group 428" transform="translate(23.285 20.104)">
                    <g id="Group_427" data-name="Group 427">
                        <path id="Path_523" d="M-94.31 374.839l-.4-.43a9.626 9.626 0 0 0 1.68-3.752 8.1 8.1 0 0 0-6.088.5l-.268-.521c3-1.546 6.477-.859 6.859-.3.403.597-1.082 3.853-1.783 4.503z" class="cls-1" data-name="Path 523" transform="translate(99.384 -369.694)"/>
                    </g>
                </g>
                <g id="Group_430" data-name="Group 430" transform="translate(25.284 24.484)">
                    <g id="Group_429" data-name="Group 429">
                        <path id="Path_524" d="M-89.02 392.273l-.4-.43a6.2 6.2 0 0 0 1.47-3.679 2.847 2.847 0 0 0-1.354-.586 2.706 2.706 0 0 0-1.9.083l-.343-.475a3.321 3.321 0 0 1 2.368-.18 2.933 2.933 0 0 1 1.754.9 6.2 6.2 0 0 1-1.595 4.367zm1.069-4.133z" class="cls-1" data-name="Path 524" transform="translate(91.542 -386.872)"/>
                    </g>
                </g>
                <g id="Group_432" data-name="Group 432" transform="translate(29.677 12.209)">
                    <g id="Group_431" data-name="Group 431">
                        <path id="Path_525" d="M-73.731 343.012l-.579-.088a6.907 6.907 0 0 1 2.191-4.1.428.428 0 0 1 .525-.013 3.834 3.834 0 0 1 1.33 2.483l-.584.04a3.282 3.282 0 0 0-1-1.969 6.348 6.348 0 0 0-1.883 3.647z" class="cls-1" data-name="Path 525" transform="translate(74.31 -338.724)"/>
                    </g>
                </g>
                <g id="Group_434" data-name="Group 434" transform="translate(25.589 7.029)">
                    <g id="Group_433" data-name="Group 433">
                        <path id="Path_526" d="M-90.345 319.141s.031-.449.66-.654a1.2 1.2 0 0 1 .987.028 1.494 1.494 0 0 1-.735.544 2.16 2.16 0 0 1-.911.081" class="cls-1" data-name="Path 526" transform="translate(90.345 -318.403)"/>
                    </g>
                </g>
                <path id="Path_527" d="M-156.985 305.578l-.581.075a16.249 16.249 0 0 1-1.438 9.07 16.374 16.374 0 0 1-21.767 7.776 16.227 16.227 0 0 1-8.4-9.259 16.2 16.2 0 0 1 .615-12.479 16.374 16.374 0 0 1 21.767-7.776 15.555 15.555 0 0 1 7.268 6.735c.035.065.07.13.1.2s.068.126.1.19a.518.518 0 0 1 .6-.014.449.449 0 0 1 .074.075.467.467 0 0 1 .111.232.461.461 0 0 1 .011.093.419.419 0 0 1-.035.155.466.466 0 0 1-.505.278.51.51 0 0 1-.344-.231.521.521 0 0 1-.074-.192l-.173-.057-.036-.012a11.455 11.455 0 0 0-6.4-.062 15.328 15.328 0 0 0-4.346 2.6l.38.446a15.043 15.043 0 0 1 4.14-2.491 10.826 10.826 0 0 1 6.147.092c.01.016.017.034.028.05a.973.973 0 0 0 .561.388.993.993 0 0 0 .691-.077 1.008 1.008 0 0 0 .475-.515 1 1 0 0 0 .023-.7.992.992 0 0 0-.437-.539.971.971 0 0 0-.551-.13 16.119 16.119 0 0 0-7.566-7.046 16.961 16.961 0 0 0-22.546 8.054 16.78 16.78 0 0 0-.637 12.927 16.808 16.808 0 0 0 8.7 9.591 16.845 16.845 0 0 0 7.214 1.623 16.957 16.957 0 0 0 15.332-9.678 16.836 16.836 0 0 0 1.499-9.392z" class="cls-1" data-name="Path 527" transform="translate(190.721 -290.831)"/>
                <g id="Group_436" data-name="Group 436" transform="translate(25.727 15.83)">
                    <g id="Group_435" data-name="Group 435">
                        <path id="Path_528" d="M-89.237 357.673l-.565-.156a8.369 8.369 0 0 1 3.764-4.563.435.435 0 0 1 .516.164c.026.039.061.083.1.135a3.528 3.528 0 0 1 .8 1.911l-.582.065a2.955 2.955 0 0 0-.678-1.617l-.05-.065a8.087 8.087 0 0 0-3.305 4.126z" class="cls-1" data-name="Path 528" transform="translate(89.802 -352.926)"/>
                    </g>
                </g>
                <g id="Group_438" data-name="Group 438" transform="translate(21.349 11.406)">
                    <g id="Group_437" data-name="Group 437">
                        <path id="Path_529" d="M-104.884 340.347c-2.488-3.132-2.074-4.71-2.055-4.775l.564.156c0 .014-.314 1.4 1.95 4.255z" class="cls-1" data-name="Path 529" transform="translate(106.976 -335.572)"/>
                    </g>
                </g>
                <g id="Group_440" data-name="Group 440" transform="translate(25.209 18.104)">
                    <g id="Group_439" data-name="Group 439">
                        <path id="Rectangle_33" d="M0 0h.586v1.476H0z" class="cls-1" data-name="Rectangle 33" transform="rotate(-47.403 .49 .215)"/>
                    </g>
                </g>
            </g>
        </g>
    </g>
</svg>
