<svg xmlns="http://www.w3.org/2000/svg" width="11.77" height="9.563" viewBox="0 0 11.77 9.563">
    <defs>
        <style>
            .icon-svg{fill:#dcba7d}
        </style>
    </defs>
    <path id="Twitter" d="M11.77 1.132a4.844 4.844 0 0 1-1.387.38A2.422 2.422 0 0 0 11.444.177 4.826 4.826 0 0 1 9.91.762a2.416 2.416 0 0 0-4.177 1.652 2.441 2.441 0 0 0 .063.551A6.854 6.854 0 0 1 .82.442a2.417 2.417 0 0 0 .747 3.223 2.4 2.4 0 0 1-1.093-.3v.031A2.415 2.415 0 0 0 2.41 5.761a2.411 2.411 0 0 1-.636.085A2.375 2.375 0 0 1 1.32 5.8a2.418 2.418 0 0 0 2.256 1.679 4.851 4.851 0 0 1-3 1.033A4.867 4.867 0 0 1 0 8.478a6.833 6.833 0 0 0 3.7 1.085 6.823 6.823 0 0 0 6.87-6.869c0-.105 0-.208-.007-.312a4.908 4.908 0 0 0 1.2-1.249z" class="icon-svg"/>
</svg>
