<?xml version="1.0" encoding="utf-8"?>
<!-- Generator: Adobe Illustrator 23.0.0, SVG Export Plug-In . SVG Version: 6.00 Build 0)  -->
<svg version="1.1" id="Layer_1" xmlns="http://www.w3.org/2000/svg" xmlns:xlink="http://www.w3.org/1999/xlink" x="0px" y="0px"
	 viewBox="0 0 1920 576" style="enable-background:new 0 0 1920 576;" xml:space="preserve">
<style type="text/css">
	.st0{opacity:0.2;fill:#FC7A00;enable-background:new    ;}
	.st1{fill:#FFFFFF;stroke:#FC7A00;stroke-width:6;stroke-linejoin:round;}
	.st2{fill:#3B3B3B;}
	.st3{enable-background:new    ;}
	.st4{fill:#FFFFFF;}
</style>
<title>Maps malaysia</title>
<image style="overflow:visible;enable-background:new    ;" width="3000" height="900" xlink:href="A9E5A79D696D2DBC.png"  transform="matrix(0.64 0 0 0.64 4 0)">
</image>
<g>
	<circle class="st0" cx="814" cy="288" r="55.7"/>
	<circle class="st0" cx="814" cy="288" r="78.3"/>
	<circle class="st0" cx="814" cy="288" r="87"/>
</g>
<circle id="marker-guangdong" class="st1" cx="814" cy="288" r="12.1"/>
<g id="guangdong">
	<rect x="663" y="392.5" class="st2" width="315" height="43.9"/>
	<g class="st3">
		<path class="st4" d="M691.9,413h7.9v9.8c-2.1,0.7-4.5,1.1-7.1,1.1c-2.8,0-5-0.8-6.5-2.4s-2.3-4-2.3-7c0-2.9,0.8-5.2,2.5-6.9
			s4-2.5,7.1-2.5c1.1,0,2.2,0.1,3.3,0.3c1,0.2,1.9,0.5,2.7,0.8l-1.6,3.9c-1.3-0.6-2.8-1-4.3-1c-1.4,0-2.6,0.5-3.3,1.4
			c-0.8,0.9-1.2,2.3-1.2,4c0,1.7,0.4,3,1.1,3.9s1.7,1.3,3.1,1.3c0.7,0,1.4-0.1,2-0.2v-2.9h-3.3V413z"/>
		<path class="st4" d="M719,405.4v11c0,2.4-0.7,4.2-2,5.5s-3.3,2-5.8,2c-2.5,0-4.4-0.6-5.7-1.9c-1.3-1.3-2-3.1-2-5.5v-11.1h5v10.7
			c0,1.3,0.2,2.2,0.7,2.8c0.5,0.6,1.2,0.9,2.1,0.9c1,0,1.7-0.3,2.2-0.9s0.7-1.5,0.7-2.8v-10.7H719z"/>
		<path class="st4" d="M734,423.7l-0.9-3.4h-5.9l-0.9,3.4h-5.4l6-18.3h6.6l6,18.3H734z M732.1,416.2l-0.8-3
			c-0.2-0.7-0.4-1.5-0.7-2.6s-0.4-1.8-0.5-2.3c-0.1,0.4-0.2,1.1-0.4,2.1c-0.2,1-0.7,2.9-1.5,5.8H732.1z"/>
		<path class="st4" d="M758.7,423.7h-6.5l-6.7-12.9h-0.1c0.2,2,0.2,3.6,0.2,4.6v8.2h-4.4v-18.2h6.4l6.6,12.7h0.1
			c-0.1-1.8-0.2-3.3-0.2-4.4v-8.2h4.4V423.7z"/>
		<path class="st4" d="M770,413h7.9v9.8c-2.1,0.7-4.5,1.1-7.1,1.1c-2.8,0-5-0.8-6.5-2.4s-2.3-4-2.3-7c0-2.9,0.8-5.2,2.5-6.9
			s4-2.5,7.1-2.5c1.1,0,2.2,0.1,3.3,0.3c1,0.2,1.9,0.5,2.7,0.8l-1.6,3.9c-1.3-0.6-2.8-1-4.3-1c-1.4,0-2.6,0.5-3.3,1.4
			c-0.8,0.9-1.2,2.3-1.2,4c0,1.7,0.4,3,1.1,3.9s1.7,1.3,3.1,1.3c0.7,0,1.4-0.1,2-0.2v-2.9H770V413z"/>
		<path class="st4" d="M797.1,414.2c0,3-0.8,5.4-2.5,7s-4,2.5-7.1,2.5h-5.9v-18.2h6.3c2.9,0,5.2,0.7,6.8,2.2
			C796.3,409.2,797.1,411.3,797.1,414.2z M792,414.3c0-1.7-0.3-2.9-1-3.7c-0.7-0.8-1.7-1.2-3-1.2h-1.4v10.2h1.1
			c1.5,0,2.6-0.4,3.3-1.3C791.6,417.5,792,416.1,792,414.3z"/>
		<path class="st4" d="M817.4,414.5c0,3.1-0.8,5.4-2.3,7s-3.7,2.4-6.6,2.4c-2.9,0-5.1-0.8-6.6-2.4s-2.3-3.9-2.3-7c0-3,0.8-5.4,2.3-7
			c1.5-1.6,3.7-2.4,6.6-2.4c2.9,0,5.1,0.8,6.6,2.4C816.7,409.1,817.4,411.4,817.4,414.5z M804.9,414.5c0,3.5,1.2,5.3,3.7,5.3
			c1.2,0,2.2-0.4,2.8-1.3c0.6-0.9,0.9-2.2,0.9-4c0-1.8-0.3-3.2-0.9-4c-0.6-0.9-1.5-1.3-2.7-1.3C806.1,409.2,804.9,411,804.9,414.5z"
			/>
		<path class="st4" d="M838.1,423.7h-6.5l-6.7-12.9h-0.1c0.2,2,0.2,3.6,0.2,4.6v8.2h-4.4v-18.2h6.4l6.6,12.7h0.1
			c-0.1-1.8-0.2-3.3-0.2-4.4v-8.2h4.4V423.7z"/>
		<path class="st4" d="M849.4,413h7.9v9.8c-2.1,0.7-4.5,1.1-7.1,1.1c-2.8,0-5-0.8-6.5-2.4s-2.3-4-2.3-7c0-2.9,0.8-5.2,2.5-6.9
			s4-2.5,7.1-2.5c1.1,0,2.2,0.1,3.3,0.3c1,0.2,1.9,0.5,2.7,0.8l-1.6,3.9c-1.3-0.6-2.8-1-4.3-1c-1.4,0-2.6,0.5-3.3,1.4
			c-0.8,0.9-1.2,2.3-1.2,4c0,1.7,0.4,3,1.1,3.9s1.7,1.3,3.1,1.3c0.7,0,1.4-0.1,2-0.2v-2.9h-3.3V413z"/>
		<path class="st4" d="M865.2,419.9l0.2,0.3c-0.8,3.2-1.5,5.5-2.2,7h-3.5c0.2-1.1,0.5-2.4,0.7-3.9s0.4-2.6,0.5-3.4H865.2z"/>
		<path class="st4" d="M883.6,409.2c-1.2,0-2.1,0.5-2.7,1.4s-1,2.3-1,4c0,3.5,1.3,5.3,4,5.3c0.8,0,1.6-0.1,2.3-0.3
			c0.8-0.2,1.5-0.5,2.3-0.8v4.2c-1.5,0.7-3.2,1-5.2,1c-2.8,0-4.9-0.8-6.3-2.4c-1.5-1.6-2.2-3.9-2.2-6.9c0-1.9,0.4-3.5,1.1-5
			c0.7-1.4,1.7-2.5,3.1-3.3c1.3-0.8,2.9-1.2,4.7-1.2c2,0,3.9,0.4,5.7,1.3l-1.5,3.9c-0.7-0.3-1.3-0.6-2-0.8
			C885.1,409.3,884.4,409.2,883.6,409.2z"/>
		<path class="st4" d="M907.7,423.7h-5v-7.4H897v7.4h-5v-18.2h5v6.8h5.7v-6.8h5V423.7z"/>
		<path class="st4" d="M911.7,423.7v-18.2h5v18.2H911.7z"/>
		<path class="st4" d="M937.9,423.7h-6.5l-6.7-12.9h-0.1c0.2,2,0.2,3.6,0.2,4.6v8.2h-4.4v-18.2h6.4l6.6,12.7h0.1
			c-0.1-1.8-0.2-3.3-0.2-4.4v-8.2h4.4V423.7z"/>
		<path class="st4" d="M953.1,423.7l-0.9-3.4h-5.9l-0.9,3.4h-5.4l6-18.3h6.6l6,18.3H953.1z M951.2,416.2l-0.8-3
			c-0.2-0.7-0.4-1.5-0.7-2.6s-0.4-1.8-0.5-2.3c-0.1,0.4-0.2,1.1-0.4,2.1c-0.2,1-0.7,2.9-1.5,5.8H951.2z"/>
	</g>
</g>
</svg>
